G04 #@! TF.GenerationSoftware,KiCad,Pcbnew,(5.1.10-1-10_14)*
G04 #@! TF.CreationDate,2021-11-15T16:46:54-05:00*
G04 #@! TF.ProjectId,VGA2SCART,56474132-5343-4415-9254-2e6b69636164,1*
G04 #@! TF.SameCoordinates,Original*
G04 #@! TF.FileFunction,Copper,L1,Top*
G04 #@! TF.FilePolarity,Positive*
%FSLAX46Y46*%
G04 Gerber Fmt 4.6, Leading zero omitted, Abs format (unit mm)*
G04 Created by KiCad (PCBNEW (5.1.10-1-10_14)) date 2021-11-15 16:46:54*
%MOMM*%
%LPD*%
G01*
G04 APERTURE LIST*
G04 #@! TA.AperFunction,ComponentPad*
%ADD10C,1.700000*%
G04 #@! TD*
G04 #@! TA.AperFunction,ComponentPad*
%ADD11C,4.066000*%
G04 #@! TD*
G04 #@! TA.AperFunction,ComponentPad*
%ADD12R,1.700000X1.700000*%
G04 #@! TD*
G04 #@! TA.AperFunction,SMDPad,CuDef*
%ADD13R,2.000000X3.000000*%
G04 #@! TD*
G04 #@! TA.AperFunction,ViaPad*
%ADD14C,0.700000*%
G04 #@! TD*
G04 #@! TA.AperFunction,Conductor*
%ADD15C,0.250000*%
G04 #@! TD*
G04 #@! TA.AperFunction,Conductor*
%ADD16C,0.160000*%
G04 #@! TD*
G04 #@! TA.AperFunction,Conductor*
%ADD17C,0.152400*%
G04 #@! TD*
G04 APERTURE END LIST*
D10*
X150745000Y-93350000D03*
X148455000Y-93350000D03*
X146165000Y-93350000D03*
X143875000Y-93350000D03*
X141585000Y-93350000D03*
X149600000Y-95330000D03*
X147310000Y-95330000D03*
X145020000Y-95330000D03*
X142730000Y-95330000D03*
X140440000Y-95330000D03*
X150745000Y-97310000D03*
X148455000Y-97310000D03*
X146165000Y-97310000D03*
X143875000Y-97310000D03*
D11*
X158660000Y-95330000D03*
X133670000Y-95330000D03*
D12*
X141585000Y-97310000D03*
D13*
X157761146Y-103033895D03*
X153961146Y-103033895D03*
X150161146Y-103033895D03*
X146361146Y-103033895D03*
X142561146Y-103033895D03*
X138761146Y-103033895D03*
X134961146Y-103033895D03*
X131161146Y-103033895D03*
X127361146Y-103033895D03*
X123561146Y-103033895D03*
D14*
X138210000Y-92220000D03*
X138610000Y-90900030D03*
X137610000Y-96520000D03*
X146640000Y-99060000D03*
X155860000Y-92210000D03*
X154560000Y-92210000D03*
X152570000Y-100500000D03*
X148980000Y-100330000D03*
X137020000Y-100310000D03*
X145930000Y-100310000D03*
X132919998Y-100310000D03*
D15*
X137770000Y-92660000D02*
X138210000Y-92220000D01*
X132210000Y-92660000D02*
X137770000Y-92660000D01*
X123560000Y-102540000D02*
X127500000Y-98600000D01*
X130490000Y-94380000D02*
X132210000Y-92660000D01*
X130490000Y-96920000D02*
X130490000Y-94380000D01*
X128810000Y-98600000D02*
X130490000Y-96920000D01*
X127500000Y-98600000D02*
X128810000Y-98600000D01*
X146165000Y-93350000D02*
X143715030Y-90900030D01*
X143715030Y-90900030D02*
X138610000Y-90900030D01*
X137610000Y-94510000D02*
X137610000Y-96520000D01*
X140320000Y-91800000D02*
X137610000Y-94510000D01*
X142370000Y-91800000D02*
X140320000Y-91800000D01*
X143900000Y-93330000D02*
X142370000Y-91800000D01*
X143905000Y-93330000D02*
X143900000Y-93330000D01*
X152500000Y-98890000D02*
X146810000Y-98890000D01*
X153960000Y-100350000D02*
X152500000Y-98890000D01*
X146810000Y-98890000D02*
X146640000Y-99060000D01*
X153960000Y-103030000D02*
X153960000Y-100350000D01*
X157760000Y-101020000D02*
X157760000Y-103030000D01*
X153880000Y-96100000D02*
X153880000Y-97140000D01*
X153880000Y-97140000D02*
X157760000Y-101020000D01*
X155860000Y-94120000D02*
X153880000Y-96100000D01*
X155860000Y-92210000D02*
X155860000Y-94120000D01*
X154560000Y-93720000D02*
X154560000Y-92210000D01*
X153780000Y-94500000D02*
X154560000Y-93720000D01*
X151945000Y-94500000D02*
X153780000Y-94500000D01*
X150775000Y-93330000D02*
X151945000Y-94500000D01*
X131170000Y-103020000D02*
X131160000Y-103030000D01*
X131170000Y-99810000D02*
X131170000Y-103020000D01*
X139540000Y-97290000D02*
X137650000Y-99180000D01*
X131800000Y-99180000D02*
X131170000Y-99810000D01*
X137650000Y-99180000D02*
X131800000Y-99180000D01*
X141615000Y-97290000D02*
X139540000Y-97290000D01*
X138760000Y-100740000D02*
X138760000Y-103030000D01*
X142540000Y-99690000D02*
X139810000Y-99690000D01*
X139810000Y-99690000D02*
X138760000Y-100740000D01*
X143905000Y-98325000D02*
X142540000Y-99690000D01*
X143905000Y-97290000D02*
X143905000Y-98325000D01*
X144390000Y-100540000D02*
X146360000Y-102510000D01*
X146360000Y-102510000D02*
X146360000Y-103030000D01*
X144390000Y-99720000D02*
X144390000Y-100540000D01*
X146195000Y-97915000D02*
X144390000Y-99720000D01*
X146195000Y-97290000D02*
X146195000Y-97915000D01*
X148960000Y-100310000D02*
X148980000Y-100330000D01*
X145930000Y-100310000D02*
X148960000Y-100310000D01*
X137020000Y-100310000D02*
X132919998Y-100310000D01*
D16*
X138042673Y-90727933D02*
X138020000Y-90841920D01*
X138020000Y-90958140D01*
X138042673Y-91072127D01*
X138087149Y-91179500D01*
X138151717Y-91276133D01*
X138233897Y-91358313D01*
X138330530Y-91422881D01*
X138437903Y-91467357D01*
X138551890Y-91490030D01*
X138668110Y-91490030D01*
X138782097Y-91467357D01*
X138889470Y-91422881D01*
X138986103Y-91358313D01*
X139068283Y-91276133D01*
X139075702Y-91265030D01*
X143563843Y-91265030D01*
X145179562Y-92880750D01*
X145116888Y-93032059D01*
X145075000Y-93242644D01*
X145075000Y-93457356D01*
X145116888Y-93667941D01*
X145199055Y-93866309D01*
X145318342Y-94044834D01*
X145470166Y-94196658D01*
X145648691Y-94315945D01*
X145847059Y-94398112D01*
X146057644Y-94440000D01*
X146272356Y-94440000D01*
X146482941Y-94398112D01*
X146681309Y-94315945D01*
X146859834Y-94196658D01*
X147011658Y-94044834D01*
X147130945Y-93866309D01*
X147213112Y-93667941D01*
X147255000Y-93457356D01*
X147255000Y-93242644D01*
X147365000Y-93242644D01*
X147365000Y-93457356D01*
X147406888Y-93667941D01*
X147489055Y-93866309D01*
X147608342Y-94044834D01*
X147760166Y-94196658D01*
X147938691Y-94315945D01*
X148137059Y-94398112D01*
X148347644Y-94440000D01*
X148562356Y-94440000D01*
X148772941Y-94398112D01*
X148971309Y-94315945D01*
X149149834Y-94196658D01*
X149301658Y-94044834D01*
X149420945Y-93866309D01*
X149503112Y-93667941D01*
X149545000Y-93457356D01*
X149545000Y-93242644D01*
X149655000Y-93242644D01*
X149655000Y-93457356D01*
X149696888Y-93667941D01*
X149779055Y-93866309D01*
X149898342Y-94044834D01*
X150050166Y-94196658D01*
X150228691Y-94315945D01*
X150427059Y-94398112D01*
X150637644Y-94440000D01*
X150852356Y-94440000D01*
X151062941Y-94398112D01*
X151249605Y-94320793D01*
X151674225Y-94745413D01*
X151685657Y-94759343D01*
X151741236Y-94804955D01*
X151804645Y-94838848D01*
X151873448Y-94859719D01*
X151927069Y-94865000D01*
X151927071Y-94865000D01*
X151945000Y-94866766D01*
X151962929Y-94865000D01*
X153762071Y-94865000D01*
X153780000Y-94866766D01*
X153797929Y-94865000D01*
X153797931Y-94865000D01*
X153851552Y-94859719D01*
X153920355Y-94838848D01*
X153983764Y-94804955D01*
X154039343Y-94759343D01*
X154050779Y-94745408D01*
X154805418Y-93990770D01*
X154819342Y-93979343D01*
X154844138Y-93949130D01*
X154855399Y-93935408D01*
X154864955Y-93923764D01*
X154898848Y-93860355D01*
X154919719Y-93791552D01*
X154925000Y-93737931D01*
X154925000Y-93737929D01*
X154926766Y-93720000D01*
X154925000Y-93702071D01*
X154925000Y-92675702D01*
X154936103Y-92668283D01*
X155018283Y-92586103D01*
X155082851Y-92489470D01*
X155127327Y-92382097D01*
X155150000Y-92268110D01*
X155150000Y-92151890D01*
X155127327Y-92037903D01*
X155082851Y-91930530D01*
X155018283Y-91833897D01*
X154936103Y-91751717D01*
X154839470Y-91687149D01*
X154732097Y-91642673D01*
X154618110Y-91620000D01*
X154501890Y-91620000D01*
X154387903Y-91642673D01*
X154280530Y-91687149D01*
X154183897Y-91751717D01*
X154101717Y-91833897D01*
X154037149Y-91930530D01*
X153992673Y-92037903D01*
X153970000Y-92151890D01*
X153970000Y-92268110D01*
X153992673Y-92382097D01*
X154037149Y-92489470D01*
X154101717Y-92586103D01*
X154183897Y-92668283D01*
X154195001Y-92675702D01*
X154195000Y-93568812D01*
X153628813Y-94135000D01*
X152096188Y-94135000D01*
X151745082Y-93783895D01*
X151793112Y-93667941D01*
X151835000Y-93457356D01*
X151835000Y-93242644D01*
X151793112Y-93032059D01*
X151710945Y-92833691D01*
X151591658Y-92655166D01*
X151439834Y-92503342D01*
X151261309Y-92384055D01*
X151062941Y-92301888D01*
X150852356Y-92260000D01*
X150637644Y-92260000D01*
X150427059Y-92301888D01*
X150228691Y-92384055D01*
X150050166Y-92503342D01*
X149898342Y-92655166D01*
X149779055Y-92833691D01*
X149696888Y-93032059D01*
X149655000Y-93242644D01*
X149545000Y-93242644D01*
X149503112Y-93032059D01*
X149420945Y-92833691D01*
X149301658Y-92655166D01*
X149149834Y-92503342D01*
X148971309Y-92384055D01*
X148772941Y-92301888D01*
X148562356Y-92260000D01*
X148347644Y-92260000D01*
X148137059Y-92301888D01*
X147938691Y-92384055D01*
X147760166Y-92503342D01*
X147608342Y-92655166D01*
X147489055Y-92833691D01*
X147406888Y-93032059D01*
X147365000Y-93242644D01*
X147255000Y-93242644D01*
X147213112Y-93032059D01*
X147130945Y-92833691D01*
X147011658Y-92655166D01*
X146859834Y-92503342D01*
X146681309Y-92384055D01*
X146482941Y-92301888D01*
X146272356Y-92260000D01*
X146057644Y-92260000D01*
X145847059Y-92301888D01*
X145695750Y-92364562D01*
X143985809Y-90654622D01*
X143974373Y-90640687D01*
X143961351Y-90630000D01*
X161286909Y-90630000D01*
X161291612Y-97512636D01*
X161224609Y-97533377D01*
X161200408Y-97543550D01*
X161176006Y-97553409D01*
X161172441Y-97555305D01*
X161172433Y-97555309D01*
X161172426Y-97555314D01*
X160950895Y-97675095D01*
X160929104Y-97689793D01*
X160907112Y-97704184D01*
X160903977Y-97706742D01*
X160903973Y-97706745D01*
X160903969Y-97706749D01*
X160709924Y-97867276D01*
X160691417Y-97885913D01*
X160672623Y-97904317D01*
X160670042Y-97907437D01*
X160510868Y-98102604D01*
X160496335Y-98124477D01*
X160481473Y-98146183D01*
X160479547Y-98149745D01*
X160361312Y-98372112D01*
X160351290Y-98396428D01*
X160340941Y-98420572D01*
X160339744Y-98424440D01*
X160266953Y-98665537D01*
X160261847Y-98691326D01*
X160256383Y-98717030D01*
X160255960Y-98721057D01*
X160231384Y-98971701D01*
X160230000Y-98985756D01*
X160230000Y-99324245D01*
X160230359Y-99327887D01*
X160231680Y-99380300D01*
X160233619Y-99395988D01*
X160234195Y-99411791D01*
X160234765Y-99415799D01*
X160270776Y-99657084D01*
X160277166Y-99682546D01*
X160283215Y-99708158D01*
X160284553Y-99711980D01*
X160366744Y-99941675D01*
X160377970Y-99965437D01*
X160388867Y-99989360D01*
X160390921Y-99992849D01*
X160516161Y-100202205D01*
X160531797Y-100223345D01*
X160547125Y-100244685D01*
X160549818Y-100247709D01*
X160713337Y-100428752D01*
X160732757Y-100446430D01*
X160751962Y-100464409D01*
X160755191Y-100466851D01*
X160950761Y-100612685D01*
X160973278Y-100626274D01*
X160995576Y-100640160D01*
X160999218Y-100641930D01*
X161219390Y-100747001D01*
X161244101Y-100755952D01*
X161268689Y-100765248D01*
X161272602Y-100766275D01*
X161272605Y-100766276D01*
X161272608Y-100766276D01*
X161290639Y-100770876D01*
X161290050Y-104240000D01*
X159002307Y-104240000D01*
X159002307Y-101533895D01*
X158997673Y-101486847D01*
X158983950Y-101441607D01*
X158961664Y-101399913D01*
X158931673Y-101363368D01*
X158895128Y-101333377D01*
X158853434Y-101311091D01*
X158808194Y-101297368D01*
X158761146Y-101292734D01*
X158125000Y-101292734D01*
X158125000Y-101037929D01*
X158126766Y-101020000D01*
X158124731Y-100999342D01*
X158119719Y-100948448D01*
X158098848Y-100879645D01*
X158064955Y-100816236D01*
X158051091Y-100799343D01*
X158030773Y-100774585D01*
X158030770Y-100774582D01*
X158019342Y-100760657D01*
X158005418Y-100749230D01*
X154245000Y-96988813D01*
X154245000Y-96982149D01*
X157071490Y-96982149D01*
X157300999Y-97277063D01*
X157706966Y-97504779D01*
X158149556Y-97648919D01*
X158611763Y-97703944D01*
X159075823Y-97667740D01*
X159523903Y-97541698D01*
X159938785Y-97330662D01*
X160019001Y-97277063D01*
X160248510Y-96982149D01*
X158660000Y-95393640D01*
X157071490Y-96982149D01*
X154245000Y-96982149D01*
X154245000Y-96251187D01*
X155214424Y-95281763D01*
X156286056Y-95281763D01*
X156322260Y-95745823D01*
X156448302Y-96193903D01*
X156659338Y-96608785D01*
X156712937Y-96689001D01*
X157007851Y-96918510D01*
X158596360Y-95330000D01*
X158723640Y-95330000D01*
X160312149Y-96918510D01*
X160607063Y-96689001D01*
X160834779Y-96283034D01*
X160978919Y-95840444D01*
X161033944Y-95378237D01*
X160997740Y-94914177D01*
X160871698Y-94466097D01*
X160660662Y-94051215D01*
X160607063Y-93970999D01*
X160312149Y-93741490D01*
X158723640Y-95330000D01*
X158596360Y-95330000D01*
X157007851Y-93741490D01*
X156712937Y-93970999D01*
X156485221Y-94376966D01*
X156341081Y-94819556D01*
X156286056Y-95281763D01*
X155214424Y-95281763D01*
X156105413Y-94390775D01*
X156119343Y-94379343D01*
X156164955Y-94323764D01*
X156198848Y-94260355D01*
X156219719Y-94191552D01*
X156225000Y-94137931D01*
X156225000Y-94137929D01*
X156226766Y-94120000D01*
X156225000Y-94102071D01*
X156225000Y-93677851D01*
X157071490Y-93677851D01*
X158660000Y-95266360D01*
X160248510Y-93677851D01*
X160019001Y-93382937D01*
X159613034Y-93155221D01*
X159170444Y-93011081D01*
X158708237Y-92956056D01*
X158244177Y-92992260D01*
X157796097Y-93118302D01*
X157381215Y-93329338D01*
X157300999Y-93382937D01*
X157071490Y-93677851D01*
X156225000Y-93677851D01*
X156225000Y-92675702D01*
X156236103Y-92668283D01*
X156318283Y-92586103D01*
X156382851Y-92489470D01*
X156427327Y-92382097D01*
X156450000Y-92268110D01*
X156450000Y-92151890D01*
X156427327Y-92037903D01*
X156382851Y-91930530D01*
X156318283Y-91833897D01*
X156236103Y-91751717D01*
X156139470Y-91687149D01*
X156032097Y-91642673D01*
X155918110Y-91620000D01*
X155801890Y-91620000D01*
X155687903Y-91642673D01*
X155580530Y-91687149D01*
X155483897Y-91751717D01*
X155401717Y-91833897D01*
X155337149Y-91930530D01*
X155292673Y-92037903D01*
X155270000Y-92151890D01*
X155270000Y-92268110D01*
X155292673Y-92382097D01*
X155337149Y-92489470D01*
X155401717Y-92586103D01*
X155483897Y-92668283D01*
X155495000Y-92675702D01*
X155495001Y-93968811D01*
X153634588Y-95829225D01*
X153620657Y-95840658D01*
X153575045Y-95896237D01*
X153541152Y-95959646D01*
X153520281Y-96028449D01*
X153515104Y-96081014D01*
X153513234Y-96100000D01*
X153515000Y-96117929D01*
X153515001Y-97122062D01*
X153513234Y-97140000D01*
X153519405Y-97202644D01*
X153520282Y-97211552D01*
X153541153Y-97280355D01*
X153575046Y-97343764D01*
X153620658Y-97399343D01*
X153634588Y-97410775D01*
X157395000Y-101171188D01*
X157395000Y-101292734D01*
X156761146Y-101292734D01*
X156714098Y-101297368D01*
X156668858Y-101311091D01*
X156627164Y-101333377D01*
X156590619Y-101363368D01*
X156560628Y-101399913D01*
X156538342Y-101441607D01*
X156524619Y-101486847D01*
X156519985Y-101533895D01*
X156519985Y-104240000D01*
X155202307Y-104240000D01*
X155202307Y-101533895D01*
X155197673Y-101486847D01*
X155183950Y-101441607D01*
X155161664Y-101399913D01*
X155131673Y-101363368D01*
X155095128Y-101333377D01*
X155053434Y-101311091D01*
X155008194Y-101297368D01*
X154961146Y-101292734D01*
X154325000Y-101292734D01*
X154325000Y-100367929D01*
X154326766Y-100350000D01*
X154324624Y-100328253D01*
X154319719Y-100278448D01*
X154298848Y-100209645D01*
X154264955Y-100146236D01*
X154219343Y-100090657D01*
X154205413Y-100079225D01*
X152770779Y-98644592D01*
X152759343Y-98630657D01*
X152703764Y-98585045D01*
X152640355Y-98551152D01*
X152571552Y-98530281D01*
X152517931Y-98525000D01*
X152517929Y-98525000D01*
X152500000Y-98523234D01*
X152482071Y-98525000D01*
X146890140Y-98525000D01*
X146812097Y-98492673D01*
X146698110Y-98470000D01*
X146581890Y-98470000D01*
X146467903Y-98492673D01*
X146360530Y-98537149D01*
X146263897Y-98601717D01*
X146181717Y-98683897D01*
X146117149Y-98780530D01*
X146072673Y-98887903D01*
X146050000Y-99001890D01*
X146050000Y-99118110D01*
X146072673Y-99232097D01*
X146117149Y-99339470D01*
X146181717Y-99436103D01*
X146263897Y-99518283D01*
X146360530Y-99582851D01*
X146467903Y-99627327D01*
X146581890Y-99650000D01*
X146698110Y-99650000D01*
X146812097Y-99627327D01*
X146919470Y-99582851D01*
X147016103Y-99518283D01*
X147098283Y-99436103D01*
X147162851Y-99339470D01*
X147197840Y-99255000D01*
X152348813Y-99255000D01*
X153595001Y-100501189D01*
X153595001Y-101292734D01*
X152961146Y-101292734D01*
X152914098Y-101297368D01*
X152868858Y-101311091D01*
X152827164Y-101333377D01*
X152790619Y-101363368D01*
X152760628Y-101399913D01*
X152738342Y-101441607D01*
X152724619Y-101486847D01*
X152719985Y-101533895D01*
X152719985Y-104240000D01*
X147602307Y-104240000D01*
X147602307Y-101533895D01*
X147597673Y-101486847D01*
X147583950Y-101441607D01*
X147561664Y-101399913D01*
X147531673Y-101363368D01*
X147495128Y-101333377D01*
X147453434Y-101311091D01*
X147408194Y-101297368D01*
X147361146Y-101292734D01*
X145658922Y-101292734D01*
X144755000Y-100388813D01*
X144755000Y-100251890D01*
X145340000Y-100251890D01*
X145340000Y-100368110D01*
X145362673Y-100482097D01*
X145407149Y-100589470D01*
X145471717Y-100686103D01*
X145553897Y-100768283D01*
X145650530Y-100832851D01*
X145757903Y-100877327D01*
X145871890Y-100900000D01*
X145988110Y-100900000D01*
X146102097Y-100877327D01*
X146209470Y-100832851D01*
X146306103Y-100768283D01*
X146388283Y-100686103D01*
X146395702Y-100675000D01*
X148500935Y-100675000D01*
X148521717Y-100706103D01*
X148603897Y-100788283D01*
X148700530Y-100852851D01*
X148807903Y-100897327D01*
X148921890Y-100920000D01*
X149038110Y-100920000D01*
X149152097Y-100897327D01*
X149259470Y-100852851D01*
X149356103Y-100788283D01*
X149438283Y-100706103D01*
X149502851Y-100609470D01*
X149547327Y-100502097D01*
X149570000Y-100388110D01*
X149570000Y-100271890D01*
X149547327Y-100157903D01*
X149502851Y-100050530D01*
X149438283Y-99953897D01*
X149356103Y-99871717D01*
X149259470Y-99807149D01*
X149152097Y-99762673D01*
X149038110Y-99740000D01*
X148921890Y-99740000D01*
X148807903Y-99762673D01*
X148700530Y-99807149D01*
X148603897Y-99871717D01*
X148530614Y-99945000D01*
X146395702Y-99945000D01*
X146388283Y-99933897D01*
X146306103Y-99851717D01*
X146209470Y-99787149D01*
X146102097Y-99742673D01*
X145988110Y-99720000D01*
X145871890Y-99720000D01*
X145757903Y-99742673D01*
X145650530Y-99787149D01*
X145553897Y-99851717D01*
X145471717Y-99933897D01*
X145407149Y-100030530D01*
X145362673Y-100137903D01*
X145340000Y-100251890D01*
X144755000Y-100251890D01*
X144755000Y-99871187D01*
X146226188Y-98400000D01*
X146272356Y-98400000D01*
X146482941Y-98358112D01*
X146681309Y-98275945D01*
X146859834Y-98156658D01*
X147011658Y-98004834D01*
X147130945Y-97826309D01*
X147213112Y-97627941D01*
X147255000Y-97417356D01*
X147255000Y-97202644D01*
X147365000Y-97202644D01*
X147365000Y-97417356D01*
X147406888Y-97627941D01*
X147489055Y-97826309D01*
X147608342Y-98004834D01*
X147760166Y-98156658D01*
X147938691Y-98275945D01*
X148137059Y-98358112D01*
X148347644Y-98400000D01*
X148562356Y-98400000D01*
X148772941Y-98358112D01*
X148971309Y-98275945D01*
X149149834Y-98156658D01*
X149185234Y-98121258D01*
X149997382Y-98121258D01*
X150084965Y-98295019D01*
X150289814Y-98404859D01*
X150512157Y-98472624D01*
X150743447Y-98495709D01*
X150974797Y-98473229D01*
X151197316Y-98406047D01*
X151402453Y-98296744D01*
X151405035Y-98295019D01*
X151492618Y-98121258D01*
X150745000Y-97373640D01*
X149997382Y-98121258D01*
X149185234Y-98121258D01*
X149301658Y-98004834D01*
X149420945Y-97826309D01*
X149503112Y-97627941D01*
X149545000Y-97417356D01*
X149545000Y-97308447D01*
X149559291Y-97308447D01*
X149581771Y-97539797D01*
X149648953Y-97762316D01*
X149758256Y-97967453D01*
X149759981Y-97970035D01*
X149933742Y-98057618D01*
X150681360Y-97310000D01*
X150808640Y-97310000D01*
X151556258Y-98057618D01*
X151730019Y-97970035D01*
X151839859Y-97765186D01*
X151907624Y-97542843D01*
X151930709Y-97311553D01*
X151908229Y-97080203D01*
X151841047Y-96857684D01*
X151731744Y-96652547D01*
X151730019Y-96649965D01*
X151556258Y-96562382D01*
X150808640Y-97310000D01*
X150681360Y-97310000D01*
X149933742Y-96562382D01*
X149759981Y-96649965D01*
X149650141Y-96854814D01*
X149582376Y-97077157D01*
X149559291Y-97308447D01*
X149545000Y-97308447D01*
X149545000Y-97202644D01*
X149503112Y-96992059D01*
X149420945Y-96793691D01*
X149301658Y-96615166D01*
X149149834Y-96463342D01*
X148971309Y-96344055D01*
X148772941Y-96261888D01*
X148562356Y-96220000D01*
X148347644Y-96220000D01*
X148137059Y-96261888D01*
X147938691Y-96344055D01*
X147760166Y-96463342D01*
X147608342Y-96615166D01*
X147489055Y-96793691D01*
X147406888Y-96992059D01*
X147365000Y-97202644D01*
X147255000Y-97202644D01*
X147213112Y-96992059D01*
X147130945Y-96793691D01*
X147011658Y-96615166D01*
X146859834Y-96463342D01*
X146681309Y-96344055D01*
X146482941Y-96261888D01*
X146272356Y-96220000D01*
X146057644Y-96220000D01*
X145847059Y-96261888D01*
X145648691Y-96344055D01*
X145470166Y-96463342D01*
X145318342Y-96615166D01*
X145199055Y-96793691D01*
X145116888Y-96992059D01*
X145075000Y-97202644D01*
X145075000Y-97417356D01*
X145116888Y-97627941D01*
X145199055Y-97826309D01*
X145318342Y-98004834D01*
X145453660Y-98140152D01*
X144144588Y-99449225D01*
X144130657Y-99460658D01*
X144085045Y-99516237D01*
X144051152Y-99579646D01*
X144030281Y-99648449D01*
X144026189Y-99690000D01*
X144023234Y-99720000D01*
X144025000Y-99737929D01*
X144025001Y-100522062D01*
X144023234Y-100540000D01*
X144028107Y-100589470D01*
X144030282Y-100611552D01*
X144051153Y-100680355D01*
X144085046Y-100743764D01*
X144130658Y-100799343D01*
X144144588Y-100810775D01*
X145119985Y-101786173D01*
X145119985Y-104240000D01*
X140002307Y-104240000D01*
X140002307Y-101533895D01*
X139997673Y-101486847D01*
X139983950Y-101441607D01*
X139961664Y-101399913D01*
X139931673Y-101363368D01*
X139895128Y-101333377D01*
X139853434Y-101311091D01*
X139808194Y-101297368D01*
X139761146Y-101292734D01*
X139125000Y-101292734D01*
X139125000Y-100891187D01*
X139961188Y-100055000D01*
X142522071Y-100055000D01*
X142540000Y-100056766D01*
X142557929Y-100055000D01*
X142557931Y-100055000D01*
X142611552Y-100049719D01*
X142680355Y-100028848D01*
X142743764Y-99994955D01*
X142799343Y-99949343D01*
X142810779Y-99935408D01*
X144150413Y-98595775D01*
X144164343Y-98584343D01*
X144209955Y-98528764D01*
X144229415Y-98492357D01*
X144243848Y-98465356D01*
X144256259Y-98424440D01*
X144264719Y-98396552D01*
X144270000Y-98342931D01*
X144270000Y-98342929D01*
X144271719Y-98325481D01*
X144391309Y-98275945D01*
X144569834Y-98156658D01*
X144721658Y-98004834D01*
X144840945Y-97826309D01*
X144923112Y-97627941D01*
X144965000Y-97417356D01*
X144965000Y-97202644D01*
X144923112Y-96992059D01*
X144840945Y-96793691D01*
X144721658Y-96615166D01*
X144569834Y-96463342D01*
X144391309Y-96344055D01*
X144192941Y-96261888D01*
X143982356Y-96220000D01*
X143767644Y-96220000D01*
X143557059Y-96261888D01*
X143358691Y-96344055D01*
X143180166Y-96463342D01*
X143028342Y-96615166D01*
X142909055Y-96793691D01*
X142826888Y-96992059D01*
X142785000Y-97202644D01*
X142785000Y-97417356D01*
X142826888Y-97627941D01*
X142909055Y-97826309D01*
X143028342Y-98004834D01*
X143180166Y-98156658D01*
X143358691Y-98275945D01*
X143414677Y-98299135D01*
X142388813Y-99325000D01*
X139827928Y-99325000D01*
X139809999Y-99323234D01*
X139792070Y-99325000D01*
X139792069Y-99325000D01*
X139738448Y-99330281D01*
X139669645Y-99351152D01*
X139615113Y-99380300D01*
X139606234Y-99385046D01*
X139589418Y-99398847D01*
X139550657Y-99430657D01*
X139539226Y-99444586D01*
X138514588Y-100469225D01*
X138500657Y-100480658D01*
X138455045Y-100536237D01*
X138421152Y-100599646D01*
X138400281Y-100668449D01*
X138395149Y-100720557D01*
X138393234Y-100740000D01*
X138395000Y-100757929D01*
X138395000Y-101292734D01*
X137761146Y-101292734D01*
X137714098Y-101297368D01*
X137668858Y-101311091D01*
X137627164Y-101333377D01*
X137590619Y-101363368D01*
X137560628Y-101399913D01*
X137538342Y-101441607D01*
X137524619Y-101486847D01*
X137519985Y-101533895D01*
X137519985Y-104240000D01*
X132402307Y-104240000D01*
X132402307Y-101533895D01*
X132397673Y-101486847D01*
X132383950Y-101441607D01*
X132361664Y-101399913D01*
X132331673Y-101363368D01*
X132295128Y-101333377D01*
X132253434Y-101311091D01*
X132208194Y-101297368D01*
X132161146Y-101292734D01*
X131535000Y-101292734D01*
X131535000Y-100251890D01*
X132329998Y-100251890D01*
X132329998Y-100368110D01*
X132352671Y-100482097D01*
X132397147Y-100589470D01*
X132461715Y-100686103D01*
X132543895Y-100768283D01*
X132640528Y-100832851D01*
X132747901Y-100877327D01*
X132861888Y-100900000D01*
X132978108Y-100900000D01*
X133092095Y-100877327D01*
X133199468Y-100832851D01*
X133296101Y-100768283D01*
X133378281Y-100686103D01*
X133385700Y-100675000D01*
X136554298Y-100675000D01*
X136561717Y-100686103D01*
X136643897Y-100768283D01*
X136740530Y-100832851D01*
X136847903Y-100877327D01*
X136961890Y-100900000D01*
X137078110Y-100900000D01*
X137192097Y-100877327D01*
X137299470Y-100832851D01*
X137396103Y-100768283D01*
X137478283Y-100686103D01*
X137542851Y-100589470D01*
X137587327Y-100482097D01*
X137610000Y-100368110D01*
X137610000Y-100251890D01*
X137587327Y-100137903D01*
X137542851Y-100030530D01*
X137478283Y-99933897D01*
X137396103Y-99851717D01*
X137299470Y-99787149D01*
X137192097Y-99742673D01*
X137078110Y-99720000D01*
X136961890Y-99720000D01*
X136847903Y-99742673D01*
X136740530Y-99787149D01*
X136643897Y-99851717D01*
X136561717Y-99933897D01*
X136554298Y-99945000D01*
X133385700Y-99945000D01*
X133378281Y-99933897D01*
X133296101Y-99851717D01*
X133199468Y-99787149D01*
X133092095Y-99742673D01*
X132978108Y-99720000D01*
X132861888Y-99720000D01*
X132747901Y-99742673D01*
X132640528Y-99787149D01*
X132543895Y-99851717D01*
X132461715Y-99933897D01*
X132397147Y-100030530D01*
X132352671Y-100137903D01*
X132329998Y-100251890D01*
X131535000Y-100251890D01*
X131535000Y-99961187D01*
X131951188Y-99545000D01*
X137632071Y-99545000D01*
X137650000Y-99546766D01*
X137667929Y-99545000D01*
X137667931Y-99545000D01*
X137721552Y-99539719D01*
X137790355Y-99518848D01*
X137853764Y-99484955D01*
X137909343Y-99439343D01*
X137920779Y-99425408D01*
X139691188Y-97655000D01*
X140493839Y-97655000D01*
X140493839Y-98160000D01*
X140498473Y-98207048D01*
X140512196Y-98252288D01*
X140534482Y-98293982D01*
X140564473Y-98330527D01*
X140601018Y-98360518D01*
X140642712Y-98382804D01*
X140687952Y-98396527D01*
X140735000Y-98401161D01*
X142435000Y-98401161D01*
X142482048Y-98396527D01*
X142527288Y-98382804D01*
X142568982Y-98360518D01*
X142605527Y-98330527D01*
X142635518Y-98293982D01*
X142657804Y-98252288D01*
X142671527Y-98207048D01*
X142676161Y-98160000D01*
X142676161Y-96510490D01*
X142728447Y-96515709D01*
X142959797Y-96493229D01*
X143182316Y-96426047D01*
X143387453Y-96316744D01*
X143390035Y-96315019D01*
X143477618Y-96141258D01*
X144272382Y-96141258D01*
X144359965Y-96315019D01*
X144564814Y-96424859D01*
X144787157Y-96492624D01*
X145018447Y-96515709D01*
X145249797Y-96493229D01*
X145472316Y-96426047D01*
X145677453Y-96316744D01*
X145680035Y-96315019D01*
X145767618Y-96141258D01*
X145020000Y-95393640D01*
X144272382Y-96141258D01*
X143477618Y-96141258D01*
X142730000Y-95393640D01*
X141982382Y-96141258D01*
X142021486Y-96218839D01*
X141148514Y-96218839D01*
X141187618Y-96141258D01*
X140440000Y-95393640D01*
X139692382Y-96141258D01*
X139779965Y-96315019D01*
X139984814Y-96424859D01*
X140207157Y-96492624D01*
X140438447Y-96515709D01*
X140493839Y-96510327D01*
X140493839Y-96925000D01*
X139557929Y-96925000D01*
X139540000Y-96923234D01*
X139522071Y-96925000D01*
X139522069Y-96925000D01*
X139468448Y-96930281D01*
X139399645Y-96951152D01*
X139336236Y-96985045D01*
X139280657Y-97030657D01*
X139269225Y-97044587D01*
X137498813Y-98815000D01*
X131817929Y-98815000D01*
X131800000Y-98813234D01*
X131782071Y-98815000D01*
X131782069Y-98815000D01*
X131728448Y-98820281D01*
X131685942Y-98833175D01*
X131659644Y-98841152D01*
X131631425Y-98856236D01*
X131596236Y-98875045D01*
X131540657Y-98920657D01*
X131529226Y-98934586D01*
X130924588Y-99539225D01*
X130910657Y-99550658D01*
X130865045Y-99606237D01*
X130831152Y-99669646D01*
X130810281Y-99738449D01*
X130805051Y-99791552D01*
X130803234Y-99810000D01*
X130805000Y-99827929D01*
X130805000Y-101292734D01*
X130161146Y-101292734D01*
X130114098Y-101297368D01*
X130068858Y-101311091D01*
X130027164Y-101333377D01*
X129990619Y-101363368D01*
X129960628Y-101399913D01*
X129938342Y-101441607D01*
X129924619Y-101486847D01*
X129919985Y-101533895D01*
X129919985Y-104240000D01*
X124802307Y-104240000D01*
X124802307Y-101813880D01*
X127651188Y-98965000D01*
X128792071Y-98965000D01*
X128810000Y-98966766D01*
X128827929Y-98965000D01*
X128827931Y-98965000D01*
X128881552Y-98959719D01*
X128950355Y-98938848D01*
X129013764Y-98904955D01*
X129069343Y-98859343D01*
X129080779Y-98845408D01*
X130735418Y-97190770D01*
X130749342Y-97179343D01*
X130794955Y-97123764D01*
X130828848Y-97060355D01*
X130849719Y-96991552D01*
X130850645Y-96982149D01*
X132081490Y-96982149D01*
X132310999Y-97277063D01*
X132716966Y-97504779D01*
X133159556Y-97648919D01*
X133621763Y-97703944D01*
X134085823Y-97667740D01*
X134533903Y-97541698D01*
X134948785Y-97330662D01*
X135029001Y-97277063D01*
X135258510Y-96982149D01*
X133670000Y-95393640D01*
X132081490Y-96982149D01*
X130850645Y-96982149D01*
X130855000Y-96937931D01*
X130855000Y-96937929D01*
X130856766Y-96920000D01*
X130855000Y-96902071D01*
X130855000Y-95281763D01*
X131296056Y-95281763D01*
X131332260Y-95745823D01*
X131458302Y-96193903D01*
X131669338Y-96608785D01*
X131722937Y-96689001D01*
X132017851Y-96918510D01*
X133606360Y-95330000D01*
X133733640Y-95330000D01*
X135322149Y-96918510D01*
X135617063Y-96689001D01*
X135744454Y-96461890D01*
X137020000Y-96461890D01*
X137020000Y-96578110D01*
X137042673Y-96692097D01*
X137087149Y-96799470D01*
X137151717Y-96896103D01*
X137233897Y-96978283D01*
X137330530Y-97042851D01*
X137437903Y-97087327D01*
X137551890Y-97110000D01*
X137668110Y-97110000D01*
X137782097Y-97087327D01*
X137889470Y-97042851D01*
X137986103Y-96978283D01*
X138068283Y-96896103D01*
X138132851Y-96799470D01*
X138177327Y-96692097D01*
X138200000Y-96578110D01*
X138200000Y-96461890D01*
X138177327Y-96347903D01*
X138132851Y-96240530D01*
X138068283Y-96143897D01*
X137986103Y-96061717D01*
X137975000Y-96054298D01*
X137975000Y-95328447D01*
X139254291Y-95328447D01*
X139276771Y-95559797D01*
X139343953Y-95782316D01*
X139453256Y-95987453D01*
X139454981Y-95990035D01*
X139628742Y-96077618D01*
X140376360Y-95330000D01*
X140503640Y-95330000D01*
X141251258Y-96077618D01*
X141425019Y-95990035D01*
X141534859Y-95785186D01*
X141585075Y-95620423D01*
X141633953Y-95782316D01*
X141743256Y-95987453D01*
X141744981Y-95990035D01*
X141918742Y-96077618D01*
X142666360Y-95330000D01*
X142793640Y-95330000D01*
X143541258Y-96077618D01*
X143715019Y-95990035D01*
X143824859Y-95785186D01*
X143875075Y-95620423D01*
X143923953Y-95782316D01*
X144033256Y-95987453D01*
X144034981Y-95990035D01*
X144208742Y-96077618D01*
X144956360Y-95330000D01*
X145083640Y-95330000D01*
X145831258Y-96077618D01*
X146005019Y-95990035D01*
X146114859Y-95785186D01*
X146182624Y-95562843D01*
X146205709Y-95331553D01*
X146195127Y-95222644D01*
X146220000Y-95222644D01*
X146220000Y-95437356D01*
X146261888Y-95647941D01*
X146344055Y-95846309D01*
X146463342Y-96024834D01*
X146615166Y-96176658D01*
X146793691Y-96295945D01*
X146992059Y-96378112D01*
X147202644Y-96420000D01*
X147417356Y-96420000D01*
X147627941Y-96378112D01*
X147826309Y-96295945D01*
X148004834Y-96176658D01*
X148040234Y-96141258D01*
X148852382Y-96141258D01*
X148939965Y-96315019D01*
X149144814Y-96424859D01*
X149367157Y-96492624D01*
X149598447Y-96515709D01*
X149829797Y-96493229D01*
X150030740Y-96432561D01*
X149997382Y-96498742D01*
X150745000Y-97246360D01*
X151492618Y-96498742D01*
X151405035Y-96324981D01*
X151200186Y-96215141D01*
X150977843Y-96147376D01*
X150746553Y-96124291D01*
X150515203Y-96146771D01*
X150314260Y-96207439D01*
X150347618Y-96141258D01*
X149600000Y-95393640D01*
X148852382Y-96141258D01*
X148040234Y-96141258D01*
X148156658Y-96024834D01*
X148275945Y-95846309D01*
X148358112Y-95647941D01*
X148400000Y-95437356D01*
X148400000Y-95328447D01*
X148414291Y-95328447D01*
X148436771Y-95559797D01*
X148503953Y-95782316D01*
X148613256Y-95987453D01*
X148614981Y-95990035D01*
X148788742Y-96077618D01*
X149536360Y-95330000D01*
X149663640Y-95330000D01*
X150411258Y-96077618D01*
X150585019Y-95990035D01*
X150694859Y-95785186D01*
X150762624Y-95562843D01*
X150785709Y-95331553D01*
X150763229Y-95100203D01*
X150696047Y-94877684D01*
X150586744Y-94672547D01*
X150585019Y-94669965D01*
X150411258Y-94582382D01*
X149663640Y-95330000D01*
X149536360Y-95330000D01*
X148788742Y-94582382D01*
X148614981Y-94669965D01*
X148505141Y-94874814D01*
X148437376Y-95097157D01*
X148414291Y-95328447D01*
X148400000Y-95328447D01*
X148400000Y-95222644D01*
X148358112Y-95012059D01*
X148275945Y-94813691D01*
X148156658Y-94635166D01*
X148040234Y-94518742D01*
X148852382Y-94518742D01*
X149600000Y-95266360D01*
X150347618Y-94518742D01*
X150260035Y-94344981D01*
X150055186Y-94235141D01*
X149832843Y-94167376D01*
X149601553Y-94144291D01*
X149370203Y-94166771D01*
X149147684Y-94233953D01*
X148942547Y-94343256D01*
X148939965Y-94344981D01*
X148852382Y-94518742D01*
X148040234Y-94518742D01*
X148004834Y-94483342D01*
X147826309Y-94364055D01*
X147627941Y-94281888D01*
X147417356Y-94240000D01*
X147202644Y-94240000D01*
X146992059Y-94281888D01*
X146793691Y-94364055D01*
X146615166Y-94483342D01*
X146463342Y-94635166D01*
X146344055Y-94813691D01*
X146261888Y-95012059D01*
X146220000Y-95222644D01*
X146195127Y-95222644D01*
X146183229Y-95100203D01*
X146116047Y-94877684D01*
X146006744Y-94672547D01*
X146005019Y-94669965D01*
X145831258Y-94582382D01*
X145083640Y-95330000D01*
X144956360Y-95330000D01*
X144208742Y-94582382D01*
X144034981Y-94669965D01*
X143925141Y-94874814D01*
X143874925Y-95039577D01*
X143826047Y-94877684D01*
X143716744Y-94672547D01*
X143715019Y-94669965D01*
X143541258Y-94582382D01*
X142793640Y-95330000D01*
X142666360Y-95330000D01*
X141918742Y-94582382D01*
X141744981Y-94669965D01*
X141635141Y-94874814D01*
X141584925Y-95039577D01*
X141536047Y-94877684D01*
X141426744Y-94672547D01*
X141425019Y-94669965D01*
X141251258Y-94582382D01*
X140503640Y-95330000D01*
X140376360Y-95330000D01*
X139628742Y-94582382D01*
X139454981Y-94669965D01*
X139345141Y-94874814D01*
X139277376Y-95097157D01*
X139254291Y-95328447D01*
X137975000Y-95328447D01*
X137975000Y-94661187D01*
X138117445Y-94518742D01*
X139692382Y-94518742D01*
X140440000Y-95266360D01*
X141187618Y-94518742D01*
X141982382Y-94518742D01*
X142730000Y-95266360D01*
X143477618Y-94518742D01*
X144272382Y-94518742D01*
X145020000Y-95266360D01*
X145767618Y-94518742D01*
X145680035Y-94344981D01*
X145475186Y-94235141D01*
X145252843Y-94167376D01*
X145021553Y-94144291D01*
X144790203Y-94166771D01*
X144567684Y-94233953D01*
X144362547Y-94343256D01*
X144359965Y-94344981D01*
X144272382Y-94518742D01*
X143477618Y-94518742D01*
X143390035Y-94344981D01*
X143185186Y-94235141D01*
X142962843Y-94167376D01*
X142731553Y-94144291D01*
X142500203Y-94166771D01*
X142277684Y-94233953D01*
X142072547Y-94343256D01*
X142069965Y-94344981D01*
X141982382Y-94518742D01*
X141187618Y-94518742D01*
X141100035Y-94344981D01*
X140895186Y-94235141D01*
X140672843Y-94167376D01*
X140441553Y-94144291D01*
X140210203Y-94166771D01*
X139987684Y-94233953D01*
X139782547Y-94343256D01*
X139779965Y-94344981D01*
X139692382Y-94518742D01*
X138117445Y-94518742D01*
X139393543Y-93242644D01*
X140495000Y-93242644D01*
X140495000Y-93457356D01*
X140536888Y-93667941D01*
X140619055Y-93866309D01*
X140738342Y-94044834D01*
X140890166Y-94196658D01*
X141068691Y-94315945D01*
X141267059Y-94398112D01*
X141477644Y-94440000D01*
X141692356Y-94440000D01*
X141902941Y-94398112D01*
X142101309Y-94315945D01*
X142279834Y-94196658D01*
X142431658Y-94044834D01*
X142550945Y-93866309D01*
X142633112Y-93667941D01*
X142675000Y-93457356D01*
X142675000Y-93242644D01*
X142633112Y-93032059D01*
X142550945Y-92833691D01*
X142431658Y-92655166D01*
X142279834Y-92503342D01*
X142101309Y-92384055D01*
X141902941Y-92301888D01*
X141692356Y-92260000D01*
X141477644Y-92260000D01*
X141267059Y-92301888D01*
X141068691Y-92384055D01*
X140890166Y-92503342D01*
X140738342Y-92655166D01*
X140619055Y-92833691D01*
X140536888Y-93032059D01*
X140495000Y-93242644D01*
X139393543Y-93242644D01*
X140471188Y-92165000D01*
X142218813Y-92165000D01*
X142902743Y-92848930D01*
X142826888Y-93032059D01*
X142785000Y-93242644D01*
X142785000Y-93457356D01*
X142826888Y-93667941D01*
X142909055Y-93866309D01*
X143028342Y-94044834D01*
X143180166Y-94196658D01*
X143358691Y-94315945D01*
X143557059Y-94398112D01*
X143767644Y-94440000D01*
X143982356Y-94440000D01*
X144192941Y-94398112D01*
X144391309Y-94315945D01*
X144569834Y-94196658D01*
X144721658Y-94044834D01*
X144840945Y-93866309D01*
X144923112Y-93667941D01*
X144965000Y-93457356D01*
X144965000Y-93242644D01*
X144923112Y-93032059D01*
X144840945Y-92833691D01*
X144721658Y-92655166D01*
X144569834Y-92503342D01*
X144391309Y-92384055D01*
X144192941Y-92301888D01*
X143982356Y-92260000D01*
X143767644Y-92260000D01*
X143557059Y-92301888D01*
X143437570Y-92351382D01*
X142640779Y-91554592D01*
X142629343Y-91540657D01*
X142573764Y-91495045D01*
X142510355Y-91461152D01*
X142441552Y-91440281D01*
X142387931Y-91435000D01*
X142387929Y-91435000D01*
X142370000Y-91433234D01*
X142352071Y-91435000D01*
X140337929Y-91435000D01*
X140320000Y-91433234D01*
X140302071Y-91435000D01*
X140302069Y-91435000D01*
X140248448Y-91440281D01*
X140179645Y-91461152D01*
X140116236Y-91495045D01*
X140060657Y-91540657D01*
X140049225Y-91554587D01*
X137364588Y-94239225D01*
X137350657Y-94250658D01*
X137305045Y-94306237D01*
X137271152Y-94369646D01*
X137250281Y-94438449D01*
X137245430Y-94487707D01*
X137243234Y-94510000D01*
X137245000Y-94527929D01*
X137245001Y-96054298D01*
X137233897Y-96061717D01*
X137151717Y-96143897D01*
X137087149Y-96240530D01*
X137042673Y-96347903D01*
X137020000Y-96461890D01*
X135744454Y-96461890D01*
X135844779Y-96283034D01*
X135988919Y-95840444D01*
X136043944Y-95378237D01*
X136007740Y-94914177D01*
X135881698Y-94466097D01*
X135670662Y-94051215D01*
X135617063Y-93970999D01*
X135322149Y-93741490D01*
X133733640Y-95330000D01*
X133606360Y-95330000D01*
X132017851Y-93741490D01*
X131722937Y-93970999D01*
X131495221Y-94376966D01*
X131351081Y-94819556D01*
X131296056Y-95281763D01*
X130855000Y-95281763D01*
X130855000Y-94531187D01*
X132361188Y-93025000D01*
X133137786Y-93025000D01*
X132806097Y-93118302D01*
X132391215Y-93329338D01*
X132310999Y-93382937D01*
X132081490Y-93677851D01*
X133670000Y-95266360D01*
X135258510Y-93677851D01*
X135029001Y-93382937D01*
X134623034Y-93155221D01*
X134223183Y-93025000D01*
X137752071Y-93025000D01*
X137770000Y-93026766D01*
X137787929Y-93025000D01*
X137787931Y-93025000D01*
X137841552Y-93019719D01*
X137910355Y-92998848D01*
X137973764Y-92964955D01*
X138029343Y-92919343D01*
X138040779Y-92905408D01*
X138138792Y-92807395D01*
X138151890Y-92810000D01*
X138268110Y-92810000D01*
X138382097Y-92787327D01*
X138489470Y-92742851D01*
X138586103Y-92678283D01*
X138668283Y-92596103D01*
X138732851Y-92499470D01*
X138777327Y-92392097D01*
X138800000Y-92278110D01*
X138800000Y-92161890D01*
X138777327Y-92047903D01*
X138732851Y-91940530D01*
X138668283Y-91843897D01*
X138586103Y-91761717D01*
X138489470Y-91697149D01*
X138382097Y-91652673D01*
X138268110Y-91630000D01*
X138151890Y-91630000D01*
X138037903Y-91652673D01*
X137930530Y-91697149D01*
X137833897Y-91761717D01*
X137751717Y-91843897D01*
X137687149Y-91940530D01*
X137642673Y-92047903D01*
X137620000Y-92161890D01*
X137620000Y-92278110D01*
X137622605Y-92291208D01*
X137618813Y-92295000D01*
X132227928Y-92295000D01*
X132209999Y-92293234D01*
X132192070Y-92295000D01*
X132192069Y-92295000D01*
X132138448Y-92300281D01*
X132069645Y-92321152D01*
X132014423Y-92350669D01*
X132006234Y-92355046D01*
X131999764Y-92360356D01*
X131950657Y-92400657D01*
X131939226Y-92414586D01*
X130244588Y-94109225D01*
X130230658Y-94120657D01*
X130198493Y-94159851D01*
X130185046Y-94176236D01*
X130151153Y-94239645D01*
X130130282Y-94308448D01*
X130123234Y-94380000D01*
X130125001Y-94397939D01*
X130125000Y-96768812D01*
X128658813Y-98235000D01*
X127517928Y-98235000D01*
X127499999Y-98233234D01*
X127482070Y-98235000D01*
X127482069Y-98235000D01*
X127428448Y-98240281D01*
X127359645Y-98261152D01*
X127359643Y-98261153D01*
X127296234Y-98295046D01*
X127272928Y-98314173D01*
X127240657Y-98340657D01*
X127229226Y-98354586D01*
X124291079Y-101292734D01*
X122561146Y-101292734D01*
X122514098Y-101297368D01*
X122468858Y-101311091D01*
X122427164Y-101333377D01*
X122390619Y-101363368D01*
X122360628Y-101399913D01*
X122338342Y-101441607D01*
X122324619Y-101486847D01*
X122319985Y-101533895D01*
X122319985Y-104240000D01*
X120630000Y-104240000D01*
X120630000Y-102008355D01*
X124783107Y-96590000D01*
X128184245Y-96590000D01*
X128197215Y-96588723D01*
X128205011Y-96588777D01*
X128209041Y-96588381D01*
X128451660Y-96562880D01*
X128477388Y-96557599D01*
X128503226Y-96552670D01*
X128507100Y-96551501D01*
X128507106Y-96551499D01*
X128740149Y-96479360D01*
X128764382Y-96469173D01*
X128788750Y-96459328D01*
X128792325Y-96457427D01*
X129006922Y-96341395D01*
X129028715Y-96326696D01*
X129050706Y-96312305D01*
X129053844Y-96309746D01*
X129241816Y-96154242D01*
X129260322Y-96135606D01*
X129279116Y-96117202D01*
X129281697Y-96114082D01*
X129435886Y-95925028D01*
X129450425Y-95903144D01*
X129465281Y-95881448D01*
X129467207Y-95877886D01*
X129581738Y-95662485D01*
X129591755Y-95638181D01*
X129602109Y-95614025D01*
X129603306Y-95610157D01*
X129673817Y-95376612D01*
X129678918Y-95350848D01*
X129684387Y-95325119D01*
X129684810Y-95321092D01*
X129708616Y-95078299D01*
X129708616Y-95078298D01*
X129710000Y-95064245D01*
X129710000Y-94715755D01*
X129708723Y-94702785D01*
X129708777Y-94694988D01*
X129708381Y-94690959D01*
X129682880Y-94448339D01*
X129677598Y-94422605D01*
X129672670Y-94396774D01*
X129671500Y-94392898D01*
X129599360Y-94159851D01*
X129589181Y-94135637D01*
X129579329Y-94111251D01*
X129577427Y-94107676D01*
X129577427Y-94107675D01*
X129577424Y-94107671D01*
X129461395Y-93893078D01*
X129446696Y-93871285D01*
X129432305Y-93849294D01*
X129429746Y-93846156D01*
X129274242Y-93658184D01*
X129255606Y-93639678D01*
X129237202Y-93620884D01*
X129234081Y-93618303D01*
X129045028Y-93464114D01*
X129023121Y-93449559D01*
X129001448Y-93434719D01*
X128997886Y-93432793D01*
X128782485Y-93318262D01*
X128758181Y-93308245D01*
X128734025Y-93297891D01*
X128730157Y-93296694D01*
X128496612Y-93226183D01*
X128470848Y-93221082D01*
X128460000Y-93218776D01*
X128460000Y-91818522D01*
X129372922Y-90630000D01*
X138083239Y-90630000D01*
X138042673Y-90727933D01*
G04 #@! TA.AperFunction,Conductor*
D17*
G36*
X138042673Y-90727933D02*
G01*
X138020000Y-90841920D01*
X138020000Y-90958140D01*
X138042673Y-91072127D01*
X138087149Y-91179500D01*
X138151717Y-91276133D01*
X138233897Y-91358313D01*
X138330530Y-91422881D01*
X138437903Y-91467357D01*
X138551890Y-91490030D01*
X138668110Y-91490030D01*
X138782097Y-91467357D01*
X138889470Y-91422881D01*
X138986103Y-91358313D01*
X139068283Y-91276133D01*
X139075702Y-91265030D01*
X143563843Y-91265030D01*
X145179562Y-92880750D01*
X145116888Y-93032059D01*
X145075000Y-93242644D01*
X145075000Y-93457356D01*
X145116888Y-93667941D01*
X145199055Y-93866309D01*
X145318342Y-94044834D01*
X145470166Y-94196658D01*
X145648691Y-94315945D01*
X145847059Y-94398112D01*
X146057644Y-94440000D01*
X146272356Y-94440000D01*
X146482941Y-94398112D01*
X146681309Y-94315945D01*
X146859834Y-94196658D01*
X147011658Y-94044834D01*
X147130945Y-93866309D01*
X147213112Y-93667941D01*
X147255000Y-93457356D01*
X147255000Y-93242644D01*
X147365000Y-93242644D01*
X147365000Y-93457356D01*
X147406888Y-93667941D01*
X147489055Y-93866309D01*
X147608342Y-94044834D01*
X147760166Y-94196658D01*
X147938691Y-94315945D01*
X148137059Y-94398112D01*
X148347644Y-94440000D01*
X148562356Y-94440000D01*
X148772941Y-94398112D01*
X148971309Y-94315945D01*
X149149834Y-94196658D01*
X149301658Y-94044834D01*
X149420945Y-93866309D01*
X149503112Y-93667941D01*
X149545000Y-93457356D01*
X149545000Y-93242644D01*
X149655000Y-93242644D01*
X149655000Y-93457356D01*
X149696888Y-93667941D01*
X149779055Y-93866309D01*
X149898342Y-94044834D01*
X150050166Y-94196658D01*
X150228691Y-94315945D01*
X150427059Y-94398112D01*
X150637644Y-94440000D01*
X150852356Y-94440000D01*
X151062941Y-94398112D01*
X151249605Y-94320793D01*
X151674225Y-94745413D01*
X151685657Y-94759343D01*
X151741236Y-94804955D01*
X151804645Y-94838848D01*
X151873448Y-94859719D01*
X151927069Y-94865000D01*
X151927071Y-94865000D01*
X151945000Y-94866766D01*
X151962929Y-94865000D01*
X153762071Y-94865000D01*
X153780000Y-94866766D01*
X153797929Y-94865000D01*
X153797931Y-94865000D01*
X153851552Y-94859719D01*
X153920355Y-94838848D01*
X153983764Y-94804955D01*
X154039343Y-94759343D01*
X154050779Y-94745408D01*
X154805418Y-93990770D01*
X154819342Y-93979343D01*
X154844138Y-93949130D01*
X154855399Y-93935408D01*
X154864955Y-93923764D01*
X154898848Y-93860355D01*
X154919719Y-93791552D01*
X154925000Y-93737931D01*
X154925000Y-93737929D01*
X154926766Y-93720000D01*
X154925000Y-93702071D01*
X154925000Y-92675702D01*
X154936103Y-92668283D01*
X155018283Y-92586103D01*
X155082851Y-92489470D01*
X155127327Y-92382097D01*
X155150000Y-92268110D01*
X155150000Y-92151890D01*
X155127327Y-92037903D01*
X155082851Y-91930530D01*
X155018283Y-91833897D01*
X154936103Y-91751717D01*
X154839470Y-91687149D01*
X154732097Y-91642673D01*
X154618110Y-91620000D01*
X154501890Y-91620000D01*
X154387903Y-91642673D01*
X154280530Y-91687149D01*
X154183897Y-91751717D01*
X154101717Y-91833897D01*
X154037149Y-91930530D01*
X153992673Y-92037903D01*
X153970000Y-92151890D01*
X153970000Y-92268110D01*
X153992673Y-92382097D01*
X154037149Y-92489470D01*
X154101717Y-92586103D01*
X154183897Y-92668283D01*
X154195001Y-92675702D01*
X154195000Y-93568812D01*
X153628813Y-94135000D01*
X152096188Y-94135000D01*
X151745082Y-93783895D01*
X151793112Y-93667941D01*
X151835000Y-93457356D01*
X151835000Y-93242644D01*
X151793112Y-93032059D01*
X151710945Y-92833691D01*
X151591658Y-92655166D01*
X151439834Y-92503342D01*
X151261309Y-92384055D01*
X151062941Y-92301888D01*
X150852356Y-92260000D01*
X150637644Y-92260000D01*
X150427059Y-92301888D01*
X150228691Y-92384055D01*
X150050166Y-92503342D01*
X149898342Y-92655166D01*
X149779055Y-92833691D01*
X149696888Y-93032059D01*
X149655000Y-93242644D01*
X149545000Y-93242644D01*
X149503112Y-93032059D01*
X149420945Y-92833691D01*
X149301658Y-92655166D01*
X149149834Y-92503342D01*
X148971309Y-92384055D01*
X148772941Y-92301888D01*
X148562356Y-92260000D01*
X148347644Y-92260000D01*
X148137059Y-92301888D01*
X147938691Y-92384055D01*
X147760166Y-92503342D01*
X147608342Y-92655166D01*
X147489055Y-92833691D01*
X147406888Y-93032059D01*
X147365000Y-93242644D01*
X147255000Y-93242644D01*
X147213112Y-93032059D01*
X147130945Y-92833691D01*
X147011658Y-92655166D01*
X146859834Y-92503342D01*
X146681309Y-92384055D01*
X146482941Y-92301888D01*
X146272356Y-92260000D01*
X146057644Y-92260000D01*
X145847059Y-92301888D01*
X145695750Y-92364562D01*
X143985809Y-90654622D01*
X143974373Y-90640687D01*
X143961351Y-90630000D01*
X161286909Y-90630000D01*
X161291612Y-97512636D01*
X161224609Y-97533377D01*
X161200408Y-97543550D01*
X161176006Y-97553409D01*
X161172441Y-97555305D01*
X161172433Y-97555309D01*
X161172426Y-97555314D01*
X160950895Y-97675095D01*
X160929104Y-97689793D01*
X160907112Y-97704184D01*
X160903977Y-97706742D01*
X160903973Y-97706745D01*
X160903969Y-97706749D01*
X160709924Y-97867276D01*
X160691417Y-97885913D01*
X160672623Y-97904317D01*
X160670042Y-97907437D01*
X160510868Y-98102604D01*
X160496335Y-98124477D01*
X160481473Y-98146183D01*
X160479547Y-98149745D01*
X160361312Y-98372112D01*
X160351290Y-98396428D01*
X160340941Y-98420572D01*
X160339744Y-98424440D01*
X160266953Y-98665537D01*
X160261847Y-98691326D01*
X160256383Y-98717030D01*
X160255960Y-98721057D01*
X160231384Y-98971701D01*
X160230000Y-98985756D01*
X160230000Y-99324245D01*
X160230359Y-99327887D01*
X160231680Y-99380300D01*
X160233619Y-99395988D01*
X160234195Y-99411791D01*
X160234765Y-99415799D01*
X160270776Y-99657084D01*
X160277166Y-99682546D01*
X160283215Y-99708158D01*
X160284553Y-99711980D01*
X160366744Y-99941675D01*
X160377970Y-99965437D01*
X160388867Y-99989360D01*
X160390921Y-99992849D01*
X160516161Y-100202205D01*
X160531797Y-100223345D01*
X160547125Y-100244685D01*
X160549818Y-100247709D01*
X160713337Y-100428752D01*
X160732757Y-100446430D01*
X160751962Y-100464409D01*
X160755191Y-100466851D01*
X160950761Y-100612685D01*
X160973278Y-100626274D01*
X160995576Y-100640160D01*
X160999218Y-100641930D01*
X161219390Y-100747001D01*
X161244101Y-100755952D01*
X161268689Y-100765248D01*
X161272602Y-100766275D01*
X161272605Y-100766276D01*
X161272608Y-100766276D01*
X161290639Y-100770876D01*
X161290050Y-104240000D01*
X159002307Y-104240000D01*
X159002307Y-101533895D01*
X158997673Y-101486847D01*
X158983950Y-101441607D01*
X158961664Y-101399913D01*
X158931673Y-101363368D01*
X158895128Y-101333377D01*
X158853434Y-101311091D01*
X158808194Y-101297368D01*
X158761146Y-101292734D01*
X158125000Y-101292734D01*
X158125000Y-101037929D01*
X158126766Y-101020000D01*
X158124731Y-100999342D01*
X158119719Y-100948448D01*
X158098848Y-100879645D01*
X158064955Y-100816236D01*
X158051091Y-100799343D01*
X158030773Y-100774585D01*
X158030770Y-100774582D01*
X158019342Y-100760657D01*
X158005418Y-100749230D01*
X154245000Y-96988813D01*
X154245000Y-96982149D01*
X157071490Y-96982149D01*
X157300999Y-97277063D01*
X157706966Y-97504779D01*
X158149556Y-97648919D01*
X158611763Y-97703944D01*
X159075823Y-97667740D01*
X159523903Y-97541698D01*
X159938785Y-97330662D01*
X160019001Y-97277063D01*
X160248510Y-96982149D01*
X158660000Y-95393640D01*
X157071490Y-96982149D01*
X154245000Y-96982149D01*
X154245000Y-96251187D01*
X155214424Y-95281763D01*
X156286056Y-95281763D01*
X156322260Y-95745823D01*
X156448302Y-96193903D01*
X156659338Y-96608785D01*
X156712937Y-96689001D01*
X157007851Y-96918510D01*
X158596360Y-95330000D01*
X158723640Y-95330000D01*
X160312149Y-96918510D01*
X160607063Y-96689001D01*
X160834779Y-96283034D01*
X160978919Y-95840444D01*
X161033944Y-95378237D01*
X160997740Y-94914177D01*
X160871698Y-94466097D01*
X160660662Y-94051215D01*
X160607063Y-93970999D01*
X160312149Y-93741490D01*
X158723640Y-95330000D01*
X158596360Y-95330000D01*
X157007851Y-93741490D01*
X156712937Y-93970999D01*
X156485221Y-94376966D01*
X156341081Y-94819556D01*
X156286056Y-95281763D01*
X155214424Y-95281763D01*
X156105413Y-94390775D01*
X156119343Y-94379343D01*
X156164955Y-94323764D01*
X156198848Y-94260355D01*
X156219719Y-94191552D01*
X156225000Y-94137931D01*
X156225000Y-94137929D01*
X156226766Y-94120000D01*
X156225000Y-94102071D01*
X156225000Y-93677851D01*
X157071490Y-93677851D01*
X158660000Y-95266360D01*
X160248510Y-93677851D01*
X160019001Y-93382937D01*
X159613034Y-93155221D01*
X159170444Y-93011081D01*
X158708237Y-92956056D01*
X158244177Y-92992260D01*
X157796097Y-93118302D01*
X157381215Y-93329338D01*
X157300999Y-93382937D01*
X157071490Y-93677851D01*
X156225000Y-93677851D01*
X156225000Y-92675702D01*
X156236103Y-92668283D01*
X156318283Y-92586103D01*
X156382851Y-92489470D01*
X156427327Y-92382097D01*
X156450000Y-92268110D01*
X156450000Y-92151890D01*
X156427327Y-92037903D01*
X156382851Y-91930530D01*
X156318283Y-91833897D01*
X156236103Y-91751717D01*
X156139470Y-91687149D01*
X156032097Y-91642673D01*
X155918110Y-91620000D01*
X155801890Y-91620000D01*
X155687903Y-91642673D01*
X155580530Y-91687149D01*
X155483897Y-91751717D01*
X155401717Y-91833897D01*
X155337149Y-91930530D01*
X155292673Y-92037903D01*
X155270000Y-92151890D01*
X155270000Y-92268110D01*
X155292673Y-92382097D01*
X155337149Y-92489470D01*
X155401717Y-92586103D01*
X155483897Y-92668283D01*
X155495000Y-92675702D01*
X155495001Y-93968811D01*
X153634588Y-95829225D01*
X153620657Y-95840658D01*
X153575045Y-95896237D01*
X153541152Y-95959646D01*
X153520281Y-96028449D01*
X153515104Y-96081014D01*
X153513234Y-96100000D01*
X153515000Y-96117929D01*
X153515001Y-97122062D01*
X153513234Y-97140000D01*
X153519405Y-97202644D01*
X153520282Y-97211552D01*
X153541153Y-97280355D01*
X153575046Y-97343764D01*
X153620658Y-97399343D01*
X153634588Y-97410775D01*
X157395000Y-101171188D01*
X157395000Y-101292734D01*
X156761146Y-101292734D01*
X156714098Y-101297368D01*
X156668858Y-101311091D01*
X156627164Y-101333377D01*
X156590619Y-101363368D01*
X156560628Y-101399913D01*
X156538342Y-101441607D01*
X156524619Y-101486847D01*
X156519985Y-101533895D01*
X156519985Y-104240000D01*
X155202307Y-104240000D01*
X155202307Y-101533895D01*
X155197673Y-101486847D01*
X155183950Y-101441607D01*
X155161664Y-101399913D01*
X155131673Y-101363368D01*
X155095128Y-101333377D01*
X155053434Y-101311091D01*
X155008194Y-101297368D01*
X154961146Y-101292734D01*
X154325000Y-101292734D01*
X154325000Y-100367929D01*
X154326766Y-100350000D01*
X154324624Y-100328253D01*
X154319719Y-100278448D01*
X154298848Y-100209645D01*
X154264955Y-100146236D01*
X154219343Y-100090657D01*
X154205413Y-100079225D01*
X152770779Y-98644592D01*
X152759343Y-98630657D01*
X152703764Y-98585045D01*
X152640355Y-98551152D01*
X152571552Y-98530281D01*
X152517931Y-98525000D01*
X152517929Y-98525000D01*
X152500000Y-98523234D01*
X152482071Y-98525000D01*
X146890140Y-98525000D01*
X146812097Y-98492673D01*
X146698110Y-98470000D01*
X146581890Y-98470000D01*
X146467903Y-98492673D01*
X146360530Y-98537149D01*
X146263897Y-98601717D01*
X146181717Y-98683897D01*
X146117149Y-98780530D01*
X146072673Y-98887903D01*
X146050000Y-99001890D01*
X146050000Y-99118110D01*
X146072673Y-99232097D01*
X146117149Y-99339470D01*
X146181717Y-99436103D01*
X146263897Y-99518283D01*
X146360530Y-99582851D01*
X146467903Y-99627327D01*
X146581890Y-99650000D01*
X146698110Y-99650000D01*
X146812097Y-99627327D01*
X146919470Y-99582851D01*
X147016103Y-99518283D01*
X147098283Y-99436103D01*
X147162851Y-99339470D01*
X147197840Y-99255000D01*
X152348813Y-99255000D01*
X153595001Y-100501189D01*
X153595001Y-101292734D01*
X152961146Y-101292734D01*
X152914098Y-101297368D01*
X152868858Y-101311091D01*
X152827164Y-101333377D01*
X152790619Y-101363368D01*
X152760628Y-101399913D01*
X152738342Y-101441607D01*
X152724619Y-101486847D01*
X152719985Y-101533895D01*
X152719985Y-104240000D01*
X147602307Y-104240000D01*
X147602307Y-101533895D01*
X147597673Y-101486847D01*
X147583950Y-101441607D01*
X147561664Y-101399913D01*
X147531673Y-101363368D01*
X147495128Y-101333377D01*
X147453434Y-101311091D01*
X147408194Y-101297368D01*
X147361146Y-101292734D01*
X145658922Y-101292734D01*
X144755000Y-100388813D01*
X144755000Y-100251890D01*
X145340000Y-100251890D01*
X145340000Y-100368110D01*
X145362673Y-100482097D01*
X145407149Y-100589470D01*
X145471717Y-100686103D01*
X145553897Y-100768283D01*
X145650530Y-100832851D01*
X145757903Y-100877327D01*
X145871890Y-100900000D01*
X145988110Y-100900000D01*
X146102097Y-100877327D01*
X146209470Y-100832851D01*
X146306103Y-100768283D01*
X146388283Y-100686103D01*
X146395702Y-100675000D01*
X148500935Y-100675000D01*
X148521717Y-100706103D01*
X148603897Y-100788283D01*
X148700530Y-100852851D01*
X148807903Y-100897327D01*
X148921890Y-100920000D01*
X149038110Y-100920000D01*
X149152097Y-100897327D01*
X149259470Y-100852851D01*
X149356103Y-100788283D01*
X149438283Y-100706103D01*
X149502851Y-100609470D01*
X149547327Y-100502097D01*
X149570000Y-100388110D01*
X149570000Y-100271890D01*
X149547327Y-100157903D01*
X149502851Y-100050530D01*
X149438283Y-99953897D01*
X149356103Y-99871717D01*
X149259470Y-99807149D01*
X149152097Y-99762673D01*
X149038110Y-99740000D01*
X148921890Y-99740000D01*
X148807903Y-99762673D01*
X148700530Y-99807149D01*
X148603897Y-99871717D01*
X148530614Y-99945000D01*
X146395702Y-99945000D01*
X146388283Y-99933897D01*
X146306103Y-99851717D01*
X146209470Y-99787149D01*
X146102097Y-99742673D01*
X145988110Y-99720000D01*
X145871890Y-99720000D01*
X145757903Y-99742673D01*
X145650530Y-99787149D01*
X145553897Y-99851717D01*
X145471717Y-99933897D01*
X145407149Y-100030530D01*
X145362673Y-100137903D01*
X145340000Y-100251890D01*
X144755000Y-100251890D01*
X144755000Y-99871187D01*
X146226188Y-98400000D01*
X146272356Y-98400000D01*
X146482941Y-98358112D01*
X146681309Y-98275945D01*
X146859834Y-98156658D01*
X147011658Y-98004834D01*
X147130945Y-97826309D01*
X147213112Y-97627941D01*
X147255000Y-97417356D01*
X147255000Y-97202644D01*
X147365000Y-97202644D01*
X147365000Y-97417356D01*
X147406888Y-97627941D01*
X147489055Y-97826309D01*
X147608342Y-98004834D01*
X147760166Y-98156658D01*
X147938691Y-98275945D01*
X148137059Y-98358112D01*
X148347644Y-98400000D01*
X148562356Y-98400000D01*
X148772941Y-98358112D01*
X148971309Y-98275945D01*
X149149834Y-98156658D01*
X149185234Y-98121258D01*
X149997382Y-98121258D01*
X150084965Y-98295019D01*
X150289814Y-98404859D01*
X150512157Y-98472624D01*
X150743447Y-98495709D01*
X150974797Y-98473229D01*
X151197316Y-98406047D01*
X151402453Y-98296744D01*
X151405035Y-98295019D01*
X151492618Y-98121258D01*
X150745000Y-97373640D01*
X149997382Y-98121258D01*
X149185234Y-98121258D01*
X149301658Y-98004834D01*
X149420945Y-97826309D01*
X149503112Y-97627941D01*
X149545000Y-97417356D01*
X149545000Y-97308447D01*
X149559291Y-97308447D01*
X149581771Y-97539797D01*
X149648953Y-97762316D01*
X149758256Y-97967453D01*
X149759981Y-97970035D01*
X149933742Y-98057618D01*
X150681360Y-97310000D01*
X150808640Y-97310000D01*
X151556258Y-98057618D01*
X151730019Y-97970035D01*
X151839859Y-97765186D01*
X151907624Y-97542843D01*
X151930709Y-97311553D01*
X151908229Y-97080203D01*
X151841047Y-96857684D01*
X151731744Y-96652547D01*
X151730019Y-96649965D01*
X151556258Y-96562382D01*
X150808640Y-97310000D01*
X150681360Y-97310000D01*
X149933742Y-96562382D01*
X149759981Y-96649965D01*
X149650141Y-96854814D01*
X149582376Y-97077157D01*
X149559291Y-97308447D01*
X149545000Y-97308447D01*
X149545000Y-97202644D01*
X149503112Y-96992059D01*
X149420945Y-96793691D01*
X149301658Y-96615166D01*
X149149834Y-96463342D01*
X148971309Y-96344055D01*
X148772941Y-96261888D01*
X148562356Y-96220000D01*
X148347644Y-96220000D01*
X148137059Y-96261888D01*
X147938691Y-96344055D01*
X147760166Y-96463342D01*
X147608342Y-96615166D01*
X147489055Y-96793691D01*
X147406888Y-96992059D01*
X147365000Y-97202644D01*
X147255000Y-97202644D01*
X147213112Y-96992059D01*
X147130945Y-96793691D01*
X147011658Y-96615166D01*
X146859834Y-96463342D01*
X146681309Y-96344055D01*
X146482941Y-96261888D01*
X146272356Y-96220000D01*
X146057644Y-96220000D01*
X145847059Y-96261888D01*
X145648691Y-96344055D01*
X145470166Y-96463342D01*
X145318342Y-96615166D01*
X145199055Y-96793691D01*
X145116888Y-96992059D01*
X145075000Y-97202644D01*
X145075000Y-97417356D01*
X145116888Y-97627941D01*
X145199055Y-97826309D01*
X145318342Y-98004834D01*
X145453660Y-98140152D01*
X144144588Y-99449225D01*
X144130657Y-99460658D01*
X144085045Y-99516237D01*
X144051152Y-99579646D01*
X144030281Y-99648449D01*
X144026189Y-99690000D01*
X144023234Y-99720000D01*
X144025000Y-99737929D01*
X144025001Y-100522062D01*
X144023234Y-100540000D01*
X144028107Y-100589470D01*
X144030282Y-100611552D01*
X144051153Y-100680355D01*
X144085046Y-100743764D01*
X144130658Y-100799343D01*
X144144588Y-100810775D01*
X145119985Y-101786173D01*
X145119985Y-104240000D01*
X140002307Y-104240000D01*
X140002307Y-101533895D01*
X139997673Y-101486847D01*
X139983950Y-101441607D01*
X139961664Y-101399913D01*
X139931673Y-101363368D01*
X139895128Y-101333377D01*
X139853434Y-101311091D01*
X139808194Y-101297368D01*
X139761146Y-101292734D01*
X139125000Y-101292734D01*
X139125000Y-100891187D01*
X139961188Y-100055000D01*
X142522071Y-100055000D01*
X142540000Y-100056766D01*
X142557929Y-100055000D01*
X142557931Y-100055000D01*
X142611552Y-100049719D01*
X142680355Y-100028848D01*
X142743764Y-99994955D01*
X142799343Y-99949343D01*
X142810779Y-99935408D01*
X144150413Y-98595775D01*
X144164343Y-98584343D01*
X144209955Y-98528764D01*
X144229415Y-98492357D01*
X144243848Y-98465356D01*
X144256259Y-98424440D01*
X144264719Y-98396552D01*
X144270000Y-98342931D01*
X144270000Y-98342929D01*
X144271719Y-98325481D01*
X144391309Y-98275945D01*
X144569834Y-98156658D01*
X144721658Y-98004834D01*
X144840945Y-97826309D01*
X144923112Y-97627941D01*
X144965000Y-97417356D01*
X144965000Y-97202644D01*
X144923112Y-96992059D01*
X144840945Y-96793691D01*
X144721658Y-96615166D01*
X144569834Y-96463342D01*
X144391309Y-96344055D01*
X144192941Y-96261888D01*
X143982356Y-96220000D01*
X143767644Y-96220000D01*
X143557059Y-96261888D01*
X143358691Y-96344055D01*
X143180166Y-96463342D01*
X143028342Y-96615166D01*
X142909055Y-96793691D01*
X142826888Y-96992059D01*
X142785000Y-97202644D01*
X142785000Y-97417356D01*
X142826888Y-97627941D01*
X142909055Y-97826309D01*
X143028342Y-98004834D01*
X143180166Y-98156658D01*
X143358691Y-98275945D01*
X143414677Y-98299135D01*
X142388813Y-99325000D01*
X139827928Y-99325000D01*
X139809999Y-99323234D01*
X139792070Y-99325000D01*
X139792069Y-99325000D01*
X139738448Y-99330281D01*
X139669645Y-99351152D01*
X139615113Y-99380300D01*
X139606234Y-99385046D01*
X139589418Y-99398847D01*
X139550657Y-99430657D01*
X139539226Y-99444586D01*
X138514588Y-100469225D01*
X138500657Y-100480658D01*
X138455045Y-100536237D01*
X138421152Y-100599646D01*
X138400281Y-100668449D01*
X138395149Y-100720557D01*
X138393234Y-100740000D01*
X138395000Y-100757929D01*
X138395000Y-101292734D01*
X137761146Y-101292734D01*
X137714098Y-101297368D01*
X137668858Y-101311091D01*
X137627164Y-101333377D01*
X137590619Y-101363368D01*
X137560628Y-101399913D01*
X137538342Y-101441607D01*
X137524619Y-101486847D01*
X137519985Y-101533895D01*
X137519985Y-104240000D01*
X132402307Y-104240000D01*
X132402307Y-101533895D01*
X132397673Y-101486847D01*
X132383950Y-101441607D01*
X132361664Y-101399913D01*
X132331673Y-101363368D01*
X132295128Y-101333377D01*
X132253434Y-101311091D01*
X132208194Y-101297368D01*
X132161146Y-101292734D01*
X131535000Y-101292734D01*
X131535000Y-100251890D01*
X132329998Y-100251890D01*
X132329998Y-100368110D01*
X132352671Y-100482097D01*
X132397147Y-100589470D01*
X132461715Y-100686103D01*
X132543895Y-100768283D01*
X132640528Y-100832851D01*
X132747901Y-100877327D01*
X132861888Y-100900000D01*
X132978108Y-100900000D01*
X133092095Y-100877327D01*
X133199468Y-100832851D01*
X133296101Y-100768283D01*
X133378281Y-100686103D01*
X133385700Y-100675000D01*
X136554298Y-100675000D01*
X136561717Y-100686103D01*
X136643897Y-100768283D01*
X136740530Y-100832851D01*
X136847903Y-100877327D01*
X136961890Y-100900000D01*
X137078110Y-100900000D01*
X137192097Y-100877327D01*
X137299470Y-100832851D01*
X137396103Y-100768283D01*
X137478283Y-100686103D01*
X137542851Y-100589470D01*
X137587327Y-100482097D01*
X137610000Y-100368110D01*
X137610000Y-100251890D01*
X137587327Y-100137903D01*
X137542851Y-100030530D01*
X137478283Y-99933897D01*
X137396103Y-99851717D01*
X137299470Y-99787149D01*
X137192097Y-99742673D01*
X137078110Y-99720000D01*
X136961890Y-99720000D01*
X136847903Y-99742673D01*
X136740530Y-99787149D01*
X136643897Y-99851717D01*
X136561717Y-99933897D01*
X136554298Y-99945000D01*
X133385700Y-99945000D01*
X133378281Y-99933897D01*
X133296101Y-99851717D01*
X133199468Y-99787149D01*
X133092095Y-99742673D01*
X132978108Y-99720000D01*
X132861888Y-99720000D01*
X132747901Y-99742673D01*
X132640528Y-99787149D01*
X132543895Y-99851717D01*
X132461715Y-99933897D01*
X132397147Y-100030530D01*
X132352671Y-100137903D01*
X132329998Y-100251890D01*
X131535000Y-100251890D01*
X131535000Y-99961187D01*
X131951188Y-99545000D01*
X137632071Y-99545000D01*
X137650000Y-99546766D01*
X137667929Y-99545000D01*
X137667931Y-99545000D01*
X137721552Y-99539719D01*
X137790355Y-99518848D01*
X137853764Y-99484955D01*
X137909343Y-99439343D01*
X137920779Y-99425408D01*
X139691188Y-97655000D01*
X140493839Y-97655000D01*
X140493839Y-98160000D01*
X140498473Y-98207048D01*
X140512196Y-98252288D01*
X140534482Y-98293982D01*
X140564473Y-98330527D01*
X140601018Y-98360518D01*
X140642712Y-98382804D01*
X140687952Y-98396527D01*
X140735000Y-98401161D01*
X142435000Y-98401161D01*
X142482048Y-98396527D01*
X142527288Y-98382804D01*
X142568982Y-98360518D01*
X142605527Y-98330527D01*
X142635518Y-98293982D01*
X142657804Y-98252288D01*
X142671527Y-98207048D01*
X142676161Y-98160000D01*
X142676161Y-96510490D01*
X142728447Y-96515709D01*
X142959797Y-96493229D01*
X143182316Y-96426047D01*
X143387453Y-96316744D01*
X143390035Y-96315019D01*
X143477618Y-96141258D01*
X144272382Y-96141258D01*
X144359965Y-96315019D01*
X144564814Y-96424859D01*
X144787157Y-96492624D01*
X145018447Y-96515709D01*
X145249797Y-96493229D01*
X145472316Y-96426047D01*
X145677453Y-96316744D01*
X145680035Y-96315019D01*
X145767618Y-96141258D01*
X145020000Y-95393640D01*
X144272382Y-96141258D01*
X143477618Y-96141258D01*
X142730000Y-95393640D01*
X141982382Y-96141258D01*
X142021486Y-96218839D01*
X141148514Y-96218839D01*
X141187618Y-96141258D01*
X140440000Y-95393640D01*
X139692382Y-96141258D01*
X139779965Y-96315019D01*
X139984814Y-96424859D01*
X140207157Y-96492624D01*
X140438447Y-96515709D01*
X140493839Y-96510327D01*
X140493839Y-96925000D01*
X139557929Y-96925000D01*
X139540000Y-96923234D01*
X139522071Y-96925000D01*
X139522069Y-96925000D01*
X139468448Y-96930281D01*
X139399645Y-96951152D01*
X139336236Y-96985045D01*
X139280657Y-97030657D01*
X139269225Y-97044587D01*
X137498813Y-98815000D01*
X131817929Y-98815000D01*
X131800000Y-98813234D01*
X131782071Y-98815000D01*
X131782069Y-98815000D01*
X131728448Y-98820281D01*
X131685942Y-98833175D01*
X131659644Y-98841152D01*
X131631425Y-98856236D01*
X131596236Y-98875045D01*
X131540657Y-98920657D01*
X131529226Y-98934586D01*
X130924588Y-99539225D01*
X130910657Y-99550658D01*
X130865045Y-99606237D01*
X130831152Y-99669646D01*
X130810281Y-99738449D01*
X130805051Y-99791552D01*
X130803234Y-99810000D01*
X130805000Y-99827929D01*
X130805000Y-101292734D01*
X130161146Y-101292734D01*
X130114098Y-101297368D01*
X130068858Y-101311091D01*
X130027164Y-101333377D01*
X129990619Y-101363368D01*
X129960628Y-101399913D01*
X129938342Y-101441607D01*
X129924619Y-101486847D01*
X129919985Y-101533895D01*
X129919985Y-104240000D01*
X124802307Y-104240000D01*
X124802307Y-101813880D01*
X127651188Y-98965000D01*
X128792071Y-98965000D01*
X128810000Y-98966766D01*
X128827929Y-98965000D01*
X128827931Y-98965000D01*
X128881552Y-98959719D01*
X128950355Y-98938848D01*
X129013764Y-98904955D01*
X129069343Y-98859343D01*
X129080779Y-98845408D01*
X130735418Y-97190770D01*
X130749342Y-97179343D01*
X130794955Y-97123764D01*
X130828848Y-97060355D01*
X130849719Y-96991552D01*
X130850645Y-96982149D01*
X132081490Y-96982149D01*
X132310999Y-97277063D01*
X132716966Y-97504779D01*
X133159556Y-97648919D01*
X133621763Y-97703944D01*
X134085823Y-97667740D01*
X134533903Y-97541698D01*
X134948785Y-97330662D01*
X135029001Y-97277063D01*
X135258510Y-96982149D01*
X133670000Y-95393640D01*
X132081490Y-96982149D01*
X130850645Y-96982149D01*
X130855000Y-96937931D01*
X130855000Y-96937929D01*
X130856766Y-96920000D01*
X130855000Y-96902071D01*
X130855000Y-95281763D01*
X131296056Y-95281763D01*
X131332260Y-95745823D01*
X131458302Y-96193903D01*
X131669338Y-96608785D01*
X131722937Y-96689001D01*
X132017851Y-96918510D01*
X133606360Y-95330000D01*
X133733640Y-95330000D01*
X135322149Y-96918510D01*
X135617063Y-96689001D01*
X135744454Y-96461890D01*
X137020000Y-96461890D01*
X137020000Y-96578110D01*
X137042673Y-96692097D01*
X137087149Y-96799470D01*
X137151717Y-96896103D01*
X137233897Y-96978283D01*
X137330530Y-97042851D01*
X137437903Y-97087327D01*
X137551890Y-97110000D01*
X137668110Y-97110000D01*
X137782097Y-97087327D01*
X137889470Y-97042851D01*
X137986103Y-96978283D01*
X138068283Y-96896103D01*
X138132851Y-96799470D01*
X138177327Y-96692097D01*
X138200000Y-96578110D01*
X138200000Y-96461890D01*
X138177327Y-96347903D01*
X138132851Y-96240530D01*
X138068283Y-96143897D01*
X137986103Y-96061717D01*
X137975000Y-96054298D01*
X137975000Y-95328447D01*
X139254291Y-95328447D01*
X139276771Y-95559797D01*
X139343953Y-95782316D01*
X139453256Y-95987453D01*
X139454981Y-95990035D01*
X139628742Y-96077618D01*
X140376360Y-95330000D01*
X140503640Y-95330000D01*
X141251258Y-96077618D01*
X141425019Y-95990035D01*
X141534859Y-95785186D01*
X141585075Y-95620423D01*
X141633953Y-95782316D01*
X141743256Y-95987453D01*
X141744981Y-95990035D01*
X141918742Y-96077618D01*
X142666360Y-95330000D01*
X142793640Y-95330000D01*
X143541258Y-96077618D01*
X143715019Y-95990035D01*
X143824859Y-95785186D01*
X143875075Y-95620423D01*
X143923953Y-95782316D01*
X144033256Y-95987453D01*
X144034981Y-95990035D01*
X144208742Y-96077618D01*
X144956360Y-95330000D01*
X145083640Y-95330000D01*
X145831258Y-96077618D01*
X146005019Y-95990035D01*
X146114859Y-95785186D01*
X146182624Y-95562843D01*
X146205709Y-95331553D01*
X146195127Y-95222644D01*
X146220000Y-95222644D01*
X146220000Y-95437356D01*
X146261888Y-95647941D01*
X146344055Y-95846309D01*
X146463342Y-96024834D01*
X146615166Y-96176658D01*
X146793691Y-96295945D01*
X146992059Y-96378112D01*
X147202644Y-96420000D01*
X147417356Y-96420000D01*
X147627941Y-96378112D01*
X147826309Y-96295945D01*
X148004834Y-96176658D01*
X148040234Y-96141258D01*
X148852382Y-96141258D01*
X148939965Y-96315019D01*
X149144814Y-96424859D01*
X149367157Y-96492624D01*
X149598447Y-96515709D01*
X149829797Y-96493229D01*
X150030740Y-96432561D01*
X149997382Y-96498742D01*
X150745000Y-97246360D01*
X151492618Y-96498742D01*
X151405035Y-96324981D01*
X151200186Y-96215141D01*
X150977843Y-96147376D01*
X150746553Y-96124291D01*
X150515203Y-96146771D01*
X150314260Y-96207439D01*
X150347618Y-96141258D01*
X149600000Y-95393640D01*
X148852382Y-96141258D01*
X148040234Y-96141258D01*
X148156658Y-96024834D01*
X148275945Y-95846309D01*
X148358112Y-95647941D01*
X148400000Y-95437356D01*
X148400000Y-95328447D01*
X148414291Y-95328447D01*
X148436771Y-95559797D01*
X148503953Y-95782316D01*
X148613256Y-95987453D01*
X148614981Y-95990035D01*
X148788742Y-96077618D01*
X149536360Y-95330000D01*
X149663640Y-95330000D01*
X150411258Y-96077618D01*
X150585019Y-95990035D01*
X150694859Y-95785186D01*
X150762624Y-95562843D01*
X150785709Y-95331553D01*
X150763229Y-95100203D01*
X150696047Y-94877684D01*
X150586744Y-94672547D01*
X150585019Y-94669965D01*
X150411258Y-94582382D01*
X149663640Y-95330000D01*
X149536360Y-95330000D01*
X148788742Y-94582382D01*
X148614981Y-94669965D01*
X148505141Y-94874814D01*
X148437376Y-95097157D01*
X148414291Y-95328447D01*
X148400000Y-95328447D01*
X148400000Y-95222644D01*
X148358112Y-95012059D01*
X148275945Y-94813691D01*
X148156658Y-94635166D01*
X148040234Y-94518742D01*
X148852382Y-94518742D01*
X149600000Y-95266360D01*
X150347618Y-94518742D01*
X150260035Y-94344981D01*
X150055186Y-94235141D01*
X149832843Y-94167376D01*
X149601553Y-94144291D01*
X149370203Y-94166771D01*
X149147684Y-94233953D01*
X148942547Y-94343256D01*
X148939965Y-94344981D01*
X148852382Y-94518742D01*
X148040234Y-94518742D01*
X148004834Y-94483342D01*
X147826309Y-94364055D01*
X147627941Y-94281888D01*
X147417356Y-94240000D01*
X147202644Y-94240000D01*
X146992059Y-94281888D01*
X146793691Y-94364055D01*
X146615166Y-94483342D01*
X146463342Y-94635166D01*
X146344055Y-94813691D01*
X146261888Y-95012059D01*
X146220000Y-95222644D01*
X146195127Y-95222644D01*
X146183229Y-95100203D01*
X146116047Y-94877684D01*
X146006744Y-94672547D01*
X146005019Y-94669965D01*
X145831258Y-94582382D01*
X145083640Y-95330000D01*
X144956360Y-95330000D01*
X144208742Y-94582382D01*
X144034981Y-94669965D01*
X143925141Y-94874814D01*
X143874925Y-95039577D01*
X143826047Y-94877684D01*
X143716744Y-94672547D01*
X143715019Y-94669965D01*
X143541258Y-94582382D01*
X142793640Y-95330000D01*
X142666360Y-95330000D01*
X141918742Y-94582382D01*
X141744981Y-94669965D01*
X141635141Y-94874814D01*
X141584925Y-95039577D01*
X141536047Y-94877684D01*
X141426744Y-94672547D01*
X141425019Y-94669965D01*
X141251258Y-94582382D01*
X140503640Y-95330000D01*
X140376360Y-95330000D01*
X139628742Y-94582382D01*
X139454981Y-94669965D01*
X139345141Y-94874814D01*
X139277376Y-95097157D01*
X139254291Y-95328447D01*
X137975000Y-95328447D01*
X137975000Y-94661187D01*
X138117445Y-94518742D01*
X139692382Y-94518742D01*
X140440000Y-95266360D01*
X141187618Y-94518742D01*
X141982382Y-94518742D01*
X142730000Y-95266360D01*
X143477618Y-94518742D01*
X144272382Y-94518742D01*
X145020000Y-95266360D01*
X145767618Y-94518742D01*
X145680035Y-94344981D01*
X145475186Y-94235141D01*
X145252843Y-94167376D01*
X145021553Y-94144291D01*
X144790203Y-94166771D01*
X144567684Y-94233953D01*
X144362547Y-94343256D01*
X144359965Y-94344981D01*
X144272382Y-94518742D01*
X143477618Y-94518742D01*
X143390035Y-94344981D01*
X143185186Y-94235141D01*
X142962843Y-94167376D01*
X142731553Y-94144291D01*
X142500203Y-94166771D01*
X142277684Y-94233953D01*
X142072547Y-94343256D01*
X142069965Y-94344981D01*
X141982382Y-94518742D01*
X141187618Y-94518742D01*
X141100035Y-94344981D01*
X140895186Y-94235141D01*
X140672843Y-94167376D01*
X140441553Y-94144291D01*
X140210203Y-94166771D01*
X139987684Y-94233953D01*
X139782547Y-94343256D01*
X139779965Y-94344981D01*
X139692382Y-94518742D01*
X138117445Y-94518742D01*
X139393543Y-93242644D01*
X140495000Y-93242644D01*
X140495000Y-93457356D01*
X140536888Y-93667941D01*
X140619055Y-93866309D01*
X140738342Y-94044834D01*
X140890166Y-94196658D01*
X141068691Y-94315945D01*
X141267059Y-94398112D01*
X141477644Y-94440000D01*
X141692356Y-94440000D01*
X141902941Y-94398112D01*
X142101309Y-94315945D01*
X142279834Y-94196658D01*
X142431658Y-94044834D01*
X142550945Y-93866309D01*
X142633112Y-93667941D01*
X142675000Y-93457356D01*
X142675000Y-93242644D01*
X142633112Y-93032059D01*
X142550945Y-92833691D01*
X142431658Y-92655166D01*
X142279834Y-92503342D01*
X142101309Y-92384055D01*
X141902941Y-92301888D01*
X141692356Y-92260000D01*
X141477644Y-92260000D01*
X141267059Y-92301888D01*
X141068691Y-92384055D01*
X140890166Y-92503342D01*
X140738342Y-92655166D01*
X140619055Y-92833691D01*
X140536888Y-93032059D01*
X140495000Y-93242644D01*
X139393543Y-93242644D01*
X140471188Y-92165000D01*
X142218813Y-92165000D01*
X142902743Y-92848930D01*
X142826888Y-93032059D01*
X142785000Y-93242644D01*
X142785000Y-93457356D01*
X142826888Y-93667941D01*
X142909055Y-93866309D01*
X143028342Y-94044834D01*
X143180166Y-94196658D01*
X143358691Y-94315945D01*
X143557059Y-94398112D01*
X143767644Y-94440000D01*
X143982356Y-94440000D01*
X144192941Y-94398112D01*
X144391309Y-94315945D01*
X144569834Y-94196658D01*
X144721658Y-94044834D01*
X144840945Y-93866309D01*
X144923112Y-93667941D01*
X144965000Y-93457356D01*
X144965000Y-93242644D01*
X144923112Y-93032059D01*
X144840945Y-92833691D01*
X144721658Y-92655166D01*
X144569834Y-92503342D01*
X144391309Y-92384055D01*
X144192941Y-92301888D01*
X143982356Y-92260000D01*
X143767644Y-92260000D01*
X143557059Y-92301888D01*
X143437570Y-92351382D01*
X142640779Y-91554592D01*
X142629343Y-91540657D01*
X142573764Y-91495045D01*
X142510355Y-91461152D01*
X142441552Y-91440281D01*
X142387931Y-91435000D01*
X142387929Y-91435000D01*
X142370000Y-91433234D01*
X142352071Y-91435000D01*
X140337929Y-91435000D01*
X140320000Y-91433234D01*
X140302071Y-91435000D01*
X140302069Y-91435000D01*
X140248448Y-91440281D01*
X140179645Y-91461152D01*
X140116236Y-91495045D01*
X140060657Y-91540657D01*
X140049225Y-91554587D01*
X137364588Y-94239225D01*
X137350657Y-94250658D01*
X137305045Y-94306237D01*
X137271152Y-94369646D01*
X137250281Y-94438449D01*
X137245430Y-94487707D01*
X137243234Y-94510000D01*
X137245000Y-94527929D01*
X137245001Y-96054298D01*
X137233897Y-96061717D01*
X137151717Y-96143897D01*
X137087149Y-96240530D01*
X137042673Y-96347903D01*
X137020000Y-96461890D01*
X135744454Y-96461890D01*
X135844779Y-96283034D01*
X135988919Y-95840444D01*
X136043944Y-95378237D01*
X136007740Y-94914177D01*
X135881698Y-94466097D01*
X135670662Y-94051215D01*
X135617063Y-93970999D01*
X135322149Y-93741490D01*
X133733640Y-95330000D01*
X133606360Y-95330000D01*
X132017851Y-93741490D01*
X131722937Y-93970999D01*
X131495221Y-94376966D01*
X131351081Y-94819556D01*
X131296056Y-95281763D01*
X130855000Y-95281763D01*
X130855000Y-94531187D01*
X132361188Y-93025000D01*
X133137786Y-93025000D01*
X132806097Y-93118302D01*
X132391215Y-93329338D01*
X132310999Y-93382937D01*
X132081490Y-93677851D01*
X133670000Y-95266360D01*
X135258510Y-93677851D01*
X135029001Y-93382937D01*
X134623034Y-93155221D01*
X134223183Y-93025000D01*
X137752071Y-93025000D01*
X137770000Y-93026766D01*
X137787929Y-93025000D01*
X137787931Y-93025000D01*
X137841552Y-93019719D01*
X137910355Y-92998848D01*
X137973764Y-92964955D01*
X138029343Y-92919343D01*
X138040779Y-92905408D01*
X138138792Y-92807395D01*
X138151890Y-92810000D01*
X138268110Y-92810000D01*
X138382097Y-92787327D01*
X138489470Y-92742851D01*
X138586103Y-92678283D01*
X138668283Y-92596103D01*
X138732851Y-92499470D01*
X138777327Y-92392097D01*
X138800000Y-92278110D01*
X138800000Y-92161890D01*
X138777327Y-92047903D01*
X138732851Y-91940530D01*
X138668283Y-91843897D01*
X138586103Y-91761717D01*
X138489470Y-91697149D01*
X138382097Y-91652673D01*
X138268110Y-91630000D01*
X138151890Y-91630000D01*
X138037903Y-91652673D01*
X137930530Y-91697149D01*
X137833897Y-91761717D01*
X137751717Y-91843897D01*
X137687149Y-91940530D01*
X137642673Y-92047903D01*
X137620000Y-92161890D01*
X137620000Y-92278110D01*
X137622605Y-92291208D01*
X137618813Y-92295000D01*
X132227928Y-92295000D01*
X132209999Y-92293234D01*
X132192070Y-92295000D01*
X132192069Y-92295000D01*
X132138448Y-92300281D01*
X132069645Y-92321152D01*
X132014423Y-92350669D01*
X132006234Y-92355046D01*
X131999764Y-92360356D01*
X131950657Y-92400657D01*
X131939226Y-92414586D01*
X130244588Y-94109225D01*
X130230658Y-94120657D01*
X130198493Y-94159851D01*
X130185046Y-94176236D01*
X130151153Y-94239645D01*
X130130282Y-94308448D01*
X130123234Y-94380000D01*
X130125001Y-94397939D01*
X130125000Y-96768812D01*
X128658813Y-98235000D01*
X127517928Y-98235000D01*
X127499999Y-98233234D01*
X127482070Y-98235000D01*
X127482069Y-98235000D01*
X127428448Y-98240281D01*
X127359645Y-98261152D01*
X127359643Y-98261153D01*
X127296234Y-98295046D01*
X127272928Y-98314173D01*
X127240657Y-98340657D01*
X127229226Y-98354586D01*
X124291079Y-101292734D01*
X122561146Y-101292734D01*
X122514098Y-101297368D01*
X122468858Y-101311091D01*
X122427164Y-101333377D01*
X122390619Y-101363368D01*
X122360628Y-101399913D01*
X122338342Y-101441607D01*
X122324619Y-101486847D01*
X122319985Y-101533895D01*
X122319985Y-104240000D01*
X120630000Y-104240000D01*
X120630000Y-102008355D01*
X124783107Y-96590000D01*
X128184245Y-96590000D01*
X128197215Y-96588723D01*
X128205011Y-96588777D01*
X128209041Y-96588381D01*
X128451660Y-96562880D01*
X128477388Y-96557599D01*
X128503226Y-96552670D01*
X128507100Y-96551501D01*
X128507106Y-96551499D01*
X128740149Y-96479360D01*
X128764382Y-96469173D01*
X128788750Y-96459328D01*
X128792325Y-96457427D01*
X129006922Y-96341395D01*
X129028715Y-96326696D01*
X129050706Y-96312305D01*
X129053844Y-96309746D01*
X129241816Y-96154242D01*
X129260322Y-96135606D01*
X129279116Y-96117202D01*
X129281697Y-96114082D01*
X129435886Y-95925028D01*
X129450425Y-95903144D01*
X129465281Y-95881448D01*
X129467207Y-95877886D01*
X129581738Y-95662485D01*
X129591755Y-95638181D01*
X129602109Y-95614025D01*
X129603306Y-95610157D01*
X129673817Y-95376612D01*
X129678918Y-95350848D01*
X129684387Y-95325119D01*
X129684810Y-95321092D01*
X129708616Y-95078299D01*
X129708616Y-95078298D01*
X129710000Y-95064245D01*
X129710000Y-94715755D01*
X129708723Y-94702785D01*
X129708777Y-94694988D01*
X129708381Y-94690959D01*
X129682880Y-94448339D01*
X129677598Y-94422605D01*
X129672670Y-94396774D01*
X129671500Y-94392898D01*
X129599360Y-94159851D01*
X129589181Y-94135637D01*
X129579329Y-94111251D01*
X129577427Y-94107676D01*
X129577427Y-94107675D01*
X129577424Y-94107671D01*
X129461395Y-93893078D01*
X129446696Y-93871285D01*
X129432305Y-93849294D01*
X129429746Y-93846156D01*
X129274242Y-93658184D01*
X129255606Y-93639678D01*
X129237202Y-93620884D01*
X129234081Y-93618303D01*
X129045028Y-93464114D01*
X129023121Y-93449559D01*
X129001448Y-93434719D01*
X128997886Y-93432793D01*
X128782485Y-93318262D01*
X128758181Y-93308245D01*
X128734025Y-93297891D01*
X128730157Y-93296694D01*
X128496612Y-93226183D01*
X128470848Y-93221082D01*
X128460000Y-93218776D01*
X128460000Y-91818522D01*
X129372922Y-90630000D01*
X138083239Y-90630000D01*
X138042673Y-90727933D01*
G37*
G04 #@! TD.AperFunction*
M02*
