G04 #@! TF.GenerationSoftware,KiCad,Pcbnew,(6.0.6-0)*
G04 #@! TF.CreationDate,2023-02-17T17:31:31-05:00*
G04 #@! TF.ProjectId,VGA2SCART,56474132-5343-4415-9254-2e6b69636164,1*
G04 #@! TF.SameCoordinates,Original*
G04 #@! TF.FileFunction,Copper,L1,Top*
G04 #@! TF.FilePolarity,Positive*
%FSLAX46Y46*%
G04 Gerber Fmt 4.6, Leading zero omitted, Abs format (unit mm)*
G04 Created by KiCad (PCBNEW (6.0.6-0)) date 2023-02-17 17:31:31*
%MOMM*%
%LPD*%
G01*
G04 APERTURE LIST*
G04 #@! TA.AperFunction,ComponentPad*
%ADD10R,1.700000X1.700000*%
G04 #@! TD*
G04 #@! TA.AperFunction,ComponentPad*
%ADD11C,1.700000*%
G04 #@! TD*
G04 #@! TA.AperFunction,ComponentPad*
%ADD12C,4.066000*%
G04 #@! TD*
G04 #@! TA.AperFunction,SMDPad,CuDef*
%ADD13R,2.000000X3.000000*%
G04 #@! TD*
G04 #@! TA.AperFunction,ViaPad*
%ADD14C,0.700000*%
G04 #@! TD*
G04 #@! TA.AperFunction,Conductor*
%ADD15C,0.250000*%
G04 #@! TD*
G04 APERTURE END LIST*
D10*
X141585000Y-97310000D03*
D11*
X143875000Y-97310000D03*
X146165000Y-97310000D03*
X148455000Y-97310000D03*
X150745000Y-97310000D03*
X140440000Y-95330000D03*
X142730000Y-95330000D03*
X145020000Y-95330000D03*
X147310000Y-95330000D03*
X149600000Y-95330000D03*
X141585000Y-93350000D03*
X143875000Y-93350000D03*
X146165000Y-93350000D03*
X148455000Y-93350000D03*
X150745000Y-93350000D03*
D12*
X158660000Y-95330000D03*
X133670000Y-95330000D03*
D13*
X157761146Y-103033895D03*
X153961146Y-103033895D03*
X150161146Y-103033895D03*
X146361146Y-103033895D03*
X142561146Y-103033895D03*
X138761146Y-103033895D03*
X134961146Y-103033895D03*
X131161146Y-103033895D03*
X127361146Y-103033895D03*
X123561146Y-103033895D03*
D14*
X133930000Y-90890000D03*
X125440000Y-97650000D03*
X138210000Y-92220000D03*
X139500000Y-91175000D03*
X137610000Y-96520000D03*
X147370000Y-99160000D03*
X155860000Y-92210000D03*
X154560000Y-92210000D03*
X152230000Y-100510000D03*
X146380000Y-100400000D03*
X129275000Y-101725000D03*
X129950000Y-98750000D03*
X149780000Y-99820000D03*
D15*
X147370000Y-99160000D02*
X147640000Y-98890000D01*
X147640000Y-98890000D02*
X152500000Y-98890000D01*
X152500000Y-98890000D02*
X153960000Y-100350000D01*
X153960000Y-100350000D02*
X153960000Y-103030000D01*
X149780000Y-99820000D02*
X149290000Y-100310000D01*
X149290000Y-100310000D02*
X146470000Y-100310000D01*
X146470000Y-100310000D02*
X146380000Y-100400000D01*
X130550000Y-93325000D02*
X132250000Y-91625000D01*
X137615000Y-91625000D02*
X138210000Y-92220000D01*
X123560000Y-102540000D02*
X127500000Y-98600000D01*
X127700000Y-98600000D02*
X130550000Y-95750000D01*
X130550000Y-95750000D02*
X130550000Y-93325000D01*
X127500000Y-98600000D02*
X127700000Y-98600000D01*
X132250000Y-91625000D02*
X137615000Y-91625000D01*
X139500000Y-91175000D02*
X139774970Y-90900030D01*
X143715030Y-90900030D02*
X146165000Y-93350000D01*
X139774970Y-90900030D02*
X143715030Y-90900030D01*
X143900000Y-93330000D02*
X142370000Y-91800000D01*
X137610000Y-94510000D02*
X137610000Y-96520000D01*
X140320000Y-91800000D02*
X137610000Y-94510000D01*
X142370000Y-91800000D02*
X140320000Y-91800000D01*
X155860000Y-92210000D02*
X155860000Y-94120000D01*
X155860000Y-94120000D02*
X153880000Y-96100000D01*
X153880000Y-96100000D02*
X153880000Y-97140000D01*
X153880000Y-97140000D02*
X157760000Y-101020000D01*
X157760000Y-101020000D02*
X157760000Y-103030000D01*
X154560000Y-93720000D02*
X154560000Y-92210000D01*
X151945000Y-94500000D02*
X153780000Y-94500000D01*
X150775000Y-93330000D02*
X151945000Y-94500000D01*
X153780000Y-94500000D02*
X154560000Y-93720000D01*
X137650000Y-99180000D02*
X133395000Y-99180000D01*
X133395000Y-99180000D02*
X131170000Y-101405000D01*
X131170000Y-101405000D02*
X131170000Y-103020000D01*
X141615000Y-97290000D02*
X139540000Y-97290000D01*
X131170000Y-103020000D02*
X131160000Y-103030000D01*
X139540000Y-97290000D02*
X137650000Y-99180000D01*
X142540000Y-99690000D02*
X139810000Y-99690000D01*
X139810000Y-99690000D02*
X138760000Y-100740000D01*
X143905000Y-98325000D02*
X142540000Y-99690000D01*
X143905000Y-97290000D02*
X143905000Y-98325000D01*
X138760000Y-100740000D02*
X138760000Y-103030000D01*
X146195000Y-97915000D02*
X144390000Y-99720000D01*
X144390000Y-100540000D02*
X146360000Y-102510000D01*
X146360000Y-102510000D02*
X146360000Y-103030000D01*
X144390000Y-99720000D02*
X144390000Y-100540000D01*
X146195000Y-97290000D02*
X146195000Y-97915000D01*
X129950000Y-98750000D02*
X129275000Y-99425000D01*
X129275000Y-99425000D02*
X129275000Y-101725000D01*
G04 #@! TA.AperFunction,Conductor*
G36*
X139648330Y-90518982D02*
G01*
X139675350Y-90565782D01*
X139665966Y-90619000D01*
X139628736Y-90652084D01*
X139613396Y-90658675D01*
X139612307Y-90656140D01*
X139576242Y-90663417D01*
X139576233Y-90664915D01*
X139435630Y-90664056D01*
X139435628Y-90664056D01*
X139430005Y-90664022D01*
X139289404Y-90704206D01*
X139165732Y-90782237D01*
X139068932Y-90891841D01*
X139006786Y-91024209D01*
X138984288Y-91168699D01*
X139003249Y-91313695D01*
X139062143Y-91447542D01*
X139065765Y-91451851D01*
X139130639Y-91529028D01*
X139156236Y-91559479D01*
X139277964Y-91640508D01*
X139417541Y-91684116D01*
X139467056Y-91685023D01*
X139558120Y-91686692D01*
X139558121Y-91686692D01*
X139563747Y-91686795D01*
X139704829Y-91648332D01*
X139814479Y-91581007D01*
X139824652Y-91574761D01*
X139829445Y-91571818D01*
X139833218Y-91567650D01*
X139833220Y-91567648D01*
X139923799Y-91467577D01*
X139923800Y-91467576D01*
X139927576Y-91463404D01*
X139938545Y-91440765D01*
X139988881Y-91336870D01*
X139991335Y-91331805D01*
X139994382Y-91313695D01*
X140004859Y-91251423D01*
X140031510Y-91204413D01*
X140082764Y-91185530D01*
X143564050Y-91185530D01*
X143614830Y-91204012D01*
X143619911Y-91208669D01*
X145235723Y-92824481D01*
X145258561Y-92873457D01*
X145249090Y-92918400D01*
X145231720Y-92949996D01*
X145171800Y-93138889D01*
X145149710Y-93335823D01*
X145166292Y-93533297D01*
X145191431Y-93620968D01*
X145215873Y-93706205D01*
X145220915Y-93723790D01*
X145311498Y-93900045D01*
X145434590Y-94055348D01*
X145585504Y-94183786D01*
X145588878Y-94185672D01*
X145588880Y-94185673D01*
X145627615Y-94207321D01*
X145758490Y-94280465D01*
X145762152Y-94281655D01*
X145762157Y-94281657D01*
X145864736Y-94314986D01*
X145946960Y-94341702D01*
X145950797Y-94342160D01*
X145950799Y-94342160D01*
X146139892Y-94364708D01*
X146139895Y-94364708D01*
X146143735Y-94365166D01*
X146341320Y-94349963D01*
X146348971Y-94347827D01*
X146433170Y-94324318D01*
X146532190Y-94296671D01*
X146660128Y-94232045D01*
X146705619Y-94209066D01*
X146705621Y-94209065D01*
X146709073Y-94207321D01*
X146839130Y-94105709D01*
X146862190Y-94087693D01*
X146862192Y-94087691D01*
X146865232Y-94085316D01*
X146921784Y-94019800D01*
X146992196Y-93938228D01*
X146992200Y-93938223D01*
X146994720Y-93935303D01*
X146996626Y-93931947D01*
X146996630Y-93931942D01*
X147079272Y-93786465D01*
X147092604Y-93762996D01*
X147104403Y-93727528D01*
X147153935Y-93578630D01*
X147153936Y-93578625D01*
X147155156Y-93574958D01*
X147179993Y-93378351D01*
X147180389Y-93350000D01*
X147178999Y-93335823D01*
X147439710Y-93335823D01*
X147456292Y-93533297D01*
X147481431Y-93620968D01*
X147505873Y-93706205D01*
X147510915Y-93723790D01*
X147601498Y-93900045D01*
X147724590Y-94055348D01*
X147875504Y-94183786D01*
X147878878Y-94185672D01*
X147878880Y-94185673D01*
X147917615Y-94207321D01*
X148048490Y-94280465D01*
X148052152Y-94281655D01*
X148052157Y-94281657D01*
X148154736Y-94314986D01*
X148236960Y-94341702D01*
X148240797Y-94342160D01*
X148240799Y-94342160D01*
X148429892Y-94364708D01*
X148429895Y-94364708D01*
X148433735Y-94365166D01*
X148631320Y-94349963D01*
X148638971Y-94347827D01*
X148723170Y-94324318D01*
X148822190Y-94296671D01*
X148950128Y-94232045D01*
X148995619Y-94209066D01*
X148995621Y-94209065D01*
X148999073Y-94207321D01*
X149129130Y-94105709D01*
X149152190Y-94087693D01*
X149152192Y-94087691D01*
X149155232Y-94085316D01*
X149211784Y-94019800D01*
X149282196Y-93938228D01*
X149282200Y-93938223D01*
X149284720Y-93935303D01*
X149286626Y-93931947D01*
X149286630Y-93931942D01*
X149369272Y-93786465D01*
X149382604Y-93762996D01*
X149394403Y-93727528D01*
X149443935Y-93578630D01*
X149443936Y-93578625D01*
X149445156Y-93574958D01*
X149469993Y-93378351D01*
X149470389Y-93350000D01*
X149468999Y-93335823D01*
X149729710Y-93335823D01*
X149746292Y-93533297D01*
X149771431Y-93620968D01*
X149795873Y-93706205D01*
X149800915Y-93723790D01*
X149891498Y-93900045D01*
X150014590Y-94055348D01*
X150165504Y-94183786D01*
X150168878Y-94185672D01*
X150168880Y-94185673D01*
X150207615Y-94207321D01*
X150338490Y-94280465D01*
X150342152Y-94281655D01*
X150342157Y-94281657D01*
X150444736Y-94314986D01*
X150526960Y-94341702D01*
X150530797Y-94342160D01*
X150530799Y-94342160D01*
X150719892Y-94364708D01*
X150719895Y-94364708D01*
X150723735Y-94365166D01*
X150921320Y-94349963D01*
X150925038Y-94348925D01*
X151108470Y-94297710D01*
X151108473Y-94297709D01*
X151112190Y-94296671D01*
X151125567Y-94289914D01*
X151161588Y-94271718D01*
X151211115Y-94246700D01*
X151264773Y-94240301D01*
X151302595Y-94261353D01*
X151706718Y-94665476D01*
X151709822Y-94669071D01*
X151711826Y-94673171D01*
X151717173Y-94678131D01*
X151746495Y-94705331D01*
X151748630Y-94707388D01*
X151761896Y-94720654D01*
X151764902Y-94722716D01*
X151766459Y-94724010D01*
X151769694Y-94726851D01*
X151789800Y-94745502D01*
X151800746Y-94749869D01*
X151801513Y-94750175D01*
X151816925Y-94758404D01*
X151827328Y-94765541D01*
X151850216Y-94770972D01*
X151853027Y-94771639D01*
X151864058Y-94775128D01*
X151888586Y-94784914D01*
X151894563Y-94785500D01*
X151902193Y-94785500D01*
X151920432Y-94787635D01*
X151930812Y-94790098D01*
X151938042Y-94789114D01*
X151938043Y-94789114D01*
X151959291Y-94786222D01*
X151969945Y-94785500D01*
X153728526Y-94785500D01*
X153733255Y-94785847D01*
X153737571Y-94787329D01*
X153784799Y-94785556D01*
X153787762Y-94785500D01*
X153806552Y-94785500D01*
X153810129Y-94784834D01*
X153812172Y-94784645D01*
X153816469Y-94784367D01*
X153836563Y-94783613D01*
X153836565Y-94783613D01*
X153843853Y-94783339D01*
X153855442Y-94778360D01*
X153872155Y-94773283D01*
X153877384Y-94772309D01*
X153877388Y-94772308D01*
X153884559Y-94770972D01*
X153907045Y-94757112D01*
X153917310Y-94751780D01*
X153931922Y-94745502D01*
X153941574Y-94741355D01*
X153946215Y-94737543D01*
X153951606Y-94732152D01*
X153966014Y-94720763D01*
X153968886Y-94718993D01*
X153968889Y-94718990D01*
X153975098Y-94715163D01*
X153992500Y-94692278D01*
X153999523Y-94684235D01*
X154725476Y-93958282D01*
X154729071Y-93955178D01*
X154733171Y-93953174D01*
X154765331Y-93918505D01*
X154767388Y-93916370D01*
X154780654Y-93903104D01*
X154782716Y-93900098D01*
X154784010Y-93898541D01*
X154786852Y-93895305D01*
X154800540Y-93880549D01*
X154805502Y-93875200D01*
X154810174Y-93863490D01*
X154818406Y-93848073D01*
X154821415Y-93843687D01*
X154821417Y-93843683D01*
X154825541Y-93837671D01*
X154831640Y-93811972D01*
X154835129Y-93800941D01*
X154842846Y-93781598D01*
X154842846Y-93781597D01*
X154844914Y-93776414D01*
X154845500Y-93770437D01*
X154845500Y-93762813D01*
X154847635Y-93744572D01*
X154848414Y-93741289D01*
X154848414Y-93741288D01*
X154850099Y-93734188D01*
X154846222Y-93705702D01*
X154845500Y-93695048D01*
X154845500Y-92677998D01*
X154863982Y-92627218D01*
X154883160Y-92610678D01*
X154884648Y-92609765D01*
X154884656Y-92609759D01*
X154889445Y-92606818D01*
X154893218Y-92602650D01*
X154893220Y-92602648D01*
X154983799Y-92502577D01*
X154983800Y-92502576D01*
X154987576Y-92498404D01*
X155051335Y-92366805D01*
X155052700Y-92358695D01*
X155075090Y-92225610D01*
X155075090Y-92225607D01*
X155075596Y-92222601D01*
X155075750Y-92210000D01*
X155061234Y-92108639D01*
X155055818Y-92070816D01*
X155055817Y-92070814D01*
X155055020Y-92065246D01*
X155049959Y-92054114D01*
X154996827Y-91937257D01*
X154996826Y-91937255D01*
X154994495Y-91932129D01*
X154990820Y-91927864D01*
X154990818Y-91927861D01*
X154902716Y-91825615D01*
X154899041Y-91821350D01*
X154826802Y-91774527D01*
X154781054Y-91744874D01*
X154781051Y-91744872D01*
X154776332Y-91741814D01*
X154706282Y-91720864D01*
X154641621Y-91701526D01*
X154641619Y-91701526D01*
X154636233Y-91699915D01*
X154563711Y-91699472D01*
X154495630Y-91699056D01*
X154495628Y-91699056D01*
X154490005Y-91699022D01*
X154349404Y-91739206D01*
X154275313Y-91785954D01*
X154250888Y-91801365D01*
X154225732Y-91817237D01*
X154222011Y-91821450D01*
X154222010Y-91821451D01*
X154209501Y-91835615D01*
X154128932Y-91926841D01*
X154066786Y-92059209D01*
X154044288Y-92203699D01*
X154048461Y-92235610D01*
X154061411Y-92334636D01*
X154063249Y-92348695D01*
X154122143Y-92482542D01*
X154216236Y-92594479D01*
X154239200Y-92609765D01*
X154239275Y-92609815D01*
X154271305Y-92653339D01*
X154274500Y-92675578D01*
X154274500Y-93569020D01*
X154256018Y-93619800D01*
X154251361Y-93624881D01*
X153684881Y-94191361D01*
X153635905Y-94214199D01*
X153629020Y-94214500D01*
X152095980Y-94214500D01*
X152045200Y-94196018D01*
X152040119Y-94191361D01*
X151691915Y-93843157D01*
X151669077Y-93794181D01*
X151672815Y-93762363D01*
X151735156Y-93574958D01*
X151759993Y-93378351D01*
X151760389Y-93350000D01*
X151741051Y-93152777D01*
X151739144Y-93146459D01*
X151684891Y-92966765D01*
X151683774Y-92963065D01*
X151681963Y-92959660D01*
X151681961Y-92959654D01*
X151592551Y-92791500D01*
X151590739Y-92788092D01*
X151583919Y-92779729D01*
X151500948Y-92677998D01*
X151465490Y-92634522D01*
X151453415Y-92624532D01*
X151315773Y-92510665D01*
X151315772Y-92510664D01*
X151312798Y-92508204D01*
X151294979Y-92498569D01*
X151255811Y-92477391D01*
X151138479Y-92413950D01*
X150949172Y-92355350D01*
X150752089Y-92334636D01*
X150748243Y-92334986D01*
X150748242Y-92334986D01*
X150700487Y-92339332D01*
X150554735Y-92352596D01*
X150551028Y-92353687D01*
X150368338Y-92407456D01*
X150368335Y-92407457D01*
X150364629Y-92408548D01*
X150189010Y-92500359D01*
X150186003Y-92502777D01*
X150186001Y-92502778D01*
X150179004Y-92508404D01*
X150034570Y-92624532D01*
X149907189Y-92776339D01*
X149905327Y-92779727D01*
X149905325Y-92779729D01*
X149813582Y-92946609D01*
X149811720Y-92949996D01*
X149751800Y-93138889D01*
X149729710Y-93335823D01*
X149468999Y-93335823D01*
X149451051Y-93152777D01*
X149449144Y-93146459D01*
X149394891Y-92966765D01*
X149393774Y-92963065D01*
X149391963Y-92959660D01*
X149391961Y-92959654D01*
X149302551Y-92791500D01*
X149300739Y-92788092D01*
X149293919Y-92779729D01*
X149210948Y-92677998D01*
X149175490Y-92634522D01*
X149163415Y-92624532D01*
X149025773Y-92510665D01*
X149025772Y-92510664D01*
X149022798Y-92508204D01*
X149004979Y-92498569D01*
X148965811Y-92477391D01*
X148848479Y-92413950D01*
X148659172Y-92355350D01*
X148462089Y-92334636D01*
X148458243Y-92334986D01*
X148458242Y-92334986D01*
X148410487Y-92339332D01*
X148264735Y-92352596D01*
X148261028Y-92353687D01*
X148078338Y-92407456D01*
X148078335Y-92407457D01*
X148074629Y-92408548D01*
X147899010Y-92500359D01*
X147896003Y-92502777D01*
X147896001Y-92502778D01*
X147889004Y-92508404D01*
X147744570Y-92624532D01*
X147617189Y-92776339D01*
X147615327Y-92779727D01*
X147615325Y-92779729D01*
X147523582Y-92946609D01*
X147521720Y-92949996D01*
X147461800Y-93138889D01*
X147439710Y-93335823D01*
X147178999Y-93335823D01*
X147161051Y-93152777D01*
X147159144Y-93146459D01*
X147104891Y-92966765D01*
X147103774Y-92963065D01*
X147101963Y-92959660D01*
X147101961Y-92959654D01*
X147012551Y-92791500D01*
X147010739Y-92788092D01*
X147003919Y-92779729D01*
X146920948Y-92677998D01*
X146885490Y-92634522D01*
X146873415Y-92624532D01*
X146735773Y-92510665D01*
X146735772Y-92510664D01*
X146732798Y-92508204D01*
X146714979Y-92498569D01*
X146675811Y-92477391D01*
X146558479Y-92413950D01*
X146369172Y-92355350D01*
X146172089Y-92334636D01*
X146168243Y-92334986D01*
X146168242Y-92334986D01*
X146120487Y-92339332D01*
X145974735Y-92352596D01*
X145971028Y-92353687D01*
X145788338Y-92407456D01*
X145788335Y-92407457D01*
X145784629Y-92408548D01*
X145781203Y-92410339D01*
X145781201Y-92410340D01*
X145732743Y-92435673D01*
X145679179Y-92442820D01*
X145640282Y-92421524D01*
X143953312Y-90734554D01*
X143950208Y-90730959D01*
X143948204Y-90726859D01*
X143913535Y-90694699D01*
X143911400Y-90692642D01*
X143898134Y-90679376D01*
X143895128Y-90677314D01*
X143893571Y-90676020D01*
X143890335Y-90673178D01*
X143880465Y-90664022D01*
X143870230Y-90654528D01*
X143863454Y-90651825D01*
X143857290Y-90647928D01*
X143858464Y-90646071D01*
X143825773Y-90616894D01*
X143818018Y-90563414D01*
X143846453Y-90517461D01*
X143895363Y-90500500D01*
X161337373Y-90500500D01*
X161388153Y-90518982D01*
X161415173Y-90565782D01*
X161416373Y-90579446D01*
X161421130Y-97541116D01*
X161402682Y-97591909D01*
X161362095Y-97617606D01*
X161337882Y-97623930D01*
X161337878Y-97623931D01*
X161334920Y-97624704D01*
X161332115Y-97625924D01*
X161332109Y-97625926D01*
X161164146Y-97698976D01*
X161128635Y-97714420D01*
X160938641Y-97834858D01*
X160769480Y-97983139D01*
X160767522Y-97985481D01*
X160767520Y-97985483D01*
X160740462Y-98017848D01*
X160625195Y-98155720D01*
X160623622Y-98158335D01*
X160623619Y-98158339D01*
X160525506Y-98321427D01*
X160509232Y-98348478D01*
X160424363Y-98556805D01*
X160423659Y-98559785D01*
X160423658Y-98559787D01*
X160409813Y-98618361D01*
X160372617Y-98775722D01*
X160372381Y-98778760D01*
X160372381Y-98778763D01*
X160369559Y-98815163D01*
X160355230Y-99000000D01*
X160355437Y-99000000D01*
X160357705Y-99010023D01*
X160357673Y-99010434D01*
X160359500Y-99026782D01*
X160359500Y-99282794D01*
X160357491Y-99300498D01*
X160355372Y-99309713D01*
X160355437Y-99310000D01*
X160355138Y-99310000D01*
X160372681Y-99532115D01*
X160424876Y-99748722D01*
X160426071Y-99751595D01*
X160509234Y-99951577D01*
X160509238Y-99951584D01*
X160510429Y-99954449D01*
X160512057Y-99957094D01*
X160512058Y-99957096D01*
X160625584Y-100141543D01*
X160625588Y-100141549D01*
X160627217Y-100144195D01*
X160629240Y-100146552D01*
X160629244Y-100146557D01*
X160770322Y-100310898D01*
X160770325Y-100310901D01*
X160772345Y-100313254D01*
X160774712Y-100315263D01*
X160774715Y-100315266D01*
X160804951Y-100340929D01*
X160942213Y-100457433D01*
X160944871Y-100459049D01*
X160944873Y-100459050D01*
X160955465Y-100465488D01*
X161132609Y-100573158D01*
X161135481Y-100574334D01*
X161135486Y-100574336D01*
X161335933Y-100656379D01*
X161335937Y-100656380D01*
X161338812Y-100657557D01*
X161341841Y-100658269D01*
X161359220Y-100662354D01*
X161404424Y-100691966D01*
X161420143Y-100739271D01*
X161419541Y-104290513D01*
X161401050Y-104341290D01*
X161354246Y-104368302D01*
X161340541Y-104369500D01*
X159000646Y-104369500D01*
X158949866Y-104351018D01*
X158922846Y-104304218D01*
X158921646Y-104290500D01*
X158921646Y-101518089D01*
X158912333Y-101471271D01*
X158876860Y-101418181D01*
X158823770Y-101382708D01*
X158816141Y-101381190D01*
X158816140Y-101381190D01*
X158792205Y-101376429D01*
X158776952Y-101373395D01*
X158124500Y-101373395D01*
X158073720Y-101354913D01*
X158046700Y-101308113D01*
X158045500Y-101294395D01*
X158045500Y-101071481D01*
X158045848Y-101066747D01*
X158047330Y-101062429D01*
X158045556Y-101015186D01*
X158045500Y-101012222D01*
X158045500Y-100993448D01*
X158044834Y-100989874D01*
X158044647Y-100987843D01*
X158044368Y-100983545D01*
X158043613Y-100963434D01*
X158043613Y-100963432D01*
X158043339Y-100956147D01*
X158038359Y-100944554D01*
X158033282Y-100927846D01*
X158030972Y-100915441D01*
X158017117Y-100892964D01*
X158011782Y-100882694D01*
X158007760Y-100873332D01*
X158001356Y-100858426D01*
X157997544Y-100853786D01*
X157992152Y-100848394D01*
X157980763Y-100833986D01*
X157978993Y-100831114D01*
X157978990Y-100831111D01*
X157975163Y-100824902D01*
X157952279Y-100807500D01*
X157944235Y-100800477D01*
X154188639Y-97044881D01*
X154165801Y-96995905D01*
X154165500Y-96989020D01*
X154165500Y-96250980D01*
X154183982Y-96200200D01*
X154188639Y-96195119D01*
X155053758Y-95330000D01*
X156121491Y-95330000D01*
X156141508Y-95648160D01*
X156141974Y-95650601D01*
X156141974Y-95650604D01*
X156198596Y-95947427D01*
X156201243Y-95961302D01*
X156299754Y-96264487D01*
X156300816Y-96266743D01*
X156300816Y-96266744D01*
X156421426Y-96523052D01*
X156435488Y-96552936D01*
X156436815Y-96555027D01*
X156600261Y-96812577D01*
X156606303Y-96822098D01*
X156687097Y-96919761D01*
X156801333Y-97057848D01*
X156809507Y-97067729D01*
X156811315Y-97069427D01*
X156811318Y-97069430D01*
X157040080Y-97284253D01*
X157040085Y-97284257D01*
X157041893Y-97285955D01*
X157299799Y-97473334D01*
X157342858Y-97497006D01*
X157575139Y-97624704D01*
X157579155Y-97626912D01*
X157581460Y-97627824D01*
X157581465Y-97627827D01*
X157873249Y-97743352D01*
X157875558Y-97744266D01*
X158184331Y-97823545D01*
X158186802Y-97823857D01*
X158186801Y-97823857D01*
X158498143Y-97863189D01*
X158498145Y-97863189D01*
X158500606Y-97863500D01*
X158819394Y-97863500D01*
X158821855Y-97863189D01*
X158821857Y-97863189D01*
X159133199Y-97823857D01*
X159133198Y-97823857D01*
X159135669Y-97823545D01*
X159444442Y-97744266D01*
X159446751Y-97743352D01*
X159738535Y-97627827D01*
X159738540Y-97627824D01*
X159740845Y-97626912D01*
X159744862Y-97624704D01*
X159977142Y-97497006D01*
X160020201Y-97473334D01*
X160278107Y-97285955D01*
X160279915Y-97284257D01*
X160279920Y-97284253D01*
X160508682Y-97069430D01*
X160508685Y-97069427D01*
X160510493Y-97067729D01*
X160518668Y-97057848D01*
X160632903Y-96919761D01*
X160713697Y-96822098D01*
X160719740Y-96812577D01*
X160883185Y-96555027D01*
X160884512Y-96552936D01*
X160898575Y-96523052D01*
X161019184Y-96266744D01*
X161019184Y-96266743D01*
X161020246Y-96264487D01*
X161118757Y-95961302D01*
X161121404Y-95947427D01*
X161178026Y-95650604D01*
X161178026Y-95650601D01*
X161178492Y-95648160D01*
X161198509Y-95330000D01*
X161178492Y-95011840D01*
X161165373Y-94943065D01*
X161119221Y-94701130D01*
X161119221Y-94701129D01*
X161118757Y-94698698D01*
X161020246Y-94395513D01*
X161005750Y-94364708D01*
X160885567Y-94109305D01*
X160885564Y-94109299D01*
X160884512Y-94107064D01*
X160796907Y-93969020D01*
X160715027Y-93839997D01*
X160715023Y-93839992D01*
X160713697Y-93837902D01*
X160553287Y-93644000D01*
X160512071Y-93594178D01*
X160512068Y-93594175D01*
X160510493Y-93592271D01*
X160486329Y-93569579D01*
X160279920Y-93375747D01*
X160279915Y-93375743D01*
X160278107Y-93374045D01*
X160020201Y-93186666D01*
X159847689Y-93091826D01*
X159743021Y-93034284D01*
X159743018Y-93034282D01*
X159740845Y-93033088D01*
X159738540Y-93032176D01*
X159738535Y-93032173D01*
X159446751Y-92916648D01*
X159446748Y-92916647D01*
X159444442Y-92915734D01*
X159135669Y-92836455D01*
X159074580Y-92828738D01*
X158821857Y-92796811D01*
X158821855Y-92796811D01*
X158819394Y-92796500D01*
X158500606Y-92796500D01*
X158498145Y-92796811D01*
X158498143Y-92796811D01*
X158245420Y-92828738D01*
X158184331Y-92836455D01*
X157875558Y-92915734D01*
X157873252Y-92916647D01*
X157873249Y-92916648D01*
X157581465Y-93032173D01*
X157581460Y-93032176D01*
X157579155Y-93033088D01*
X157576982Y-93034282D01*
X157576979Y-93034284D01*
X157472311Y-93091826D01*
X157299799Y-93186666D01*
X157041893Y-93374045D01*
X157040085Y-93375743D01*
X157040080Y-93375747D01*
X156833671Y-93569579D01*
X156809507Y-93592271D01*
X156807932Y-93594175D01*
X156807929Y-93594178D01*
X156766713Y-93644000D01*
X156606303Y-93837902D01*
X156604977Y-93839992D01*
X156604973Y-93839997D01*
X156523093Y-93969020D01*
X156435488Y-94107064D01*
X156434436Y-94109299D01*
X156434433Y-94109305D01*
X156314250Y-94364708D01*
X156299754Y-94395513D01*
X156201243Y-94698698D01*
X156200779Y-94701129D01*
X156200779Y-94701130D01*
X156154628Y-94943065D01*
X156141508Y-95011840D01*
X156121491Y-95330000D01*
X155053758Y-95330000D01*
X156025476Y-94358282D01*
X156029071Y-94355178D01*
X156033171Y-94353174D01*
X156065331Y-94318505D01*
X156067388Y-94316370D01*
X156080654Y-94303104D01*
X156082716Y-94300098D01*
X156084010Y-94298541D01*
X156086852Y-94295305D01*
X156100540Y-94280549D01*
X156105502Y-94275200D01*
X156110175Y-94263487D01*
X156118404Y-94248075D01*
X156125541Y-94237672D01*
X156131639Y-94211973D01*
X156135129Y-94200938D01*
X156138950Y-94191361D01*
X156144914Y-94176414D01*
X156145500Y-94170437D01*
X156145500Y-94162807D01*
X156147635Y-94144566D01*
X156148413Y-94141287D01*
X156150098Y-94134188D01*
X156146222Y-94105709D01*
X156145500Y-94095055D01*
X156145500Y-92677998D01*
X156163982Y-92627218D01*
X156183160Y-92610678D01*
X156184648Y-92609765D01*
X156184656Y-92609759D01*
X156189445Y-92606818D01*
X156193218Y-92602650D01*
X156193220Y-92602648D01*
X156283799Y-92502577D01*
X156283800Y-92502576D01*
X156287576Y-92498404D01*
X156351335Y-92366805D01*
X156352700Y-92358695D01*
X156375090Y-92225610D01*
X156375090Y-92225607D01*
X156375596Y-92222601D01*
X156375750Y-92210000D01*
X156361234Y-92108639D01*
X156355818Y-92070816D01*
X156355817Y-92070814D01*
X156355020Y-92065246D01*
X156349959Y-92054114D01*
X156296827Y-91937257D01*
X156296826Y-91937255D01*
X156294495Y-91932129D01*
X156290820Y-91927864D01*
X156290818Y-91927861D01*
X156202716Y-91825615D01*
X156199041Y-91821350D01*
X156126802Y-91774527D01*
X156081054Y-91744874D01*
X156081051Y-91744872D01*
X156076332Y-91741814D01*
X156006282Y-91720864D01*
X155941621Y-91701526D01*
X155941619Y-91701526D01*
X155936233Y-91699915D01*
X155863711Y-91699472D01*
X155795630Y-91699056D01*
X155795628Y-91699056D01*
X155790005Y-91699022D01*
X155649404Y-91739206D01*
X155575313Y-91785954D01*
X155550888Y-91801365D01*
X155525732Y-91817237D01*
X155522011Y-91821450D01*
X155522010Y-91821451D01*
X155509501Y-91835615D01*
X155428932Y-91926841D01*
X155366786Y-92059209D01*
X155344288Y-92203699D01*
X155348461Y-92235610D01*
X155361411Y-92334636D01*
X155363249Y-92348695D01*
X155422143Y-92482542D01*
X155516236Y-92594479D01*
X155539200Y-92609765D01*
X155539275Y-92609815D01*
X155571305Y-92653339D01*
X155574500Y-92675578D01*
X155574500Y-93969020D01*
X155556018Y-94019800D01*
X155551361Y-94024881D01*
X153714524Y-95861718D01*
X153710929Y-95864822D01*
X153706829Y-95866826D01*
X153701869Y-95872173D01*
X153674669Y-95901495D01*
X153672612Y-95903630D01*
X153659346Y-95916896D01*
X153657284Y-95919902D01*
X153655990Y-95921459D01*
X153653149Y-95924694D01*
X153634498Y-95944800D01*
X153630131Y-95955746D01*
X153629825Y-95956513D01*
X153621596Y-95971925D01*
X153614459Y-95982328D01*
X153612775Y-95989426D01*
X153608361Y-96008027D01*
X153604872Y-96019058D01*
X153595086Y-96043586D01*
X153594500Y-96049563D01*
X153594500Y-96057193D01*
X153592365Y-96075432D01*
X153589902Y-96085812D01*
X153590886Y-96093042D01*
X153590886Y-96093043D01*
X153593778Y-96114291D01*
X153594500Y-96124945D01*
X153594500Y-97088526D01*
X153594153Y-97093255D01*
X153592671Y-97097571D01*
X153592945Y-97104862D01*
X153594444Y-97144798D01*
X153594500Y-97147762D01*
X153594500Y-97166552D01*
X153595166Y-97170129D01*
X153595355Y-97172172D01*
X153595633Y-97176469D01*
X153596661Y-97203853D01*
X153601640Y-97215442D01*
X153606717Y-97232155D01*
X153607691Y-97237384D01*
X153607692Y-97237388D01*
X153609028Y-97244559D01*
X153612855Y-97250767D01*
X153622888Y-97267045D01*
X153628220Y-97277310D01*
X153638645Y-97301574D01*
X153642457Y-97306215D01*
X153647848Y-97311606D01*
X153659237Y-97326014D01*
X153661007Y-97328886D01*
X153661010Y-97328889D01*
X153664837Y-97335098D01*
X153685782Y-97351025D01*
X153687722Y-97352500D01*
X153695765Y-97359523D01*
X157451361Y-101115119D01*
X157474199Y-101164095D01*
X157474500Y-101170980D01*
X157474500Y-101294395D01*
X157456018Y-101345175D01*
X157409218Y-101372195D01*
X157395500Y-101373395D01*
X156745340Y-101373395D01*
X156730087Y-101376429D01*
X156706152Y-101381190D01*
X156706151Y-101381190D01*
X156698522Y-101382708D01*
X156645432Y-101418181D01*
X156609959Y-101471271D01*
X156600646Y-101518089D01*
X156600646Y-104290500D01*
X156582164Y-104341280D01*
X156535364Y-104368300D01*
X156521646Y-104369500D01*
X155200646Y-104369500D01*
X155149866Y-104351018D01*
X155122846Y-104304218D01*
X155121646Y-104290500D01*
X155121646Y-101518089D01*
X155112333Y-101471271D01*
X155076860Y-101418181D01*
X155023770Y-101382708D01*
X155016141Y-101381190D01*
X155016140Y-101381190D01*
X154992205Y-101376429D01*
X154976952Y-101373395D01*
X154324500Y-101373395D01*
X154273720Y-101354913D01*
X154246700Y-101308113D01*
X154245500Y-101294395D01*
X154245500Y-100401474D01*
X154245847Y-100396745D01*
X154247329Y-100392429D01*
X154245556Y-100345201D01*
X154245500Y-100342238D01*
X154245500Y-100323448D01*
X154244834Y-100319871D01*
X154244645Y-100317828D01*
X154244367Y-100313531D01*
X154243613Y-100293437D01*
X154243613Y-100293435D01*
X154243339Y-100286147D01*
X154238360Y-100274558D01*
X154233283Y-100257845D01*
X154232309Y-100252616D01*
X154232308Y-100252612D01*
X154230972Y-100245441D01*
X154217112Y-100222955D01*
X154211780Y-100212690D01*
X154203555Y-100193547D01*
X154201355Y-100188426D01*
X154197543Y-100183785D01*
X154192152Y-100178394D01*
X154180763Y-100163986D01*
X154178993Y-100161114D01*
X154178990Y-100161111D01*
X154175163Y-100154902D01*
X154152279Y-100137500D01*
X154144235Y-100130477D01*
X152738282Y-98724524D01*
X152735178Y-98720929D01*
X152733174Y-98716829D01*
X152698505Y-98684669D01*
X152696370Y-98682612D01*
X152683104Y-98669346D01*
X152680098Y-98667284D01*
X152678541Y-98665990D01*
X152675305Y-98663148D01*
X152663779Y-98652456D01*
X152655200Y-98644498D01*
X152643487Y-98639825D01*
X152628075Y-98631596D01*
X152617672Y-98624459D01*
X152591973Y-98618361D01*
X152580942Y-98614872D01*
X152556414Y-98605086D01*
X152550437Y-98604500D01*
X152542807Y-98604500D01*
X152524568Y-98602365D01*
X152514188Y-98599902D01*
X152506958Y-98600886D01*
X152506957Y-98600886D01*
X152485709Y-98603778D01*
X152475055Y-98604500D01*
X147691481Y-98604500D01*
X147686747Y-98604152D01*
X147682429Y-98602670D01*
X147636951Y-98604378D01*
X147635186Y-98604444D01*
X147632222Y-98604500D01*
X147613448Y-98604500D01*
X147609874Y-98605166D01*
X147607843Y-98605353D01*
X147603548Y-98605632D01*
X147599066Y-98605800D01*
X147583434Y-98606387D01*
X147583432Y-98606387D01*
X147576147Y-98606661D01*
X147564554Y-98611641D01*
X147547846Y-98616718D01*
X147535441Y-98619028D01*
X147519935Y-98628586D01*
X147512964Y-98632883D01*
X147502694Y-98638218D01*
X147487171Y-98644887D01*
X147446863Y-98650103D01*
X147446233Y-98649915D01*
X147371727Y-98649460D01*
X147305630Y-98649056D01*
X147305628Y-98649056D01*
X147300005Y-98649022D01*
X147159404Y-98689206D01*
X147154645Y-98692209D01*
X147043080Y-98762601D01*
X147035732Y-98767237D01*
X147032011Y-98771450D01*
X147032010Y-98771451D01*
X146942658Y-98872622D01*
X146938932Y-98876841D01*
X146930641Y-98894500D01*
X146883342Y-98995246D01*
X146876786Y-99009209D01*
X146854288Y-99153699D01*
X146855018Y-99159280D01*
X146872361Y-99291903D01*
X146873249Y-99298695D01*
X146932143Y-99432542D01*
X146935765Y-99436851D01*
X147010030Y-99525200D01*
X147026236Y-99544479D01*
X147147964Y-99625508D01*
X147153338Y-99627187D01*
X147191347Y-99639062D01*
X147287541Y-99669116D01*
X147337056Y-99670023D01*
X147428120Y-99671692D01*
X147428121Y-99671692D01*
X147433747Y-99671795D01*
X147574829Y-99633332D01*
X147699445Y-99556818D01*
X147703218Y-99552650D01*
X147703220Y-99552648D01*
X147793799Y-99452577D01*
X147793800Y-99452576D01*
X147797576Y-99448404D01*
X147861335Y-99316805D01*
X147862645Y-99309022D01*
X147871958Y-99253665D01*
X147874022Y-99241394D01*
X147900673Y-99194383D01*
X147951927Y-99175500D01*
X149613289Y-99175500D01*
X149664069Y-99193982D01*
X149691089Y-99240782D01*
X149681705Y-99294000D01*
X149640309Y-99328736D01*
X149634998Y-99330459D01*
X149569404Y-99349206D01*
X149526146Y-99376500D01*
X149451568Y-99423555D01*
X149445732Y-99427237D01*
X149442011Y-99431450D01*
X149442010Y-99431451D01*
X149362485Y-99521495D01*
X149348932Y-99536841D01*
X149286786Y-99669209D01*
X149264288Y-99813699D01*
X149272700Y-99878021D01*
X149272918Y-99879691D01*
X149261176Y-99932439D01*
X149250446Y-99945796D01*
X149194881Y-100001361D01*
X149145905Y-100024199D01*
X149139020Y-100024500D01*
X146762517Y-100024500D01*
X146720679Y-100008823D01*
X146719041Y-100011350D01*
X146601054Y-99934874D01*
X146601051Y-99934872D01*
X146596332Y-99931814D01*
X146520025Y-99908993D01*
X146461621Y-99891526D01*
X146461619Y-99891526D01*
X146456233Y-99889915D01*
X146383711Y-99889472D01*
X146315630Y-99889056D01*
X146315628Y-99889056D01*
X146310005Y-99889022D01*
X146169404Y-99929206D01*
X146045732Y-100007237D01*
X146042011Y-100011450D01*
X146042010Y-100011451D01*
X145960858Y-100103337D01*
X145948932Y-100116841D01*
X145886786Y-100249209D01*
X145873943Y-100331692D01*
X145865952Y-100383015D01*
X145864288Y-100393699D01*
X145865018Y-100399280D01*
X145882212Y-100530763D01*
X145883249Y-100538695D01*
X145942143Y-100672542D01*
X145945765Y-100676851D01*
X145980476Y-100718145D01*
X146036236Y-100784479D01*
X146157964Y-100865508D01*
X146163338Y-100867187D01*
X146212972Y-100882694D01*
X146297541Y-100909116D01*
X146347056Y-100910023D01*
X146438120Y-100911692D01*
X146438121Y-100911692D01*
X146443747Y-100911795D01*
X146584829Y-100873332D01*
X146709445Y-100796818D01*
X146713218Y-100792650D01*
X146713220Y-100792648D01*
X146803799Y-100692577D01*
X146803800Y-100692576D01*
X146807576Y-100688404D01*
X146823092Y-100656379D01*
X146831001Y-100640055D01*
X146869775Y-100602414D01*
X146902096Y-100595500D01*
X149238526Y-100595500D01*
X149243255Y-100595847D01*
X149247571Y-100597329D01*
X149294799Y-100595556D01*
X149297762Y-100595500D01*
X149316552Y-100595500D01*
X149320129Y-100594834D01*
X149322172Y-100594645D01*
X149326469Y-100594367D01*
X149346563Y-100593613D01*
X149346565Y-100593613D01*
X149353853Y-100593339D01*
X149365442Y-100588360D01*
X149382155Y-100583283D01*
X149387384Y-100582309D01*
X149387388Y-100582308D01*
X149394559Y-100580972D01*
X149417045Y-100567112D01*
X149427310Y-100561780D01*
X149438677Y-100556896D01*
X149451574Y-100551355D01*
X149456215Y-100547543D01*
X149461606Y-100542152D01*
X149476014Y-100530763D01*
X149478886Y-100528993D01*
X149478889Y-100528990D01*
X149485098Y-100525163D01*
X149502500Y-100502278D01*
X149509523Y-100494235D01*
X149651313Y-100352445D01*
X149700289Y-100329607D01*
X149708621Y-100329319D01*
X149732468Y-100329756D01*
X149838120Y-100331692D01*
X149838121Y-100331692D01*
X149843747Y-100331795D01*
X149984829Y-100293332D01*
X150109445Y-100216818D01*
X150113218Y-100212650D01*
X150113220Y-100212648D01*
X150203799Y-100112577D01*
X150203800Y-100112576D01*
X150207576Y-100108404D01*
X150271335Y-99976805D01*
X150272403Y-99970460D01*
X150295090Y-99835610D01*
X150295090Y-99835607D01*
X150295596Y-99832601D01*
X150295750Y-99820000D01*
X150285110Y-99745700D01*
X150275818Y-99680816D01*
X150275817Y-99680814D01*
X150275020Y-99675246D01*
X150269959Y-99664114D01*
X150216827Y-99547257D01*
X150216826Y-99547255D01*
X150214495Y-99542129D01*
X150210820Y-99537864D01*
X150210818Y-99537861D01*
X150122716Y-99435615D01*
X150119041Y-99431350D01*
X150076310Y-99403653D01*
X150001054Y-99354874D01*
X150001051Y-99354872D01*
X149996332Y-99351814D01*
X149924020Y-99330188D01*
X149880665Y-99297930D01*
X149868188Y-99245351D01*
X149892426Y-99197053D01*
X149946656Y-99175500D01*
X152349020Y-99175500D01*
X152399800Y-99193982D01*
X152404881Y-99198639D01*
X153651361Y-100445119D01*
X153674199Y-100494095D01*
X153674500Y-100500980D01*
X153674500Y-101294395D01*
X153656018Y-101345175D01*
X153609218Y-101372195D01*
X153595500Y-101373395D01*
X152945340Y-101373395D01*
X152930087Y-101376429D01*
X152906152Y-101381190D01*
X152906151Y-101381190D01*
X152898522Y-101382708D01*
X152845432Y-101418181D01*
X152809959Y-101471271D01*
X152800646Y-101518089D01*
X152800646Y-104290500D01*
X152782164Y-104341280D01*
X152735364Y-104368300D01*
X152721646Y-104369500D01*
X147600646Y-104369500D01*
X147549866Y-104351018D01*
X147522846Y-104304218D01*
X147521646Y-104290500D01*
X147521646Y-101518089D01*
X147512333Y-101471271D01*
X147476860Y-101418181D01*
X147423770Y-101382708D01*
X147416141Y-101381190D01*
X147416140Y-101381190D01*
X147392205Y-101376429D01*
X147376952Y-101373395D01*
X145659875Y-101373395D01*
X145609095Y-101354913D01*
X145604014Y-101350256D01*
X144698639Y-100444881D01*
X144675801Y-100395905D01*
X144675500Y-100389020D01*
X144675500Y-99870980D01*
X144693982Y-99820200D01*
X144698639Y-99815119D01*
X146171667Y-98342091D01*
X146221467Y-98319185D01*
X146341320Y-98309963D01*
X146352420Y-98306864D01*
X146447908Y-98280203D01*
X146532190Y-98256671D01*
X146656800Y-98193726D01*
X146705619Y-98169066D01*
X146705621Y-98169065D01*
X146709073Y-98167321D01*
X146865232Y-98045316D01*
X146912610Y-97990428D01*
X146992196Y-97898228D01*
X146992200Y-97898223D01*
X146994720Y-97895303D01*
X146996626Y-97891947D01*
X146996630Y-97891942D01*
X147090695Y-97726356D01*
X147092604Y-97722996D01*
X147095457Y-97714420D01*
X147153935Y-97538630D01*
X147153936Y-97538625D01*
X147155156Y-97534958D01*
X147179993Y-97338351D01*
X147180389Y-97310000D01*
X147178999Y-97295823D01*
X147439710Y-97295823D01*
X147456292Y-97493297D01*
X147510915Y-97683790D01*
X147601498Y-97860045D01*
X147603894Y-97863068D01*
X147605673Y-97865313D01*
X147724590Y-98015348D01*
X147875504Y-98143786D01*
X147878878Y-98145672D01*
X147878880Y-98145673D01*
X147917615Y-98167321D01*
X148048490Y-98240465D01*
X148052152Y-98241655D01*
X148052157Y-98241657D01*
X148166557Y-98278827D01*
X148236960Y-98301702D01*
X148240797Y-98302160D01*
X148240799Y-98302160D01*
X148429892Y-98324708D01*
X148429895Y-98324708D01*
X148433735Y-98325166D01*
X148631320Y-98309963D01*
X148642420Y-98306864D01*
X148737908Y-98280203D01*
X148822190Y-98256671D01*
X148946800Y-98193726D01*
X148985135Y-98174362D01*
X150062909Y-98174362D01*
X150063854Y-98177891D01*
X150063965Y-98178000D01*
X150214863Y-98278827D01*
X150221204Y-98282270D01*
X150400297Y-98359214D01*
X150407161Y-98361444D01*
X150597274Y-98404463D01*
X150604425Y-98405404D01*
X150799191Y-98413057D01*
X150806408Y-98412678D01*
X150999304Y-98384710D01*
X151006321Y-98383025D01*
X151190896Y-98320371D01*
X151197488Y-98317436D01*
X151367552Y-98222195D01*
X151373503Y-98218105D01*
X151418929Y-98180325D01*
X151424651Y-98170514D01*
X151423803Y-98165580D01*
X150754851Y-97496628D01*
X150744557Y-97491828D01*
X150738263Y-97493514D01*
X150067709Y-98164068D01*
X150062909Y-98174362D01*
X148985135Y-98174362D01*
X148995619Y-98169066D01*
X148995621Y-98169065D01*
X148999073Y-98167321D01*
X149155232Y-98045316D01*
X149202610Y-97990428D01*
X149282196Y-97898228D01*
X149282200Y-97898223D01*
X149284720Y-97895303D01*
X149286626Y-97891947D01*
X149286630Y-97891942D01*
X149380695Y-97726356D01*
X149382604Y-97722996D01*
X149385457Y-97714420D01*
X149443935Y-97538630D01*
X149443936Y-97538625D01*
X149445156Y-97534958D01*
X149469993Y-97338351D01*
X149470389Y-97310000D01*
X149467908Y-97284698D01*
X149640903Y-97284698D01*
X149653651Y-97479201D01*
X149654780Y-97486328D01*
X149702759Y-97675243D01*
X149705172Y-97682057D01*
X149786773Y-97859066D01*
X149790380Y-97865313D01*
X149874487Y-97984322D01*
X149883816Y-97990794D01*
X149887795Y-97990428D01*
X150558372Y-97319851D01*
X150562759Y-97310443D01*
X150926828Y-97310443D01*
X150928514Y-97316737D01*
X151596566Y-97984789D01*
X151606860Y-97989589D01*
X151611695Y-97988294D01*
X151653105Y-97938503D01*
X151657195Y-97932552D01*
X151752436Y-97762488D01*
X151755371Y-97755896D01*
X151818025Y-97571321D01*
X151819710Y-97564304D01*
X151847864Y-97370127D01*
X151848260Y-97365486D01*
X151849652Y-97312327D01*
X151849500Y-97307685D01*
X151831545Y-97112288D01*
X151830230Y-97105195D01*
X151777321Y-96917592D01*
X151774736Y-96910858D01*
X151688525Y-96736037D01*
X151684756Y-96729887D01*
X151614915Y-96636358D01*
X151605418Y-96630132D01*
X151601139Y-96630638D01*
X150931628Y-97300149D01*
X150926828Y-97310443D01*
X150562759Y-97310443D01*
X150563172Y-97309557D01*
X150561486Y-97303263D01*
X149893622Y-96635399D01*
X149883328Y-96630599D01*
X149878842Y-96631801D01*
X149820749Y-96705490D01*
X149816826Y-96711531D01*
X149726065Y-96884039D01*
X149723304Y-96890703D01*
X149665502Y-97076857D01*
X149664002Y-97083919D01*
X149641092Y-97277481D01*
X149640903Y-97284698D01*
X149467908Y-97284698D01*
X149451051Y-97112777D01*
X149393774Y-96923065D01*
X149391963Y-96919660D01*
X149391961Y-96919654D01*
X149302551Y-96751500D01*
X149300739Y-96748092D01*
X149293919Y-96739729D01*
X149205894Y-96631801D01*
X149175490Y-96594522D01*
X149163415Y-96584532D01*
X149025773Y-96470665D01*
X149025772Y-96470664D01*
X149022798Y-96468204D01*
X149016183Y-96464627D01*
X148941901Y-96424463D01*
X148848479Y-96373950D01*
X148659172Y-96315350D01*
X148462089Y-96294636D01*
X148458243Y-96294986D01*
X148458242Y-96294986D01*
X148416036Y-96298827D01*
X148264735Y-96312596D01*
X148261028Y-96313687D01*
X148078338Y-96367456D01*
X148078335Y-96367457D01*
X148074629Y-96368548D01*
X148071202Y-96370340D01*
X148071201Y-96370340D01*
X148066478Y-96372809D01*
X147899010Y-96460359D01*
X147896003Y-96462777D01*
X147896001Y-96462778D01*
X147886192Y-96470665D01*
X147744570Y-96584532D01*
X147617189Y-96736339D01*
X147615327Y-96739727D01*
X147615325Y-96739729D01*
X147571194Y-96820003D01*
X147521720Y-96909996D01*
X147461800Y-97098889D01*
X147439710Y-97295823D01*
X147178999Y-97295823D01*
X147161051Y-97112777D01*
X147103774Y-96923065D01*
X147101963Y-96919660D01*
X147101961Y-96919654D01*
X147012551Y-96751500D01*
X147010739Y-96748092D01*
X147003919Y-96739729D01*
X146915894Y-96631801D01*
X146885490Y-96594522D01*
X146873415Y-96584532D01*
X146735773Y-96470665D01*
X146735772Y-96470664D01*
X146732798Y-96468204D01*
X146726183Y-96464627D01*
X146651901Y-96424463D01*
X146558479Y-96373950D01*
X146369172Y-96315350D01*
X146172089Y-96294636D01*
X146168243Y-96294986D01*
X146168242Y-96294986D01*
X146126036Y-96298827D01*
X145974735Y-96312596D01*
X145971028Y-96313687D01*
X145788338Y-96367456D01*
X145788335Y-96367457D01*
X145784629Y-96368548D01*
X145781202Y-96370340D01*
X145781201Y-96370340D01*
X145776478Y-96372809D01*
X145609010Y-96460359D01*
X145606003Y-96462777D01*
X145606001Y-96462778D01*
X145596192Y-96470665D01*
X145454570Y-96584532D01*
X145327189Y-96736339D01*
X145325327Y-96739727D01*
X145325325Y-96739729D01*
X145281194Y-96820003D01*
X145231720Y-96909996D01*
X145171800Y-97098889D01*
X145149710Y-97295823D01*
X145166292Y-97493297D01*
X145220915Y-97683790D01*
X145311498Y-97860045D01*
X145313894Y-97863068D01*
X145315673Y-97865313D01*
X145434590Y-98015348D01*
X145443585Y-98023003D01*
X145507857Y-98077704D01*
X145534549Y-98124691D01*
X145524793Y-98177842D01*
X145512516Y-98193726D01*
X144224524Y-99481718D01*
X144220929Y-99484822D01*
X144216829Y-99486826D01*
X144211869Y-99492173D01*
X144184669Y-99521495D01*
X144182612Y-99523630D01*
X144169346Y-99536896D01*
X144167284Y-99539902D01*
X144165990Y-99541459D01*
X144163149Y-99544694D01*
X144144498Y-99564800D01*
X144141795Y-99571576D01*
X144139825Y-99576513D01*
X144131596Y-99591925D01*
X144124459Y-99602328D01*
X144122775Y-99609426D01*
X144118361Y-99628027D01*
X144114872Y-99639058D01*
X144105086Y-99663586D01*
X144104500Y-99669563D01*
X144104500Y-99677193D01*
X144102365Y-99695432D01*
X144099902Y-99705812D01*
X144100886Y-99713042D01*
X144100886Y-99713043D01*
X144103778Y-99734291D01*
X144104500Y-99744945D01*
X144104500Y-100488526D01*
X144104153Y-100493255D01*
X144102671Y-100497571D01*
X144104033Y-100533842D01*
X144104444Y-100544798D01*
X144104500Y-100547762D01*
X144104500Y-100566552D01*
X144105166Y-100570129D01*
X144105355Y-100572172D01*
X144105633Y-100576469D01*
X144106386Y-100596513D01*
X144106661Y-100603853D01*
X144111640Y-100615442D01*
X144116717Y-100632155D01*
X144117691Y-100637384D01*
X144117692Y-100637388D01*
X144119028Y-100644559D01*
X144129997Y-100662354D01*
X144132888Y-100667045D01*
X144138220Y-100677310D01*
X144148645Y-100701574D01*
X144152457Y-100706215D01*
X144157848Y-100711606D01*
X144169237Y-100726014D01*
X144171007Y-100728886D01*
X144171010Y-100728889D01*
X144174837Y-100735098D01*
X144195782Y-100751025D01*
X144197722Y-100752500D01*
X144205765Y-100759523D01*
X145177507Y-101731265D01*
X145200345Y-101780241D01*
X145200646Y-101787126D01*
X145200646Y-104290500D01*
X145182164Y-104341280D01*
X145135364Y-104368300D01*
X145121646Y-104369500D01*
X140000646Y-104369500D01*
X139949866Y-104351018D01*
X139922846Y-104304218D01*
X139921646Y-104290500D01*
X139921646Y-101518089D01*
X139912333Y-101471271D01*
X139876860Y-101418181D01*
X139823770Y-101382708D01*
X139816141Y-101381190D01*
X139816140Y-101381190D01*
X139792205Y-101376429D01*
X139776952Y-101373395D01*
X139124500Y-101373395D01*
X139073720Y-101354913D01*
X139046700Y-101308113D01*
X139045500Y-101294395D01*
X139045500Y-100890980D01*
X139063982Y-100840200D01*
X139068639Y-100835119D01*
X139905119Y-99998639D01*
X139954095Y-99975801D01*
X139960980Y-99975500D01*
X142488526Y-99975500D01*
X142493255Y-99975847D01*
X142497571Y-99977329D01*
X142544799Y-99975556D01*
X142547762Y-99975500D01*
X142566552Y-99975500D01*
X142570129Y-99974834D01*
X142572172Y-99974645D01*
X142576469Y-99974367D01*
X142596563Y-99973613D01*
X142596565Y-99973613D01*
X142603853Y-99973339D01*
X142615442Y-99968360D01*
X142632155Y-99963283D01*
X142637384Y-99962309D01*
X142637388Y-99962308D01*
X142644559Y-99960972D01*
X142667045Y-99947112D01*
X142677310Y-99941780D01*
X142679094Y-99941014D01*
X142701574Y-99931355D01*
X142706215Y-99927543D01*
X142711606Y-99922152D01*
X142726014Y-99910763D01*
X142728886Y-99908993D01*
X142728889Y-99908990D01*
X142735098Y-99905163D01*
X142752500Y-99882278D01*
X142759523Y-99874235D01*
X144070476Y-98563282D01*
X144074071Y-98560178D01*
X144078171Y-98558174D01*
X144110331Y-98523505D01*
X144112388Y-98521370D01*
X144125654Y-98508104D01*
X144127716Y-98505098D01*
X144129010Y-98503541D01*
X144131852Y-98500305D01*
X144145540Y-98485549D01*
X144150502Y-98480200D01*
X144155174Y-98468490D01*
X144163406Y-98453073D01*
X144166415Y-98448687D01*
X144166417Y-98448683D01*
X144170541Y-98442671D01*
X144176640Y-98416972D01*
X144180129Y-98405941D01*
X144187846Y-98386598D01*
X144187846Y-98386597D01*
X144189914Y-98381414D01*
X144190500Y-98375437D01*
X144190500Y-98367813D01*
X144192635Y-98349572D01*
X144193414Y-98346289D01*
X144193414Y-98346288D01*
X144195099Y-98339188D01*
X144194115Y-98331959D01*
X144194453Y-98325051D01*
X144215395Y-98275235D01*
X144242323Y-98256934D01*
X144242190Y-98256671D01*
X144244217Y-98255647D01*
X144244216Y-98255647D01*
X144271913Y-98241657D01*
X144415619Y-98169066D01*
X144415621Y-98169065D01*
X144419073Y-98167321D01*
X144575232Y-98045316D01*
X144622610Y-97990428D01*
X144702196Y-97898228D01*
X144702200Y-97898223D01*
X144704720Y-97895303D01*
X144706626Y-97891947D01*
X144706630Y-97891942D01*
X144800695Y-97726356D01*
X144802604Y-97722996D01*
X144805457Y-97714420D01*
X144863935Y-97538630D01*
X144863936Y-97538625D01*
X144865156Y-97534958D01*
X144889993Y-97338351D01*
X144890389Y-97310000D01*
X144871051Y-97112777D01*
X144813774Y-96923065D01*
X144811963Y-96919660D01*
X144811961Y-96919654D01*
X144722551Y-96751500D01*
X144720739Y-96748092D01*
X144713919Y-96739729D01*
X144625894Y-96631801D01*
X144595490Y-96594522D01*
X144583415Y-96584532D01*
X144445773Y-96470665D01*
X144445772Y-96470664D01*
X144442798Y-96468204D01*
X144436183Y-96464627D01*
X144361901Y-96424463D01*
X144268479Y-96373950D01*
X144079172Y-96315350D01*
X143882089Y-96294636D01*
X143878243Y-96294986D01*
X143878242Y-96294986D01*
X143836036Y-96298827D01*
X143684735Y-96312596D01*
X143681028Y-96313687D01*
X143498338Y-96367456D01*
X143498335Y-96367457D01*
X143494629Y-96368548D01*
X143491202Y-96370340D01*
X143491201Y-96370340D01*
X143486478Y-96372809D01*
X143319010Y-96460359D01*
X143316003Y-96462777D01*
X143316001Y-96462778D01*
X143306192Y-96470665D01*
X143164570Y-96584532D01*
X143037189Y-96736339D01*
X143035327Y-96739727D01*
X143035325Y-96739729D01*
X142991194Y-96820003D01*
X142941720Y-96909996D01*
X142881800Y-97098889D01*
X142859710Y-97295823D01*
X142876292Y-97493297D01*
X142930915Y-97683790D01*
X143021498Y-97860045D01*
X143023894Y-97863068D01*
X143025673Y-97865313D01*
X143144590Y-98015348D01*
X143295504Y-98143786D01*
X143298878Y-98145672D01*
X143298880Y-98145673D01*
X143384861Y-98193726D01*
X143436568Y-98222624D01*
X143452546Y-98231554D01*
X143487856Y-98272462D01*
X143488611Y-98326496D01*
X143469866Y-98356376D01*
X142444881Y-99381361D01*
X142395905Y-99404199D01*
X142389020Y-99404500D01*
X139861473Y-99404500D01*
X139856744Y-99404153D01*
X139852428Y-99402671D01*
X139805201Y-99404444D01*
X139802237Y-99404500D01*
X139783448Y-99404500D01*
X139779871Y-99405166D01*
X139777828Y-99405355D01*
X139773531Y-99405633D01*
X139753437Y-99406387D01*
X139753435Y-99406387D01*
X139746147Y-99406661D01*
X139734558Y-99411640D01*
X139717845Y-99416717D01*
X139712616Y-99417691D01*
X139712612Y-99417692D01*
X139705441Y-99419028D01*
X139686354Y-99430793D01*
X139682955Y-99432888D01*
X139672690Y-99438220D01*
X139648426Y-99448645D01*
X139643785Y-99452457D01*
X139638394Y-99457848D01*
X139623986Y-99469237D01*
X139621114Y-99471007D01*
X139621111Y-99471010D01*
X139614902Y-99474837D01*
X139604407Y-99488639D01*
X139597500Y-99497722D01*
X139590477Y-99505765D01*
X138594524Y-100501718D01*
X138590929Y-100504822D01*
X138586829Y-100506826D01*
X138581869Y-100512173D01*
X138554669Y-100541495D01*
X138552612Y-100543630D01*
X138539346Y-100556896D01*
X138537284Y-100559902D01*
X138535990Y-100561459D01*
X138533149Y-100564694D01*
X138514498Y-100584800D01*
X138510982Y-100593613D01*
X138509825Y-100596513D01*
X138501596Y-100611925D01*
X138494459Y-100622328D01*
X138490253Y-100640055D01*
X138488361Y-100648027D01*
X138484872Y-100659058D01*
X138475086Y-100683586D01*
X138474500Y-100689563D01*
X138474500Y-100697193D01*
X138472365Y-100715432D01*
X138469902Y-100725812D01*
X138470886Y-100733042D01*
X138470886Y-100733043D01*
X138473778Y-100754291D01*
X138474500Y-100764945D01*
X138474500Y-101294395D01*
X138456018Y-101345175D01*
X138409218Y-101372195D01*
X138395500Y-101373395D01*
X137745340Y-101373395D01*
X137730087Y-101376429D01*
X137706152Y-101381190D01*
X137706151Y-101381190D01*
X137698522Y-101382708D01*
X137645432Y-101418181D01*
X137609959Y-101471271D01*
X137600646Y-101518089D01*
X137600646Y-104290500D01*
X137582164Y-104341280D01*
X137535364Y-104368300D01*
X137521646Y-104369500D01*
X132400646Y-104369500D01*
X132349866Y-104351018D01*
X132322846Y-104304218D01*
X132321646Y-104290500D01*
X132321646Y-101518089D01*
X132312333Y-101471271D01*
X132276860Y-101418181D01*
X132223770Y-101382708D01*
X132216141Y-101381190D01*
X132216140Y-101381190D01*
X132192205Y-101376429D01*
X132176952Y-101373395D01*
X131796085Y-101373395D01*
X131745305Y-101354913D01*
X131718285Y-101308113D01*
X131727669Y-101254895D01*
X131740224Y-101238534D01*
X133490119Y-99488639D01*
X133539095Y-99465801D01*
X133545980Y-99465500D01*
X137598526Y-99465500D01*
X137603255Y-99465847D01*
X137607571Y-99467329D01*
X137654799Y-99465556D01*
X137657762Y-99465500D01*
X137676552Y-99465500D01*
X137680129Y-99464834D01*
X137682172Y-99464645D01*
X137686469Y-99464367D01*
X137706563Y-99463613D01*
X137706565Y-99463613D01*
X137713853Y-99463339D01*
X137725442Y-99458360D01*
X137742155Y-99453283D01*
X137747384Y-99452309D01*
X137747388Y-99452308D01*
X137754559Y-99450972D01*
X137777045Y-99437112D01*
X137787310Y-99431780D01*
X137797525Y-99427391D01*
X137811574Y-99421355D01*
X137816215Y-99417543D01*
X137821606Y-99412152D01*
X137836014Y-99400763D01*
X137838886Y-99398993D01*
X137838889Y-99398990D01*
X137845098Y-99395163D01*
X137862500Y-99372278D01*
X137869523Y-99364235D01*
X139635119Y-97598639D01*
X139684095Y-97575801D01*
X139690980Y-97575500D01*
X140495500Y-97575500D01*
X140546280Y-97593982D01*
X140573300Y-97640782D01*
X140574500Y-97654500D01*
X140574500Y-98175806D01*
X140583813Y-98222624D01*
X140619286Y-98275714D01*
X140625753Y-98280035D01*
X140663711Y-98305397D01*
X140672376Y-98311187D01*
X140680005Y-98312705D01*
X140680006Y-98312705D01*
X140703791Y-98317436D01*
X140719194Y-98320500D01*
X142450806Y-98320500D01*
X142466209Y-98317436D01*
X142489994Y-98312705D01*
X142489995Y-98312705D01*
X142497624Y-98311187D01*
X142506290Y-98305397D01*
X142544247Y-98280035D01*
X142550714Y-98275714D01*
X142586187Y-98222624D01*
X142595500Y-98175806D01*
X142595500Y-96507808D01*
X142613982Y-96457028D01*
X142660782Y-96430008D01*
X142677601Y-96428869D01*
X142784191Y-96433057D01*
X142791409Y-96432678D01*
X142984304Y-96404710D01*
X142991321Y-96403025D01*
X143175896Y-96340371D01*
X143182488Y-96337436D01*
X143352552Y-96242195D01*
X143358503Y-96238105D01*
X143403929Y-96200325D01*
X143407407Y-96194362D01*
X144337909Y-96194362D01*
X144338854Y-96197891D01*
X144338965Y-96198000D01*
X144489863Y-96298827D01*
X144496204Y-96302270D01*
X144675297Y-96379214D01*
X144682161Y-96381444D01*
X144872274Y-96424463D01*
X144879425Y-96425404D01*
X145074191Y-96433057D01*
X145081408Y-96432678D01*
X145274304Y-96404710D01*
X145281321Y-96403025D01*
X145465896Y-96340371D01*
X145472488Y-96337436D01*
X145642552Y-96242195D01*
X145648503Y-96238105D01*
X145693929Y-96200325D01*
X145699651Y-96190514D01*
X145698803Y-96185580D01*
X145029851Y-95516628D01*
X145019557Y-95511828D01*
X145013263Y-95513514D01*
X144342709Y-96184068D01*
X144337909Y-96194362D01*
X143407407Y-96194362D01*
X143409651Y-96190514D01*
X143408803Y-96185580D01*
X142739851Y-95516628D01*
X142729557Y-95511828D01*
X142723263Y-95513514D01*
X142052709Y-96184068D01*
X142047909Y-96194362D01*
X142049434Y-96200054D01*
X142044724Y-96253887D01*
X142006512Y-96292098D01*
X141973126Y-96299500D01*
X141193617Y-96299500D01*
X141142837Y-96281018D01*
X141115817Y-96234218D01*
X141121598Y-96201845D01*
X141118803Y-96185580D01*
X140449851Y-95516628D01*
X140439557Y-95511828D01*
X140433263Y-95513514D01*
X139762709Y-96184068D01*
X139757909Y-96194362D01*
X139758854Y-96197891D01*
X139758965Y-96198000D01*
X139909863Y-96298827D01*
X139916204Y-96302270D01*
X140095297Y-96379214D01*
X140102161Y-96381444D01*
X140292274Y-96424463D01*
X140299425Y-96425404D01*
X140497816Y-96433199D01*
X140497739Y-96435148D01*
X140543059Y-96449016D01*
X140572480Y-96494345D01*
X140574500Y-96512097D01*
X140574500Y-96925500D01*
X140556018Y-96976280D01*
X140509218Y-97003300D01*
X140495500Y-97004500D01*
X139591481Y-97004500D01*
X139586747Y-97004152D01*
X139582429Y-97002670D01*
X139536951Y-97004378D01*
X139535186Y-97004444D01*
X139532222Y-97004500D01*
X139513448Y-97004500D01*
X139509874Y-97005166D01*
X139507843Y-97005353D01*
X139503548Y-97005632D01*
X139499066Y-97005800D01*
X139483434Y-97006387D01*
X139483432Y-97006387D01*
X139476147Y-97006661D01*
X139464554Y-97011641D01*
X139447846Y-97016718D01*
X139435441Y-97019028D01*
X139418908Y-97029219D01*
X139412964Y-97032883D01*
X139402695Y-97038217D01*
X139378426Y-97048644D01*
X139373786Y-97052456D01*
X139368394Y-97057848D01*
X139353986Y-97069237D01*
X139351114Y-97071007D01*
X139351111Y-97071010D01*
X139344902Y-97074837D01*
X139340486Y-97080645D01*
X139327500Y-97097722D01*
X139320477Y-97105765D01*
X137554881Y-98871361D01*
X137505905Y-98894199D01*
X137499020Y-98894500D01*
X133446473Y-98894500D01*
X133441744Y-98894153D01*
X133437428Y-98892671D01*
X133390201Y-98894444D01*
X133387237Y-98894500D01*
X133368448Y-98894500D01*
X133364871Y-98895166D01*
X133362828Y-98895355D01*
X133358531Y-98895633D01*
X133338437Y-98896387D01*
X133338435Y-98896387D01*
X133331147Y-98896661D01*
X133319558Y-98901640D01*
X133302845Y-98906717D01*
X133297616Y-98907691D01*
X133297612Y-98907692D01*
X133290441Y-98909028D01*
X133271354Y-98920793D01*
X133267955Y-98922888D01*
X133257690Y-98928220D01*
X133233426Y-98938645D01*
X133228785Y-98942457D01*
X133223394Y-98947848D01*
X133208986Y-98959237D01*
X133206114Y-98961007D01*
X133206111Y-98961010D01*
X133199902Y-98964837D01*
X133195486Y-98970645D01*
X133182500Y-98987722D01*
X133175477Y-98995765D01*
X131004524Y-101166718D01*
X131000929Y-101169822D01*
X130996829Y-101171826D01*
X130991869Y-101177173D01*
X130964669Y-101206495D01*
X130962612Y-101208630D01*
X130949346Y-101221896D01*
X130947284Y-101224902D01*
X130945990Y-101226459D01*
X130943149Y-101229694D01*
X130924498Y-101249800D01*
X130921795Y-101256576D01*
X130919825Y-101261513D01*
X130911596Y-101276925D01*
X130904459Y-101287328D01*
X130902775Y-101294426D01*
X130898454Y-101312635D01*
X130868746Y-101357776D01*
X130821588Y-101373395D01*
X130145340Y-101373395D01*
X130130087Y-101376429D01*
X130106152Y-101381190D01*
X130106151Y-101381190D01*
X130098522Y-101382708D01*
X130045432Y-101418181D01*
X130009959Y-101471271D01*
X130000646Y-101518089D01*
X130000646Y-104290500D01*
X129982164Y-104341280D01*
X129935364Y-104368300D01*
X129921646Y-104369500D01*
X124800646Y-104369500D01*
X124749866Y-104351018D01*
X124722846Y-104304218D01*
X124721646Y-104290500D01*
X124721646Y-101814834D01*
X124740128Y-101764054D01*
X124744785Y-101758973D01*
X124785059Y-101718699D01*
X128759288Y-101718699D01*
X128760018Y-101724280D01*
X128773566Y-101827881D01*
X128778249Y-101863695D01*
X128837143Y-101997542D01*
X128931236Y-102109479D01*
X129052964Y-102190508D01*
X129192541Y-102234116D01*
X129242056Y-102235023D01*
X129333120Y-102236692D01*
X129333121Y-102236692D01*
X129338747Y-102236795D01*
X129479829Y-102198332D01*
X129604445Y-102121818D01*
X129608218Y-102117650D01*
X129608220Y-102117648D01*
X129698799Y-102017577D01*
X129698800Y-102017576D01*
X129702576Y-102013404D01*
X129766335Y-101881805D01*
X129767989Y-101871978D01*
X129790090Y-101740610D01*
X129790090Y-101740607D01*
X129790596Y-101737601D01*
X129790750Y-101725000D01*
X129770020Y-101580246D01*
X129764959Y-101569114D01*
X129711827Y-101452257D01*
X129711826Y-101452255D01*
X129709495Y-101447129D01*
X129705820Y-101442864D01*
X129705818Y-101442861D01*
X129617716Y-101340615D01*
X129614041Y-101336350D01*
X129603064Y-101329235D01*
X129596530Y-101324999D01*
X129563972Y-101281870D01*
X129560500Y-101258708D01*
X129560500Y-99575980D01*
X129578982Y-99525200D01*
X129583639Y-99520119D01*
X129821313Y-99282445D01*
X129870289Y-99259607D01*
X129878621Y-99259319D01*
X129902468Y-99259756D01*
X130008120Y-99261692D01*
X130008121Y-99261692D01*
X130013747Y-99261795D01*
X130154829Y-99223332D01*
X130279445Y-99146818D01*
X130283218Y-99142650D01*
X130283220Y-99142648D01*
X130373799Y-99042577D01*
X130373800Y-99042576D01*
X130377576Y-99038404D01*
X130441335Y-98906805D01*
X130442558Y-98899540D01*
X130465090Y-98765610D01*
X130465090Y-98765607D01*
X130465596Y-98762601D01*
X130465750Y-98750000D01*
X130456251Y-98683669D01*
X130445818Y-98610816D01*
X130445817Y-98610814D01*
X130445020Y-98605246D01*
X130442691Y-98600123D01*
X130386827Y-98477257D01*
X130386826Y-98477255D01*
X130384495Y-98472129D01*
X130380820Y-98467864D01*
X130380818Y-98467861D01*
X130292716Y-98365615D01*
X130289041Y-98361350D01*
X130232758Y-98324869D01*
X130171054Y-98284874D01*
X130171051Y-98284872D01*
X130166332Y-98281814D01*
X130077533Y-98255257D01*
X130031621Y-98241526D01*
X130031619Y-98241526D01*
X130026233Y-98239915D01*
X129953711Y-98239472D01*
X129885630Y-98239056D01*
X129885628Y-98239056D01*
X129880005Y-98239022D01*
X129739404Y-98279206D01*
X129667032Y-98324869D01*
X129625131Y-98351307D01*
X129615732Y-98357237D01*
X129612011Y-98361450D01*
X129612010Y-98361451D01*
X129524690Y-98460321D01*
X129518932Y-98466841D01*
X129516540Y-98471936D01*
X129473654Y-98563282D01*
X129456786Y-98599209D01*
X129434288Y-98743699D01*
X129439589Y-98784235D01*
X129442918Y-98809691D01*
X129431176Y-98862439D01*
X129420446Y-98875796D01*
X129109524Y-99186718D01*
X129105929Y-99189822D01*
X129101829Y-99191826D01*
X129096869Y-99197173D01*
X129069669Y-99226495D01*
X129067612Y-99228630D01*
X129054346Y-99241896D01*
X129052284Y-99244902D01*
X129050990Y-99246459D01*
X129048149Y-99249694D01*
X129029498Y-99269800D01*
X129026795Y-99276576D01*
X129024825Y-99281513D01*
X129016596Y-99296925D01*
X129009459Y-99307328D01*
X129005673Y-99323284D01*
X129003361Y-99333027D01*
X128999872Y-99344058D01*
X128990086Y-99368586D01*
X128989500Y-99374563D01*
X128989500Y-99382193D01*
X128987365Y-99400432D01*
X128984902Y-99410812D01*
X128985886Y-99418042D01*
X128985886Y-99418043D01*
X128988778Y-99439291D01*
X128989500Y-99449945D01*
X128989500Y-101257901D01*
X128971018Y-101308681D01*
X128952656Y-101324713D01*
X128945980Y-101328926D01*
X128940732Y-101332237D01*
X128937011Y-101336450D01*
X128937010Y-101336451D01*
X128847658Y-101437622D01*
X128843932Y-101441841D01*
X128781786Y-101574209D01*
X128759288Y-101718699D01*
X124785059Y-101718699D01*
X127594803Y-98908955D01*
X127643779Y-98886117D01*
X127655011Y-98886450D01*
X127657571Y-98887329D01*
X127704799Y-98885556D01*
X127707762Y-98885500D01*
X127726552Y-98885500D01*
X127730129Y-98884834D01*
X127732172Y-98884645D01*
X127736469Y-98884367D01*
X127756563Y-98883613D01*
X127756565Y-98883613D01*
X127763853Y-98883339D01*
X127775442Y-98878360D01*
X127792155Y-98873283D01*
X127797384Y-98872309D01*
X127797388Y-98872308D01*
X127804559Y-98870972D01*
X127827045Y-98857112D01*
X127837310Y-98851780D01*
X127845461Y-98848278D01*
X127861574Y-98841355D01*
X127866215Y-98837543D01*
X127871606Y-98832152D01*
X127886014Y-98820763D01*
X127888886Y-98818993D01*
X127888889Y-98818990D01*
X127895098Y-98815163D01*
X127912500Y-98792278D01*
X127919523Y-98784235D01*
X130715476Y-95988282D01*
X130719071Y-95985178D01*
X130723171Y-95983174D01*
X130755331Y-95948505D01*
X130757388Y-95946370D01*
X130770654Y-95933104D01*
X130772716Y-95930098D01*
X130774010Y-95928541D01*
X130776852Y-95925305D01*
X130790540Y-95910549D01*
X130795502Y-95905200D01*
X130800175Y-95893487D01*
X130808404Y-95878075D01*
X130815541Y-95867672D01*
X130821639Y-95841976D01*
X130825126Y-95830948D01*
X130834914Y-95806414D01*
X130835500Y-95800437D01*
X130835500Y-95792812D01*
X130837635Y-95774571D01*
X130838414Y-95771288D01*
X130840099Y-95764188D01*
X130836222Y-95735702D01*
X130835500Y-95725048D01*
X130835500Y-95330000D01*
X131131491Y-95330000D01*
X131151508Y-95648160D01*
X131151974Y-95650601D01*
X131151974Y-95650604D01*
X131208596Y-95947427D01*
X131211243Y-95961302D01*
X131309754Y-96264487D01*
X131310816Y-96266743D01*
X131310816Y-96266744D01*
X131431426Y-96523052D01*
X131445488Y-96552936D01*
X131446815Y-96555027D01*
X131610261Y-96812577D01*
X131616303Y-96822098D01*
X131697097Y-96919761D01*
X131811333Y-97057848D01*
X131819507Y-97067729D01*
X131821315Y-97069427D01*
X131821318Y-97069430D01*
X132050080Y-97284253D01*
X132050085Y-97284257D01*
X132051893Y-97285955D01*
X132309799Y-97473334D01*
X132352858Y-97497006D01*
X132585139Y-97624704D01*
X132589155Y-97626912D01*
X132591460Y-97627824D01*
X132591465Y-97627827D01*
X132883249Y-97743352D01*
X132885558Y-97744266D01*
X133194331Y-97823545D01*
X133196802Y-97823857D01*
X133196801Y-97823857D01*
X133508143Y-97863189D01*
X133508145Y-97863189D01*
X133510606Y-97863500D01*
X133829394Y-97863500D01*
X133831855Y-97863189D01*
X133831857Y-97863189D01*
X134143199Y-97823857D01*
X134143198Y-97823857D01*
X134145669Y-97823545D01*
X134454442Y-97744266D01*
X134456751Y-97743352D01*
X134748535Y-97627827D01*
X134748540Y-97627824D01*
X134750845Y-97626912D01*
X134754862Y-97624704D01*
X134987142Y-97497006D01*
X135030201Y-97473334D01*
X135288107Y-97285955D01*
X135289915Y-97284257D01*
X135289920Y-97284253D01*
X135518682Y-97069430D01*
X135518685Y-97069427D01*
X135520493Y-97067729D01*
X135528668Y-97057848D01*
X135642903Y-96919761D01*
X135723697Y-96822098D01*
X135729740Y-96812577D01*
X135893185Y-96555027D01*
X135894512Y-96552936D01*
X135908575Y-96523052D01*
X135912976Y-96513699D01*
X137094288Y-96513699D01*
X137095018Y-96519280D01*
X137110203Y-96635399D01*
X137113249Y-96658695D01*
X137172143Y-96792542D01*
X137266236Y-96904479D01*
X137387964Y-96985508D01*
X137393338Y-96987187D01*
X137482709Y-97015109D01*
X137527541Y-97029116D01*
X137577056Y-97030023D01*
X137668120Y-97031692D01*
X137668121Y-97031692D01*
X137673747Y-97031795D01*
X137814829Y-96993332D01*
X137939445Y-96916818D01*
X137943218Y-96912650D01*
X137943220Y-96912648D01*
X138033799Y-96812577D01*
X138033800Y-96812576D01*
X138037576Y-96808404D01*
X138101335Y-96676805D01*
X138105321Y-96653116D01*
X138125090Y-96535610D01*
X138125090Y-96535607D01*
X138125596Y-96532601D01*
X138125750Y-96520000D01*
X138116288Y-96453926D01*
X138105818Y-96380816D01*
X138105817Y-96380814D01*
X138105020Y-96375246D01*
X138099959Y-96364114D01*
X138046827Y-96247257D01*
X138046826Y-96247255D01*
X138044495Y-96242129D01*
X138040820Y-96237864D01*
X138040818Y-96237861D01*
X137952716Y-96135615D01*
X137949041Y-96131350D01*
X137940956Y-96126109D01*
X137931530Y-96119999D01*
X137898972Y-96076870D01*
X137895500Y-96053708D01*
X137895500Y-95304698D01*
X139335903Y-95304698D01*
X139348651Y-95499201D01*
X139349780Y-95506328D01*
X139397759Y-95695243D01*
X139400172Y-95702057D01*
X139481773Y-95879066D01*
X139485380Y-95885313D01*
X139569487Y-96004322D01*
X139578816Y-96010794D01*
X139582795Y-96010428D01*
X140253372Y-95339851D01*
X140257759Y-95330443D01*
X140621828Y-95330443D01*
X140623514Y-95336737D01*
X141291566Y-96004789D01*
X141301860Y-96009589D01*
X141306695Y-96008294D01*
X141348105Y-95958503D01*
X141352195Y-95952552D01*
X141447436Y-95782488D01*
X141450371Y-95775896D01*
X141512153Y-95593891D01*
X141545977Y-95551747D01*
X141598978Y-95541204D01*
X141646355Y-95567197D01*
X141663529Y-95599839D01*
X141687759Y-95695243D01*
X141690172Y-95702057D01*
X141771773Y-95879066D01*
X141775380Y-95885313D01*
X141859487Y-96004322D01*
X141868816Y-96010794D01*
X141872795Y-96010428D01*
X142543372Y-95339851D01*
X142547759Y-95330443D01*
X142911828Y-95330443D01*
X142913514Y-95336737D01*
X143581566Y-96004789D01*
X143591860Y-96009589D01*
X143596695Y-96008294D01*
X143638105Y-95958503D01*
X143642195Y-95952552D01*
X143737436Y-95782488D01*
X143740371Y-95775896D01*
X143802153Y-95593891D01*
X143835977Y-95551747D01*
X143888978Y-95541204D01*
X143936355Y-95567197D01*
X143953529Y-95599839D01*
X143977759Y-95695243D01*
X143980172Y-95702057D01*
X144061773Y-95879066D01*
X144065380Y-95885313D01*
X144149487Y-96004322D01*
X144158816Y-96010794D01*
X144162795Y-96010428D01*
X144833372Y-95339851D01*
X144837759Y-95330443D01*
X145201828Y-95330443D01*
X145203514Y-95336737D01*
X145871566Y-96004789D01*
X145881860Y-96009589D01*
X145886695Y-96008294D01*
X145928105Y-95958503D01*
X145932195Y-95952552D01*
X146027436Y-95782488D01*
X146030371Y-95775896D01*
X146093025Y-95591321D01*
X146094710Y-95584304D01*
X146122864Y-95390127D01*
X146123260Y-95385486D01*
X146124652Y-95332327D01*
X146124500Y-95327685D01*
X146123410Y-95315823D01*
X146294710Y-95315823D01*
X146311292Y-95513297D01*
X146365915Y-95703790D01*
X146456498Y-95880045D01*
X146579590Y-96035348D01*
X146730504Y-96163786D01*
X146733878Y-96165672D01*
X146733880Y-96165673D01*
X146788625Y-96196269D01*
X146903490Y-96260465D01*
X146907152Y-96261655D01*
X146907157Y-96261657D01*
X147009736Y-96294986D01*
X147091960Y-96321702D01*
X147095797Y-96322160D01*
X147095799Y-96322160D01*
X147284892Y-96344708D01*
X147284895Y-96344708D01*
X147288735Y-96345166D01*
X147486320Y-96329963D01*
X147677190Y-96276671D01*
X147805128Y-96212045D01*
X147840135Y-96194362D01*
X148917909Y-96194362D01*
X148918854Y-96197891D01*
X148918965Y-96198000D01*
X149069863Y-96298827D01*
X149076204Y-96302270D01*
X149255297Y-96379214D01*
X149262161Y-96381444D01*
X149452274Y-96424463D01*
X149459425Y-96425404D01*
X149654191Y-96433057D01*
X149661408Y-96432678D01*
X149854304Y-96404710D01*
X149861321Y-96403025D01*
X149957989Y-96370211D01*
X150012016Y-96371389D01*
X150052644Y-96407020D01*
X150060864Y-96429603D01*
X150065703Y-96453926D01*
X150735149Y-97123372D01*
X150745443Y-97128172D01*
X150751737Y-97126486D01*
X151421761Y-96456462D01*
X151426561Y-96446168D01*
X151425056Y-96440551D01*
X151420165Y-96436029D01*
X151414445Y-96431640D01*
X151249590Y-96327625D01*
X151243167Y-96324353D01*
X151062121Y-96252122D01*
X151055200Y-96250072D01*
X150864024Y-96212045D01*
X150856854Y-96211292D01*
X150661952Y-96208739D01*
X150654752Y-96209306D01*
X150462653Y-96242315D01*
X150455675Y-96244185D01*
X150387932Y-96269176D01*
X150333893Y-96269412D01*
X150292346Y-96234857D01*
X150282730Y-96208436D01*
X150278803Y-96185580D01*
X149609851Y-95516628D01*
X149599557Y-95511828D01*
X149593263Y-95513514D01*
X148922709Y-96184068D01*
X148917909Y-96194362D01*
X147840135Y-96194362D01*
X147850619Y-96189066D01*
X147850621Y-96189065D01*
X147854073Y-96187321D01*
X147974743Y-96093043D01*
X148007190Y-96067693D01*
X148007192Y-96067691D01*
X148010232Y-96065316D01*
X148038707Y-96032327D01*
X148137196Y-95918228D01*
X148137200Y-95918223D01*
X148139720Y-95915303D01*
X148141626Y-95911947D01*
X148141630Y-95911942D01*
X148235695Y-95746356D01*
X148237604Y-95742996D01*
X148238824Y-95739329D01*
X148298935Y-95558630D01*
X148298936Y-95558625D01*
X148300156Y-95554958D01*
X148324993Y-95358351D01*
X148325389Y-95330000D01*
X148322908Y-95304698D01*
X148495903Y-95304698D01*
X148508651Y-95499201D01*
X148509780Y-95506328D01*
X148557759Y-95695243D01*
X148560172Y-95702057D01*
X148641773Y-95879066D01*
X148645380Y-95885313D01*
X148729487Y-96004322D01*
X148738816Y-96010794D01*
X148742795Y-96010428D01*
X149413372Y-95339851D01*
X149417759Y-95330443D01*
X149781828Y-95330443D01*
X149783514Y-95336737D01*
X150451566Y-96004789D01*
X150461860Y-96009589D01*
X150466695Y-96008294D01*
X150508105Y-95958503D01*
X150512195Y-95952552D01*
X150607436Y-95782488D01*
X150610371Y-95775896D01*
X150673025Y-95591321D01*
X150674710Y-95584304D01*
X150702864Y-95390127D01*
X150703260Y-95385486D01*
X150704652Y-95332327D01*
X150704500Y-95327685D01*
X150686545Y-95132288D01*
X150685230Y-95125195D01*
X150632321Y-94937592D01*
X150629736Y-94930858D01*
X150543525Y-94756037D01*
X150539756Y-94749887D01*
X150469915Y-94656358D01*
X150460418Y-94650132D01*
X150456139Y-94650638D01*
X149786628Y-95320149D01*
X149781828Y-95330443D01*
X149417759Y-95330443D01*
X149418172Y-95329557D01*
X149416486Y-95323263D01*
X148748622Y-94655399D01*
X148738328Y-94650599D01*
X148733842Y-94651801D01*
X148675749Y-94725490D01*
X148671826Y-94731531D01*
X148581065Y-94904039D01*
X148578304Y-94910703D01*
X148520502Y-95096857D01*
X148519002Y-95103919D01*
X148496092Y-95297481D01*
X148495903Y-95304698D01*
X148322908Y-95304698D01*
X148306051Y-95132777D01*
X148248774Y-94943065D01*
X148246963Y-94939660D01*
X148246961Y-94939654D01*
X148157551Y-94771500D01*
X148155739Y-94768092D01*
X148148919Y-94759729D01*
X148060894Y-94651801D01*
X148030490Y-94614522D01*
X148018415Y-94604532D01*
X147880773Y-94490665D01*
X147880772Y-94490664D01*
X147877798Y-94488204D01*
X147859979Y-94478569D01*
X147841606Y-94468635D01*
X148919652Y-94468635D01*
X148920705Y-94473928D01*
X149590149Y-95143372D01*
X149600443Y-95148172D01*
X149606737Y-95146486D01*
X150276761Y-94476462D01*
X150281561Y-94466168D01*
X150280056Y-94460551D01*
X150275165Y-94456029D01*
X150269445Y-94451640D01*
X150104590Y-94347625D01*
X150098167Y-94344353D01*
X149917121Y-94272122D01*
X149910200Y-94270072D01*
X149719024Y-94232045D01*
X149711854Y-94231292D01*
X149516952Y-94228739D01*
X149509752Y-94229306D01*
X149317653Y-94262315D01*
X149310675Y-94264185D01*
X149127805Y-94331649D01*
X149121298Y-94334753D01*
X148953782Y-94434414D01*
X148947938Y-94438660D01*
X148925115Y-94458677D01*
X148919652Y-94468635D01*
X147841606Y-94468635D01*
X147810174Y-94451640D01*
X147703479Y-94393950D01*
X147514172Y-94335350D01*
X147317089Y-94314636D01*
X147313243Y-94314986D01*
X147313242Y-94314986D01*
X147286420Y-94317427D01*
X147119735Y-94332596D01*
X147116028Y-94333687D01*
X146933338Y-94387456D01*
X146933335Y-94387457D01*
X146929629Y-94388548D01*
X146754010Y-94480359D01*
X146751003Y-94482777D01*
X146751001Y-94482778D01*
X146686119Y-94534945D01*
X146599570Y-94604532D01*
X146518515Y-94701130D01*
X146491868Y-94732887D01*
X146472189Y-94756339D01*
X146470327Y-94759727D01*
X146470325Y-94759729D01*
X146453630Y-94790098D01*
X146376720Y-94929996D01*
X146316800Y-95118889D01*
X146294710Y-95315823D01*
X146123410Y-95315823D01*
X146106545Y-95132288D01*
X146105230Y-95125195D01*
X146052321Y-94937592D01*
X146049736Y-94930858D01*
X145963525Y-94756037D01*
X145959756Y-94749887D01*
X145889915Y-94656358D01*
X145880418Y-94650132D01*
X145876139Y-94650638D01*
X145206628Y-95320149D01*
X145201828Y-95330443D01*
X144837759Y-95330443D01*
X144838172Y-95329557D01*
X144836486Y-95323263D01*
X144168622Y-94655399D01*
X144158328Y-94650599D01*
X144153842Y-94651801D01*
X144095749Y-94725490D01*
X144091826Y-94731531D01*
X144001065Y-94904039D01*
X143998304Y-94910703D01*
X143949756Y-95067056D01*
X143917046Y-95110071D01*
X143864340Y-95121997D01*
X143816298Y-95097254D01*
X143798275Y-95065073D01*
X143762321Y-94937592D01*
X143759736Y-94930858D01*
X143673525Y-94756037D01*
X143669756Y-94749887D01*
X143599915Y-94656358D01*
X143590418Y-94650132D01*
X143586139Y-94650638D01*
X142916628Y-95320149D01*
X142911828Y-95330443D01*
X142547759Y-95330443D01*
X142548172Y-95329557D01*
X142546486Y-95323263D01*
X141878622Y-94655399D01*
X141868328Y-94650599D01*
X141863842Y-94651801D01*
X141805749Y-94725490D01*
X141801826Y-94731531D01*
X141711065Y-94904039D01*
X141708304Y-94910703D01*
X141659756Y-95067056D01*
X141627046Y-95110071D01*
X141574340Y-95121997D01*
X141526298Y-95097254D01*
X141508275Y-95065073D01*
X141472321Y-94937592D01*
X141469736Y-94930858D01*
X141383525Y-94756037D01*
X141379756Y-94749887D01*
X141309915Y-94656358D01*
X141300418Y-94650132D01*
X141296139Y-94650638D01*
X140626628Y-95320149D01*
X140621828Y-95330443D01*
X140257759Y-95330443D01*
X140258172Y-95329557D01*
X140256486Y-95323263D01*
X139588622Y-94655399D01*
X139578328Y-94650599D01*
X139573842Y-94651801D01*
X139515749Y-94725490D01*
X139511826Y-94731531D01*
X139421065Y-94904039D01*
X139418304Y-94910703D01*
X139360502Y-95096857D01*
X139359002Y-95103919D01*
X139336092Y-95297481D01*
X139335903Y-95304698D01*
X137895500Y-95304698D01*
X137895500Y-94660980D01*
X137913982Y-94610200D01*
X137918639Y-94605119D01*
X138055123Y-94468635D01*
X139759652Y-94468635D01*
X139760705Y-94473928D01*
X140430149Y-95143372D01*
X140440443Y-95148172D01*
X140446737Y-95146486D01*
X141116761Y-94476462D01*
X141120411Y-94468635D01*
X142049652Y-94468635D01*
X142050705Y-94473928D01*
X142720149Y-95143372D01*
X142730443Y-95148172D01*
X142736737Y-95146486D01*
X143406761Y-94476462D01*
X143410411Y-94468635D01*
X144339652Y-94468635D01*
X144340705Y-94473928D01*
X145010149Y-95143372D01*
X145020443Y-95148172D01*
X145026737Y-95146486D01*
X145696761Y-94476462D01*
X145701561Y-94466168D01*
X145700056Y-94460551D01*
X145695165Y-94456029D01*
X145689445Y-94451640D01*
X145524590Y-94347625D01*
X145518167Y-94344353D01*
X145337121Y-94272122D01*
X145330200Y-94270072D01*
X145139024Y-94232045D01*
X145131854Y-94231292D01*
X144936952Y-94228739D01*
X144929752Y-94229306D01*
X144737653Y-94262315D01*
X144730675Y-94264185D01*
X144547805Y-94331649D01*
X144541298Y-94334753D01*
X144373782Y-94434414D01*
X144367938Y-94438660D01*
X144345115Y-94458677D01*
X144339652Y-94468635D01*
X143410411Y-94468635D01*
X143411561Y-94466168D01*
X143410056Y-94460551D01*
X143405165Y-94456029D01*
X143399445Y-94451640D01*
X143234590Y-94347625D01*
X143228167Y-94344353D01*
X143047121Y-94272122D01*
X143040200Y-94270072D01*
X142849024Y-94232045D01*
X142841854Y-94231292D01*
X142646952Y-94228739D01*
X142639752Y-94229306D01*
X142447653Y-94262315D01*
X142440675Y-94264185D01*
X142257805Y-94331649D01*
X142251298Y-94334753D01*
X142083782Y-94434414D01*
X142077938Y-94438660D01*
X142055115Y-94458677D01*
X142049652Y-94468635D01*
X141120411Y-94468635D01*
X141121561Y-94466168D01*
X141120056Y-94460551D01*
X141115165Y-94456029D01*
X141109445Y-94451640D01*
X140944590Y-94347625D01*
X140938167Y-94344353D01*
X140757121Y-94272122D01*
X140750200Y-94270072D01*
X140559024Y-94232045D01*
X140551854Y-94231292D01*
X140356952Y-94228739D01*
X140349752Y-94229306D01*
X140157653Y-94262315D01*
X140150675Y-94264185D01*
X139967805Y-94331649D01*
X139961298Y-94334753D01*
X139793782Y-94434414D01*
X139787938Y-94438660D01*
X139765115Y-94458677D01*
X139759652Y-94468635D01*
X138055123Y-94468635D01*
X139187935Y-93335823D01*
X140569710Y-93335823D01*
X140586292Y-93533297D01*
X140611431Y-93620968D01*
X140635873Y-93706205D01*
X140640915Y-93723790D01*
X140731498Y-93900045D01*
X140854590Y-94055348D01*
X141005504Y-94183786D01*
X141008878Y-94185672D01*
X141008880Y-94185673D01*
X141047615Y-94207321D01*
X141178490Y-94280465D01*
X141182152Y-94281655D01*
X141182157Y-94281657D01*
X141284736Y-94314986D01*
X141366960Y-94341702D01*
X141370797Y-94342160D01*
X141370799Y-94342160D01*
X141559892Y-94364708D01*
X141559895Y-94364708D01*
X141563735Y-94365166D01*
X141761320Y-94349963D01*
X141768971Y-94347827D01*
X141853170Y-94324318D01*
X141952190Y-94296671D01*
X142080128Y-94232045D01*
X142125619Y-94209066D01*
X142125621Y-94209065D01*
X142129073Y-94207321D01*
X142259130Y-94105709D01*
X142282190Y-94087693D01*
X142282192Y-94087691D01*
X142285232Y-94085316D01*
X142341784Y-94019800D01*
X142412196Y-93938228D01*
X142412200Y-93938223D01*
X142414720Y-93935303D01*
X142416626Y-93931947D01*
X142416630Y-93931942D01*
X142499272Y-93786465D01*
X142512604Y-93762996D01*
X142524403Y-93727528D01*
X142573935Y-93578630D01*
X142573936Y-93578625D01*
X142575156Y-93574958D01*
X142599993Y-93378351D01*
X142600389Y-93350000D01*
X142581051Y-93152777D01*
X142579144Y-93146459D01*
X142524891Y-92966765D01*
X142523774Y-92963065D01*
X142521963Y-92959660D01*
X142521961Y-92959654D01*
X142432551Y-92791500D01*
X142430739Y-92788092D01*
X142423919Y-92779729D01*
X142340948Y-92677998D01*
X142305490Y-92634522D01*
X142293415Y-92624532D01*
X142155773Y-92510665D01*
X142155772Y-92510664D01*
X142152798Y-92508204D01*
X142134979Y-92498569D01*
X142095811Y-92477391D01*
X141978479Y-92413950D01*
X141789172Y-92355350D01*
X141592089Y-92334636D01*
X141588243Y-92334986D01*
X141588242Y-92334986D01*
X141540487Y-92339332D01*
X141394735Y-92352596D01*
X141391028Y-92353687D01*
X141208338Y-92407456D01*
X141208335Y-92407457D01*
X141204629Y-92408548D01*
X141029010Y-92500359D01*
X141026003Y-92502777D01*
X141026001Y-92502778D01*
X141019004Y-92508404D01*
X140874570Y-92624532D01*
X140747189Y-92776339D01*
X140745327Y-92779727D01*
X140745325Y-92779729D01*
X140653582Y-92946609D01*
X140651720Y-92949996D01*
X140591800Y-93138889D01*
X140569710Y-93335823D01*
X139187935Y-93335823D01*
X140415119Y-92108639D01*
X140464095Y-92085801D01*
X140470980Y-92085500D01*
X142219020Y-92085500D01*
X142269800Y-92103982D01*
X142274881Y-92108639D01*
X142961686Y-92795444D01*
X142984524Y-92844420D01*
X142975053Y-92889363D01*
X142941720Y-92949996D01*
X142881800Y-93138889D01*
X142859710Y-93335823D01*
X142876292Y-93533297D01*
X142901431Y-93620968D01*
X142925873Y-93706205D01*
X142930915Y-93723790D01*
X143021498Y-93900045D01*
X143144590Y-94055348D01*
X143295504Y-94183786D01*
X143298878Y-94185672D01*
X143298880Y-94185673D01*
X143337615Y-94207321D01*
X143468490Y-94280465D01*
X143472152Y-94281655D01*
X143472157Y-94281657D01*
X143574736Y-94314986D01*
X143656960Y-94341702D01*
X143660797Y-94342160D01*
X143660799Y-94342160D01*
X143849892Y-94364708D01*
X143849895Y-94364708D01*
X143853735Y-94365166D01*
X144051320Y-94349963D01*
X144058971Y-94347827D01*
X144143170Y-94324318D01*
X144242190Y-94296671D01*
X144370128Y-94232045D01*
X144415619Y-94209066D01*
X144415621Y-94209065D01*
X144419073Y-94207321D01*
X144549130Y-94105709D01*
X144572190Y-94087693D01*
X144572192Y-94087691D01*
X144575232Y-94085316D01*
X144631784Y-94019800D01*
X144702196Y-93938228D01*
X144702200Y-93938223D01*
X144704720Y-93935303D01*
X144706626Y-93931947D01*
X144706630Y-93931942D01*
X144789272Y-93786465D01*
X144802604Y-93762996D01*
X144814403Y-93727528D01*
X144863935Y-93578630D01*
X144863936Y-93578625D01*
X144865156Y-93574958D01*
X144889993Y-93378351D01*
X144890389Y-93350000D01*
X144871051Y-93152777D01*
X144869144Y-93146459D01*
X144814891Y-92966765D01*
X144813774Y-92963065D01*
X144811963Y-92959660D01*
X144811961Y-92959654D01*
X144722551Y-92791500D01*
X144720739Y-92788092D01*
X144713919Y-92779729D01*
X144630948Y-92677998D01*
X144595490Y-92634522D01*
X144583415Y-92624532D01*
X144445773Y-92510665D01*
X144445772Y-92510664D01*
X144442798Y-92508204D01*
X144424979Y-92498569D01*
X144385811Y-92477391D01*
X144268479Y-92413950D01*
X144079172Y-92355350D01*
X143882089Y-92334636D01*
X143878243Y-92334986D01*
X143878242Y-92334986D01*
X143830487Y-92339332D01*
X143684735Y-92352596D01*
X143681028Y-92353687D01*
X143498338Y-92407456D01*
X143498335Y-92407457D01*
X143494629Y-92408548D01*
X143472292Y-92420225D01*
X143418729Y-92427371D01*
X143379833Y-92406075D01*
X142608282Y-91634524D01*
X142605178Y-91630929D01*
X142603174Y-91626829D01*
X142568505Y-91594669D01*
X142566370Y-91592612D01*
X142553104Y-91579346D01*
X142550098Y-91577284D01*
X142548541Y-91575990D01*
X142545305Y-91573148D01*
X142543871Y-91571818D01*
X142525200Y-91554498D01*
X142513487Y-91549825D01*
X142498075Y-91541596D01*
X142487672Y-91534459D01*
X142461973Y-91528361D01*
X142450942Y-91524872D01*
X142426414Y-91515086D01*
X142420437Y-91514500D01*
X142412807Y-91514500D01*
X142394568Y-91512365D01*
X142384188Y-91509902D01*
X142376958Y-91510886D01*
X142376957Y-91510886D01*
X142355709Y-91513778D01*
X142345055Y-91514500D01*
X140371474Y-91514500D01*
X140366745Y-91514153D01*
X140362429Y-91512671D01*
X140315202Y-91514444D01*
X140312238Y-91514500D01*
X140293448Y-91514500D01*
X140289871Y-91515166D01*
X140287828Y-91515355D01*
X140283531Y-91515633D01*
X140263439Y-91516387D01*
X140263437Y-91516387D01*
X140256147Y-91516661D01*
X140244554Y-91521641D01*
X140227846Y-91526718D01*
X140215441Y-91529028D01*
X140199935Y-91538586D01*
X140192964Y-91542883D01*
X140182695Y-91548217D01*
X140158426Y-91558644D01*
X140153786Y-91562456D01*
X140148394Y-91567848D01*
X140133986Y-91579237D01*
X140131114Y-91581007D01*
X140131111Y-91581010D01*
X140124902Y-91584837D01*
X140120486Y-91590645D01*
X140107500Y-91607722D01*
X140100477Y-91615765D01*
X137444524Y-94271718D01*
X137440929Y-94274822D01*
X137436829Y-94276826D01*
X137431869Y-94282173D01*
X137404669Y-94311495D01*
X137402612Y-94313630D01*
X137389346Y-94326896D01*
X137387284Y-94329902D01*
X137385990Y-94331459D01*
X137383149Y-94334694D01*
X137364498Y-94354800D01*
X137361795Y-94361576D01*
X137359825Y-94366513D01*
X137351596Y-94381925D01*
X137344459Y-94392328D01*
X137342775Y-94399426D01*
X137338361Y-94418027D01*
X137334872Y-94429058D01*
X137325086Y-94453586D01*
X137324500Y-94459563D01*
X137324500Y-94467193D01*
X137322365Y-94485432D01*
X137319902Y-94495812D01*
X137320886Y-94503042D01*
X137320886Y-94503043D01*
X137323778Y-94524291D01*
X137324500Y-94534945D01*
X137324500Y-96052901D01*
X137306018Y-96103681D01*
X137287656Y-96119713D01*
X137282530Y-96122948D01*
X137275732Y-96127237D01*
X137272011Y-96131450D01*
X137272010Y-96131451D01*
X137211182Y-96200325D01*
X137178932Y-96236841D01*
X137116786Y-96369209D01*
X137104360Y-96449016D01*
X137097302Y-96494345D01*
X137094288Y-96513699D01*
X135912976Y-96513699D01*
X136029184Y-96266744D01*
X136029184Y-96266743D01*
X136030246Y-96264487D01*
X136128757Y-95961302D01*
X136131404Y-95947427D01*
X136188026Y-95650604D01*
X136188026Y-95650601D01*
X136188492Y-95648160D01*
X136208509Y-95330000D01*
X136188492Y-95011840D01*
X136175373Y-94943065D01*
X136129221Y-94701130D01*
X136129221Y-94701129D01*
X136128757Y-94698698D01*
X136030246Y-94395513D01*
X136015750Y-94364708D01*
X135895567Y-94109305D01*
X135895564Y-94109299D01*
X135894512Y-94107064D01*
X135806907Y-93969020D01*
X135725027Y-93839997D01*
X135725023Y-93839992D01*
X135723697Y-93837902D01*
X135563287Y-93644000D01*
X135522071Y-93594178D01*
X135522068Y-93594175D01*
X135520493Y-93592271D01*
X135496329Y-93569579D01*
X135289920Y-93375747D01*
X135289915Y-93375743D01*
X135288107Y-93374045D01*
X135030201Y-93186666D01*
X134857689Y-93091826D01*
X134753021Y-93034284D01*
X134753018Y-93034282D01*
X134750845Y-93033088D01*
X134748540Y-93032176D01*
X134748535Y-93032173D01*
X134456751Y-92916648D01*
X134456748Y-92916647D01*
X134454442Y-92915734D01*
X134145669Y-92836455D01*
X134084580Y-92828738D01*
X133831857Y-92796811D01*
X133831855Y-92796811D01*
X133829394Y-92796500D01*
X133510606Y-92796500D01*
X133508145Y-92796811D01*
X133508143Y-92796811D01*
X133255420Y-92828738D01*
X133194331Y-92836455D01*
X132885558Y-92915734D01*
X132883252Y-92916647D01*
X132883249Y-92916648D01*
X132591465Y-93032173D01*
X132591460Y-93032176D01*
X132589155Y-93033088D01*
X132586982Y-93034282D01*
X132586979Y-93034284D01*
X132482311Y-93091826D01*
X132309799Y-93186666D01*
X132051893Y-93374045D01*
X132050085Y-93375743D01*
X132050080Y-93375747D01*
X131843671Y-93569579D01*
X131819507Y-93592271D01*
X131817932Y-93594175D01*
X131817929Y-93594178D01*
X131776713Y-93644000D01*
X131616303Y-93837902D01*
X131614977Y-93839992D01*
X131614973Y-93839997D01*
X131533093Y-93969020D01*
X131445488Y-94107064D01*
X131444436Y-94109299D01*
X131444433Y-94109305D01*
X131324250Y-94364708D01*
X131309754Y-94395513D01*
X131211243Y-94698698D01*
X131210779Y-94701129D01*
X131210779Y-94701130D01*
X131164628Y-94943065D01*
X131151508Y-95011840D01*
X131131491Y-95330000D01*
X130835500Y-95330000D01*
X130835500Y-93475980D01*
X130853982Y-93425200D01*
X130858639Y-93420119D01*
X132345119Y-91933639D01*
X132394095Y-91910801D01*
X132400980Y-91910500D01*
X137464020Y-91910500D01*
X137514800Y-91928982D01*
X137519881Y-91933639D01*
X137680151Y-92093909D01*
X137702989Y-92142885D01*
X137702350Y-92161919D01*
X137694288Y-92213699D01*
X137695018Y-92219280D01*
X137712406Y-92352246D01*
X137713249Y-92358695D01*
X137772143Y-92492542D01*
X137775765Y-92496851D01*
X137777209Y-92498569D01*
X137866236Y-92604479D01*
X137987964Y-92685508D01*
X138127541Y-92729116D01*
X138177056Y-92730023D01*
X138268120Y-92731692D01*
X138268121Y-92731692D01*
X138273747Y-92731795D01*
X138414829Y-92693332D01*
X138522507Y-92627218D01*
X138534652Y-92619761D01*
X138539445Y-92616818D01*
X138543218Y-92612650D01*
X138543220Y-92612648D01*
X138633799Y-92512577D01*
X138633800Y-92512576D01*
X138637576Y-92508404D01*
X138701335Y-92376805D01*
X138703018Y-92366805D01*
X138725090Y-92235610D01*
X138725090Y-92235607D01*
X138725596Y-92232601D01*
X138725672Y-92226369D01*
X138725713Y-92223052D01*
X138725713Y-92223048D01*
X138725750Y-92220000D01*
X138717416Y-92161805D01*
X138705818Y-92080816D01*
X138705817Y-92080814D01*
X138705020Y-92075246D01*
X138702691Y-92070123D01*
X138646827Y-91947257D01*
X138646826Y-91947255D01*
X138644495Y-91942129D01*
X138640820Y-91937864D01*
X138640818Y-91937861D01*
X138552716Y-91835615D01*
X138549041Y-91831350D01*
X138461374Y-91774527D01*
X138431054Y-91754874D01*
X138431051Y-91754872D01*
X138426332Y-91751814D01*
X138356282Y-91730864D01*
X138291621Y-91711526D01*
X138291619Y-91711526D01*
X138286233Y-91709915D01*
X138140005Y-91709022D01*
X138140015Y-91707418D01*
X138094016Y-91697479D01*
X138080243Y-91686485D01*
X137853282Y-91459524D01*
X137850178Y-91455929D01*
X137848174Y-91451829D01*
X137813505Y-91419669D01*
X137811370Y-91417612D01*
X137798104Y-91404346D01*
X137795098Y-91402284D01*
X137793541Y-91400990D01*
X137790305Y-91398148D01*
X137770200Y-91379498D01*
X137758487Y-91374825D01*
X137743075Y-91366596D01*
X137732672Y-91359459D01*
X137706973Y-91353361D01*
X137695942Y-91349872D01*
X137671414Y-91340086D01*
X137665437Y-91339500D01*
X137657807Y-91339500D01*
X137639568Y-91337365D01*
X137629188Y-91334902D01*
X137621958Y-91335886D01*
X137621957Y-91335886D01*
X137600709Y-91338778D01*
X137590055Y-91339500D01*
X132301473Y-91339500D01*
X132296744Y-91339153D01*
X132292428Y-91337671D01*
X132245201Y-91339444D01*
X132242237Y-91339500D01*
X132223448Y-91339500D01*
X132219871Y-91340166D01*
X132217828Y-91340355D01*
X132213531Y-91340633D01*
X132193437Y-91341387D01*
X132193435Y-91341387D01*
X132186147Y-91341661D01*
X132174558Y-91346640D01*
X132157845Y-91351717D01*
X132152616Y-91352691D01*
X132152612Y-91352692D01*
X132145441Y-91354028D01*
X132129935Y-91363586D01*
X132122955Y-91367888D01*
X132112690Y-91373220D01*
X132088426Y-91383645D01*
X132083785Y-91387457D01*
X132078394Y-91392848D01*
X132063986Y-91404237D01*
X132061114Y-91406007D01*
X132061111Y-91406010D01*
X132054902Y-91409837D01*
X132050486Y-91415645D01*
X132037500Y-91432722D01*
X132030477Y-91440765D01*
X130384524Y-93086718D01*
X130380929Y-93089822D01*
X130376829Y-93091826D01*
X130371869Y-93097173D01*
X130344669Y-93126495D01*
X130342612Y-93128630D01*
X130329346Y-93141896D01*
X130327284Y-93144902D01*
X130325990Y-93146459D01*
X130323149Y-93149694D01*
X130304498Y-93169800D01*
X130301795Y-93176576D01*
X130299825Y-93181513D01*
X130291596Y-93196925D01*
X130284459Y-93207328D01*
X130282775Y-93214426D01*
X130278361Y-93233027D01*
X130274872Y-93244058D01*
X130265086Y-93268586D01*
X130264500Y-93274563D01*
X130264500Y-93282193D01*
X130262365Y-93300432D01*
X130259902Y-93310812D01*
X130260886Y-93318042D01*
X130260886Y-93318043D01*
X130263778Y-93339291D01*
X130264500Y-93349945D01*
X130264500Y-95599020D01*
X130246018Y-95649800D01*
X130241361Y-95654881D01*
X127605197Y-98291045D01*
X127556221Y-98313883D01*
X127544988Y-98313550D01*
X127542428Y-98312671D01*
X127495201Y-98314444D01*
X127492237Y-98314500D01*
X127473448Y-98314500D01*
X127469871Y-98315166D01*
X127467828Y-98315355D01*
X127463531Y-98315633D01*
X127443437Y-98316387D01*
X127443435Y-98316387D01*
X127436147Y-98316661D01*
X127424558Y-98321640D01*
X127407845Y-98326717D01*
X127402616Y-98327691D01*
X127402612Y-98327692D01*
X127395441Y-98329028D01*
X127378958Y-98339188D01*
X127372955Y-98342888D01*
X127362690Y-98348220D01*
X127338426Y-98358645D01*
X127333785Y-98362457D01*
X127328394Y-98367848D01*
X127313986Y-98379237D01*
X127311114Y-98381007D01*
X127311111Y-98381010D01*
X127304902Y-98384837D01*
X127300486Y-98390645D01*
X127287500Y-98407722D01*
X127280477Y-98415765D01*
X124345986Y-101350256D01*
X124297010Y-101373094D01*
X124290125Y-101373395D01*
X122545340Y-101373395D01*
X122530087Y-101376429D01*
X122506152Y-101381190D01*
X122506151Y-101381190D01*
X122498522Y-101382708D01*
X122445432Y-101418181D01*
X122409959Y-101471271D01*
X122400646Y-101518089D01*
X122400646Y-104290500D01*
X122382164Y-104341280D01*
X122335364Y-104368300D01*
X122321646Y-104369500D01*
X120579500Y-104369500D01*
X120528720Y-104351018D01*
X120501700Y-104304218D01*
X120500500Y-104290500D01*
X120500500Y-101991228D01*
X120516800Y-101943169D01*
X120641683Y-101780241D01*
X124695487Y-96491441D01*
X124741048Y-96462382D01*
X124758187Y-96460500D01*
X128142583Y-96460500D01*
X128160421Y-96462540D01*
X128169425Y-96464627D01*
X128170000Y-96464628D01*
X128170000Y-96464862D01*
X128391333Y-96447443D01*
X128559707Y-96407020D01*
X128604197Y-96396339D01*
X128604199Y-96396338D01*
X128607216Y-96395614D01*
X128812334Y-96310651D01*
X128815334Y-96308813D01*
X128992573Y-96200200D01*
X129001635Y-96194647D01*
X129007285Y-96189822D01*
X129151752Y-96066436D01*
X129170459Y-96050459D01*
X129228648Y-95982328D01*
X129312629Y-95883998D01*
X129312630Y-95883997D01*
X129314647Y-95881635D01*
X129345712Y-95830941D01*
X129429031Y-95694978D01*
X129429032Y-95694976D01*
X129430651Y-95692334D01*
X129515614Y-95487216D01*
X129567443Y-95271333D01*
X129584862Y-95050000D01*
X129584628Y-95050000D01*
X129582326Y-95039909D01*
X129582358Y-95039506D01*
X129580500Y-95023005D01*
X129580500Y-94757417D01*
X129582540Y-94739579D01*
X129584091Y-94732887D01*
X129584627Y-94730575D01*
X129584628Y-94730000D01*
X129584862Y-94730000D01*
X129567443Y-94508667D01*
X129529413Y-94350259D01*
X129516339Y-94295803D01*
X129516338Y-94295801D01*
X129515614Y-94292784D01*
X129430651Y-94087666D01*
X129427421Y-94082394D01*
X129316269Y-93901012D01*
X129314647Y-93898365D01*
X129312111Y-93895395D01*
X129172472Y-93731898D01*
X129170459Y-93729541D01*
X129071038Y-93644628D01*
X129003998Y-93587371D01*
X129003997Y-93587370D01*
X129001635Y-93585353D01*
X128918401Y-93534347D01*
X128814978Y-93470969D01*
X128814976Y-93470968D01*
X128812334Y-93469349D01*
X128607216Y-93384386D01*
X128604199Y-93383662D01*
X128604197Y-93383661D01*
X128391333Y-93332557D01*
X128391760Y-93330778D01*
X128349796Y-93307431D01*
X128330500Y-93255696D01*
X128330500Y-91801365D01*
X128346849Y-91753242D01*
X128349184Y-91750203D01*
X129094999Y-90779236D01*
X129285383Y-90531377D01*
X129330974Y-90502364D01*
X129348034Y-90500500D01*
X139597550Y-90500500D01*
X139648330Y-90518982D01*
G37*
G04 #@! TD.AperFunction*
M02*
