G04 #@! TF.GenerationSoftware,KiCad,Pcbnew,(5.1.10-1-10_14)*
G04 #@! TF.CreationDate,2021-11-15T16:46:54-05:00*
G04 #@! TF.ProjectId,VGA2SCART,56474132-5343-4415-9254-2e6b69636164,1*
G04 #@! TF.SameCoordinates,Original*
G04 #@! TF.FileFunction,Paste,Bot*
G04 #@! TF.FilePolarity,Positive*
%FSLAX46Y46*%
G04 Gerber Fmt 4.6, Leading zero omitted, Abs format (unit mm)*
G04 Created by KiCad (PCBNEW (5.1.10-1-10_14)) date 2021-11-15 16:46:54*
%MOMM*%
%LPD*%
G01*
G04 APERTURE LIST*
%ADD10R,2.000000X3.000000*%
G04 APERTURE END LIST*
D10*
X130161146Y-103033895D03*
X156761146Y-103033895D03*
X152961146Y-103033895D03*
X149161146Y-103033895D03*
X126361146Y-103033895D03*
X122561146Y-103033895D03*
G36*
G01*
X133330000Y-98425000D02*
X133330000Y-98975000D01*
G75*
G02*
X133130000Y-99175000I-200000J0D01*
G01*
X132730000Y-99175000D01*
G75*
G02*
X132530000Y-98975000I0J200000D01*
G01*
X132530000Y-98425000D01*
G75*
G02*
X132730000Y-98225000I200000J0D01*
G01*
X133130000Y-98225000D01*
G75*
G02*
X133330000Y-98425000I0J-200000D01*
G01*
G37*
G36*
G01*
X134980000Y-98425000D02*
X134980000Y-98975000D01*
G75*
G02*
X134780000Y-99175000I-200000J0D01*
G01*
X134380000Y-99175000D01*
G75*
G02*
X134180000Y-98975000I0J200000D01*
G01*
X134180000Y-98425000D01*
G75*
G02*
X134380000Y-98225000I200000J0D01*
G01*
X134780000Y-98225000D01*
G75*
G02*
X134980000Y-98425000I0J-200000D01*
G01*
G37*
G36*
G01*
X130590000Y-91745000D02*
X130590000Y-92295000D01*
G75*
G02*
X130390000Y-92495000I-200000J0D01*
G01*
X129990000Y-92495000D01*
G75*
G02*
X129790000Y-92295000I0J200000D01*
G01*
X129790000Y-91745000D01*
G75*
G02*
X129990000Y-91545000I200000J0D01*
G01*
X130390000Y-91545000D01*
G75*
G02*
X130590000Y-91745000I0J-200000D01*
G01*
G37*
G36*
G01*
X132240000Y-91745000D02*
X132240000Y-92295000D01*
G75*
G02*
X132040000Y-92495000I-200000J0D01*
G01*
X131640000Y-92495000D01*
G75*
G02*
X131440000Y-92295000I0J200000D01*
G01*
X131440000Y-91745000D01*
G75*
G02*
X131640000Y-91545000I200000J0D01*
G01*
X132040000Y-91545000D01*
G75*
G02*
X132240000Y-91745000I0J-200000D01*
G01*
G37*
M02*
