M48
; DRILL file {KiCad (5.1.10-1-10_14)} date Monday, November 15, 2021 at 04:46:56 PM
; FORMAT={-:-/ absolute / inch / decimal}
; #@! TF.CreationDate,2021-11-15T16:46:56-05:00
; #@! TF.GenerationSoftware,Kicad,Pcbnew,(5.1.10-1-10_14)
FMAT,2
INCH
T1C0.0118
T2C0.0394
T3C0.1260
%
G90
G05
T1
X5.2331Y-3.9492
X5.3945Y-3.9492
X5.4177Y-3.8
X5.4413Y-3.6307
X5.4571Y-3.5787
X5.7453Y-3.9492
X5.7732Y-3.9
X5.8654Y-3.95
X6.0067Y-3.9567
X6.085Y-3.6303
X6.1362Y-3.6303
T2
X5.5291Y-3.7531
X5.5742Y-3.6752
X5.5742Y-3.8311
X5.6193Y-3.7531
X5.6644Y-3.6752
X5.6644Y-3.8311
X5.7094Y-3.7531
X5.7545Y-3.6752
X5.7545Y-3.8311
X5.7996Y-3.7531
X5.8447Y-3.6752
X5.8447Y-3.8311
X5.8898Y-3.7531
X5.9348Y-3.6752
X5.9348Y-3.8311
T3
X5.2626Y-3.7531
X6.2465Y-3.7531
T0
M30
