G04 #@! TF.GenerationSoftware,KiCad,Pcbnew,(5.1.10-1-10_14)*
G04 #@! TF.CreationDate,2021-11-15T16:46:54-05:00*
G04 #@! TF.ProjectId,VGA2SCART,56474132-5343-4415-9254-2e6b69636164,1*
G04 #@! TF.SameCoordinates,Original*
G04 #@! TF.FileFunction,Copper,L2,Bot*
G04 #@! TF.FilePolarity,Positive*
%FSLAX46Y46*%
G04 Gerber Fmt 4.6, Leading zero omitted, Abs format (unit mm)*
G04 Created by KiCad (PCBNEW (5.1.10-1-10_14)) date 2021-11-15 16:46:54*
%MOMM*%
%LPD*%
G01*
G04 APERTURE LIST*
G04 #@! TA.AperFunction,ComponentPad*
%ADD10C,1.700000*%
G04 #@! TD*
G04 #@! TA.AperFunction,ComponentPad*
%ADD11C,4.066000*%
G04 #@! TD*
G04 #@! TA.AperFunction,ComponentPad*
%ADD12R,1.700000X1.700000*%
G04 #@! TD*
G04 #@! TA.AperFunction,SMDPad,CuDef*
%ADD13R,2.000000X3.000000*%
G04 #@! TD*
G04 #@! TA.AperFunction,SMDPad,CuDef*
%ADD14R,1.000000X1.500000*%
G04 #@! TD*
G04 #@! TA.AperFunction,SMDPad,CuDef*
%ADD15C,0.152400*%
G04 #@! TD*
G04 #@! TA.AperFunction,SMDPad,CuDef*
%ADD16R,1.500000X1.000000*%
G04 #@! TD*
G04 #@! TA.AperFunction,ViaPad*
%ADD17C,0.700000*%
G04 #@! TD*
G04 #@! TA.AperFunction,Conductor*
%ADD18C,0.250000*%
G04 #@! TD*
G04 #@! TA.AperFunction,Conductor*
%ADD19C,0.160000*%
G04 #@! TD*
G04 #@! TA.AperFunction,Conductor*
%ADD20C,0.152400*%
G04 #@! TD*
G04 APERTURE END LIST*
D10*
X150745000Y-93350000D03*
X148455000Y-93350000D03*
X146165000Y-93350000D03*
X143875000Y-93350000D03*
X141585000Y-93350000D03*
X149600000Y-95330000D03*
X147310000Y-95330000D03*
X145020000Y-95330000D03*
X142730000Y-95330000D03*
X140440000Y-95330000D03*
X150745000Y-97310000D03*
X148455000Y-97310000D03*
X146165000Y-97310000D03*
X143875000Y-97310000D03*
D11*
X158660000Y-95330000D03*
X133670000Y-95330000D03*
D12*
X141585000Y-97310000D03*
D13*
X130161146Y-103033895D03*
X156761146Y-103033895D03*
X152961146Y-103033895D03*
X149161146Y-103033895D03*
X126361146Y-103033895D03*
X122561146Y-103033895D03*
G04 #@! TA.AperFunction,SMDPad,CuDef*
G36*
G01*
X133330000Y-98425000D02*
X133330000Y-98975000D01*
G75*
G02*
X133130000Y-99175000I-200000J0D01*
G01*
X132730000Y-99175000D01*
G75*
G02*
X132530000Y-98975000I0J200000D01*
G01*
X132530000Y-98425000D01*
G75*
G02*
X132730000Y-98225000I200000J0D01*
G01*
X133130000Y-98225000D01*
G75*
G02*
X133330000Y-98425000I0J-200000D01*
G01*
G37*
G04 #@! TD.AperFunction*
G04 #@! TA.AperFunction,SMDPad,CuDef*
G36*
G01*
X134980000Y-98425000D02*
X134980000Y-98975000D01*
G75*
G02*
X134780000Y-99175000I-200000J0D01*
G01*
X134380000Y-99175000D01*
G75*
G02*
X134180000Y-98975000I0J200000D01*
G01*
X134180000Y-98425000D01*
G75*
G02*
X134380000Y-98225000I200000J0D01*
G01*
X134780000Y-98225000D01*
G75*
G02*
X134980000Y-98425000I0J-200000D01*
G01*
G37*
G04 #@! TD.AperFunction*
D14*
X136960000Y-92270000D03*
G04 #@! TA.AperFunction,SMDPad,CuDef*
D15*
G36*
X138260000Y-91520602D02*
G01*
X138284534Y-91520602D01*
X138333365Y-91525412D01*
X138381490Y-91534984D01*
X138428445Y-91549228D01*
X138473778Y-91568005D01*
X138517051Y-91591136D01*
X138557850Y-91618396D01*
X138595779Y-91649524D01*
X138630476Y-91684221D01*
X138661604Y-91722150D01*
X138688864Y-91762949D01*
X138711995Y-91806222D01*
X138730772Y-91851555D01*
X138745016Y-91898510D01*
X138754588Y-91946635D01*
X138759398Y-91995466D01*
X138759398Y-92020000D01*
X138760000Y-92020000D01*
X138760000Y-92520000D01*
X138759398Y-92520000D01*
X138759398Y-92544534D01*
X138754588Y-92593365D01*
X138745016Y-92641490D01*
X138730772Y-92688445D01*
X138711995Y-92733778D01*
X138688864Y-92777051D01*
X138661604Y-92817850D01*
X138630476Y-92855779D01*
X138595779Y-92890476D01*
X138557850Y-92921604D01*
X138517051Y-92948864D01*
X138473778Y-92971995D01*
X138428445Y-92990772D01*
X138381490Y-93005016D01*
X138333365Y-93014588D01*
X138284534Y-93019398D01*
X138260000Y-93019398D01*
X138260000Y-93020000D01*
X137710000Y-93020000D01*
X137710000Y-91520000D01*
X138260000Y-91520000D01*
X138260000Y-91520602D01*
G37*
G04 #@! TD.AperFunction*
G04 #@! TA.AperFunction,SMDPad,CuDef*
G36*
X136210000Y-93020000D02*
G01*
X135660000Y-93020000D01*
X135660000Y-93019398D01*
X135635466Y-93019398D01*
X135586635Y-93014588D01*
X135538510Y-93005016D01*
X135491555Y-92990772D01*
X135446222Y-92971995D01*
X135402949Y-92948864D01*
X135362150Y-92921604D01*
X135324221Y-92890476D01*
X135289524Y-92855779D01*
X135258396Y-92817850D01*
X135231136Y-92777051D01*
X135208005Y-92733778D01*
X135189228Y-92688445D01*
X135174984Y-92641490D01*
X135165412Y-92593365D01*
X135160602Y-92544534D01*
X135160602Y-92520000D01*
X135160000Y-92520000D01*
X135160000Y-92020000D01*
X135160602Y-92020000D01*
X135160602Y-91995466D01*
X135165412Y-91946635D01*
X135174984Y-91898510D01*
X135189228Y-91851555D01*
X135208005Y-91806222D01*
X135231136Y-91762949D01*
X135258396Y-91722150D01*
X135289524Y-91684221D01*
X135324221Y-91649524D01*
X135362150Y-91618396D01*
X135402949Y-91591136D01*
X135446222Y-91568005D01*
X135491555Y-91549228D01*
X135538510Y-91534984D01*
X135586635Y-91525412D01*
X135635466Y-91520602D01*
X135660000Y-91520602D01*
X135660000Y-91520000D01*
X136210000Y-91520000D01*
X136210000Y-93020000D01*
G37*
G04 #@! TD.AperFunction*
D16*
X137600000Y-96530000D03*
G04 #@! TA.AperFunction,SMDPad,CuDef*
D15*
G36*
X138349398Y-97830000D02*
G01*
X138349398Y-97854534D01*
X138344588Y-97903365D01*
X138335016Y-97951490D01*
X138320772Y-97998445D01*
X138301995Y-98043778D01*
X138278864Y-98087051D01*
X138251604Y-98127850D01*
X138220476Y-98165779D01*
X138185779Y-98200476D01*
X138147850Y-98231604D01*
X138107051Y-98258864D01*
X138063778Y-98281995D01*
X138018445Y-98300772D01*
X137971490Y-98315016D01*
X137923365Y-98324588D01*
X137874534Y-98329398D01*
X137850000Y-98329398D01*
X137850000Y-98330000D01*
X137350000Y-98330000D01*
X137350000Y-98329398D01*
X137325466Y-98329398D01*
X137276635Y-98324588D01*
X137228510Y-98315016D01*
X137181555Y-98300772D01*
X137136222Y-98281995D01*
X137092949Y-98258864D01*
X137052150Y-98231604D01*
X137014221Y-98200476D01*
X136979524Y-98165779D01*
X136948396Y-98127850D01*
X136921136Y-98087051D01*
X136898005Y-98043778D01*
X136879228Y-97998445D01*
X136864984Y-97951490D01*
X136855412Y-97903365D01*
X136850602Y-97854534D01*
X136850602Y-97830000D01*
X136850000Y-97830000D01*
X136850000Y-97280000D01*
X138350000Y-97280000D01*
X138350000Y-97830000D01*
X138349398Y-97830000D01*
G37*
G04 #@! TD.AperFunction*
G04 #@! TA.AperFunction,SMDPad,CuDef*
G36*
X136850000Y-95780000D02*
G01*
X136850000Y-95230000D01*
X136850602Y-95230000D01*
X136850602Y-95205466D01*
X136855412Y-95156635D01*
X136864984Y-95108510D01*
X136879228Y-95061555D01*
X136898005Y-95016222D01*
X136921136Y-94972949D01*
X136948396Y-94932150D01*
X136979524Y-94894221D01*
X137014221Y-94859524D01*
X137052150Y-94828396D01*
X137092949Y-94801136D01*
X137136222Y-94778005D01*
X137181555Y-94759228D01*
X137228510Y-94744984D01*
X137276635Y-94735412D01*
X137325466Y-94730602D01*
X137350000Y-94730602D01*
X137350000Y-94730000D01*
X137850000Y-94730000D01*
X137850000Y-94730602D01*
X137874534Y-94730602D01*
X137923365Y-94735412D01*
X137971490Y-94744984D01*
X138018445Y-94759228D01*
X138063778Y-94778005D01*
X138107051Y-94801136D01*
X138147850Y-94828396D01*
X138185779Y-94859524D01*
X138220476Y-94894221D01*
X138251604Y-94932150D01*
X138278864Y-94972949D01*
X138301995Y-95016222D01*
X138320772Y-95061555D01*
X138335016Y-95108510D01*
X138344588Y-95156635D01*
X138349398Y-95205466D01*
X138349398Y-95230000D01*
X138350000Y-95230000D01*
X138350000Y-95780000D01*
X136850000Y-95780000D01*
G37*
G04 #@! TD.AperFunction*
D14*
X154560000Y-92210000D03*
G04 #@! TA.AperFunction,SMDPad,CuDef*
D15*
G36*
X155860000Y-91460602D02*
G01*
X155884534Y-91460602D01*
X155933365Y-91465412D01*
X155981490Y-91474984D01*
X156028445Y-91489228D01*
X156073778Y-91508005D01*
X156117051Y-91531136D01*
X156157850Y-91558396D01*
X156195779Y-91589524D01*
X156230476Y-91624221D01*
X156261604Y-91662150D01*
X156288864Y-91702949D01*
X156311995Y-91746222D01*
X156330772Y-91791555D01*
X156345016Y-91838510D01*
X156354588Y-91886635D01*
X156359398Y-91935466D01*
X156359398Y-91960000D01*
X156360000Y-91960000D01*
X156360000Y-92460000D01*
X156359398Y-92460000D01*
X156359398Y-92484534D01*
X156354588Y-92533365D01*
X156345016Y-92581490D01*
X156330772Y-92628445D01*
X156311995Y-92673778D01*
X156288864Y-92717051D01*
X156261604Y-92757850D01*
X156230476Y-92795779D01*
X156195779Y-92830476D01*
X156157850Y-92861604D01*
X156117051Y-92888864D01*
X156073778Y-92911995D01*
X156028445Y-92930772D01*
X155981490Y-92945016D01*
X155933365Y-92954588D01*
X155884534Y-92959398D01*
X155860000Y-92959398D01*
X155860000Y-92960000D01*
X155310000Y-92960000D01*
X155310000Y-91460000D01*
X155860000Y-91460000D01*
X155860000Y-91460602D01*
G37*
G04 #@! TD.AperFunction*
G04 #@! TA.AperFunction,SMDPad,CuDef*
G36*
X153810000Y-92960000D02*
G01*
X153260000Y-92960000D01*
X153260000Y-92959398D01*
X153235466Y-92959398D01*
X153186635Y-92954588D01*
X153138510Y-92945016D01*
X153091555Y-92930772D01*
X153046222Y-92911995D01*
X153002949Y-92888864D01*
X152962150Y-92861604D01*
X152924221Y-92830476D01*
X152889524Y-92795779D01*
X152858396Y-92757850D01*
X152831136Y-92717051D01*
X152808005Y-92673778D01*
X152789228Y-92628445D01*
X152774984Y-92581490D01*
X152765412Y-92533365D01*
X152760602Y-92484534D01*
X152760602Y-92460000D01*
X152760000Y-92460000D01*
X152760000Y-91960000D01*
X152760602Y-91960000D01*
X152760602Y-91935466D01*
X152765412Y-91886635D01*
X152774984Y-91838510D01*
X152789228Y-91791555D01*
X152808005Y-91746222D01*
X152831136Y-91702949D01*
X152858396Y-91662150D01*
X152889524Y-91624221D01*
X152924221Y-91589524D01*
X152962150Y-91558396D01*
X153002949Y-91531136D01*
X153046222Y-91508005D01*
X153091555Y-91489228D01*
X153138510Y-91474984D01*
X153186635Y-91465412D01*
X153235466Y-91460602D01*
X153260000Y-91460602D01*
X153260000Y-91460000D01*
X153810000Y-91460000D01*
X153810000Y-92960000D01*
G37*
G04 #@! TD.AperFunction*
G04 #@! TA.AperFunction,SMDPad,CuDef*
G36*
G01*
X130590000Y-91745000D02*
X130590000Y-92295000D01*
G75*
G02*
X130390000Y-92495000I-200000J0D01*
G01*
X129990000Y-92495000D01*
G75*
G02*
X129790000Y-92295000I0J200000D01*
G01*
X129790000Y-91745000D01*
G75*
G02*
X129990000Y-91545000I200000J0D01*
G01*
X130390000Y-91545000D01*
G75*
G02*
X130590000Y-91745000I0J-200000D01*
G01*
G37*
G04 #@! TD.AperFunction*
G04 #@! TA.AperFunction,SMDPad,CuDef*
G36*
G01*
X132240000Y-91745000D02*
X132240000Y-92295000D01*
G75*
G02*
X132040000Y-92495000I-200000J0D01*
G01*
X131640000Y-92495000D01*
G75*
G02*
X131440000Y-92295000I0J200000D01*
G01*
X131440000Y-91745000D01*
G75*
G02*
X131640000Y-91545000I200000J0D01*
G01*
X132040000Y-91545000D01*
G75*
G02*
X132240000Y-91745000I0J-200000D01*
G01*
G37*
G04 #@! TD.AperFunction*
D17*
X138210000Y-92220000D03*
X138610000Y-90900030D03*
X137610000Y-96520000D03*
X146640000Y-99060000D03*
X155860000Y-92210000D03*
X154560000Y-92210000D03*
X152570000Y-100500000D03*
X148980000Y-100330000D03*
X137020000Y-100310000D03*
X145930000Y-100310000D03*
X132919998Y-100310000D03*
D18*
X122560000Y-102410000D02*
X122560000Y-103040000D01*
X122560000Y-102410000D02*
X122560000Y-103030000D01*
X130190000Y-93520000D02*
X130190000Y-92020000D01*
X130510000Y-96220000D02*
X130510000Y-93840000D01*
X130510000Y-93840000D02*
X130190000Y-93520000D01*
X129280000Y-97450000D02*
X130510000Y-96220000D01*
X122580000Y-101080000D02*
X126210000Y-97450000D01*
X126210000Y-97450000D02*
X129280000Y-97450000D01*
X122580000Y-102510000D02*
X122580000Y-101080000D01*
X136950000Y-91390000D02*
X136950000Y-92280000D01*
X137439970Y-90900030D02*
X136950000Y-91390000D01*
X138610000Y-90900030D02*
X137439970Y-90900030D01*
X149160000Y-102530000D02*
X149160000Y-103030000D01*
X151380000Y-91690000D02*
X152300000Y-92610000D01*
X153290000Y-95840000D02*
X153290000Y-98410000D01*
X153290000Y-98410000D02*
X149170000Y-102530000D01*
X139610000Y-93640000D02*
X139610000Y-92950000D01*
X138020000Y-95230000D02*
X139610000Y-93640000D01*
X140870000Y-91690000D02*
X151380000Y-91690000D01*
X139610000Y-92950000D02*
X140870000Y-91690000D01*
X149170000Y-102530000D02*
X149160000Y-102530000D01*
X152300000Y-94850000D02*
X153290000Y-95840000D01*
X152300000Y-92610000D02*
X152300000Y-94850000D01*
X137600000Y-95230000D02*
X138020000Y-95230000D01*
X137780000Y-97660000D02*
X139180000Y-99060000D01*
X139180000Y-99060000D02*
X146640000Y-99060000D01*
X154970000Y-98280000D02*
X156760000Y-100070000D01*
X154970000Y-95720000D02*
X154970000Y-98280000D01*
X156760000Y-100070000D02*
X156760000Y-103040000D01*
X153310000Y-94060000D02*
X154970000Y-95720000D01*
X153310000Y-92230000D02*
X153310000Y-94060000D01*
X148485000Y-97290000D02*
X149630000Y-98435000D01*
X149630000Y-99680000D02*
X148980000Y-100330000D01*
X149630000Y-98435000D02*
X149630000Y-99680000D01*
X145930000Y-100310000D02*
X137020000Y-100310000D01*
X132370000Y-100310000D02*
X132919998Y-100310000D01*
X132930000Y-100299998D02*
X132919998Y-100310000D01*
X132930000Y-98700000D02*
X132930000Y-100299998D01*
X130200000Y-102480000D02*
X132370000Y-100310000D01*
X133520000Y-92020000D02*
X131840000Y-92020000D01*
X133770000Y-92270000D02*
X133520000Y-92020000D01*
X135660000Y-92270000D02*
X133770000Y-92270000D01*
X147310000Y-95280000D02*
X147340000Y-95310000D01*
X145280000Y-103070000D02*
X147950000Y-100400000D01*
X142920000Y-103070000D02*
X145280000Y-103070000D01*
X147950000Y-100400000D02*
X147950000Y-98990000D01*
X137700000Y-103090000D02*
X142900000Y-103090000D01*
X147310000Y-98350000D02*
X147310000Y-95280000D01*
X135260000Y-99380000D02*
X135260000Y-100650000D01*
X135260000Y-100650000D02*
X137700000Y-103090000D01*
X142900000Y-103090000D02*
X142920000Y-103070000D01*
X147950000Y-98990000D02*
X147310000Y-98350000D01*
X134580000Y-98700000D02*
X135260000Y-99380000D01*
D19*
X152672977Y-92911179D02*
X152702968Y-92947724D01*
X152772276Y-93017032D01*
X152808821Y-93047023D01*
X152890320Y-93101479D01*
X152932015Y-93123765D01*
X152945000Y-93129144D01*
X152945001Y-94042061D01*
X152943234Y-94060000D01*
X152949209Y-94120659D01*
X152950282Y-94131552D01*
X152971153Y-94200355D01*
X153005046Y-94263764D01*
X153050658Y-94319343D01*
X153064588Y-94330775D01*
X154605000Y-95871188D01*
X154605001Y-98262061D01*
X154603234Y-98280000D01*
X154607664Y-98324970D01*
X154610282Y-98351552D01*
X154631153Y-98420355D01*
X154665046Y-98483764D01*
X154710658Y-98539343D01*
X154724588Y-98550775D01*
X156395000Y-100221188D01*
X156395000Y-101292734D01*
X155761146Y-101292734D01*
X155714098Y-101297368D01*
X155668858Y-101311091D01*
X155627164Y-101333377D01*
X155590619Y-101363368D01*
X155560628Y-101399913D01*
X155538342Y-101441607D01*
X155524619Y-101486847D01*
X155519985Y-101533895D01*
X155519985Y-104240000D01*
X150402307Y-104240000D01*
X150402307Y-101813880D01*
X153535413Y-98680775D01*
X153549343Y-98669343D01*
X153594955Y-98613764D01*
X153628848Y-98550355D01*
X153649719Y-98481552D01*
X153655000Y-98427931D01*
X153655000Y-98427929D01*
X153656766Y-98410000D01*
X153655000Y-98392071D01*
X153655000Y-95857928D01*
X153656766Y-95839999D01*
X153653535Y-95807196D01*
X153649719Y-95768448D01*
X153628848Y-95699645D01*
X153610889Y-95666046D01*
X153594954Y-95636234D01*
X153560772Y-95594584D01*
X153560770Y-95594582D01*
X153549342Y-95580657D01*
X153535418Y-95569230D01*
X152665000Y-94698813D01*
X152665000Y-92899241D01*
X152672977Y-92911179D01*
G04 #@! TA.AperFunction,Conductor*
D20*
G36*
X152672977Y-92911179D02*
G01*
X152702968Y-92947724D01*
X152772276Y-93017032D01*
X152808821Y-93047023D01*
X152890320Y-93101479D01*
X152932015Y-93123765D01*
X152945000Y-93129144D01*
X152945001Y-94042061D01*
X152943234Y-94060000D01*
X152949209Y-94120659D01*
X152950282Y-94131552D01*
X152971153Y-94200355D01*
X153005046Y-94263764D01*
X153050658Y-94319343D01*
X153064588Y-94330775D01*
X154605000Y-95871188D01*
X154605001Y-98262061D01*
X154603234Y-98280000D01*
X154607664Y-98324970D01*
X154610282Y-98351552D01*
X154631153Y-98420355D01*
X154665046Y-98483764D01*
X154710658Y-98539343D01*
X154724588Y-98550775D01*
X156395000Y-100221188D01*
X156395000Y-101292734D01*
X155761146Y-101292734D01*
X155714098Y-101297368D01*
X155668858Y-101311091D01*
X155627164Y-101333377D01*
X155590619Y-101363368D01*
X155560628Y-101399913D01*
X155538342Y-101441607D01*
X155524619Y-101486847D01*
X155519985Y-101533895D01*
X155519985Y-104240000D01*
X150402307Y-104240000D01*
X150402307Y-101813880D01*
X153535413Y-98680775D01*
X153549343Y-98669343D01*
X153594955Y-98613764D01*
X153628848Y-98550355D01*
X153649719Y-98481552D01*
X153655000Y-98427931D01*
X153655000Y-98427929D01*
X153656766Y-98410000D01*
X153655000Y-98392071D01*
X153655000Y-95857928D01*
X153656766Y-95839999D01*
X153653535Y-95807196D01*
X153649719Y-95768448D01*
X153628848Y-95699645D01*
X153610889Y-95666046D01*
X153594954Y-95636234D01*
X153560772Y-95594584D01*
X153560770Y-95594582D01*
X153549342Y-95580657D01*
X153535418Y-95569230D01*
X152665000Y-94698813D01*
X152665000Y-92899241D01*
X152672977Y-92911179D01*
G37*
G04 #@! TD.AperFunction*
D19*
X137180627Y-90640687D02*
X137169191Y-90654622D01*
X136704588Y-91119225D01*
X136690657Y-91130658D01*
X136645045Y-91186237D01*
X136611152Y-91249646D01*
X136602296Y-91278839D01*
X136460000Y-91278839D01*
X136412952Y-91283473D01*
X136367712Y-91297196D01*
X136335000Y-91314681D01*
X136302288Y-91297196D01*
X136257048Y-91283473D01*
X136210000Y-91278839D01*
X135660000Y-91278839D01*
X135635552Y-91281247D01*
X135610991Y-91281247D01*
X135563943Y-91285881D01*
X135467810Y-91305003D01*
X135422571Y-91318726D01*
X135332015Y-91356235D01*
X135290320Y-91378521D01*
X135208821Y-91432977D01*
X135172276Y-91462968D01*
X135102968Y-91532276D01*
X135072977Y-91568821D01*
X135018521Y-91650320D01*
X134996235Y-91692015D01*
X134958726Y-91782571D01*
X134945003Y-91827810D01*
X134929649Y-91905000D01*
X133921188Y-91905000D01*
X133790779Y-91774592D01*
X133779343Y-91760657D01*
X133723764Y-91715045D01*
X133660355Y-91681152D01*
X133591552Y-91660281D01*
X133537931Y-91655000D01*
X133537929Y-91655000D01*
X133520000Y-91653234D01*
X133502071Y-91655000D01*
X132471491Y-91655000D01*
X132447580Y-91576175D01*
X132406812Y-91499904D01*
X132351948Y-91433052D01*
X132285096Y-91378188D01*
X132208825Y-91337420D01*
X132126066Y-91312316D01*
X132040000Y-91303839D01*
X131640000Y-91303839D01*
X131553934Y-91312316D01*
X131471175Y-91337420D01*
X131394904Y-91378188D01*
X131328052Y-91433052D01*
X131273188Y-91499904D01*
X131232420Y-91576175D01*
X131207316Y-91658934D01*
X131198839Y-91745000D01*
X131198839Y-92295000D01*
X131207316Y-92381066D01*
X131232420Y-92463825D01*
X131273188Y-92540096D01*
X131328052Y-92606948D01*
X131394904Y-92661812D01*
X131471175Y-92702580D01*
X131553934Y-92727684D01*
X131640000Y-92736161D01*
X132040000Y-92736161D01*
X132126066Y-92727684D01*
X132208825Y-92702580D01*
X132285096Y-92661812D01*
X132351948Y-92606948D01*
X132406812Y-92540096D01*
X132447580Y-92463825D01*
X132471491Y-92385000D01*
X133368813Y-92385000D01*
X133499225Y-92515413D01*
X133510657Y-92529343D01*
X133529063Y-92544448D01*
X133566234Y-92574954D01*
X133587092Y-92586103D01*
X133629645Y-92608848D01*
X133698448Y-92629719D01*
X133752069Y-92635000D01*
X133752070Y-92635000D01*
X133769999Y-92636766D01*
X133787928Y-92635000D01*
X134929649Y-92635000D01*
X134945003Y-92712190D01*
X134958726Y-92757429D01*
X134996235Y-92847985D01*
X135018521Y-92889680D01*
X135072977Y-92971179D01*
X135102968Y-93007724D01*
X135172276Y-93077032D01*
X135208821Y-93107023D01*
X135290320Y-93161479D01*
X135332015Y-93183765D01*
X135422571Y-93221274D01*
X135467810Y-93234997D01*
X135563943Y-93254119D01*
X135610991Y-93258753D01*
X135635552Y-93258753D01*
X135660000Y-93261161D01*
X136210000Y-93261161D01*
X136257048Y-93256527D01*
X136302288Y-93242804D01*
X136335000Y-93225319D01*
X136367712Y-93242804D01*
X136412952Y-93256527D01*
X136460000Y-93261161D01*
X137460000Y-93261161D01*
X137507048Y-93256527D01*
X137552288Y-93242804D01*
X137585000Y-93225319D01*
X137617712Y-93242804D01*
X137662952Y-93256527D01*
X137710000Y-93261161D01*
X138260000Y-93261161D01*
X138284448Y-93258753D01*
X138309009Y-93258753D01*
X138356057Y-93254119D01*
X138452190Y-93234997D01*
X138497429Y-93221274D01*
X138587985Y-93183765D01*
X138629680Y-93161479D01*
X138711179Y-93107023D01*
X138747724Y-93077032D01*
X138817032Y-93007724D01*
X138847023Y-92971179D01*
X138901479Y-92889680D01*
X138923765Y-92847985D01*
X138961274Y-92757429D01*
X138974997Y-92712190D01*
X138994119Y-92616057D01*
X138998753Y-92569009D01*
X138998753Y-92544448D01*
X139001161Y-92520000D01*
X139001161Y-92020000D01*
X138998753Y-91995552D01*
X138998753Y-91970991D01*
X138994119Y-91923943D01*
X138974997Y-91827810D01*
X138961274Y-91782571D01*
X138923765Y-91692015D01*
X138901479Y-91650320D01*
X138847023Y-91568821D01*
X138817032Y-91532276D01*
X138757088Y-91472332D01*
X138782097Y-91467357D01*
X138889470Y-91422881D01*
X138986103Y-91358313D01*
X139068283Y-91276133D01*
X139132851Y-91179500D01*
X139177327Y-91072127D01*
X139200000Y-90958140D01*
X139200000Y-90841920D01*
X139177327Y-90727933D01*
X139136761Y-90630000D01*
X161286909Y-90630000D01*
X161291612Y-97512636D01*
X161224609Y-97533377D01*
X161200408Y-97543550D01*
X161176006Y-97553409D01*
X161172441Y-97555305D01*
X161172433Y-97555309D01*
X161172426Y-97555314D01*
X160950895Y-97675095D01*
X160929104Y-97689793D01*
X160907112Y-97704184D01*
X160903977Y-97706742D01*
X160903973Y-97706745D01*
X160903969Y-97706749D01*
X160709924Y-97867276D01*
X160691417Y-97885913D01*
X160672623Y-97904317D01*
X160670042Y-97907437D01*
X160510868Y-98102604D01*
X160496335Y-98124477D01*
X160481473Y-98146183D01*
X160479547Y-98149745D01*
X160361312Y-98372112D01*
X160351290Y-98396428D01*
X160340941Y-98420572D01*
X160339744Y-98424440D01*
X160266953Y-98665537D01*
X160261847Y-98691326D01*
X160256383Y-98717030D01*
X160255960Y-98721057D01*
X160231384Y-98971701D01*
X160230000Y-98985756D01*
X160230000Y-99324245D01*
X160230359Y-99327887D01*
X160231680Y-99380300D01*
X160233619Y-99395988D01*
X160234195Y-99411791D01*
X160234765Y-99415799D01*
X160270776Y-99657084D01*
X160277166Y-99682546D01*
X160283215Y-99708158D01*
X160284553Y-99711980D01*
X160366744Y-99941675D01*
X160377970Y-99965437D01*
X160388867Y-99989360D01*
X160390921Y-99992849D01*
X160516161Y-100202205D01*
X160531797Y-100223345D01*
X160547125Y-100244685D01*
X160549818Y-100247709D01*
X160713337Y-100428752D01*
X160732757Y-100446430D01*
X160751962Y-100464409D01*
X160755191Y-100466851D01*
X160950761Y-100612685D01*
X160973278Y-100626274D01*
X160995576Y-100640160D01*
X160999218Y-100641930D01*
X161219390Y-100747001D01*
X161244101Y-100755952D01*
X161268689Y-100765248D01*
X161272602Y-100766275D01*
X161272605Y-100766276D01*
X161272608Y-100766276D01*
X161290639Y-100770876D01*
X161290050Y-104240000D01*
X158002307Y-104240000D01*
X158002307Y-101533895D01*
X157997673Y-101486847D01*
X157983950Y-101441607D01*
X157961664Y-101399913D01*
X157931673Y-101363368D01*
X157895128Y-101333377D01*
X157853434Y-101311091D01*
X157808194Y-101297368D01*
X157761146Y-101292734D01*
X157125000Y-101292734D01*
X157125000Y-100087928D01*
X157126766Y-100069999D01*
X157123810Y-100039990D01*
X157119719Y-99998448D01*
X157098848Y-99929645D01*
X157064955Y-99866236D01*
X157064954Y-99866234D01*
X157030772Y-99824584D01*
X157030770Y-99824582D01*
X157019342Y-99810657D01*
X157005418Y-99799230D01*
X155335000Y-98128813D01*
X155335000Y-96982149D01*
X157071490Y-96982149D01*
X157300999Y-97277063D01*
X157706966Y-97504779D01*
X158149556Y-97648919D01*
X158611763Y-97703944D01*
X159075823Y-97667740D01*
X159523903Y-97541698D01*
X159938785Y-97330662D01*
X160019001Y-97277063D01*
X160248510Y-96982149D01*
X158660000Y-95393640D01*
X157071490Y-96982149D01*
X155335000Y-96982149D01*
X155335000Y-95737929D01*
X155336766Y-95720000D01*
X155334761Y-95699643D01*
X155329719Y-95648448D01*
X155309190Y-95580772D01*
X155308848Y-95579644D01*
X155285009Y-95535045D01*
X155274955Y-95516236D01*
X155252884Y-95489343D01*
X155240773Y-95474585D01*
X155240770Y-95474582D01*
X155229342Y-95460657D01*
X155215418Y-95449230D01*
X155047951Y-95281763D01*
X156286056Y-95281763D01*
X156322260Y-95745823D01*
X156448302Y-96193903D01*
X156659338Y-96608785D01*
X156712937Y-96689001D01*
X157007851Y-96918510D01*
X158596360Y-95330000D01*
X158723640Y-95330000D01*
X160312149Y-96918510D01*
X160607063Y-96689001D01*
X160834779Y-96283034D01*
X160978919Y-95840444D01*
X161033944Y-95378237D01*
X160997740Y-94914177D01*
X160871698Y-94466097D01*
X160660662Y-94051215D01*
X160607063Y-93970999D01*
X160312149Y-93741490D01*
X158723640Y-95330000D01*
X158596360Y-95330000D01*
X157007851Y-93741490D01*
X156712937Y-93970999D01*
X156485221Y-94376966D01*
X156341081Y-94819556D01*
X156286056Y-95281763D01*
X155047951Y-95281763D01*
X153675000Y-93908813D01*
X153675000Y-93677851D01*
X157071490Y-93677851D01*
X158660000Y-95266360D01*
X160248510Y-93677851D01*
X160019001Y-93382937D01*
X159613034Y-93155221D01*
X159170444Y-93011081D01*
X158708237Y-92956056D01*
X158244177Y-92992260D01*
X157796097Y-93118302D01*
X157381215Y-93329338D01*
X157300999Y-93382937D01*
X157071490Y-93677851D01*
X153675000Y-93677851D01*
X153675000Y-93201161D01*
X153810000Y-93201161D01*
X153857048Y-93196527D01*
X153902288Y-93182804D01*
X153935000Y-93165319D01*
X153967712Y-93182804D01*
X154012952Y-93196527D01*
X154060000Y-93201161D01*
X155060000Y-93201161D01*
X155107048Y-93196527D01*
X155152288Y-93182804D01*
X155185000Y-93165319D01*
X155217712Y-93182804D01*
X155262952Y-93196527D01*
X155310000Y-93201161D01*
X155860000Y-93201161D01*
X155884448Y-93198753D01*
X155909009Y-93198753D01*
X155956057Y-93194119D01*
X156052190Y-93174997D01*
X156097429Y-93161274D01*
X156187985Y-93123765D01*
X156229680Y-93101479D01*
X156311179Y-93047023D01*
X156347724Y-93017032D01*
X156417032Y-92947724D01*
X156447023Y-92911179D01*
X156501479Y-92829680D01*
X156523765Y-92787985D01*
X156561274Y-92697429D01*
X156574997Y-92652190D01*
X156594119Y-92556057D01*
X156598753Y-92509009D01*
X156598753Y-92484448D01*
X156601161Y-92460000D01*
X156601161Y-91960000D01*
X156598753Y-91935552D01*
X156598753Y-91910991D01*
X156594119Y-91863943D01*
X156574997Y-91767810D01*
X156561274Y-91722571D01*
X156523765Y-91632015D01*
X156501479Y-91590320D01*
X156447023Y-91508821D01*
X156417032Y-91472276D01*
X156347724Y-91402968D01*
X156311179Y-91372977D01*
X156229680Y-91318521D01*
X156187985Y-91296235D01*
X156097429Y-91258726D01*
X156052190Y-91245003D01*
X155956057Y-91225881D01*
X155909009Y-91221247D01*
X155884448Y-91221247D01*
X155860000Y-91218839D01*
X155310000Y-91218839D01*
X155262952Y-91223473D01*
X155217712Y-91237196D01*
X155185000Y-91254681D01*
X155152288Y-91237196D01*
X155107048Y-91223473D01*
X155060000Y-91218839D01*
X154060000Y-91218839D01*
X154012952Y-91223473D01*
X153967712Y-91237196D01*
X153935000Y-91254681D01*
X153902288Y-91237196D01*
X153857048Y-91223473D01*
X153810000Y-91218839D01*
X153260000Y-91218839D01*
X153235552Y-91221247D01*
X153210991Y-91221247D01*
X153163943Y-91225881D01*
X153067810Y-91245003D01*
X153022571Y-91258726D01*
X152932015Y-91296235D01*
X152890320Y-91318521D01*
X152808821Y-91372977D01*
X152772276Y-91402968D01*
X152702968Y-91472276D01*
X152672977Y-91508821D01*
X152618521Y-91590320D01*
X152596235Y-91632015D01*
X152558726Y-91722571D01*
X152545003Y-91767810D01*
X152525881Y-91863943D01*
X152521247Y-91910991D01*
X152521247Y-91935552D01*
X152518839Y-91960000D01*
X152518839Y-92312651D01*
X151650779Y-91444592D01*
X151639343Y-91430657D01*
X151583764Y-91385045D01*
X151520355Y-91351152D01*
X151451552Y-91330281D01*
X151397931Y-91325000D01*
X151397929Y-91325000D01*
X151380000Y-91323234D01*
X151362071Y-91325000D01*
X140887928Y-91325000D01*
X140869999Y-91323234D01*
X140852070Y-91325000D01*
X140852069Y-91325000D01*
X140798448Y-91330281D01*
X140729645Y-91351152D01*
X140666236Y-91385045D01*
X140610657Y-91430657D01*
X140599225Y-91444587D01*
X139364587Y-92679225D01*
X139350658Y-92690657D01*
X139339227Y-92704586D01*
X139305046Y-92746236D01*
X139271153Y-92809645D01*
X139250282Y-92878448D01*
X139243234Y-92950000D01*
X139245001Y-92967938D01*
X139245000Y-93488812D01*
X138170626Y-94563187D01*
X138087429Y-94528726D01*
X138042190Y-94515003D01*
X137946057Y-94495881D01*
X137899009Y-94491247D01*
X137874448Y-94491247D01*
X137850000Y-94488839D01*
X137350000Y-94488839D01*
X137325552Y-94491247D01*
X137300991Y-94491247D01*
X137253943Y-94495881D01*
X137157810Y-94515003D01*
X137112571Y-94528726D01*
X137022015Y-94566235D01*
X136980320Y-94588521D01*
X136898821Y-94642977D01*
X136862276Y-94672968D01*
X136792968Y-94742276D01*
X136762977Y-94778821D01*
X136708521Y-94860320D01*
X136686235Y-94902015D01*
X136648726Y-94992571D01*
X136635003Y-95037810D01*
X136615881Y-95133943D01*
X136611247Y-95180991D01*
X136611247Y-95205552D01*
X136608839Y-95230000D01*
X136608839Y-95780000D01*
X136613473Y-95827048D01*
X136627196Y-95872288D01*
X136644681Y-95905000D01*
X136627196Y-95937712D01*
X136613473Y-95982952D01*
X136608839Y-96030000D01*
X136608839Y-97030000D01*
X136613473Y-97077048D01*
X136627196Y-97122288D01*
X136644681Y-97155000D01*
X136627196Y-97187712D01*
X136613473Y-97232952D01*
X136608839Y-97280000D01*
X136608839Y-97830000D01*
X136611247Y-97854448D01*
X136611247Y-97879009D01*
X136615881Y-97926057D01*
X136635003Y-98022190D01*
X136648726Y-98067429D01*
X136686235Y-98157985D01*
X136708521Y-98199680D01*
X136762977Y-98281179D01*
X136792968Y-98317724D01*
X136862276Y-98387032D01*
X136898821Y-98417023D01*
X136980320Y-98471479D01*
X137022015Y-98493765D01*
X137112571Y-98531274D01*
X137157810Y-98544997D01*
X137253943Y-98564119D01*
X137300991Y-98568753D01*
X137325552Y-98568753D01*
X137350000Y-98571161D01*
X137850000Y-98571161D01*
X137874448Y-98568753D01*
X137899009Y-98568753D01*
X137946057Y-98564119D01*
X138042190Y-98544997D01*
X138087429Y-98531274D01*
X138121128Y-98517316D01*
X138909225Y-99305413D01*
X138920657Y-99319343D01*
X138976236Y-99364955D01*
X139039645Y-99398848D01*
X139108448Y-99419719D01*
X139162069Y-99425000D01*
X139162071Y-99425000D01*
X139180000Y-99426766D01*
X139197929Y-99425000D01*
X146174298Y-99425000D01*
X146181717Y-99436103D01*
X146263897Y-99518283D01*
X146360530Y-99582851D01*
X146467903Y-99627327D01*
X146581890Y-99650000D01*
X146698110Y-99650000D01*
X146812097Y-99627327D01*
X146919470Y-99582851D01*
X147016103Y-99518283D01*
X147098283Y-99436103D01*
X147162851Y-99339470D01*
X147207327Y-99232097D01*
X147230000Y-99118110D01*
X147230000Y-99001890D01*
X147207327Y-98887903D01*
X147162851Y-98780530D01*
X147098283Y-98683897D01*
X147016103Y-98601717D01*
X146919470Y-98537149D01*
X146812097Y-98492673D01*
X146698110Y-98470000D01*
X146581890Y-98470000D01*
X146467903Y-98492673D01*
X146360530Y-98537149D01*
X146263897Y-98601717D01*
X146181717Y-98683897D01*
X146174298Y-98695000D01*
X139331188Y-98695000D01*
X138580490Y-97944302D01*
X138584119Y-97926057D01*
X138588753Y-97879009D01*
X138588753Y-97854448D01*
X138591161Y-97830000D01*
X138591161Y-97280000D01*
X138586527Y-97232952D01*
X138572804Y-97187712D01*
X138555319Y-97155000D01*
X138572804Y-97122288D01*
X138586527Y-97077048D01*
X138591161Y-97030000D01*
X138591161Y-96141258D01*
X139692382Y-96141258D01*
X139779965Y-96315019D01*
X139984814Y-96424859D01*
X140207157Y-96492624D01*
X140438447Y-96515709D01*
X140493839Y-96510327D01*
X140493839Y-98160000D01*
X140498473Y-98207048D01*
X140512196Y-98252288D01*
X140534482Y-98293982D01*
X140564473Y-98330527D01*
X140601018Y-98360518D01*
X140642712Y-98382804D01*
X140687952Y-98396527D01*
X140735000Y-98401161D01*
X142435000Y-98401161D01*
X142482048Y-98396527D01*
X142527288Y-98382804D01*
X142568982Y-98360518D01*
X142605527Y-98330527D01*
X142635518Y-98293982D01*
X142657804Y-98252288D01*
X142671527Y-98207048D01*
X142676161Y-98160000D01*
X142676161Y-97202644D01*
X142785000Y-97202644D01*
X142785000Y-97417356D01*
X142826888Y-97627941D01*
X142909055Y-97826309D01*
X143028342Y-98004834D01*
X143180166Y-98156658D01*
X143358691Y-98275945D01*
X143557059Y-98358112D01*
X143767644Y-98400000D01*
X143982356Y-98400000D01*
X144192941Y-98358112D01*
X144391309Y-98275945D01*
X144569834Y-98156658D01*
X144721658Y-98004834D01*
X144840945Y-97826309D01*
X144923112Y-97627941D01*
X144965000Y-97417356D01*
X144965000Y-97202644D01*
X144923112Y-96992059D01*
X144840945Y-96793691D01*
X144721658Y-96615166D01*
X144569834Y-96463342D01*
X144391309Y-96344055D01*
X144192941Y-96261888D01*
X143982356Y-96220000D01*
X143767644Y-96220000D01*
X143557059Y-96261888D01*
X143358691Y-96344055D01*
X143180166Y-96463342D01*
X143028342Y-96615166D01*
X142909055Y-96793691D01*
X142826888Y-96992059D01*
X142785000Y-97202644D01*
X142676161Y-97202644D01*
X142676161Y-96510490D01*
X142728447Y-96515709D01*
X142959797Y-96493229D01*
X143182316Y-96426047D01*
X143387453Y-96316744D01*
X143390035Y-96315019D01*
X143477618Y-96141258D01*
X144272382Y-96141258D01*
X144359965Y-96315019D01*
X144564814Y-96424859D01*
X144787157Y-96492624D01*
X145018447Y-96515709D01*
X145249797Y-96493229D01*
X145472316Y-96426047D01*
X145677453Y-96316744D01*
X145680035Y-96315019D01*
X145767618Y-96141258D01*
X145020000Y-95393640D01*
X144272382Y-96141258D01*
X143477618Y-96141258D01*
X142730000Y-95393640D01*
X141982382Y-96141258D01*
X142021486Y-96218839D01*
X141148514Y-96218839D01*
X141187618Y-96141258D01*
X140440000Y-95393640D01*
X139692382Y-96141258D01*
X138591161Y-96141258D01*
X138591161Y-96030000D01*
X138586527Y-95982952D01*
X138572804Y-95937712D01*
X138555319Y-95905000D01*
X138572804Y-95872288D01*
X138586527Y-95827048D01*
X138591161Y-95780000D01*
X138591161Y-95328447D01*
X139254291Y-95328447D01*
X139276771Y-95559797D01*
X139343953Y-95782316D01*
X139453256Y-95987453D01*
X139454981Y-95990035D01*
X139628742Y-96077618D01*
X140376360Y-95330000D01*
X140503640Y-95330000D01*
X141251258Y-96077618D01*
X141425019Y-95990035D01*
X141534859Y-95785186D01*
X141585075Y-95620423D01*
X141633953Y-95782316D01*
X141743256Y-95987453D01*
X141744981Y-95990035D01*
X141918742Y-96077618D01*
X142666360Y-95330000D01*
X142793640Y-95330000D01*
X143541258Y-96077618D01*
X143715019Y-95990035D01*
X143824859Y-95785186D01*
X143875075Y-95620423D01*
X143923953Y-95782316D01*
X144033256Y-95987453D01*
X144034981Y-95990035D01*
X144208742Y-96077618D01*
X144956360Y-95330000D01*
X145083640Y-95330000D01*
X145831258Y-96077618D01*
X146005019Y-95990035D01*
X146114859Y-95785186D01*
X146182624Y-95562843D01*
X146205709Y-95331553D01*
X146183229Y-95100203D01*
X146116047Y-94877684D01*
X146006744Y-94672547D01*
X146005019Y-94669965D01*
X145831258Y-94582382D01*
X145083640Y-95330000D01*
X144956360Y-95330000D01*
X144208742Y-94582382D01*
X144034981Y-94669965D01*
X143925141Y-94874814D01*
X143874925Y-95039577D01*
X143826047Y-94877684D01*
X143716744Y-94672547D01*
X143715019Y-94669965D01*
X143541258Y-94582382D01*
X142793640Y-95330000D01*
X142666360Y-95330000D01*
X141918742Y-94582382D01*
X141744981Y-94669965D01*
X141635141Y-94874814D01*
X141584925Y-95039577D01*
X141536047Y-94877684D01*
X141426744Y-94672547D01*
X141425019Y-94669965D01*
X141251258Y-94582382D01*
X140503640Y-95330000D01*
X140376360Y-95330000D01*
X139628742Y-94582382D01*
X139454981Y-94669965D01*
X139345141Y-94874814D01*
X139277376Y-95097157D01*
X139254291Y-95328447D01*
X138591161Y-95328447D01*
X138591161Y-95230000D01*
X138588753Y-95205552D01*
X138588753Y-95180991D01*
X138588434Y-95177753D01*
X139247445Y-94518742D01*
X139692382Y-94518742D01*
X140440000Y-95266360D01*
X141187618Y-94518742D01*
X141982382Y-94518742D01*
X142730000Y-95266360D01*
X143477618Y-94518742D01*
X144272382Y-94518742D01*
X145020000Y-95266360D01*
X145767618Y-94518742D01*
X145680035Y-94344981D01*
X145475186Y-94235141D01*
X145252843Y-94167376D01*
X145021553Y-94144291D01*
X144790203Y-94166771D01*
X144567684Y-94233953D01*
X144362547Y-94343256D01*
X144359965Y-94344981D01*
X144272382Y-94518742D01*
X143477618Y-94518742D01*
X143390035Y-94344981D01*
X143185186Y-94235141D01*
X142962843Y-94167376D01*
X142731553Y-94144291D01*
X142500203Y-94166771D01*
X142277684Y-94233953D01*
X142072547Y-94343256D01*
X142069965Y-94344981D01*
X141982382Y-94518742D01*
X141187618Y-94518742D01*
X141100035Y-94344981D01*
X140895186Y-94235141D01*
X140672843Y-94167376D01*
X140441553Y-94144291D01*
X140210203Y-94166771D01*
X139987684Y-94233953D01*
X139782547Y-94343256D01*
X139779965Y-94344981D01*
X139692382Y-94518742D01*
X139247445Y-94518742D01*
X139855418Y-93910770D01*
X139869342Y-93899343D01*
X139885448Y-93879719D01*
X139914954Y-93843765D01*
X139914955Y-93843764D01*
X139948848Y-93780355D01*
X139969719Y-93711552D01*
X139975000Y-93657931D01*
X139975000Y-93657929D01*
X139976766Y-93640000D01*
X139975000Y-93622071D01*
X139975000Y-93242644D01*
X140495000Y-93242644D01*
X140495000Y-93457356D01*
X140536888Y-93667941D01*
X140619055Y-93866309D01*
X140738342Y-94044834D01*
X140890166Y-94196658D01*
X141068691Y-94315945D01*
X141267059Y-94398112D01*
X141477644Y-94440000D01*
X141692356Y-94440000D01*
X141902941Y-94398112D01*
X142101309Y-94315945D01*
X142279834Y-94196658D01*
X142431658Y-94044834D01*
X142550945Y-93866309D01*
X142633112Y-93667941D01*
X142675000Y-93457356D01*
X142675000Y-93242644D01*
X142785000Y-93242644D01*
X142785000Y-93457356D01*
X142826888Y-93667941D01*
X142909055Y-93866309D01*
X143028342Y-94044834D01*
X143180166Y-94196658D01*
X143358691Y-94315945D01*
X143557059Y-94398112D01*
X143767644Y-94440000D01*
X143982356Y-94440000D01*
X144192941Y-94398112D01*
X144391309Y-94315945D01*
X144569834Y-94196658D01*
X144721658Y-94044834D01*
X144840945Y-93866309D01*
X144923112Y-93667941D01*
X144965000Y-93457356D01*
X144965000Y-93242644D01*
X145075000Y-93242644D01*
X145075000Y-93457356D01*
X145116888Y-93667941D01*
X145199055Y-93866309D01*
X145318342Y-94044834D01*
X145470166Y-94196658D01*
X145648691Y-94315945D01*
X145847059Y-94398112D01*
X146057644Y-94440000D01*
X146272356Y-94440000D01*
X146482941Y-94398112D01*
X146681309Y-94315945D01*
X146859834Y-94196658D01*
X147011658Y-94044834D01*
X147130945Y-93866309D01*
X147213112Y-93667941D01*
X147255000Y-93457356D01*
X147255000Y-93242644D01*
X147365000Y-93242644D01*
X147365000Y-93457356D01*
X147406888Y-93667941D01*
X147489055Y-93866309D01*
X147608342Y-94044834D01*
X147760166Y-94196658D01*
X147938691Y-94315945D01*
X148137059Y-94398112D01*
X148347644Y-94440000D01*
X148562356Y-94440000D01*
X148772941Y-94398112D01*
X148971309Y-94315945D01*
X149149834Y-94196658D01*
X149301658Y-94044834D01*
X149420945Y-93866309D01*
X149503112Y-93667941D01*
X149545000Y-93457356D01*
X149545000Y-93242644D01*
X149655000Y-93242644D01*
X149655000Y-93457356D01*
X149696888Y-93667941D01*
X149779055Y-93866309D01*
X149898342Y-94044834D01*
X150050166Y-94196658D01*
X150228691Y-94315945D01*
X150427059Y-94398112D01*
X150637644Y-94440000D01*
X150852356Y-94440000D01*
X151062941Y-94398112D01*
X151261309Y-94315945D01*
X151439834Y-94196658D01*
X151591658Y-94044834D01*
X151710945Y-93866309D01*
X151793112Y-93667941D01*
X151835000Y-93457356D01*
X151835000Y-93242644D01*
X151793112Y-93032059D01*
X151710945Y-92833691D01*
X151591658Y-92655166D01*
X151439834Y-92503342D01*
X151261309Y-92384055D01*
X151062941Y-92301888D01*
X150852356Y-92260000D01*
X150637644Y-92260000D01*
X150427059Y-92301888D01*
X150228691Y-92384055D01*
X150050166Y-92503342D01*
X149898342Y-92655166D01*
X149779055Y-92833691D01*
X149696888Y-93032059D01*
X149655000Y-93242644D01*
X149545000Y-93242644D01*
X149503112Y-93032059D01*
X149420945Y-92833691D01*
X149301658Y-92655166D01*
X149149834Y-92503342D01*
X148971309Y-92384055D01*
X148772941Y-92301888D01*
X148562356Y-92260000D01*
X148347644Y-92260000D01*
X148137059Y-92301888D01*
X147938691Y-92384055D01*
X147760166Y-92503342D01*
X147608342Y-92655166D01*
X147489055Y-92833691D01*
X147406888Y-93032059D01*
X147365000Y-93242644D01*
X147255000Y-93242644D01*
X147213112Y-93032059D01*
X147130945Y-92833691D01*
X147011658Y-92655166D01*
X146859834Y-92503342D01*
X146681309Y-92384055D01*
X146482941Y-92301888D01*
X146272356Y-92260000D01*
X146057644Y-92260000D01*
X145847059Y-92301888D01*
X145648691Y-92384055D01*
X145470166Y-92503342D01*
X145318342Y-92655166D01*
X145199055Y-92833691D01*
X145116888Y-93032059D01*
X145075000Y-93242644D01*
X144965000Y-93242644D01*
X144923112Y-93032059D01*
X144840945Y-92833691D01*
X144721658Y-92655166D01*
X144569834Y-92503342D01*
X144391309Y-92384055D01*
X144192941Y-92301888D01*
X143982356Y-92260000D01*
X143767644Y-92260000D01*
X143557059Y-92301888D01*
X143358691Y-92384055D01*
X143180166Y-92503342D01*
X143028342Y-92655166D01*
X142909055Y-92833691D01*
X142826888Y-93032059D01*
X142785000Y-93242644D01*
X142675000Y-93242644D01*
X142633112Y-93032059D01*
X142550945Y-92833691D01*
X142431658Y-92655166D01*
X142279834Y-92503342D01*
X142101309Y-92384055D01*
X141902941Y-92301888D01*
X141692356Y-92260000D01*
X141477644Y-92260000D01*
X141267059Y-92301888D01*
X141068691Y-92384055D01*
X140890166Y-92503342D01*
X140738342Y-92655166D01*
X140619055Y-92833691D01*
X140536888Y-93032059D01*
X140495000Y-93242644D01*
X139975000Y-93242644D01*
X139975000Y-93101187D01*
X141021188Y-92055000D01*
X151228813Y-92055000D01*
X151935000Y-92761188D01*
X151935001Y-94832061D01*
X151933234Y-94850000D01*
X151938763Y-94906126D01*
X151940282Y-94921552D01*
X151961153Y-94990355D01*
X151995046Y-95053764D01*
X152040658Y-95109343D01*
X152054587Y-95120774D01*
X152925000Y-95991188D01*
X152925001Y-98258811D01*
X149891079Y-101292734D01*
X148161146Y-101292734D01*
X148114098Y-101297368D01*
X148068858Y-101311091D01*
X148027164Y-101333377D01*
X147990619Y-101363368D01*
X147960628Y-101399913D01*
X147938342Y-101441607D01*
X147924619Y-101486847D01*
X147919985Y-101533895D01*
X147919985Y-104240000D01*
X131402307Y-104240000D01*
X131402307Y-101793880D01*
X132485900Y-100710288D01*
X132543895Y-100768283D01*
X132640528Y-100832851D01*
X132747901Y-100877327D01*
X132861888Y-100900000D01*
X132978108Y-100900000D01*
X133092095Y-100877327D01*
X133199468Y-100832851D01*
X133296101Y-100768283D01*
X133378281Y-100686103D01*
X133442849Y-100589470D01*
X133487325Y-100482097D01*
X133509998Y-100368110D01*
X133509998Y-100251890D01*
X133487325Y-100137903D01*
X133442849Y-100030530D01*
X133378281Y-99933897D01*
X133296101Y-99851717D01*
X133295000Y-99850981D01*
X133295000Y-99383740D01*
X133298825Y-99382580D01*
X133375096Y-99341812D01*
X133441948Y-99286948D01*
X133496812Y-99220096D01*
X133537580Y-99143825D01*
X133562684Y-99061066D01*
X133571161Y-98975000D01*
X133571161Y-98425000D01*
X133938839Y-98425000D01*
X133938839Y-98975000D01*
X133947316Y-99061066D01*
X133972420Y-99143825D01*
X134013188Y-99220096D01*
X134068052Y-99286948D01*
X134134904Y-99341812D01*
X134211175Y-99382580D01*
X134293934Y-99407684D01*
X134380000Y-99416161D01*
X134779973Y-99416161D01*
X134895000Y-99531188D01*
X134895001Y-100632062D01*
X134893234Y-100650000D01*
X134900157Y-100720281D01*
X134900282Y-100721552D01*
X134921153Y-100790355D01*
X134955046Y-100853764D01*
X135000658Y-100909343D01*
X135014588Y-100920775D01*
X137429225Y-103335413D01*
X137440657Y-103349343D01*
X137496236Y-103394955D01*
X137559645Y-103428848D01*
X137628448Y-103449719D01*
X137682069Y-103455000D01*
X137682070Y-103455000D01*
X137699999Y-103456766D01*
X137717928Y-103455000D01*
X142882071Y-103455000D01*
X142900000Y-103456766D01*
X142917929Y-103455000D01*
X142917931Y-103455000D01*
X142971552Y-103449719D01*
X143020074Y-103435000D01*
X145262071Y-103435000D01*
X145280000Y-103436766D01*
X145297929Y-103435000D01*
X145297931Y-103435000D01*
X145351552Y-103429719D01*
X145420355Y-103408848D01*
X145483764Y-103374955D01*
X145539343Y-103329343D01*
X145550779Y-103315408D01*
X148195412Y-100670775D01*
X148209342Y-100659343D01*
X148254955Y-100603764D01*
X148288848Y-100540355D01*
X148309719Y-100471552D01*
X148315000Y-100417931D01*
X148315000Y-100417930D01*
X148316766Y-100400001D01*
X148315000Y-100382072D01*
X148315000Y-99007929D01*
X148316766Y-98990000D01*
X148314964Y-98971701D01*
X148309719Y-98918448D01*
X148288848Y-98849645D01*
X148254955Y-98786236D01*
X148209343Y-98730657D01*
X148195413Y-98719225D01*
X147675000Y-98198813D01*
X147675000Y-98071492D01*
X147760166Y-98156658D01*
X147938691Y-98275945D01*
X148137059Y-98358112D01*
X148347644Y-98400000D01*
X148562356Y-98400000D01*
X148772941Y-98358112D01*
X148959605Y-98280793D01*
X149265000Y-98586188D01*
X149265001Y-99528811D01*
X149051207Y-99742605D01*
X149038110Y-99740000D01*
X148921890Y-99740000D01*
X148807903Y-99762673D01*
X148700530Y-99807149D01*
X148603897Y-99871717D01*
X148521717Y-99953897D01*
X148457149Y-100050530D01*
X148412673Y-100157903D01*
X148390000Y-100271890D01*
X148390000Y-100388110D01*
X148412673Y-100502097D01*
X148457149Y-100609470D01*
X148521717Y-100706103D01*
X148603897Y-100788283D01*
X148700530Y-100852851D01*
X148807903Y-100897327D01*
X148921890Y-100920000D01*
X149038110Y-100920000D01*
X149152097Y-100897327D01*
X149259470Y-100852851D01*
X149356103Y-100788283D01*
X149438283Y-100706103D01*
X149502851Y-100609470D01*
X149547327Y-100502097D01*
X149570000Y-100388110D01*
X149570000Y-100271890D01*
X149567395Y-100258793D01*
X149875413Y-99950775D01*
X149889343Y-99939343D01*
X149934955Y-99883764D01*
X149968848Y-99820355D01*
X149989719Y-99751552D01*
X149995000Y-99697931D01*
X149995000Y-99697929D01*
X149996766Y-99680000D01*
X149995000Y-99662071D01*
X149995000Y-98452929D01*
X149996766Y-98435000D01*
X149994995Y-98417023D01*
X149989719Y-98363448D01*
X149969485Y-98296744D01*
X149968848Y-98294644D01*
X149946674Y-98253160D01*
X149934955Y-98231236D01*
X149911022Y-98202074D01*
X149900773Y-98189585D01*
X149900770Y-98189582D01*
X149889342Y-98175657D01*
X149875418Y-98164230D01*
X149832446Y-98121258D01*
X149997382Y-98121258D01*
X150084965Y-98295019D01*
X150289814Y-98404859D01*
X150512157Y-98472624D01*
X150743447Y-98495709D01*
X150974797Y-98473229D01*
X151197316Y-98406047D01*
X151402453Y-98296744D01*
X151405035Y-98295019D01*
X151492618Y-98121258D01*
X150745000Y-97373640D01*
X149997382Y-98121258D01*
X149832446Y-98121258D01*
X149455082Y-97743895D01*
X149503112Y-97627941D01*
X149545000Y-97417356D01*
X149545000Y-97308447D01*
X149559291Y-97308447D01*
X149581771Y-97539797D01*
X149648953Y-97762316D01*
X149758256Y-97967453D01*
X149759981Y-97970035D01*
X149933742Y-98057618D01*
X150681360Y-97310000D01*
X150808640Y-97310000D01*
X151556258Y-98057618D01*
X151730019Y-97970035D01*
X151839859Y-97765186D01*
X151907624Y-97542843D01*
X151930709Y-97311553D01*
X151908229Y-97080203D01*
X151841047Y-96857684D01*
X151731744Y-96652547D01*
X151730019Y-96649965D01*
X151556258Y-96562382D01*
X150808640Y-97310000D01*
X150681360Y-97310000D01*
X149933742Y-96562382D01*
X149759981Y-96649965D01*
X149650141Y-96854814D01*
X149582376Y-97077157D01*
X149559291Y-97308447D01*
X149545000Y-97308447D01*
X149545000Y-97202644D01*
X149503112Y-96992059D01*
X149420945Y-96793691D01*
X149301658Y-96615166D01*
X149149834Y-96463342D01*
X148971309Y-96344055D01*
X148772941Y-96261888D01*
X148562356Y-96220000D01*
X148347644Y-96220000D01*
X148137059Y-96261888D01*
X147938691Y-96344055D01*
X147760166Y-96463342D01*
X147675000Y-96548508D01*
X147675000Y-96358619D01*
X147826309Y-96295945D01*
X148004834Y-96176658D01*
X148040234Y-96141258D01*
X148852382Y-96141258D01*
X148939965Y-96315019D01*
X149144814Y-96424859D01*
X149367157Y-96492624D01*
X149598447Y-96515709D01*
X149829797Y-96493229D01*
X150030740Y-96432561D01*
X149997382Y-96498742D01*
X150745000Y-97246360D01*
X151492618Y-96498742D01*
X151405035Y-96324981D01*
X151200186Y-96215141D01*
X150977843Y-96147376D01*
X150746553Y-96124291D01*
X150515203Y-96146771D01*
X150314260Y-96207439D01*
X150347618Y-96141258D01*
X149600000Y-95393640D01*
X148852382Y-96141258D01*
X148040234Y-96141258D01*
X148156658Y-96024834D01*
X148275945Y-95846309D01*
X148358112Y-95647941D01*
X148400000Y-95437356D01*
X148400000Y-95328447D01*
X148414291Y-95328447D01*
X148436771Y-95559797D01*
X148503953Y-95782316D01*
X148613256Y-95987453D01*
X148614981Y-95990035D01*
X148788742Y-96077618D01*
X149536360Y-95330000D01*
X149663640Y-95330000D01*
X150411258Y-96077618D01*
X150585019Y-95990035D01*
X150694859Y-95785186D01*
X150762624Y-95562843D01*
X150785709Y-95331553D01*
X150763229Y-95100203D01*
X150696047Y-94877684D01*
X150586744Y-94672547D01*
X150585019Y-94669965D01*
X150411258Y-94582382D01*
X149663640Y-95330000D01*
X149536360Y-95330000D01*
X148788742Y-94582382D01*
X148614981Y-94669965D01*
X148505141Y-94874814D01*
X148437376Y-95097157D01*
X148414291Y-95328447D01*
X148400000Y-95328447D01*
X148400000Y-95222644D01*
X148358112Y-95012059D01*
X148275945Y-94813691D01*
X148156658Y-94635166D01*
X148040234Y-94518742D01*
X148852382Y-94518742D01*
X149600000Y-95266360D01*
X150347618Y-94518742D01*
X150260035Y-94344981D01*
X150055186Y-94235141D01*
X149832843Y-94167376D01*
X149601553Y-94144291D01*
X149370203Y-94166771D01*
X149147684Y-94233953D01*
X148942547Y-94343256D01*
X148939965Y-94344981D01*
X148852382Y-94518742D01*
X148040234Y-94518742D01*
X148004834Y-94483342D01*
X147826309Y-94364055D01*
X147627941Y-94281888D01*
X147417356Y-94240000D01*
X147202644Y-94240000D01*
X146992059Y-94281888D01*
X146793691Y-94364055D01*
X146615166Y-94483342D01*
X146463342Y-94635166D01*
X146344055Y-94813691D01*
X146261888Y-95012059D01*
X146220000Y-95222644D01*
X146220000Y-95437356D01*
X146261888Y-95647941D01*
X146344055Y-95846309D01*
X146463342Y-96024834D01*
X146615166Y-96176658D01*
X146793691Y-96295945D01*
X146945001Y-96358620D01*
X146945001Y-96548509D01*
X146859834Y-96463342D01*
X146681309Y-96344055D01*
X146482941Y-96261888D01*
X146272356Y-96220000D01*
X146057644Y-96220000D01*
X145847059Y-96261888D01*
X145648691Y-96344055D01*
X145470166Y-96463342D01*
X145318342Y-96615166D01*
X145199055Y-96793691D01*
X145116888Y-96992059D01*
X145075000Y-97202644D01*
X145075000Y-97417356D01*
X145116888Y-97627941D01*
X145199055Y-97826309D01*
X145318342Y-98004834D01*
X145470166Y-98156658D01*
X145648691Y-98275945D01*
X145847059Y-98358112D01*
X146057644Y-98400000D01*
X146272356Y-98400000D01*
X146482941Y-98358112D01*
X146681309Y-98275945D01*
X146859834Y-98156658D01*
X146945000Y-98071492D01*
X146945000Y-98332071D01*
X146943234Y-98350000D01*
X146945000Y-98367929D01*
X146945000Y-98367930D01*
X146950281Y-98421551D01*
X146971152Y-98490354D01*
X147005045Y-98553763D01*
X147050657Y-98609342D01*
X147064588Y-98620775D01*
X147585001Y-99141189D01*
X147585000Y-100248813D01*
X145128813Y-102705000D01*
X142937928Y-102705000D01*
X142919999Y-102703234D01*
X142902070Y-102705000D01*
X142902069Y-102705000D01*
X142848448Y-102710281D01*
X142799926Y-102725000D01*
X137851188Y-102725000D01*
X135625000Y-100498813D01*
X135625000Y-100251890D01*
X136430000Y-100251890D01*
X136430000Y-100368110D01*
X136452673Y-100482097D01*
X136497149Y-100589470D01*
X136561717Y-100686103D01*
X136643897Y-100768283D01*
X136740530Y-100832851D01*
X136847903Y-100877327D01*
X136961890Y-100900000D01*
X137078110Y-100900000D01*
X137192097Y-100877327D01*
X137299470Y-100832851D01*
X137396103Y-100768283D01*
X137478283Y-100686103D01*
X137485702Y-100675000D01*
X145464298Y-100675000D01*
X145471717Y-100686103D01*
X145553897Y-100768283D01*
X145650530Y-100832851D01*
X145757903Y-100877327D01*
X145871890Y-100900000D01*
X145988110Y-100900000D01*
X146102097Y-100877327D01*
X146209470Y-100832851D01*
X146306103Y-100768283D01*
X146388283Y-100686103D01*
X146452851Y-100589470D01*
X146497327Y-100482097D01*
X146520000Y-100368110D01*
X146520000Y-100251890D01*
X146497327Y-100137903D01*
X146452851Y-100030530D01*
X146388283Y-99933897D01*
X146306103Y-99851717D01*
X146209470Y-99787149D01*
X146102097Y-99742673D01*
X145988110Y-99720000D01*
X145871890Y-99720000D01*
X145757903Y-99742673D01*
X145650530Y-99787149D01*
X145553897Y-99851717D01*
X145471717Y-99933897D01*
X145464298Y-99945000D01*
X137485702Y-99945000D01*
X137478283Y-99933897D01*
X137396103Y-99851717D01*
X137299470Y-99787149D01*
X137192097Y-99742673D01*
X137078110Y-99720000D01*
X136961890Y-99720000D01*
X136847903Y-99742673D01*
X136740530Y-99787149D01*
X136643897Y-99851717D01*
X136561717Y-99933897D01*
X136497149Y-100030530D01*
X136452673Y-100137903D01*
X136430000Y-100251890D01*
X135625000Y-100251890D01*
X135625000Y-99397928D01*
X135626766Y-99379999D01*
X135624478Y-99356766D01*
X135619719Y-99308448D01*
X135598848Y-99239645D01*
X135564955Y-99176236D01*
X135548699Y-99156428D01*
X135530772Y-99134584D01*
X135530770Y-99134582D01*
X135519342Y-99120657D01*
X135505418Y-99109230D01*
X135221161Y-98824973D01*
X135221161Y-98425000D01*
X135212684Y-98338934D01*
X135187580Y-98256175D01*
X135146812Y-98179904D01*
X135091948Y-98113052D01*
X135025096Y-98058188D01*
X134948825Y-98017420D01*
X134866066Y-97992316D01*
X134780000Y-97983839D01*
X134380000Y-97983839D01*
X134293934Y-97992316D01*
X134211175Y-98017420D01*
X134134904Y-98058188D01*
X134068052Y-98113052D01*
X134013188Y-98179904D01*
X133972420Y-98256175D01*
X133947316Y-98338934D01*
X133938839Y-98425000D01*
X133571161Y-98425000D01*
X133562684Y-98338934D01*
X133537580Y-98256175D01*
X133496812Y-98179904D01*
X133441948Y-98113052D01*
X133375096Y-98058188D01*
X133298825Y-98017420D01*
X133216066Y-97992316D01*
X133130000Y-97983839D01*
X132730000Y-97983839D01*
X132643934Y-97992316D01*
X132561175Y-98017420D01*
X132484904Y-98058188D01*
X132418052Y-98113052D01*
X132363188Y-98179904D01*
X132322420Y-98256175D01*
X132297316Y-98338934D01*
X132288839Y-98425000D01*
X132288839Y-98975000D01*
X132297316Y-99061066D01*
X132322420Y-99143825D01*
X132363188Y-99220096D01*
X132418052Y-99286948D01*
X132484904Y-99341812D01*
X132561175Y-99382580D01*
X132565000Y-99383740D01*
X132565001Y-99837615D01*
X132543895Y-99851717D01*
X132461715Y-99933897D01*
X132454296Y-99945000D01*
X132387928Y-99945000D01*
X132369999Y-99943234D01*
X132352070Y-99945000D01*
X132352069Y-99945000D01*
X132298448Y-99950281D01*
X132229645Y-99971152D01*
X132229643Y-99971153D01*
X132166234Y-100005046D01*
X132154678Y-100014530D01*
X132110657Y-100050657D01*
X132099226Y-100064586D01*
X130871079Y-101292734D01*
X129161146Y-101292734D01*
X129114098Y-101297368D01*
X129068858Y-101311091D01*
X129027164Y-101333377D01*
X128990619Y-101363368D01*
X128960628Y-101399913D01*
X128938342Y-101441607D01*
X128924619Y-101486847D01*
X128919985Y-101533895D01*
X128919985Y-104240000D01*
X123802307Y-104240000D01*
X123802307Y-101533895D01*
X123797673Y-101486847D01*
X123783950Y-101441607D01*
X123761664Y-101399913D01*
X123731673Y-101363368D01*
X123695128Y-101333377D01*
X123653434Y-101311091D01*
X123608194Y-101297368D01*
X123561146Y-101292734D01*
X122945000Y-101292734D01*
X122945000Y-101231187D01*
X126361188Y-97815000D01*
X129262071Y-97815000D01*
X129280000Y-97816766D01*
X129297929Y-97815000D01*
X129297931Y-97815000D01*
X129351552Y-97809719D01*
X129420355Y-97788848D01*
X129483764Y-97754955D01*
X129539343Y-97709343D01*
X129550779Y-97695408D01*
X130264038Y-96982149D01*
X132081490Y-96982149D01*
X132310999Y-97277063D01*
X132716966Y-97504779D01*
X133159556Y-97648919D01*
X133621763Y-97703944D01*
X134085823Y-97667740D01*
X134533903Y-97541698D01*
X134948785Y-97330662D01*
X135029001Y-97277063D01*
X135258510Y-96982149D01*
X133670000Y-95393640D01*
X132081490Y-96982149D01*
X130264038Y-96982149D01*
X130755418Y-96490770D01*
X130769342Y-96479343D01*
X130783662Y-96461895D01*
X130805399Y-96435408D01*
X130814955Y-96423764D01*
X130848848Y-96360355D01*
X130869719Y-96291552D01*
X130875000Y-96237931D01*
X130875000Y-96237929D01*
X130876766Y-96220000D01*
X130875000Y-96202071D01*
X130875000Y-95281763D01*
X131296056Y-95281763D01*
X131332260Y-95745823D01*
X131458302Y-96193903D01*
X131669338Y-96608785D01*
X131722937Y-96689001D01*
X132017851Y-96918510D01*
X133606360Y-95330000D01*
X133733640Y-95330000D01*
X135322149Y-96918510D01*
X135617063Y-96689001D01*
X135844779Y-96283034D01*
X135988919Y-95840444D01*
X136043944Y-95378237D01*
X136007740Y-94914177D01*
X135881698Y-94466097D01*
X135670662Y-94051215D01*
X135617063Y-93970999D01*
X135322149Y-93741490D01*
X133733640Y-95330000D01*
X133606360Y-95330000D01*
X132017851Y-93741490D01*
X131722937Y-93970999D01*
X131495221Y-94376966D01*
X131351081Y-94819556D01*
X131296056Y-95281763D01*
X130875000Y-95281763D01*
X130875000Y-93857928D01*
X130876766Y-93839999D01*
X130875000Y-93822069D01*
X130869719Y-93768448D01*
X130848848Y-93699645D01*
X130837199Y-93677851D01*
X132081490Y-93677851D01*
X133670000Y-95266360D01*
X135258510Y-93677851D01*
X135029001Y-93382937D01*
X134623034Y-93155221D01*
X134180444Y-93011081D01*
X133718237Y-92956056D01*
X133254177Y-92992260D01*
X132806097Y-93118302D01*
X132391215Y-93329338D01*
X132310999Y-93382937D01*
X132081490Y-93677851D01*
X130837199Y-93677851D01*
X130816967Y-93640000D01*
X130814954Y-93636234D01*
X130789016Y-93604629D01*
X130769343Y-93580657D01*
X130755413Y-93569225D01*
X130555000Y-93368813D01*
X130555000Y-92703740D01*
X130558825Y-92702580D01*
X130635096Y-92661812D01*
X130701948Y-92606948D01*
X130756812Y-92540096D01*
X130797580Y-92463825D01*
X130822684Y-92381066D01*
X130831161Y-92295000D01*
X130831161Y-91745000D01*
X130822684Y-91658934D01*
X130797580Y-91576175D01*
X130756812Y-91499904D01*
X130701948Y-91433052D01*
X130635096Y-91378188D01*
X130558825Y-91337420D01*
X130476066Y-91312316D01*
X130390000Y-91303839D01*
X129990000Y-91303839D01*
X129903934Y-91312316D01*
X129821175Y-91337420D01*
X129744904Y-91378188D01*
X129678052Y-91433052D01*
X129623188Y-91499904D01*
X129582420Y-91576175D01*
X129557316Y-91658934D01*
X129548839Y-91745000D01*
X129548839Y-92295000D01*
X129557316Y-92381066D01*
X129582420Y-92463825D01*
X129623188Y-92540096D01*
X129678052Y-92606948D01*
X129744904Y-92661812D01*
X129821175Y-92702580D01*
X129825001Y-92703740D01*
X129825000Y-93502071D01*
X129823234Y-93520000D01*
X129825000Y-93537929D01*
X129825000Y-93537930D01*
X129830281Y-93591551D01*
X129851152Y-93660354D01*
X129885045Y-93723763D01*
X129930657Y-93779342D01*
X129944588Y-93790775D01*
X130145001Y-93991189D01*
X130145000Y-96068812D01*
X129128813Y-97085000D01*
X126227928Y-97085000D01*
X126209999Y-97083234D01*
X126192070Y-97085000D01*
X126192069Y-97085000D01*
X126138448Y-97090281D01*
X126069645Y-97111152D01*
X126014423Y-97140669D01*
X126006234Y-97145046D01*
X125983161Y-97163982D01*
X125950657Y-97190657D01*
X125939226Y-97204586D01*
X122334588Y-100809225D01*
X122320658Y-100820657D01*
X122309227Y-100834586D01*
X122275046Y-100876236D01*
X122241153Y-100939645D01*
X122220282Y-101008448D01*
X122213234Y-101080000D01*
X122215001Y-101097939D01*
X122215001Y-101292734D01*
X121561146Y-101292734D01*
X121514098Y-101297368D01*
X121468858Y-101311091D01*
X121427164Y-101333377D01*
X121390619Y-101363368D01*
X121360628Y-101399913D01*
X121338342Y-101441607D01*
X121324619Y-101486847D01*
X121319985Y-101533895D01*
X121319985Y-104240000D01*
X120630000Y-104240000D01*
X120630000Y-102008355D01*
X124783107Y-96590000D01*
X128184245Y-96590000D01*
X128197215Y-96588723D01*
X128205011Y-96588777D01*
X128209041Y-96588381D01*
X128451660Y-96562880D01*
X128477388Y-96557599D01*
X128503226Y-96552670D01*
X128507100Y-96551501D01*
X128507106Y-96551499D01*
X128740149Y-96479360D01*
X128764382Y-96469173D01*
X128788750Y-96459328D01*
X128792325Y-96457427D01*
X129006922Y-96341395D01*
X129028715Y-96326696D01*
X129050706Y-96312305D01*
X129053844Y-96309746D01*
X129241816Y-96154242D01*
X129260322Y-96135606D01*
X129279116Y-96117202D01*
X129281697Y-96114082D01*
X129435886Y-95925028D01*
X129450425Y-95903144D01*
X129465281Y-95881448D01*
X129467207Y-95877886D01*
X129581738Y-95662485D01*
X129591755Y-95638181D01*
X129602109Y-95614025D01*
X129603306Y-95610157D01*
X129673817Y-95376612D01*
X129678918Y-95350848D01*
X129684387Y-95325119D01*
X129684810Y-95321092D01*
X129708616Y-95078299D01*
X129708616Y-95078298D01*
X129710000Y-95064245D01*
X129710000Y-94715755D01*
X129708723Y-94702785D01*
X129708777Y-94694988D01*
X129708381Y-94690959D01*
X129682880Y-94448339D01*
X129677598Y-94422605D01*
X129672670Y-94396774D01*
X129671500Y-94392898D01*
X129599360Y-94159851D01*
X129589181Y-94135637D01*
X129579329Y-94111251D01*
X129577427Y-94107676D01*
X129577427Y-94107675D01*
X129577424Y-94107671D01*
X129461395Y-93893078D01*
X129446696Y-93871285D01*
X129432305Y-93849294D01*
X129429746Y-93846156D01*
X129274242Y-93658184D01*
X129255606Y-93639678D01*
X129237202Y-93620884D01*
X129234081Y-93618303D01*
X129045028Y-93464114D01*
X129023121Y-93449559D01*
X129001448Y-93434719D01*
X128997886Y-93432793D01*
X128782485Y-93318262D01*
X128758181Y-93308245D01*
X128734025Y-93297891D01*
X128730157Y-93296694D01*
X128496612Y-93226183D01*
X128470848Y-93221082D01*
X128460000Y-93218776D01*
X128460000Y-91818522D01*
X129372922Y-90630000D01*
X137193649Y-90630000D01*
X137180627Y-90640687D01*
G04 #@! TA.AperFunction,Conductor*
D20*
G36*
X137180627Y-90640687D02*
G01*
X137169191Y-90654622D01*
X136704588Y-91119225D01*
X136690657Y-91130658D01*
X136645045Y-91186237D01*
X136611152Y-91249646D01*
X136602296Y-91278839D01*
X136460000Y-91278839D01*
X136412952Y-91283473D01*
X136367712Y-91297196D01*
X136335000Y-91314681D01*
X136302288Y-91297196D01*
X136257048Y-91283473D01*
X136210000Y-91278839D01*
X135660000Y-91278839D01*
X135635552Y-91281247D01*
X135610991Y-91281247D01*
X135563943Y-91285881D01*
X135467810Y-91305003D01*
X135422571Y-91318726D01*
X135332015Y-91356235D01*
X135290320Y-91378521D01*
X135208821Y-91432977D01*
X135172276Y-91462968D01*
X135102968Y-91532276D01*
X135072977Y-91568821D01*
X135018521Y-91650320D01*
X134996235Y-91692015D01*
X134958726Y-91782571D01*
X134945003Y-91827810D01*
X134929649Y-91905000D01*
X133921188Y-91905000D01*
X133790779Y-91774592D01*
X133779343Y-91760657D01*
X133723764Y-91715045D01*
X133660355Y-91681152D01*
X133591552Y-91660281D01*
X133537931Y-91655000D01*
X133537929Y-91655000D01*
X133520000Y-91653234D01*
X133502071Y-91655000D01*
X132471491Y-91655000D01*
X132447580Y-91576175D01*
X132406812Y-91499904D01*
X132351948Y-91433052D01*
X132285096Y-91378188D01*
X132208825Y-91337420D01*
X132126066Y-91312316D01*
X132040000Y-91303839D01*
X131640000Y-91303839D01*
X131553934Y-91312316D01*
X131471175Y-91337420D01*
X131394904Y-91378188D01*
X131328052Y-91433052D01*
X131273188Y-91499904D01*
X131232420Y-91576175D01*
X131207316Y-91658934D01*
X131198839Y-91745000D01*
X131198839Y-92295000D01*
X131207316Y-92381066D01*
X131232420Y-92463825D01*
X131273188Y-92540096D01*
X131328052Y-92606948D01*
X131394904Y-92661812D01*
X131471175Y-92702580D01*
X131553934Y-92727684D01*
X131640000Y-92736161D01*
X132040000Y-92736161D01*
X132126066Y-92727684D01*
X132208825Y-92702580D01*
X132285096Y-92661812D01*
X132351948Y-92606948D01*
X132406812Y-92540096D01*
X132447580Y-92463825D01*
X132471491Y-92385000D01*
X133368813Y-92385000D01*
X133499225Y-92515413D01*
X133510657Y-92529343D01*
X133529063Y-92544448D01*
X133566234Y-92574954D01*
X133587092Y-92586103D01*
X133629645Y-92608848D01*
X133698448Y-92629719D01*
X133752069Y-92635000D01*
X133752070Y-92635000D01*
X133769999Y-92636766D01*
X133787928Y-92635000D01*
X134929649Y-92635000D01*
X134945003Y-92712190D01*
X134958726Y-92757429D01*
X134996235Y-92847985D01*
X135018521Y-92889680D01*
X135072977Y-92971179D01*
X135102968Y-93007724D01*
X135172276Y-93077032D01*
X135208821Y-93107023D01*
X135290320Y-93161479D01*
X135332015Y-93183765D01*
X135422571Y-93221274D01*
X135467810Y-93234997D01*
X135563943Y-93254119D01*
X135610991Y-93258753D01*
X135635552Y-93258753D01*
X135660000Y-93261161D01*
X136210000Y-93261161D01*
X136257048Y-93256527D01*
X136302288Y-93242804D01*
X136335000Y-93225319D01*
X136367712Y-93242804D01*
X136412952Y-93256527D01*
X136460000Y-93261161D01*
X137460000Y-93261161D01*
X137507048Y-93256527D01*
X137552288Y-93242804D01*
X137585000Y-93225319D01*
X137617712Y-93242804D01*
X137662952Y-93256527D01*
X137710000Y-93261161D01*
X138260000Y-93261161D01*
X138284448Y-93258753D01*
X138309009Y-93258753D01*
X138356057Y-93254119D01*
X138452190Y-93234997D01*
X138497429Y-93221274D01*
X138587985Y-93183765D01*
X138629680Y-93161479D01*
X138711179Y-93107023D01*
X138747724Y-93077032D01*
X138817032Y-93007724D01*
X138847023Y-92971179D01*
X138901479Y-92889680D01*
X138923765Y-92847985D01*
X138961274Y-92757429D01*
X138974997Y-92712190D01*
X138994119Y-92616057D01*
X138998753Y-92569009D01*
X138998753Y-92544448D01*
X139001161Y-92520000D01*
X139001161Y-92020000D01*
X138998753Y-91995552D01*
X138998753Y-91970991D01*
X138994119Y-91923943D01*
X138974997Y-91827810D01*
X138961274Y-91782571D01*
X138923765Y-91692015D01*
X138901479Y-91650320D01*
X138847023Y-91568821D01*
X138817032Y-91532276D01*
X138757088Y-91472332D01*
X138782097Y-91467357D01*
X138889470Y-91422881D01*
X138986103Y-91358313D01*
X139068283Y-91276133D01*
X139132851Y-91179500D01*
X139177327Y-91072127D01*
X139200000Y-90958140D01*
X139200000Y-90841920D01*
X139177327Y-90727933D01*
X139136761Y-90630000D01*
X161286909Y-90630000D01*
X161291612Y-97512636D01*
X161224609Y-97533377D01*
X161200408Y-97543550D01*
X161176006Y-97553409D01*
X161172441Y-97555305D01*
X161172433Y-97555309D01*
X161172426Y-97555314D01*
X160950895Y-97675095D01*
X160929104Y-97689793D01*
X160907112Y-97704184D01*
X160903977Y-97706742D01*
X160903973Y-97706745D01*
X160903969Y-97706749D01*
X160709924Y-97867276D01*
X160691417Y-97885913D01*
X160672623Y-97904317D01*
X160670042Y-97907437D01*
X160510868Y-98102604D01*
X160496335Y-98124477D01*
X160481473Y-98146183D01*
X160479547Y-98149745D01*
X160361312Y-98372112D01*
X160351290Y-98396428D01*
X160340941Y-98420572D01*
X160339744Y-98424440D01*
X160266953Y-98665537D01*
X160261847Y-98691326D01*
X160256383Y-98717030D01*
X160255960Y-98721057D01*
X160231384Y-98971701D01*
X160230000Y-98985756D01*
X160230000Y-99324245D01*
X160230359Y-99327887D01*
X160231680Y-99380300D01*
X160233619Y-99395988D01*
X160234195Y-99411791D01*
X160234765Y-99415799D01*
X160270776Y-99657084D01*
X160277166Y-99682546D01*
X160283215Y-99708158D01*
X160284553Y-99711980D01*
X160366744Y-99941675D01*
X160377970Y-99965437D01*
X160388867Y-99989360D01*
X160390921Y-99992849D01*
X160516161Y-100202205D01*
X160531797Y-100223345D01*
X160547125Y-100244685D01*
X160549818Y-100247709D01*
X160713337Y-100428752D01*
X160732757Y-100446430D01*
X160751962Y-100464409D01*
X160755191Y-100466851D01*
X160950761Y-100612685D01*
X160973278Y-100626274D01*
X160995576Y-100640160D01*
X160999218Y-100641930D01*
X161219390Y-100747001D01*
X161244101Y-100755952D01*
X161268689Y-100765248D01*
X161272602Y-100766275D01*
X161272605Y-100766276D01*
X161272608Y-100766276D01*
X161290639Y-100770876D01*
X161290050Y-104240000D01*
X158002307Y-104240000D01*
X158002307Y-101533895D01*
X157997673Y-101486847D01*
X157983950Y-101441607D01*
X157961664Y-101399913D01*
X157931673Y-101363368D01*
X157895128Y-101333377D01*
X157853434Y-101311091D01*
X157808194Y-101297368D01*
X157761146Y-101292734D01*
X157125000Y-101292734D01*
X157125000Y-100087928D01*
X157126766Y-100069999D01*
X157123810Y-100039990D01*
X157119719Y-99998448D01*
X157098848Y-99929645D01*
X157064955Y-99866236D01*
X157064954Y-99866234D01*
X157030772Y-99824584D01*
X157030770Y-99824582D01*
X157019342Y-99810657D01*
X157005418Y-99799230D01*
X155335000Y-98128813D01*
X155335000Y-96982149D01*
X157071490Y-96982149D01*
X157300999Y-97277063D01*
X157706966Y-97504779D01*
X158149556Y-97648919D01*
X158611763Y-97703944D01*
X159075823Y-97667740D01*
X159523903Y-97541698D01*
X159938785Y-97330662D01*
X160019001Y-97277063D01*
X160248510Y-96982149D01*
X158660000Y-95393640D01*
X157071490Y-96982149D01*
X155335000Y-96982149D01*
X155335000Y-95737929D01*
X155336766Y-95720000D01*
X155334761Y-95699643D01*
X155329719Y-95648448D01*
X155309190Y-95580772D01*
X155308848Y-95579644D01*
X155285009Y-95535045D01*
X155274955Y-95516236D01*
X155252884Y-95489343D01*
X155240773Y-95474585D01*
X155240770Y-95474582D01*
X155229342Y-95460657D01*
X155215418Y-95449230D01*
X155047951Y-95281763D01*
X156286056Y-95281763D01*
X156322260Y-95745823D01*
X156448302Y-96193903D01*
X156659338Y-96608785D01*
X156712937Y-96689001D01*
X157007851Y-96918510D01*
X158596360Y-95330000D01*
X158723640Y-95330000D01*
X160312149Y-96918510D01*
X160607063Y-96689001D01*
X160834779Y-96283034D01*
X160978919Y-95840444D01*
X161033944Y-95378237D01*
X160997740Y-94914177D01*
X160871698Y-94466097D01*
X160660662Y-94051215D01*
X160607063Y-93970999D01*
X160312149Y-93741490D01*
X158723640Y-95330000D01*
X158596360Y-95330000D01*
X157007851Y-93741490D01*
X156712937Y-93970999D01*
X156485221Y-94376966D01*
X156341081Y-94819556D01*
X156286056Y-95281763D01*
X155047951Y-95281763D01*
X153675000Y-93908813D01*
X153675000Y-93677851D01*
X157071490Y-93677851D01*
X158660000Y-95266360D01*
X160248510Y-93677851D01*
X160019001Y-93382937D01*
X159613034Y-93155221D01*
X159170444Y-93011081D01*
X158708237Y-92956056D01*
X158244177Y-92992260D01*
X157796097Y-93118302D01*
X157381215Y-93329338D01*
X157300999Y-93382937D01*
X157071490Y-93677851D01*
X153675000Y-93677851D01*
X153675000Y-93201161D01*
X153810000Y-93201161D01*
X153857048Y-93196527D01*
X153902288Y-93182804D01*
X153935000Y-93165319D01*
X153967712Y-93182804D01*
X154012952Y-93196527D01*
X154060000Y-93201161D01*
X155060000Y-93201161D01*
X155107048Y-93196527D01*
X155152288Y-93182804D01*
X155185000Y-93165319D01*
X155217712Y-93182804D01*
X155262952Y-93196527D01*
X155310000Y-93201161D01*
X155860000Y-93201161D01*
X155884448Y-93198753D01*
X155909009Y-93198753D01*
X155956057Y-93194119D01*
X156052190Y-93174997D01*
X156097429Y-93161274D01*
X156187985Y-93123765D01*
X156229680Y-93101479D01*
X156311179Y-93047023D01*
X156347724Y-93017032D01*
X156417032Y-92947724D01*
X156447023Y-92911179D01*
X156501479Y-92829680D01*
X156523765Y-92787985D01*
X156561274Y-92697429D01*
X156574997Y-92652190D01*
X156594119Y-92556057D01*
X156598753Y-92509009D01*
X156598753Y-92484448D01*
X156601161Y-92460000D01*
X156601161Y-91960000D01*
X156598753Y-91935552D01*
X156598753Y-91910991D01*
X156594119Y-91863943D01*
X156574997Y-91767810D01*
X156561274Y-91722571D01*
X156523765Y-91632015D01*
X156501479Y-91590320D01*
X156447023Y-91508821D01*
X156417032Y-91472276D01*
X156347724Y-91402968D01*
X156311179Y-91372977D01*
X156229680Y-91318521D01*
X156187985Y-91296235D01*
X156097429Y-91258726D01*
X156052190Y-91245003D01*
X155956057Y-91225881D01*
X155909009Y-91221247D01*
X155884448Y-91221247D01*
X155860000Y-91218839D01*
X155310000Y-91218839D01*
X155262952Y-91223473D01*
X155217712Y-91237196D01*
X155185000Y-91254681D01*
X155152288Y-91237196D01*
X155107048Y-91223473D01*
X155060000Y-91218839D01*
X154060000Y-91218839D01*
X154012952Y-91223473D01*
X153967712Y-91237196D01*
X153935000Y-91254681D01*
X153902288Y-91237196D01*
X153857048Y-91223473D01*
X153810000Y-91218839D01*
X153260000Y-91218839D01*
X153235552Y-91221247D01*
X153210991Y-91221247D01*
X153163943Y-91225881D01*
X153067810Y-91245003D01*
X153022571Y-91258726D01*
X152932015Y-91296235D01*
X152890320Y-91318521D01*
X152808821Y-91372977D01*
X152772276Y-91402968D01*
X152702968Y-91472276D01*
X152672977Y-91508821D01*
X152618521Y-91590320D01*
X152596235Y-91632015D01*
X152558726Y-91722571D01*
X152545003Y-91767810D01*
X152525881Y-91863943D01*
X152521247Y-91910991D01*
X152521247Y-91935552D01*
X152518839Y-91960000D01*
X152518839Y-92312651D01*
X151650779Y-91444592D01*
X151639343Y-91430657D01*
X151583764Y-91385045D01*
X151520355Y-91351152D01*
X151451552Y-91330281D01*
X151397931Y-91325000D01*
X151397929Y-91325000D01*
X151380000Y-91323234D01*
X151362071Y-91325000D01*
X140887928Y-91325000D01*
X140869999Y-91323234D01*
X140852070Y-91325000D01*
X140852069Y-91325000D01*
X140798448Y-91330281D01*
X140729645Y-91351152D01*
X140666236Y-91385045D01*
X140610657Y-91430657D01*
X140599225Y-91444587D01*
X139364587Y-92679225D01*
X139350658Y-92690657D01*
X139339227Y-92704586D01*
X139305046Y-92746236D01*
X139271153Y-92809645D01*
X139250282Y-92878448D01*
X139243234Y-92950000D01*
X139245001Y-92967938D01*
X139245000Y-93488812D01*
X138170626Y-94563187D01*
X138087429Y-94528726D01*
X138042190Y-94515003D01*
X137946057Y-94495881D01*
X137899009Y-94491247D01*
X137874448Y-94491247D01*
X137850000Y-94488839D01*
X137350000Y-94488839D01*
X137325552Y-94491247D01*
X137300991Y-94491247D01*
X137253943Y-94495881D01*
X137157810Y-94515003D01*
X137112571Y-94528726D01*
X137022015Y-94566235D01*
X136980320Y-94588521D01*
X136898821Y-94642977D01*
X136862276Y-94672968D01*
X136792968Y-94742276D01*
X136762977Y-94778821D01*
X136708521Y-94860320D01*
X136686235Y-94902015D01*
X136648726Y-94992571D01*
X136635003Y-95037810D01*
X136615881Y-95133943D01*
X136611247Y-95180991D01*
X136611247Y-95205552D01*
X136608839Y-95230000D01*
X136608839Y-95780000D01*
X136613473Y-95827048D01*
X136627196Y-95872288D01*
X136644681Y-95905000D01*
X136627196Y-95937712D01*
X136613473Y-95982952D01*
X136608839Y-96030000D01*
X136608839Y-97030000D01*
X136613473Y-97077048D01*
X136627196Y-97122288D01*
X136644681Y-97155000D01*
X136627196Y-97187712D01*
X136613473Y-97232952D01*
X136608839Y-97280000D01*
X136608839Y-97830000D01*
X136611247Y-97854448D01*
X136611247Y-97879009D01*
X136615881Y-97926057D01*
X136635003Y-98022190D01*
X136648726Y-98067429D01*
X136686235Y-98157985D01*
X136708521Y-98199680D01*
X136762977Y-98281179D01*
X136792968Y-98317724D01*
X136862276Y-98387032D01*
X136898821Y-98417023D01*
X136980320Y-98471479D01*
X137022015Y-98493765D01*
X137112571Y-98531274D01*
X137157810Y-98544997D01*
X137253943Y-98564119D01*
X137300991Y-98568753D01*
X137325552Y-98568753D01*
X137350000Y-98571161D01*
X137850000Y-98571161D01*
X137874448Y-98568753D01*
X137899009Y-98568753D01*
X137946057Y-98564119D01*
X138042190Y-98544997D01*
X138087429Y-98531274D01*
X138121128Y-98517316D01*
X138909225Y-99305413D01*
X138920657Y-99319343D01*
X138976236Y-99364955D01*
X139039645Y-99398848D01*
X139108448Y-99419719D01*
X139162069Y-99425000D01*
X139162071Y-99425000D01*
X139180000Y-99426766D01*
X139197929Y-99425000D01*
X146174298Y-99425000D01*
X146181717Y-99436103D01*
X146263897Y-99518283D01*
X146360530Y-99582851D01*
X146467903Y-99627327D01*
X146581890Y-99650000D01*
X146698110Y-99650000D01*
X146812097Y-99627327D01*
X146919470Y-99582851D01*
X147016103Y-99518283D01*
X147098283Y-99436103D01*
X147162851Y-99339470D01*
X147207327Y-99232097D01*
X147230000Y-99118110D01*
X147230000Y-99001890D01*
X147207327Y-98887903D01*
X147162851Y-98780530D01*
X147098283Y-98683897D01*
X147016103Y-98601717D01*
X146919470Y-98537149D01*
X146812097Y-98492673D01*
X146698110Y-98470000D01*
X146581890Y-98470000D01*
X146467903Y-98492673D01*
X146360530Y-98537149D01*
X146263897Y-98601717D01*
X146181717Y-98683897D01*
X146174298Y-98695000D01*
X139331188Y-98695000D01*
X138580490Y-97944302D01*
X138584119Y-97926057D01*
X138588753Y-97879009D01*
X138588753Y-97854448D01*
X138591161Y-97830000D01*
X138591161Y-97280000D01*
X138586527Y-97232952D01*
X138572804Y-97187712D01*
X138555319Y-97155000D01*
X138572804Y-97122288D01*
X138586527Y-97077048D01*
X138591161Y-97030000D01*
X138591161Y-96141258D01*
X139692382Y-96141258D01*
X139779965Y-96315019D01*
X139984814Y-96424859D01*
X140207157Y-96492624D01*
X140438447Y-96515709D01*
X140493839Y-96510327D01*
X140493839Y-98160000D01*
X140498473Y-98207048D01*
X140512196Y-98252288D01*
X140534482Y-98293982D01*
X140564473Y-98330527D01*
X140601018Y-98360518D01*
X140642712Y-98382804D01*
X140687952Y-98396527D01*
X140735000Y-98401161D01*
X142435000Y-98401161D01*
X142482048Y-98396527D01*
X142527288Y-98382804D01*
X142568982Y-98360518D01*
X142605527Y-98330527D01*
X142635518Y-98293982D01*
X142657804Y-98252288D01*
X142671527Y-98207048D01*
X142676161Y-98160000D01*
X142676161Y-97202644D01*
X142785000Y-97202644D01*
X142785000Y-97417356D01*
X142826888Y-97627941D01*
X142909055Y-97826309D01*
X143028342Y-98004834D01*
X143180166Y-98156658D01*
X143358691Y-98275945D01*
X143557059Y-98358112D01*
X143767644Y-98400000D01*
X143982356Y-98400000D01*
X144192941Y-98358112D01*
X144391309Y-98275945D01*
X144569834Y-98156658D01*
X144721658Y-98004834D01*
X144840945Y-97826309D01*
X144923112Y-97627941D01*
X144965000Y-97417356D01*
X144965000Y-97202644D01*
X144923112Y-96992059D01*
X144840945Y-96793691D01*
X144721658Y-96615166D01*
X144569834Y-96463342D01*
X144391309Y-96344055D01*
X144192941Y-96261888D01*
X143982356Y-96220000D01*
X143767644Y-96220000D01*
X143557059Y-96261888D01*
X143358691Y-96344055D01*
X143180166Y-96463342D01*
X143028342Y-96615166D01*
X142909055Y-96793691D01*
X142826888Y-96992059D01*
X142785000Y-97202644D01*
X142676161Y-97202644D01*
X142676161Y-96510490D01*
X142728447Y-96515709D01*
X142959797Y-96493229D01*
X143182316Y-96426047D01*
X143387453Y-96316744D01*
X143390035Y-96315019D01*
X143477618Y-96141258D01*
X144272382Y-96141258D01*
X144359965Y-96315019D01*
X144564814Y-96424859D01*
X144787157Y-96492624D01*
X145018447Y-96515709D01*
X145249797Y-96493229D01*
X145472316Y-96426047D01*
X145677453Y-96316744D01*
X145680035Y-96315019D01*
X145767618Y-96141258D01*
X145020000Y-95393640D01*
X144272382Y-96141258D01*
X143477618Y-96141258D01*
X142730000Y-95393640D01*
X141982382Y-96141258D01*
X142021486Y-96218839D01*
X141148514Y-96218839D01*
X141187618Y-96141258D01*
X140440000Y-95393640D01*
X139692382Y-96141258D01*
X138591161Y-96141258D01*
X138591161Y-96030000D01*
X138586527Y-95982952D01*
X138572804Y-95937712D01*
X138555319Y-95905000D01*
X138572804Y-95872288D01*
X138586527Y-95827048D01*
X138591161Y-95780000D01*
X138591161Y-95328447D01*
X139254291Y-95328447D01*
X139276771Y-95559797D01*
X139343953Y-95782316D01*
X139453256Y-95987453D01*
X139454981Y-95990035D01*
X139628742Y-96077618D01*
X140376360Y-95330000D01*
X140503640Y-95330000D01*
X141251258Y-96077618D01*
X141425019Y-95990035D01*
X141534859Y-95785186D01*
X141585075Y-95620423D01*
X141633953Y-95782316D01*
X141743256Y-95987453D01*
X141744981Y-95990035D01*
X141918742Y-96077618D01*
X142666360Y-95330000D01*
X142793640Y-95330000D01*
X143541258Y-96077618D01*
X143715019Y-95990035D01*
X143824859Y-95785186D01*
X143875075Y-95620423D01*
X143923953Y-95782316D01*
X144033256Y-95987453D01*
X144034981Y-95990035D01*
X144208742Y-96077618D01*
X144956360Y-95330000D01*
X145083640Y-95330000D01*
X145831258Y-96077618D01*
X146005019Y-95990035D01*
X146114859Y-95785186D01*
X146182624Y-95562843D01*
X146205709Y-95331553D01*
X146183229Y-95100203D01*
X146116047Y-94877684D01*
X146006744Y-94672547D01*
X146005019Y-94669965D01*
X145831258Y-94582382D01*
X145083640Y-95330000D01*
X144956360Y-95330000D01*
X144208742Y-94582382D01*
X144034981Y-94669965D01*
X143925141Y-94874814D01*
X143874925Y-95039577D01*
X143826047Y-94877684D01*
X143716744Y-94672547D01*
X143715019Y-94669965D01*
X143541258Y-94582382D01*
X142793640Y-95330000D01*
X142666360Y-95330000D01*
X141918742Y-94582382D01*
X141744981Y-94669965D01*
X141635141Y-94874814D01*
X141584925Y-95039577D01*
X141536047Y-94877684D01*
X141426744Y-94672547D01*
X141425019Y-94669965D01*
X141251258Y-94582382D01*
X140503640Y-95330000D01*
X140376360Y-95330000D01*
X139628742Y-94582382D01*
X139454981Y-94669965D01*
X139345141Y-94874814D01*
X139277376Y-95097157D01*
X139254291Y-95328447D01*
X138591161Y-95328447D01*
X138591161Y-95230000D01*
X138588753Y-95205552D01*
X138588753Y-95180991D01*
X138588434Y-95177753D01*
X139247445Y-94518742D01*
X139692382Y-94518742D01*
X140440000Y-95266360D01*
X141187618Y-94518742D01*
X141982382Y-94518742D01*
X142730000Y-95266360D01*
X143477618Y-94518742D01*
X144272382Y-94518742D01*
X145020000Y-95266360D01*
X145767618Y-94518742D01*
X145680035Y-94344981D01*
X145475186Y-94235141D01*
X145252843Y-94167376D01*
X145021553Y-94144291D01*
X144790203Y-94166771D01*
X144567684Y-94233953D01*
X144362547Y-94343256D01*
X144359965Y-94344981D01*
X144272382Y-94518742D01*
X143477618Y-94518742D01*
X143390035Y-94344981D01*
X143185186Y-94235141D01*
X142962843Y-94167376D01*
X142731553Y-94144291D01*
X142500203Y-94166771D01*
X142277684Y-94233953D01*
X142072547Y-94343256D01*
X142069965Y-94344981D01*
X141982382Y-94518742D01*
X141187618Y-94518742D01*
X141100035Y-94344981D01*
X140895186Y-94235141D01*
X140672843Y-94167376D01*
X140441553Y-94144291D01*
X140210203Y-94166771D01*
X139987684Y-94233953D01*
X139782547Y-94343256D01*
X139779965Y-94344981D01*
X139692382Y-94518742D01*
X139247445Y-94518742D01*
X139855418Y-93910770D01*
X139869342Y-93899343D01*
X139885448Y-93879719D01*
X139914954Y-93843765D01*
X139914955Y-93843764D01*
X139948848Y-93780355D01*
X139969719Y-93711552D01*
X139975000Y-93657931D01*
X139975000Y-93657929D01*
X139976766Y-93640000D01*
X139975000Y-93622071D01*
X139975000Y-93242644D01*
X140495000Y-93242644D01*
X140495000Y-93457356D01*
X140536888Y-93667941D01*
X140619055Y-93866309D01*
X140738342Y-94044834D01*
X140890166Y-94196658D01*
X141068691Y-94315945D01*
X141267059Y-94398112D01*
X141477644Y-94440000D01*
X141692356Y-94440000D01*
X141902941Y-94398112D01*
X142101309Y-94315945D01*
X142279834Y-94196658D01*
X142431658Y-94044834D01*
X142550945Y-93866309D01*
X142633112Y-93667941D01*
X142675000Y-93457356D01*
X142675000Y-93242644D01*
X142785000Y-93242644D01*
X142785000Y-93457356D01*
X142826888Y-93667941D01*
X142909055Y-93866309D01*
X143028342Y-94044834D01*
X143180166Y-94196658D01*
X143358691Y-94315945D01*
X143557059Y-94398112D01*
X143767644Y-94440000D01*
X143982356Y-94440000D01*
X144192941Y-94398112D01*
X144391309Y-94315945D01*
X144569834Y-94196658D01*
X144721658Y-94044834D01*
X144840945Y-93866309D01*
X144923112Y-93667941D01*
X144965000Y-93457356D01*
X144965000Y-93242644D01*
X145075000Y-93242644D01*
X145075000Y-93457356D01*
X145116888Y-93667941D01*
X145199055Y-93866309D01*
X145318342Y-94044834D01*
X145470166Y-94196658D01*
X145648691Y-94315945D01*
X145847059Y-94398112D01*
X146057644Y-94440000D01*
X146272356Y-94440000D01*
X146482941Y-94398112D01*
X146681309Y-94315945D01*
X146859834Y-94196658D01*
X147011658Y-94044834D01*
X147130945Y-93866309D01*
X147213112Y-93667941D01*
X147255000Y-93457356D01*
X147255000Y-93242644D01*
X147365000Y-93242644D01*
X147365000Y-93457356D01*
X147406888Y-93667941D01*
X147489055Y-93866309D01*
X147608342Y-94044834D01*
X147760166Y-94196658D01*
X147938691Y-94315945D01*
X148137059Y-94398112D01*
X148347644Y-94440000D01*
X148562356Y-94440000D01*
X148772941Y-94398112D01*
X148971309Y-94315945D01*
X149149834Y-94196658D01*
X149301658Y-94044834D01*
X149420945Y-93866309D01*
X149503112Y-93667941D01*
X149545000Y-93457356D01*
X149545000Y-93242644D01*
X149655000Y-93242644D01*
X149655000Y-93457356D01*
X149696888Y-93667941D01*
X149779055Y-93866309D01*
X149898342Y-94044834D01*
X150050166Y-94196658D01*
X150228691Y-94315945D01*
X150427059Y-94398112D01*
X150637644Y-94440000D01*
X150852356Y-94440000D01*
X151062941Y-94398112D01*
X151261309Y-94315945D01*
X151439834Y-94196658D01*
X151591658Y-94044834D01*
X151710945Y-93866309D01*
X151793112Y-93667941D01*
X151835000Y-93457356D01*
X151835000Y-93242644D01*
X151793112Y-93032059D01*
X151710945Y-92833691D01*
X151591658Y-92655166D01*
X151439834Y-92503342D01*
X151261309Y-92384055D01*
X151062941Y-92301888D01*
X150852356Y-92260000D01*
X150637644Y-92260000D01*
X150427059Y-92301888D01*
X150228691Y-92384055D01*
X150050166Y-92503342D01*
X149898342Y-92655166D01*
X149779055Y-92833691D01*
X149696888Y-93032059D01*
X149655000Y-93242644D01*
X149545000Y-93242644D01*
X149503112Y-93032059D01*
X149420945Y-92833691D01*
X149301658Y-92655166D01*
X149149834Y-92503342D01*
X148971309Y-92384055D01*
X148772941Y-92301888D01*
X148562356Y-92260000D01*
X148347644Y-92260000D01*
X148137059Y-92301888D01*
X147938691Y-92384055D01*
X147760166Y-92503342D01*
X147608342Y-92655166D01*
X147489055Y-92833691D01*
X147406888Y-93032059D01*
X147365000Y-93242644D01*
X147255000Y-93242644D01*
X147213112Y-93032059D01*
X147130945Y-92833691D01*
X147011658Y-92655166D01*
X146859834Y-92503342D01*
X146681309Y-92384055D01*
X146482941Y-92301888D01*
X146272356Y-92260000D01*
X146057644Y-92260000D01*
X145847059Y-92301888D01*
X145648691Y-92384055D01*
X145470166Y-92503342D01*
X145318342Y-92655166D01*
X145199055Y-92833691D01*
X145116888Y-93032059D01*
X145075000Y-93242644D01*
X144965000Y-93242644D01*
X144923112Y-93032059D01*
X144840945Y-92833691D01*
X144721658Y-92655166D01*
X144569834Y-92503342D01*
X144391309Y-92384055D01*
X144192941Y-92301888D01*
X143982356Y-92260000D01*
X143767644Y-92260000D01*
X143557059Y-92301888D01*
X143358691Y-92384055D01*
X143180166Y-92503342D01*
X143028342Y-92655166D01*
X142909055Y-92833691D01*
X142826888Y-93032059D01*
X142785000Y-93242644D01*
X142675000Y-93242644D01*
X142633112Y-93032059D01*
X142550945Y-92833691D01*
X142431658Y-92655166D01*
X142279834Y-92503342D01*
X142101309Y-92384055D01*
X141902941Y-92301888D01*
X141692356Y-92260000D01*
X141477644Y-92260000D01*
X141267059Y-92301888D01*
X141068691Y-92384055D01*
X140890166Y-92503342D01*
X140738342Y-92655166D01*
X140619055Y-92833691D01*
X140536888Y-93032059D01*
X140495000Y-93242644D01*
X139975000Y-93242644D01*
X139975000Y-93101187D01*
X141021188Y-92055000D01*
X151228813Y-92055000D01*
X151935000Y-92761188D01*
X151935001Y-94832061D01*
X151933234Y-94850000D01*
X151938763Y-94906126D01*
X151940282Y-94921552D01*
X151961153Y-94990355D01*
X151995046Y-95053764D01*
X152040658Y-95109343D01*
X152054587Y-95120774D01*
X152925000Y-95991188D01*
X152925001Y-98258811D01*
X149891079Y-101292734D01*
X148161146Y-101292734D01*
X148114098Y-101297368D01*
X148068858Y-101311091D01*
X148027164Y-101333377D01*
X147990619Y-101363368D01*
X147960628Y-101399913D01*
X147938342Y-101441607D01*
X147924619Y-101486847D01*
X147919985Y-101533895D01*
X147919985Y-104240000D01*
X131402307Y-104240000D01*
X131402307Y-101793880D01*
X132485900Y-100710288D01*
X132543895Y-100768283D01*
X132640528Y-100832851D01*
X132747901Y-100877327D01*
X132861888Y-100900000D01*
X132978108Y-100900000D01*
X133092095Y-100877327D01*
X133199468Y-100832851D01*
X133296101Y-100768283D01*
X133378281Y-100686103D01*
X133442849Y-100589470D01*
X133487325Y-100482097D01*
X133509998Y-100368110D01*
X133509998Y-100251890D01*
X133487325Y-100137903D01*
X133442849Y-100030530D01*
X133378281Y-99933897D01*
X133296101Y-99851717D01*
X133295000Y-99850981D01*
X133295000Y-99383740D01*
X133298825Y-99382580D01*
X133375096Y-99341812D01*
X133441948Y-99286948D01*
X133496812Y-99220096D01*
X133537580Y-99143825D01*
X133562684Y-99061066D01*
X133571161Y-98975000D01*
X133571161Y-98425000D01*
X133938839Y-98425000D01*
X133938839Y-98975000D01*
X133947316Y-99061066D01*
X133972420Y-99143825D01*
X134013188Y-99220096D01*
X134068052Y-99286948D01*
X134134904Y-99341812D01*
X134211175Y-99382580D01*
X134293934Y-99407684D01*
X134380000Y-99416161D01*
X134779973Y-99416161D01*
X134895000Y-99531188D01*
X134895001Y-100632062D01*
X134893234Y-100650000D01*
X134900157Y-100720281D01*
X134900282Y-100721552D01*
X134921153Y-100790355D01*
X134955046Y-100853764D01*
X135000658Y-100909343D01*
X135014588Y-100920775D01*
X137429225Y-103335413D01*
X137440657Y-103349343D01*
X137496236Y-103394955D01*
X137559645Y-103428848D01*
X137628448Y-103449719D01*
X137682069Y-103455000D01*
X137682070Y-103455000D01*
X137699999Y-103456766D01*
X137717928Y-103455000D01*
X142882071Y-103455000D01*
X142900000Y-103456766D01*
X142917929Y-103455000D01*
X142917931Y-103455000D01*
X142971552Y-103449719D01*
X143020074Y-103435000D01*
X145262071Y-103435000D01*
X145280000Y-103436766D01*
X145297929Y-103435000D01*
X145297931Y-103435000D01*
X145351552Y-103429719D01*
X145420355Y-103408848D01*
X145483764Y-103374955D01*
X145539343Y-103329343D01*
X145550779Y-103315408D01*
X148195412Y-100670775D01*
X148209342Y-100659343D01*
X148254955Y-100603764D01*
X148288848Y-100540355D01*
X148309719Y-100471552D01*
X148315000Y-100417931D01*
X148315000Y-100417930D01*
X148316766Y-100400001D01*
X148315000Y-100382072D01*
X148315000Y-99007929D01*
X148316766Y-98990000D01*
X148314964Y-98971701D01*
X148309719Y-98918448D01*
X148288848Y-98849645D01*
X148254955Y-98786236D01*
X148209343Y-98730657D01*
X148195413Y-98719225D01*
X147675000Y-98198813D01*
X147675000Y-98071492D01*
X147760166Y-98156658D01*
X147938691Y-98275945D01*
X148137059Y-98358112D01*
X148347644Y-98400000D01*
X148562356Y-98400000D01*
X148772941Y-98358112D01*
X148959605Y-98280793D01*
X149265000Y-98586188D01*
X149265001Y-99528811D01*
X149051207Y-99742605D01*
X149038110Y-99740000D01*
X148921890Y-99740000D01*
X148807903Y-99762673D01*
X148700530Y-99807149D01*
X148603897Y-99871717D01*
X148521717Y-99953897D01*
X148457149Y-100050530D01*
X148412673Y-100157903D01*
X148390000Y-100271890D01*
X148390000Y-100388110D01*
X148412673Y-100502097D01*
X148457149Y-100609470D01*
X148521717Y-100706103D01*
X148603897Y-100788283D01*
X148700530Y-100852851D01*
X148807903Y-100897327D01*
X148921890Y-100920000D01*
X149038110Y-100920000D01*
X149152097Y-100897327D01*
X149259470Y-100852851D01*
X149356103Y-100788283D01*
X149438283Y-100706103D01*
X149502851Y-100609470D01*
X149547327Y-100502097D01*
X149570000Y-100388110D01*
X149570000Y-100271890D01*
X149567395Y-100258793D01*
X149875413Y-99950775D01*
X149889343Y-99939343D01*
X149934955Y-99883764D01*
X149968848Y-99820355D01*
X149989719Y-99751552D01*
X149995000Y-99697931D01*
X149995000Y-99697929D01*
X149996766Y-99680000D01*
X149995000Y-99662071D01*
X149995000Y-98452929D01*
X149996766Y-98435000D01*
X149994995Y-98417023D01*
X149989719Y-98363448D01*
X149969485Y-98296744D01*
X149968848Y-98294644D01*
X149946674Y-98253160D01*
X149934955Y-98231236D01*
X149911022Y-98202074D01*
X149900773Y-98189585D01*
X149900770Y-98189582D01*
X149889342Y-98175657D01*
X149875418Y-98164230D01*
X149832446Y-98121258D01*
X149997382Y-98121258D01*
X150084965Y-98295019D01*
X150289814Y-98404859D01*
X150512157Y-98472624D01*
X150743447Y-98495709D01*
X150974797Y-98473229D01*
X151197316Y-98406047D01*
X151402453Y-98296744D01*
X151405035Y-98295019D01*
X151492618Y-98121258D01*
X150745000Y-97373640D01*
X149997382Y-98121258D01*
X149832446Y-98121258D01*
X149455082Y-97743895D01*
X149503112Y-97627941D01*
X149545000Y-97417356D01*
X149545000Y-97308447D01*
X149559291Y-97308447D01*
X149581771Y-97539797D01*
X149648953Y-97762316D01*
X149758256Y-97967453D01*
X149759981Y-97970035D01*
X149933742Y-98057618D01*
X150681360Y-97310000D01*
X150808640Y-97310000D01*
X151556258Y-98057618D01*
X151730019Y-97970035D01*
X151839859Y-97765186D01*
X151907624Y-97542843D01*
X151930709Y-97311553D01*
X151908229Y-97080203D01*
X151841047Y-96857684D01*
X151731744Y-96652547D01*
X151730019Y-96649965D01*
X151556258Y-96562382D01*
X150808640Y-97310000D01*
X150681360Y-97310000D01*
X149933742Y-96562382D01*
X149759981Y-96649965D01*
X149650141Y-96854814D01*
X149582376Y-97077157D01*
X149559291Y-97308447D01*
X149545000Y-97308447D01*
X149545000Y-97202644D01*
X149503112Y-96992059D01*
X149420945Y-96793691D01*
X149301658Y-96615166D01*
X149149834Y-96463342D01*
X148971309Y-96344055D01*
X148772941Y-96261888D01*
X148562356Y-96220000D01*
X148347644Y-96220000D01*
X148137059Y-96261888D01*
X147938691Y-96344055D01*
X147760166Y-96463342D01*
X147675000Y-96548508D01*
X147675000Y-96358619D01*
X147826309Y-96295945D01*
X148004834Y-96176658D01*
X148040234Y-96141258D01*
X148852382Y-96141258D01*
X148939965Y-96315019D01*
X149144814Y-96424859D01*
X149367157Y-96492624D01*
X149598447Y-96515709D01*
X149829797Y-96493229D01*
X150030740Y-96432561D01*
X149997382Y-96498742D01*
X150745000Y-97246360D01*
X151492618Y-96498742D01*
X151405035Y-96324981D01*
X151200186Y-96215141D01*
X150977843Y-96147376D01*
X150746553Y-96124291D01*
X150515203Y-96146771D01*
X150314260Y-96207439D01*
X150347618Y-96141258D01*
X149600000Y-95393640D01*
X148852382Y-96141258D01*
X148040234Y-96141258D01*
X148156658Y-96024834D01*
X148275945Y-95846309D01*
X148358112Y-95647941D01*
X148400000Y-95437356D01*
X148400000Y-95328447D01*
X148414291Y-95328447D01*
X148436771Y-95559797D01*
X148503953Y-95782316D01*
X148613256Y-95987453D01*
X148614981Y-95990035D01*
X148788742Y-96077618D01*
X149536360Y-95330000D01*
X149663640Y-95330000D01*
X150411258Y-96077618D01*
X150585019Y-95990035D01*
X150694859Y-95785186D01*
X150762624Y-95562843D01*
X150785709Y-95331553D01*
X150763229Y-95100203D01*
X150696047Y-94877684D01*
X150586744Y-94672547D01*
X150585019Y-94669965D01*
X150411258Y-94582382D01*
X149663640Y-95330000D01*
X149536360Y-95330000D01*
X148788742Y-94582382D01*
X148614981Y-94669965D01*
X148505141Y-94874814D01*
X148437376Y-95097157D01*
X148414291Y-95328447D01*
X148400000Y-95328447D01*
X148400000Y-95222644D01*
X148358112Y-95012059D01*
X148275945Y-94813691D01*
X148156658Y-94635166D01*
X148040234Y-94518742D01*
X148852382Y-94518742D01*
X149600000Y-95266360D01*
X150347618Y-94518742D01*
X150260035Y-94344981D01*
X150055186Y-94235141D01*
X149832843Y-94167376D01*
X149601553Y-94144291D01*
X149370203Y-94166771D01*
X149147684Y-94233953D01*
X148942547Y-94343256D01*
X148939965Y-94344981D01*
X148852382Y-94518742D01*
X148040234Y-94518742D01*
X148004834Y-94483342D01*
X147826309Y-94364055D01*
X147627941Y-94281888D01*
X147417356Y-94240000D01*
X147202644Y-94240000D01*
X146992059Y-94281888D01*
X146793691Y-94364055D01*
X146615166Y-94483342D01*
X146463342Y-94635166D01*
X146344055Y-94813691D01*
X146261888Y-95012059D01*
X146220000Y-95222644D01*
X146220000Y-95437356D01*
X146261888Y-95647941D01*
X146344055Y-95846309D01*
X146463342Y-96024834D01*
X146615166Y-96176658D01*
X146793691Y-96295945D01*
X146945001Y-96358620D01*
X146945001Y-96548509D01*
X146859834Y-96463342D01*
X146681309Y-96344055D01*
X146482941Y-96261888D01*
X146272356Y-96220000D01*
X146057644Y-96220000D01*
X145847059Y-96261888D01*
X145648691Y-96344055D01*
X145470166Y-96463342D01*
X145318342Y-96615166D01*
X145199055Y-96793691D01*
X145116888Y-96992059D01*
X145075000Y-97202644D01*
X145075000Y-97417356D01*
X145116888Y-97627941D01*
X145199055Y-97826309D01*
X145318342Y-98004834D01*
X145470166Y-98156658D01*
X145648691Y-98275945D01*
X145847059Y-98358112D01*
X146057644Y-98400000D01*
X146272356Y-98400000D01*
X146482941Y-98358112D01*
X146681309Y-98275945D01*
X146859834Y-98156658D01*
X146945000Y-98071492D01*
X146945000Y-98332071D01*
X146943234Y-98350000D01*
X146945000Y-98367929D01*
X146945000Y-98367930D01*
X146950281Y-98421551D01*
X146971152Y-98490354D01*
X147005045Y-98553763D01*
X147050657Y-98609342D01*
X147064588Y-98620775D01*
X147585001Y-99141189D01*
X147585000Y-100248813D01*
X145128813Y-102705000D01*
X142937928Y-102705000D01*
X142919999Y-102703234D01*
X142902070Y-102705000D01*
X142902069Y-102705000D01*
X142848448Y-102710281D01*
X142799926Y-102725000D01*
X137851188Y-102725000D01*
X135625000Y-100498813D01*
X135625000Y-100251890D01*
X136430000Y-100251890D01*
X136430000Y-100368110D01*
X136452673Y-100482097D01*
X136497149Y-100589470D01*
X136561717Y-100686103D01*
X136643897Y-100768283D01*
X136740530Y-100832851D01*
X136847903Y-100877327D01*
X136961890Y-100900000D01*
X137078110Y-100900000D01*
X137192097Y-100877327D01*
X137299470Y-100832851D01*
X137396103Y-100768283D01*
X137478283Y-100686103D01*
X137485702Y-100675000D01*
X145464298Y-100675000D01*
X145471717Y-100686103D01*
X145553897Y-100768283D01*
X145650530Y-100832851D01*
X145757903Y-100877327D01*
X145871890Y-100900000D01*
X145988110Y-100900000D01*
X146102097Y-100877327D01*
X146209470Y-100832851D01*
X146306103Y-100768283D01*
X146388283Y-100686103D01*
X146452851Y-100589470D01*
X146497327Y-100482097D01*
X146520000Y-100368110D01*
X146520000Y-100251890D01*
X146497327Y-100137903D01*
X146452851Y-100030530D01*
X146388283Y-99933897D01*
X146306103Y-99851717D01*
X146209470Y-99787149D01*
X146102097Y-99742673D01*
X145988110Y-99720000D01*
X145871890Y-99720000D01*
X145757903Y-99742673D01*
X145650530Y-99787149D01*
X145553897Y-99851717D01*
X145471717Y-99933897D01*
X145464298Y-99945000D01*
X137485702Y-99945000D01*
X137478283Y-99933897D01*
X137396103Y-99851717D01*
X137299470Y-99787149D01*
X137192097Y-99742673D01*
X137078110Y-99720000D01*
X136961890Y-99720000D01*
X136847903Y-99742673D01*
X136740530Y-99787149D01*
X136643897Y-99851717D01*
X136561717Y-99933897D01*
X136497149Y-100030530D01*
X136452673Y-100137903D01*
X136430000Y-100251890D01*
X135625000Y-100251890D01*
X135625000Y-99397928D01*
X135626766Y-99379999D01*
X135624478Y-99356766D01*
X135619719Y-99308448D01*
X135598848Y-99239645D01*
X135564955Y-99176236D01*
X135548699Y-99156428D01*
X135530772Y-99134584D01*
X135530770Y-99134582D01*
X135519342Y-99120657D01*
X135505418Y-99109230D01*
X135221161Y-98824973D01*
X135221161Y-98425000D01*
X135212684Y-98338934D01*
X135187580Y-98256175D01*
X135146812Y-98179904D01*
X135091948Y-98113052D01*
X135025096Y-98058188D01*
X134948825Y-98017420D01*
X134866066Y-97992316D01*
X134780000Y-97983839D01*
X134380000Y-97983839D01*
X134293934Y-97992316D01*
X134211175Y-98017420D01*
X134134904Y-98058188D01*
X134068052Y-98113052D01*
X134013188Y-98179904D01*
X133972420Y-98256175D01*
X133947316Y-98338934D01*
X133938839Y-98425000D01*
X133571161Y-98425000D01*
X133562684Y-98338934D01*
X133537580Y-98256175D01*
X133496812Y-98179904D01*
X133441948Y-98113052D01*
X133375096Y-98058188D01*
X133298825Y-98017420D01*
X133216066Y-97992316D01*
X133130000Y-97983839D01*
X132730000Y-97983839D01*
X132643934Y-97992316D01*
X132561175Y-98017420D01*
X132484904Y-98058188D01*
X132418052Y-98113052D01*
X132363188Y-98179904D01*
X132322420Y-98256175D01*
X132297316Y-98338934D01*
X132288839Y-98425000D01*
X132288839Y-98975000D01*
X132297316Y-99061066D01*
X132322420Y-99143825D01*
X132363188Y-99220096D01*
X132418052Y-99286948D01*
X132484904Y-99341812D01*
X132561175Y-99382580D01*
X132565000Y-99383740D01*
X132565001Y-99837615D01*
X132543895Y-99851717D01*
X132461715Y-99933897D01*
X132454296Y-99945000D01*
X132387928Y-99945000D01*
X132369999Y-99943234D01*
X132352070Y-99945000D01*
X132352069Y-99945000D01*
X132298448Y-99950281D01*
X132229645Y-99971152D01*
X132229643Y-99971153D01*
X132166234Y-100005046D01*
X132154678Y-100014530D01*
X132110657Y-100050657D01*
X132099226Y-100064586D01*
X130871079Y-101292734D01*
X129161146Y-101292734D01*
X129114098Y-101297368D01*
X129068858Y-101311091D01*
X129027164Y-101333377D01*
X128990619Y-101363368D01*
X128960628Y-101399913D01*
X128938342Y-101441607D01*
X128924619Y-101486847D01*
X128919985Y-101533895D01*
X128919985Y-104240000D01*
X123802307Y-104240000D01*
X123802307Y-101533895D01*
X123797673Y-101486847D01*
X123783950Y-101441607D01*
X123761664Y-101399913D01*
X123731673Y-101363368D01*
X123695128Y-101333377D01*
X123653434Y-101311091D01*
X123608194Y-101297368D01*
X123561146Y-101292734D01*
X122945000Y-101292734D01*
X122945000Y-101231187D01*
X126361188Y-97815000D01*
X129262071Y-97815000D01*
X129280000Y-97816766D01*
X129297929Y-97815000D01*
X129297931Y-97815000D01*
X129351552Y-97809719D01*
X129420355Y-97788848D01*
X129483764Y-97754955D01*
X129539343Y-97709343D01*
X129550779Y-97695408D01*
X130264038Y-96982149D01*
X132081490Y-96982149D01*
X132310999Y-97277063D01*
X132716966Y-97504779D01*
X133159556Y-97648919D01*
X133621763Y-97703944D01*
X134085823Y-97667740D01*
X134533903Y-97541698D01*
X134948785Y-97330662D01*
X135029001Y-97277063D01*
X135258510Y-96982149D01*
X133670000Y-95393640D01*
X132081490Y-96982149D01*
X130264038Y-96982149D01*
X130755418Y-96490770D01*
X130769342Y-96479343D01*
X130783662Y-96461895D01*
X130805399Y-96435408D01*
X130814955Y-96423764D01*
X130848848Y-96360355D01*
X130869719Y-96291552D01*
X130875000Y-96237931D01*
X130875000Y-96237929D01*
X130876766Y-96220000D01*
X130875000Y-96202071D01*
X130875000Y-95281763D01*
X131296056Y-95281763D01*
X131332260Y-95745823D01*
X131458302Y-96193903D01*
X131669338Y-96608785D01*
X131722937Y-96689001D01*
X132017851Y-96918510D01*
X133606360Y-95330000D01*
X133733640Y-95330000D01*
X135322149Y-96918510D01*
X135617063Y-96689001D01*
X135844779Y-96283034D01*
X135988919Y-95840444D01*
X136043944Y-95378237D01*
X136007740Y-94914177D01*
X135881698Y-94466097D01*
X135670662Y-94051215D01*
X135617063Y-93970999D01*
X135322149Y-93741490D01*
X133733640Y-95330000D01*
X133606360Y-95330000D01*
X132017851Y-93741490D01*
X131722937Y-93970999D01*
X131495221Y-94376966D01*
X131351081Y-94819556D01*
X131296056Y-95281763D01*
X130875000Y-95281763D01*
X130875000Y-93857928D01*
X130876766Y-93839999D01*
X130875000Y-93822069D01*
X130869719Y-93768448D01*
X130848848Y-93699645D01*
X130837199Y-93677851D01*
X132081490Y-93677851D01*
X133670000Y-95266360D01*
X135258510Y-93677851D01*
X135029001Y-93382937D01*
X134623034Y-93155221D01*
X134180444Y-93011081D01*
X133718237Y-92956056D01*
X133254177Y-92992260D01*
X132806097Y-93118302D01*
X132391215Y-93329338D01*
X132310999Y-93382937D01*
X132081490Y-93677851D01*
X130837199Y-93677851D01*
X130816967Y-93640000D01*
X130814954Y-93636234D01*
X130789016Y-93604629D01*
X130769343Y-93580657D01*
X130755413Y-93569225D01*
X130555000Y-93368813D01*
X130555000Y-92703740D01*
X130558825Y-92702580D01*
X130635096Y-92661812D01*
X130701948Y-92606948D01*
X130756812Y-92540096D01*
X130797580Y-92463825D01*
X130822684Y-92381066D01*
X130831161Y-92295000D01*
X130831161Y-91745000D01*
X130822684Y-91658934D01*
X130797580Y-91576175D01*
X130756812Y-91499904D01*
X130701948Y-91433052D01*
X130635096Y-91378188D01*
X130558825Y-91337420D01*
X130476066Y-91312316D01*
X130390000Y-91303839D01*
X129990000Y-91303839D01*
X129903934Y-91312316D01*
X129821175Y-91337420D01*
X129744904Y-91378188D01*
X129678052Y-91433052D01*
X129623188Y-91499904D01*
X129582420Y-91576175D01*
X129557316Y-91658934D01*
X129548839Y-91745000D01*
X129548839Y-92295000D01*
X129557316Y-92381066D01*
X129582420Y-92463825D01*
X129623188Y-92540096D01*
X129678052Y-92606948D01*
X129744904Y-92661812D01*
X129821175Y-92702580D01*
X129825001Y-92703740D01*
X129825000Y-93502071D01*
X129823234Y-93520000D01*
X129825000Y-93537929D01*
X129825000Y-93537930D01*
X129830281Y-93591551D01*
X129851152Y-93660354D01*
X129885045Y-93723763D01*
X129930657Y-93779342D01*
X129944588Y-93790775D01*
X130145001Y-93991189D01*
X130145000Y-96068812D01*
X129128813Y-97085000D01*
X126227928Y-97085000D01*
X126209999Y-97083234D01*
X126192070Y-97085000D01*
X126192069Y-97085000D01*
X126138448Y-97090281D01*
X126069645Y-97111152D01*
X126014423Y-97140669D01*
X126006234Y-97145046D01*
X125983161Y-97163982D01*
X125950657Y-97190657D01*
X125939226Y-97204586D01*
X122334588Y-100809225D01*
X122320658Y-100820657D01*
X122309227Y-100834586D01*
X122275046Y-100876236D01*
X122241153Y-100939645D01*
X122220282Y-101008448D01*
X122213234Y-101080000D01*
X122215001Y-101097939D01*
X122215001Y-101292734D01*
X121561146Y-101292734D01*
X121514098Y-101297368D01*
X121468858Y-101311091D01*
X121427164Y-101333377D01*
X121390619Y-101363368D01*
X121360628Y-101399913D01*
X121338342Y-101441607D01*
X121324619Y-101486847D01*
X121319985Y-101533895D01*
X121319985Y-104240000D01*
X120630000Y-104240000D01*
X120630000Y-102008355D01*
X124783107Y-96590000D01*
X128184245Y-96590000D01*
X128197215Y-96588723D01*
X128205011Y-96588777D01*
X128209041Y-96588381D01*
X128451660Y-96562880D01*
X128477388Y-96557599D01*
X128503226Y-96552670D01*
X128507100Y-96551501D01*
X128507106Y-96551499D01*
X128740149Y-96479360D01*
X128764382Y-96469173D01*
X128788750Y-96459328D01*
X128792325Y-96457427D01*
X129006922Y-96341395D01*
X129028715Y-96326696D01*
X129050706Y-96312305D01*
X129053844Y-96309746D01*
X129241816Y-96154242D01*
X129260322Y-96135606D01*
X129279116Y-96117202D01*
X129281697Y-96114082D01*
X129435886Y-95925028D01*
X129450425Y-95903144D01*
X129465281Y-95881448D01*
X129467207Y-95877886D01*
X129581738Y-95662485D01*
X129591755Y-95638181D01*
X129602109Y-95614025D01*
X129603306Y-95610157D01*
X129673817Y-95376612D01*
X129678918Y-95350848D01*
X129684387Y-95325119D01*
X129684810Y-95321092D01*
X129708616Y-95078299D01*
X129708616Y-95078298D01*
X129710000Y-95064245D01*
X129710000Y-94715755D01*
X129708723Y-94702785D01*
X129708777Y-94694988D01*
X129708381Y-94690959D01*
X129682880Y-94448339D01*
X129677598Y-94422605D01*
X129672670Y-94396774D01*
X129671500Y-94392898D01*
X129599360Y-94159851D01*
X129589181Y-94135637D01*
X129579329Y-94111251D01*
X129577427Y-94107676D01*
X129577427Y-94107675D01*
X129577424Y-94107671D01*
X129461395Y-93893078D01*
X129446696Y-93871285D01*
X129432305Y-93849294D01*
X129429746Y-93846156D01*
X129274242Y-93658184D01*
X129255606Y-93639678D01*
X129237202Y-93620884D01*
X129234081Y-93618303D01*
X129045028Y-93464114D01*
X129023121Y-93449559D01*
X129001448Y-93434719D01*
X128997886Y-93432793D01*
X128782485Y-93318262D01*
X128758181Y-93308245D01*
X128734025Y-93297891D01*
X128730157Y-93296694D01*
X128496612Y-93226183D01*
X128470848Y-93221082D01*
X128460000Y-93218776D01*
X128460000Y-91818522D01*
X129372922Y-90630000D01*
X137193649Y-90630000D01*
X137180627Y-90640687D01*
G37*
G04 #@! TD.AperFunction*
M02*
