G04 #@! TF.GenerationSoftware,KiCad,Pcbnew,(6.0.6-0)*
G04 #@! TF.CreationDate,2023-02-17T17:31:31-05:00*
G04 #@! TF.ProjectId,VGA2SCART,56474132-5343-4415-9254-2e6b69636164,1*
G04 #@! TF.SameCoordinates,Original*
G04 #@! TF.FileFunction,Legend,Top*
G04 #@! TF.FilePolarity,Positive*
%FSLAX46Y46*%
G04 Gerber Fmt 4.6, Leading zero omitted, Abs format (unit mm)*
G04 Created by KiCad (PCBNEW (6.0.6-0)) date 2023-02-17 17:31:31*
%MOMM*%
%LPD*%
G01*
G04 APERTURE LIST*
G04 Aperture macros list*
%AMRoundRect*
0 Rectangle with rounded corners*
0 $1 Rounding radius*
0 $2 $3 $4 $5 $6 $7 $8 $9 X,Y pos of 4 corners*
0 Add a 4 corners polygon primitive as box body*
4,1,4,$2,$3,$4,$5,$6,$7,$8,$9,$2,$3,0*
0 Add four circle primitives for the rounded corners*
1,1,$1+$1,$2,$3*
1,1,$1+$1,$4,$5*
1,1,$1+$1,$6,$7*
1,1,$1+$1,$8,$9*
0 Add four rect primitives between the rounded corners*
20,1,$1+$1,$2,$3,$4,$5,0*
20,1,$1+$1,$4,$5,$6,$7,0*
20,1,$1+$1,$6,$7,$8,$9,0*
20,1,$1+$1,$8,$9,$2,$3,0*%
G04 Aperture macros list end*
%ADD10C,0.127000*%
%ADD11C,0.200000*%
%ADD12C,0.150000*%
%ADD13RoundRect,0.050800X-0.850000X-0.850000X0.850000X-0.850000X0.850000X0.850000X-0.850000X0.850000X0*%
%ADD14C,1.801600*%
%ADD15C,4.167600*%
%ADD16RoundRect,0.050800X-1.000000X-1.500000X1.000000X-1.500000X1.000000X1.500000X-1.000000X1.500000X0*%
G04 APERTURE END LIST*
D10*
X148016428Y-98972714D02*
X148016428Y-99517000D01*
X147980142Y-99625857D01*
X147907571Y-99698428D01*
X147798714Y-99734714D01*
X147726142Y-99734714D01*
X148669571Y-99698428D02*
X148597000Y-99734714D01*
X148451857Y-99734714D01*
X148379285Y-99698428D01*
X148343000Y-99625857D01*
X148343000Y-99335571D01*
X148379285Y-99263000D01*
X148451857Y-99226714D01*
X148597000Y-99226714D01*
X148669571Y-99263000D01*
X148705857Y-99335571D01*
X148705857Y-99408142D01*
X148343000Y-99480714D01*
X148923571Y-99226714D02*
X149213857Y-99226714D01*
X149032428Y-99734714D02*
X149032428Y-99081571D01*
X149068714Y-99009000D01*
X149141285Y-98972714D01*
X149213857Y-98972714D01*
X149359000Y-99226714D02*
X149649285Y-99226714D01*
X149467857Y-99734714D02*
X149467857Y-99081571D01*
X149504142Y-99009000D01*
X149576714Y-98972714D01*
X149649285Y-98972714D01*
X150919285Y-99662142D02*
X150883000Y-99698428D01*
X150774142Y-99734714D01*
X150701571Y-99734714D01*
X150592714Y-99698428D01*
X150520142Y-99625857D01*
X150483857Y-99553285D01*
X150447571Y-99408142D01*
X150447571Y-99299285D01*
X150483857Y-99154142D01*
X150520142Y-99081571D01*
X150592714Y-99009000D01*
X150701571Y-98972714D01*
X150774142Y-98972714D01*
X150883000Y-99009000D01*
X150919285Y-99045285D01*
X151245857Y-99734714D02*
X151245857Y-98972714D01*
X151572428Y-99734714D02*
X151572428Y-99335571D01*
X151536142Y-99263000D01*
X151463571Y-99226714D01*
X151354714Y-99226714D01*
X151282142Y-99263000D01*
X151245857Y-99299285D01*
X152225571Y-99698428D02*
X152153000Y-99734714D01*
X152007857Y-99734714D01*
X151935285Y-99698428D01*
X151899000Y-99625857D01*
X151899000Y-99335571D01*
X151935285Y-99263000D01*
X152007857Y-99226714D01*
X152153000Y-99226714D01*
X152225571Y-99263000D01*
X152261857Y-99335571D01*
X152261857Y-99408142D01*
X151899000Y-99480714D01*
X152588428Y-99226714D02*
X152588428Y-99734714D01*
X152588428Y-99299285D02*
X152624714Y-99263000D01*
X152697285Y-99226714D01*
X152806142Y-99226714D01*
X152878714Y-99263000D01*
X152915000Y-99335571D01*
X152915000Y-99734714D01*
X153314142Y-99698428D02*
X153314142Y-99734714D01*
X153277857Y-99807285D01*
X153241571Y-99843571D01*
X154185000Y-99045285D02*
X154221285Y-99009000D01*
X154293857Y-98972714D01*
X154475285Y-98972714D01*
X154547857Y-99009000D01*
X154584142Y-99045285D01*
X154620428Y-99117857D01*
X154620428Y-99190428D01*
X154584142Y-99299285D01*
X154148714Y-99734714D01*
X154620428Y-99734714D01*
X155092142Y-98972714D02*
X155164714Y-98972714D01*
X155237285Y-99009000D01*
X155273571Y-99045285D01*
X155309857Y-99117857D01*
X155346142Y-99263000D01*
X155346142Y-99444428D01*
X155309857Y-99589571D01*
X155273571Y-99662142D01*
X155237285Y-99698428D01*
X155164714Y-99734714D01*
X155092142Y-99734714D01*
X155019571Y-99698428D01*
X154983285Y-99662142D01*
X154947000Y-99589571D01*
X154910714Y-99444428D01*
X154910714Y-99263000D01*
X154947000Y-99117857D01*
X154983285Y-99045285D01*
X155019571Y-99009000D01*
X155092142Y-98972714D01*
X155636428Y-99045285D02*
X155672714Y-99009000D01*
X155745285Y-98972714D01*
X155926714Y-98972714D01*
X155999285Y-99009000D01*
X156035571Y-99045285D01*
X156071857Y-99117857D01*
X156071857Y-99190428D01*
X156035571Y-99299285D01*
X155600142Y-99734714D01*
X156071857Y-99734714D01*
X156797571Y-99734714D02*
X156362142Y-99734714D01*
X156579857Y-99734714D02*
X156579857Y-98972714D01*
X156507285Y-99081571D01*
X156434714Y-99154142D01*
X156362142Y-99190428D01*
D11*
X126701428Y-98598571D02*
X127201428Y-100098571D01*
X127701428Y-98598571D01*
X128987142Y-98670000D02*
X128844285Y-98598571D01*
X128630000Y-98598571D01*
X128415714Y-98670000D01*
X128272857Y-98812857D01*
X128201428Y-98955714D01*
X128130000Y-99241428D01*
X128130000Y-99455714D01*
X128201428Y-99741428D01*
X128272857Y-99884285D01*
X128415714Y-100027142D01*
X128630000Y-100098571D01*
X128772857Y-100098571D01*
X128987142Y-100027142D01*
X129058571Y-99955714D01*
X129058571Y-99455714D01*
X128772857Y-99455714D01*
X129630000Y-99670000D02*
X130344285Y-99670000D01*
X129487142Y-100098571D02*
X129987142Y-98598571D01*
X130487142Y-100098571D01*
X130844285Y-100098571D02*
X131630000Y-99098571D01*
X130844285Y-99098571D02*
X131630000Y-100098571D01*
X132130000Y-100027142D02*
X132344285Y-100098571D01*
X132701428Y-100098571D01*
X132844285Y-100027142D01*
X132915714Y-99955714D01*
X132987142Y-99812857D01*
X132987142Y-99670000D01*
X132915714Y-99527142D01*
X132844285Y-99455714D01*
X132701428Y-99384285D01*
X132415714Y-99312857D01*
X132272857Y-99241428D01*
X132201428Y-99170000D01*
X132130000Y-99027142D01*
X132130000Y-98884285D01*
X132201428Y-98741428D01*
X132272857Y-98670000D01*
X132415714Y-98598571D01*
X132772857Y-98598571D01*
X132987142Y-98670000D01*
X134487142Y-99955714D02*
X134415714Y-100027142D01*
X134201428Y-100098571D01*
X134058571Y-100098571D01*
X133844285Y-100027142D01*
X133701428Y-99884285D01*
X133630000Y-99741428D01*
X133558571Y-99455714D01*
X133558571Y-99241428D01*
X133630000Y-98955714D01*
X133701428Y-98812857D01*
X133844285Y-98670000D01*
X134058571Y-98598571D01*
X134201428Y-98598571D01*
X134415714Y-98670000D01*
X134487142Y-98741428D01*
X135058571Y-99670000D02*
X135772857Y-99670000D01*
X134915714Y-100098571D02*
X135415714Y-98598571D01*
X135915714Y-100098571D01*
X137272857Y-100098571D02*
X136772857Y-99384285D01*
X136415714Y-100098571D02*
X136415714Y-98598571D01*
X136987142Y-98598571D01*
X137130000Y-98670000D01*
X137201428Y-98741428D01*
X137272857Y-98884285D01*
X137272857Y-99098571D01*
X137201428Y-99241428D01*
X137130000Y-99312857D01*
X136987142Y-99384285D01*
X136415714Y-99384285D01*
X137701428Y-98598571D02*
X138558571Y-98598571D01*
X138130000Y-100098571D02*
X138130000Y-98598571D01*
D12*
X158431904Y-92322380D02*
X158431904Y-91322380D01*
X158812857Y-91322380D01*
X158908095Y-91370000D01*
X158955714Y-91417619D01*
X159003333Y-91512857D01*
X159003333Y-91655714D01*
X158955714Y-91750952D01*
X158908095Y-91798571D01*
X158812857Y-91846190D01*
X158431904Y-91846190D01*
X159955714Y-92322380D02*
X159384285Y-92322380D01*
X159670000Y-92322380D02*
X159670000Y-91322380D01*
X159574761Y-91465238D01*
X159479523Y-91560476D01*
X159384285Y-91608095D01*
X159341904Y-103282380D02*
X159341904Y-102282380D01*
X159722857Y-102282380D01*
X159818095Y-102330000D01*
X159865714Y-102377619D01*
X159913333Y-102472857D01*
X159913333Y-102615714D01*
X159865714Y-102710952D01*
X159818095Y-102758571D01*
X159722857Y-102806190D01*
X159341904Y-102806190D01*
X160294285Y-102377619D02*
X160341904Y-102330000D01*
X160437142Y-102282380D01*
X160675238Y-102282380D01*
X160770476Y-102330000D01*
X160818095Y-102377619D01*
X160865714Y-102472857D01*
X160865714Y-102568095D01*
X160818095Y-102710952D01*
X160246666Y-103282380D01*
X160865714Y-103282380D01*
%LPC*%
D13*
X141585000Y-97310000D03*
D14*
X143875000Y-97310000D03*
X146165000Y-97310000D03*
X148455000Y-97310000D03*
X150745000Y-97310000D03*
X140440000Y-95330000D03*
X142730000Y-95330000D03*
X145020000Y-95330000D03*
X147310000Y-95330000D03*
X149600000Y-95330000D03*
X141585000Y-93350000D03*
X143875000Y-93350000D03*
X146165000Y-93350000D03*
X148455000Y-93350000D03*
X150745000Y-93350000D03*
D15*
X158660000Y-95330000D03*
X133670000Y-95330000D03*
D16*
X157761146Y-103033895D03*
X153961146Y-103033895D03*
X150161146Y-103033895D03*
X146361146Y-103033895D03*
X142561146Y-103033895D03*
X138761146Y-103033895D03*
X134961146Y-103033895D03*
X131161146Y-103033895D03*
X127361146Y-103033895D03*
X123561146Y-103033895D03*
M02*
