G04 #@! TF.GenerationSoftware,KiCad,Pcbnew,(6.0.6-0)*
G04 #@! TF.CreationDate,2023-02-17T17:31:31-05:00*
G04 #@! TF.ProjectId,VGA2SCART,56474132-5343-4415-9254-2e6b69636164,1*
G04 #@! TF.SameCoordinates,Original*
G04 #@! TF.FileFunction,Legend,Bot*
G04 #@! TF.FilePolarity,Positive*
%FSLAX46Y46*%
G04 Gerber Fmt 4.6, Leading zero omitted, Abs format (unit mm)*
G04 Created by KiCad (PCBNEW (6.0.6-0)) date 2023-02-17 17:31:31*
%MOMM*%
%LPD*%
G01*
G04 APERTURE LIST*
G04 Aperture macros list*
%AMRoundRect*
0 Rectangle with rounded corners*
0 $1 Rounding radius*
0 $2 $3 $4 $5 $6 $7 $8 $9 X,Y pos of 4 corners*
0 Add a 4 corners polygon primitive as box body*
4,1,4,$2,$3,$4,$5,$6,$7,$8,$9,$2,$3,0*
0 Add four circle primitives for the rounded corners*
1,1,$1+$1,$2,$3*
1,1,$1+$1,$4,$5*
1,1,$1+$1,$6,$7*
1,1,$1+$1,$8,$9*
0 Add four rect primitives between the rounded corners*
20,1,$1+$1,$2,$3,$4,$5,0*
20,1,$1+$1,$4,$5,$6,$7,0*
20,1,$1+$1,$6,$7,$8,$9,0*
20,1,$1+$1,$8,$9,$2,$3,0*%
%AMFreePoly0*
4,1,37,0.535921,0.785921,0.550800,0.750000,0.550800,-0.750000,0.535921,-0.785921,0.500000,-0.800800,0.000000,-0.800800,-0.012526,-0.795612,-0.080872,-0.794359,-0.095090,-0.792057,-0.230405,-0.749782,-0.243405,-0.743581,-0.361415,-0.665026,-0.372153,-0.655426,-0.463373,-0.546907,-0.470984,-0.534678,-0.528079,-0.404919,-0.531952,-0.391047,-0.549535,-0.256587,-0.548147,-0.256405,-0.550800,-0.250000,
-0.550800,0.250000,-0.550314,0.251174,-0.550158,0.263925,-0.528347,0.404002,-0.524136,0.417775,-0.463888,0.546100,-0.455980,0.558139,-0.362136,0.664397,-0.351168,0.673732,-0.231273,0.749380,-0.218125,0.755261,-0.081818,0.794218,-0.067547,0.796173,-0.011991,0.795833,0.000000,0.800800,0.500000,0.800800,0.535921,0.785921,0.535921,0.785921,$1*%
%AMFreePoly1*
4,1,37,0.012350,0.795685,0.074215,0.795307,0.088460,0.793178,0.224281,0.752559,0.237356,0.746518,0.356318,0.669411,0.367173,0.659942,0.459711,0.552545,0.467470,0.540411,0.526147,0.411359,0.530190,0.397535,0.550287,0.257202,0.550800,0.250000,0.550800,-0.250000,0.550796,-0.250620,0.550647,-0.262836,0.549947,-0.270644,0.526427,-0.410445,0.522048,-0.424167,0.460236,-0.551746,
0.452182,-0.563686,0.357047,-0.668790,0.345965,-0.677991,0.225155,-0.752168,0.211936,-0.757888,0.075163,-0.795177,0.060870,-0.796957,0.011464,-0.796051,0.000000,-0.800800,-0.500000,-0.800800,-0.535921,-0.785921,-0.550800,-0.750000,-0.550800,0.750000,-0.535921,0.785921,-0.500000,0.800800,0.000000,0.800800,0.012350,0.795685,0.012350,0.795685,$1*%
%AMFreePoly2*
4,1,37,0.585921,0.785921,0.600800,0.750000,0.600800,-0.750000,0.585921,-0.785921,0.550000,-0.800800,0.000000,-0.800800,-0.012526,-0.795612,-0.080872,-0.794359,-0.095090,-0.792057,-0.230405,-0.749782,-0.243405,-0.743581,-0.361415,-0.665026,-0.372153,-0.655426,-0.463373,-0.546907,-0.470984,-0.534678,-0.528079,-0.404919,-0.531952,-0.391047,-0.549535,-0.256587,-0.548147,-0.256405,-0.550800,-0.250000,
-0.550800,0.250000,-0.550314,0.251174,-0.550158,0.263925,-0.528347,0.404002,-0.524136,0.417775,-0.463888,0.546100,-0.455980,0.558139,-0.362136,0.664397,-0.351168,0.673732,-0.231273,0.749380,-0.218125,0.755261,-0.081818,0.794218,-0.067547,0.796173,-0.011991,0.795833,0.000000,0.800800,0.550000,0.800800,0.585921,0.785921,0.585921,0.785921,$1*%
%AMFreePoly3*
4,1,37,0.012350,0.795685,0.074215,0.795307,0.088460,0.793178,0.224281,0.752559,0.237356,0.746518,0.356318,0.669411,0.367173,0.659942,0.459711,0.552545,0.467470,0.540411,0.526147,0.411359,0.530190,0.397535,0.550287,0.257202,0.550800,0.250000,0.550800,-0.250000,0.550796,-0.250620,0.550647,-0.262836,0.549947,-0.270644,0.526427,-0.410445,0.522048,-0.424167,0.460236,-0.551746,
0.452182,-0.563686,0.357047,-0.668790,0.345965,-0.677991,0.225155,-0.752168,0.211936,-0.757888,0.075163,-0.795177,0.060870,-0.796957,0.011464,-0.796051,0.000000,-0.800800,-0.550000,-0.800800,-0.585921,-0.785921,-0.600800,-0.750000,-0.600800,0.750000,-0.585921,0.785921,-0.550000,0.800800,0.000000,0.800800,0.012350,0.795685,0.012350,0.795685,$1*%
G04 Aperture macros list end*
%ADD10C,0.127000*%
%ADD11C,0.100000*%
%ADD12C,0.150000*%
%ADD13C,0.120000*%
%ADD14FreePoly0,0.000000*%
%ADD15FreePoly1,0.000000*%
%ADD16RoundRect,0.050800X-0.850000X-0.850000X0.850000X-0.850000X0.850000X0.850000X-0.850000X0.850000X0*%
%ADD17C,1.801600*%
%ADD18C,4.167600*%
%ADD19RoundRect,0.050800X-1.000000X-1.500000X1.000000X-1.500000X1.000000X1.500000X-1.000000X1.500000X0*%
%ADD20RoundRect,0.250800X-0.200000X-0.275000X0.200000X-0.275000X0.200000X0.275000X-0.200000X0.275000X0*%
%ADD21FreePoly2,0.000000*%
%ADD22RoundRect,0.050800X-0.500000X-0.750000X0.500000X-0.750000X0.500000X0.750000X-0.500000X0.750000X0*%
%ADD23FreePoly3,0.000000*%
%ADD24FreePoly2,270.000000*%
%ADD25RoundRect,0.050800X-0.750000X0.500000X-0.750000X-0.500000X0.750000X-0.500000X0.750000X0.500000X0*%
%ADD26FreePoly3,270.000000*%
%ADD27RoundRect,0.250800X0.200000X0.275000X-0.200000X0.275000X-0.200000X-0.275000X0.200000X-0.275000X0*%
%ADD28FreePoly0,270.000000*%
%ADD29FreePoly1,270.000000*%
%ADD30FreePoly0,90.000000*%
%ADD31FreePoly1,90.000000*%
G04 APERTURE END LIST*
D10*
X129638000Y-100254714D02*
X130073428Y-100254714D01*
X129855714Y-100254714D02*
X129855714Y-99492714D01*
X129928285Y-99601571D01*
X130000857Y-99674142D01*
X130073428Y-99710428D01*
X129202571Y-99819285D02*
X129275142Y-99783000D01*
X129311428Y-99746714D01*
X129347714Y-99674142D01*
X129347714Y-99637857D01*
X129311428Y-99565285D01*
X129275142Y-99529000D01*
X129202571Y-99492714D01*
X129057428Y-99492714D01*
X128984857Y-99529000D01*
X128948571Y-99565285D01*
X128912285Y-99637857D01*
X128912285Y-99674142D01*
X128948571Y-99746714D01*
X128984857Y-99783000D01*
X129057428Y-99819285D01*
X129202571Y-99819285D01*
X129275142Y-99855571D01*
X129311428Y-99891857D01*
X129347714Y-99964428D01*
X129347714Y-100109571D01*
X129311428Y-100182142D01*
X129275142Y-100218428D01*
X129202571Y-100254714D01*
X129057428Y-100254714D01*
X128984857Y-100218428D01*
X128948571Y-100182142D01*
X128912285Y-100109571D01*
X128912285Y-99964428D01*
X128948571Y-99891857D01*
X128984857Y-99855571D01*
X129057428Y-99819285D01*
X128440571Y-99492714D02*
X128368000Y-99492714D01*
X128295428Y-99529000D01*
X128259142Y-99565285D01*
X128222857Y-99637857D01*
X128186571Y-99783000D01*
X128186571Y-99964428D01*
X128222857Y-100109571D01*
X128259142Y-100182142D01*
X128295428Y-100218428D01*
X128368000Y-100254714D01*
X128440571Y-100254714D01*
X128513142Y-100218428D01*
X128549428Y-100182142D01*
X128585714Y-100109571D01*
X128622000Y-99964428D01*
X128622000Y-99783000D01*
X128585714Y-99637857D01*
X128549428Y-99565285D01*
X128513142Y-99529000D01*
X128440571Y-99492714D01*
X133040571Y-90776714D02*
X133040571Y-91284714D01*
X133222000Y-90486428D02*
X133403428Y-91030714D01*
X132931714Y-91030714D01*
X132714000Y-90522714D02*
X132206000Y-90522714D01*
X132532571Y-91284714D01*
X131770571Y-90522714D02*
X131698000Y-90522714D01*
X131625428Y-90559000D01*
X131589142Y-90595285D01*
X131552857Y-90667857D01*
X131516571Y-90813000D01*
X131516571Y-90994428D01*
X131552857Y-91139571D01*
X131589142Y-91212142D01*
X131625428Y-91248428D01*
X131698000Y-91284714D01*
X131770571Y-91284714D01*
X131843142Y-91248428D01*
X131879428Y-91212142D01*
X131915714Y-91139571D01*
X131952000Y-90994428D01*
X131952000Y-90813000D01*
X131915714Y-90667857D01*
X131879428Y-90595285D01*
X131843142Y-90559000D01*
X131770571Y-90522714D01*
X158375857Y-98789304D02*
X157940428Y-98789304D01*
X158158142Y-99551304D02*
X158158142Y-98789304D01*
X157686428Y-99551304D02*
X157686428Y-99043304D01*
X157686428Y-99188447D02*
X157650142Y-99115875D01*
X157613857Y-99079590D01*
X157541285Y-99043304D01*
X157468714Y-99043304D01*
X157214714Y-99551304D02*
X157214714Y-99043304D01*
X157214714Y-98789304D02*
X157251000Y-98825590D01*
X157214714Y-98861875D01*
X157178428Y-98825590D01*
X157214714Y-98789304D01*
X157214714Y-98861875D01*
X156525285Y-99551304D02*
X156525285Y-99152161D01*
X156561571Y-99079590D01*
X156634142Y-99043304D01*
X156779285Y-99043304D01*
X156851857Y-99079590D01*
X156525285Y-99515018D02*
X156597857Y-99551304D01*
X156779285Y-99551304D01*
X156851857Y-99515018D01*
X156888142Y-99442447D01*
X156888142Y-99369875D01*
X156851857Y-99297304D01*
X156779285Y-99261018D01*
X156597857Y-99261018D01*
X156525285Y-99224732D01*
X156162428Y-99043304D02*
X156162428Y-99551304D01*
X156162428Y-99115875D02*
X156126142Y-99079590D01*
X156053571Y-99043304D01*
X155944714Y-99043304D01*
X155872142Y-99079590D01*
X155835857Y-99152161D01*
X155835857Y-99551304D01*
X155146428Y-99043304D02*
X155146428Y-99660161D01*
X155182714Y-99732732D01*
X155219000Y-99769018D01*
X155291571Y-99805304D01*
X155400428Y-99805304D01*
X155473000Y-99769018D01*
X155146428Y-99515018D02*
X155219000Y-99551304D01*
X155364142Y-99551304D01*
X155436714Y-99515018D01*
X155473000Y-99478732D01*
X155509285Y-99406161D01*
X155509285Y-99188447D01*
X155473000Y-99115875D01*
X155436714Y-99079590D01*
X155364142Y-99043304D01*
X155219000Y-99043304D01*
X155146428Y-99079590D01*
X154674714Y-99551304D02*
X154747285Y-99515018D01*
X154783571Y-99442447D01*
X154783571Y-98789304D01*
X154094142Y-99515018D02*
X154166714Y-99551304D01*
X154311857Y-99551304D01*
X154384428Y-99515018D01*
X154420714Y-99442447D01*
X154420714Y-99152161D01*
X154384428Y-99079590D01*
X154311857Y-99043304D01*
X154166714Y-99043304D01*
X154094142Y-99079590D01*
X154057857Y-99152161D01*
X154057857Y-99224732D01*
X154420714Y-99297304D01*
X153731285Y-99478732D02*
X153695000Y-99515018D01*
X153731285Y-99551304D01*
X153767571Y-99515018D01*
X153731285Y-99478732D01*
X153731285Y-99551304D01*
X153731285Y-99079590D02*
X153695000Y-99115875D01*
X153731285Y-99152161D01*
X153767571Y-99115875D01*
X153731285Y-99079590D01*
X153731285Y-99152161D01*
X152896714Y-98789304D02*
X152642714Y-99551304D01*
X152388714Y-98789304D01*
X151735571Y-98825590D02*
X151808142Y-98789304D01*
X151917000Y-98789304D01*
X152025857Y-98825590D01*
X152098428Y-98898161D01*
X152134714Y-98970732D01*
X152171000Y-99115875D01*
X152171000Y-99224732D01*
X152134714Y-99369875D01*
X152098428Y-99442447D01*
X152025857Y-99515018D01*
X151917000Y-99551304D01*
X151844428Y-99551304D01*
X151735571Y-99515018D01*
X151699285Y-99478732D01*
X151699285Y-99224732D01*
X151844428Y-99224732D01*
X151409000Y-99333590D02*
X151046142Y-99333590D01*
X151481571Y-99551304D02*
X151227571Y-98789304D01*
X150973571Y-99551304D01*
X150247857Y-99043304D02*
X149957571Y-99043304D01*
X150139000Y-98789304D02*
X150139000Y-99442447D01*
X150102714Y-99515018D01*
X150030142Y-99551304D01*
X149957571Y-99551304D01*
X149594714Y-99551304D02*
X149667285Y-99515018D01*
X149703571Y-99478732D01*
X149739857Y-99406161D01*
X149739857Y-99188447D01*
X149703571Y-99115875D01*
X149667285Y-99079590D01*
X149594714Y-99043304D01*
X149485857Y-99043304D01*
X149413285Y-99079590D01*
X149377000Y-99115875D01*
X149340714Y-99188447D01*
X149340714Y-99406161D01*
X149377000Y-99478732D01*
X149413285Y-99515018D01*
X149485857Y-99551304D01*
X149594714Y-99551304D01*
X148469857Y-99515018D02*
X148361000Y-99551304D01*
X148179571Y-99551304D01*
X148107000Y-99515018D01*
X148070714Y-99478732D01*
X148034428Y-99406161D01*
X148034428Y-99333590D01*
X148070714Y-99261018D01*
X148107000Y-99224732D01*
X148179571Y-99188447D01*
X148324714Y-99152161D01*
X148397285Y-99115875D01*
X148433571Y-99079590D01*
X148469857Y-99007018D01*
X148469857Y-98934447D01*
X148433571Y-98861875D01*
X148397285Y-98825590D01*
X148324714Y-98789304D01*
X148143285Y-98789304D01*
X148034428Y-98825590D01*
X147272428Y-99478732D02*
X147308714Y-99515018D01*
X147417571Y-99551304D01*
X147490142Y-99551304D01*
X147599000Y-99515018D01*
X147671571Y-99442447D01*
X147707857Y-99369875D01*
X147744142Y-99224732D01*
X147744142Y-99115875D01*
X147707857Y-98970732D01*
X147671571Y-98898161D01*
X147599000Y-98825590D01*
X147490142Y-98789304D01*
X147417571Y-98789304D01*
X147308714Y-98825590D01*
X147272428Y-98861875D01*
X146982142Y-99333590D02*
X146619285Y-99333590D01*
X147054714Y-99551304D02*
X146800714Y-98789304D01*
X146546714Y-99551304D01*
X145857285Y-99551304D02*
X146111285Y-99188447D01*
X146292714Y-99551304D02*
X146292714Y-98789304D01*
X146002428Y-98789304D01*
X145929857Y-98825590D01*
X145893571Y-98861875D01*
X145857285Y-98934447D01*
X145857285Y-99043304D01*
X145893571Y-99115875D01*
X145929857Y-99152161D01*
X146002428Y-99188447D01*
X146292714Y-99188447D01*
X145639571Y-98789304D02*
X145204142Y-98789304D01*
X145421857Y-99551304D02*
X145421857Y-98789304D01*
X159355571Y-100778124D02*
X159355571Y-100016124D01*
X158920142Y-100778124D01*
X158920142Y-100016124D01*
X158412142Y-100016124D02*
X158267000Y-100016124D01*
X158194428Y-100052410D01*
X158121857Y-100124981D01*
X158085571Y-100270124D01*
X158085571Y-100524124D01*
X158121857Y-100669267D01*
X158194428Y-100741838D01*
X158267000Y-100778124D01*
X158412142Y-100778124D01*
X158484714Y-100741838D01*
X158557285Y-100669267D01*
X158593571Y-100524124D01*
X158593571Y-100270124D01*
X158557285Y-100124981D01*
X158484714Y-100052410D01*
X158412142Y-100016124D01*
X157287285Y-100016124D02*
X156851857Y-100016124D01*
X157069571Y-100778124D02*
X157069571Y-100016124D01*
X156597857Y-100778124D02*
X156597857Y-100270124D01*
X156597857Y-100415267D02*
X156561571Y-100342695D01*
X156525285Y-100306410D01*
X156452714Y-100270124D01*
X156380142Y-100270124D01*
X156126142Y-100778124D02*
X156126142Y-100270124D01*
X156126142Y-100016124D02*
X156162428Y-100052410D01*
X156126142Y-100088695D01*
X156089857Y-100052410D01*
X156126142Y-100016124D01*
X156126142Y-100088695D01*
X155436714Y-100778124D02*
X155436714Y-100378981D01*
X155473000Y-100306410D01*
X155545571Y-100270124D01*
X155690714Y-100270124D01*
X155763285Y-100306410D01*
X155436714Y-100741838D02*
X155509285Y-100778124D01*
X155690714Y-100778124D01*
X155763285Y-100741838D01*
X155799571Y-100669267D01*
X155799571Y-100596695D01*
X155763285Y-100524124D01*
X155690714Y-100487838D01*
X155509285Y-100487838D01*
X155436714Y-100451552D01*
X155073857Y-100270124D02*
X155073857Y-100778124D01*
X155073857Y-100342695D02*
X155037571Y-100306410D01*
X154965000Y-100270124D01*
X154856142Y-100270124D01*
X154783571Y-100306410D01*
X154747285Y-100378981D01*
X154747285Y-100778124D01*
X154057857Y-100270124D02*
X154057857Y-100886981D01*
X154094142Y-100959552D01*
X154130428Y-100995838D01*
X154203000Y-101032124D01*
X154311857Y-101032124D01*
X154384428Y-100995838D01*
X154057857Y-100741838D02*
X154130428Y-100778124D01*
X154275571Y-100778124D01*
X154348142Y-100741838D01*
X154384428Y-100705552D01*
X154420714Y-100632981D01*
X154420714Y-100415267D01*
X154384428Y-100342695D01*
X154348142Y-100306410D01*
X154275571Y-100270124D01*
X154130428Y-100270124D01*
X154057857Y-100306410D01*
X153586142Y-100778124D02*
X153658714Y-100741838D01*
X153695000Y-100669267D01*
X153695000Y-100016124D01*
X153005571Y-100741838D02*
X153078142Y-100778124D01*
X153223285Y-100778124D01*
X153295857Y-100741838D01*
X153332142Y-100669267D01*
X153332142Y-100378981D01*
X153295857Y-100306410D01*
X153223285Y-100270124D01*
X153078142Y-100270124D01*
X153005571Y-100306410D01*
X152969285Y-100378981D01*
X152969285Y-100451552D01*
X153332142Y-100524124D01*
X152642714Y-100705552D02*
X152606428Y-100741838D01*
X152642714Y-100778124D01*
X152679000Y-100741838D01*
X152642714Y-100705552D01*
X152642714Y-100778124D01*
X152642714Y-100306410D02*
X152606428Y-100342695D01*
X152642714Y-100378981D01*
X152679000Y-100342695D01*
X152642714Y-100306410D01*
X152642714Y-100378981D01*
X151735571Y-100741838D02*
X151626714Y-100778124D01*
X151445285Y-100778124D01*
X151372714Y-100741838D01*
X151336428Y-100705552D01*
X151300142Y-100632981D01*
X151300142Y-100560410D01*
X151336428Y-100487838D01*
X151372714Y-100451552D01*
X151445285Y-100415267D01*
X151590428Y-100378981D01*
X151663000Y-100342695D01*
X151699285Y-100306410D01*
X151735571Y-100233838D01*
X151735571Y-100161267D01*
X151699285Y-100088695D01*
X151663000Y-100052410D01*
X151590428Y-100016124D01*
X151409000Y-100016124D01*
X151300142Y-100052410D01*
X150538142Y-100705552D02*
X150574428Y-100741838D01*
X150683285Y-100778124D01*
X150755857Y-100778124D01*
X150864714Y-100741838D01*
X150937285Y-100669267D01*
X150973571Y-100596695D01*
X151009857Y-100451552D01*
X151009857Y-100342695D01*
X150973571Y-100197552D01*
X150937285Y-100124981D01*
X150864714Y-100052410D01*
X150755857Y-100016124D01*
X150683285Y-100016124D01*
X150574428Y-100052410D01*
X150538142Y-100088695D01*
X150247857Y-100560410D02*
X149885000Y-100560410D01*
X150320428Y-100778124D02*
X150066428Y-100016124D01*
X149812428Y-100778124D01*
X149123000Y-100778124D02*
X149377000Y-100415267D01*
X149558428Y-100778124D02*
X149558428Y-100016124D01*
X149268142Y-100016124D01*
X149195571Y-100052410D01*
X149159285Y-100088695D01*
X149123000Y-100161267D01*
X149123000Y-100270124D01*
X149159285Y-100342695D01*
X149195571Y-100378981D01*
X149268142Y-100415267D01*
X149558428Y-100415267D01*
X148905285Y-100016124D02*
X148469857Y-100016124D01*
X148687571Y-100778124D02*
X148687571Y-100016124D01*
X147744142Y-100270124D02*
X147453857Y-100270124D01*
X147635285Y-100016124D02*
X147635285Y-100669267D01*
X147599000Y-100741838D01*
X147526428Y-100778124D01*
X147453857Y-100778124D01*
X147091000Y-100778124D02*
X147163571Y-100741838D01*
X147199857Y-100705552D01*
X147236142Y-100632981D01*
X147236142Y-100415267D01*
X147199857Y-100342695D01*
X147163571Y-100306410D01*
X147091000Y-100270124D01*
X146982142Y-100270124D01*
X146909571Y-100306410D01*
X146873285Y-100342695D01*
X146837000Y-100415267D01*
X146837000Y-100632981D01*
X146873285Y-100705552D01*
X146909571Y-100741838D01*
X146982142Y-100778124D01*
X147091000Y-100778124D01*
X146038714Y-100016124D02*
X145784714Y-100778124D01*
X145530714Y-100016124D01*
X144877571Y-100052410D02*
X144950142Y-100016124D01*
X145059000Y-100016124D01*
X145167857Y-100052410D01*
X145240428Y-100124981D01*
X145276714Y-100197552D01*
X145313000Y-100342695D01*
X145313000Y-100451552D01*
X145276714Y-100596695D01*
X145240428Y-100669267D01*
X145167857Y-100741838D01*
X145059000Y-100778124D01*
X144986428Y-100778124D01*
X144877571Y-100741838D01*
X144841285Y-100705552D01*
X144841285Y-100451552D01*
X144986428Y-100451552D01*
X144551000Y-100560410D02*
X144188142Y-100560410D01*
X144623571Y-100778124D02*
X144369571Y-100016124D01*
X144115571Y-100778124D01*
D11*
X130566666Y-93586190D02*
X130566666Y-93943333D01*
X130590476Y-94014761D01*
X130638095Y-94062380D01*
X130709523Y-94086190D01*
X130757142Y-94086190D01*
X130328571Y-94086190D02*
X130328571Y-93586190D01*
X130138095Y-93586190D01*
X130090476Y-93610000D01*
X130066666Y-93633809D01*
X130042857Y-93681428D01*
X130042857Y-93752857D01*
X130066666Y-93800476D01*
X130090476Y-93824285D01*
X130138095Y-93848095D01*
X130328571Y-93848095D01*
X129614285Y-93586190D02*
X129709523Y-93586190D01*
X129757142Y-93610000D01*
X129780952Y-93633809D01*
X129828571Y-93705238D01*
X129852380Y-93800476D01*
X129852380Y-93990952D01*
X129828571Y-94038571D01*
X129804761Y-94062380D01*
X129757142Y-94086190D01*
X129661904Y-94086190D01*
X129614285Y-94062380D01*
X129590476Y-94038571D01*
X129566666Y-93990952D01*
X129566666Y-93871904D01*
X129590476Y-93824285D01*
X129614285Y-93800476D01*
X129661904Y-93776666D01*
X129757142Y-93776666D01*
X129804761Y-93800476D01*
X129828571Y-93824285D01*
X129852380Y-93871904D01*
D12*
X129235000Y-98009285D02*
X129485000Y-97652142D01*
X129663571Y-98009285D02*
X129663571Y-97259285D01*
X129377857Y-97259285D01*
X129306428Y-97295000D01*
X129270714Y-97330714D01*
X129235000Y-97402142D01*
X129235000Y-97509285D01*
X129270714Y-97580714D01*
X129306428Y-97616428D01*
X129377857Y-97652142D01*
X129663571Y-97652142D01*
X128520714Y-98009285D02*
X128949285Y-98009285D01*
X128735000Y-98009285D02*
X128735000Y-97259285D01*
X128806428Y-97366428D01*
X128877857Y-97437857D01*
X128949285Y-97473571D01*
X135135000Y-91269285D02*
X135385000Y-90912142D01*
X135563571Y-91269285D02*
X135563571Y-90519285D01*
X135277857Y-90519285D01*
X135206428Y-90555000D01*
X135170714Y-90590714D01*
X135135000Y-90662142D01*
X135135000Y-90769285D01*
X135170714Y-90840714D01*
X135206428Y-90876428D01*
X135277857Y-90912142D01*
X135563571Y-90912142D01*
X134849285Y-90590714D02*
X134813571Y-90555000D01*
X134742142Y-90519285D01*
X134563571Y-90519285D01*
X134492142Y-90555000D01*
X134456428Y-90590714D01*
X134420714Y-90662142D01*
X134420714Y-90733571D01*
X134456428Y-90840714D01*
X134885000Y-91269285D01*
X134420714Y-91269285D01*
D13*
X129430000Y-93130000D02*
X130830000Y-93130000D01*
X130830000Y-91130000D02*
X129430000Y-91130000D01*
X131530000Y-92430000D02*
X131530000Y-91830000D01*
X128730000Y-91830000D02*
X128730000Y-92430000D01*
X130830000Y-93130000D02*
G75*
G03*
X131530000Y-92430000I0J700000D01*
G01*
X128730000Y-92430000D02*
G75*
G03*
X129430000Y-93130000I699999J-1D01*
G01*
X129430000Y-91130000D02*
G75*
G03*
X128730000Y-91830000I-1J-699999D01*
G01*
X131530000Y-91830000D02*
G75*
G03*
X130830000Y-91130000I-700000J0D01*
G01*
X128887742Y-98227500D02*
X129362258Y-98227500D01*
X128887742Y-99272500D02*
X129362258Y-99272500D01*
X135840000Y-93270000D02*
X138640000Y-93270000D01*
X136040000Y-91070000D02*
X136340000Y-90770000D01*
X135740000Y-90770000D02*
X136340000Y-90770000D01*
X135190000Y-91970000D02*
X135190000Y-92570000D01*
X138640000Y-91270000D02*
X135840000Y-91270000D01*
X139290000Y-92570000D02*
X139290000Y-91970000D01*
X136040000Y-91070000D02*
X135740000Y-90770000D01*
X139290000Y-91970000D02*
G75*
G03*
X138590000Y-91270000I-700000J0D01*
G01*
X135190000Y-92570000D02*
G75*
G03*
X135890000Y-93270000I699999J-1D01*
G01*
X135890000Y-91270000D02*
G75*
G03*
X135190000Y-91970000I-1J-699999D01*
G01*
X138590000Y-93270000D02*
G75*
G03*
X139290000Y-92570000I0J700000D01*
G01*
X137900000Y-94480000D02*
X137300000Y-94480000D01*
X138800000Y-95330000D02*
X139100000Y-95630000D01*
X139100000Y-95030000D02*
X139100000Y-95630000D01*
X138800000Y-95330000D02*
X139100000Y-95030000D01*
X137300000Y-98580000D02*
X137900000Y-98580000D01*
X136600000Y-95130000D02*
X136600000Y-97930000D01*
X138600000Y-97930000D02*
X138600000Y-95130000D01*
X136600000Y-97880000D02*
G75*
G03*
X137300000Y-98580000I700000J0D01*
G01*
X137300000Y-94480000D02*
G75*
G03*
X136600000Y-95180000I-1J-699999D01*
G01*
X137900000Y-98580000D02*
G75*
G03*
X138600000Y-97880000I0J700000D01*
G01*
X138600000Y-95180000D02*
G75*
G03*
X137900000Y-94480000I-699999J1D01*
G01*
X153160000Y-93210000D02*
X155960000Y-93210000D01*
X153360000Y-91010000D02*
X153660000Y-90710000D01*
X153360000Y-91010000D02*
X153060000Y-90710000D01*
X152510000Y-91910000D02*
X152510000Y-92510000D01*
X153060000Y-90710000D02*
X153660000Y-90710000D01*
X156610000Y-92510000D02*
X156610000Y-91910000D01*
X155960000Y-91210000D02*
X153160000Y-91210000D01*
X152510000Y-92510000D02*
G75*
G03*
X153210000Y-93210000I699999J-1D01*
G01*
X155910000Y-93210000D02*
G75*
G03*
X156610000Y-92510000I0J700000D01*
G01*
X153210000Y-91210000D02*
G75*
G03*
X152510000Y-91910000I-1J-699999D01*
G01*
X156610000Y-91910000D02*
G75*
G03*
X155910000Y-91210000I-700000J0D01*
G01*
X133597258Y-91557500D02*
X133122742Y-91557500D01*
X133597258Y-92602500D02*
X133122742Y-92602500D01*
X134675000Y-98300000D02*
X134675000Y-96900000D01*
X133975000Y-96200000D02*
X133375000Y-96200000D01*
X132675000Y-96900000D02*
X132675000Y-98300000D01*
X133375000Y-99000000D02*
X133975000Y-99000000D01*
X133975000Y-99000000D02*
G75*
G03*
X134675000Y-98300000I0J700000D01*
G01*
X133375000Y-96200000D02*
G75*
G03*
X132675000Y-96900000I-1J-699999D01*
G01*
X134675000Y-96900000D02*
G75*
G03*
X133975000Y-96200000I-699999J1D01*
G01*
X132675000Y-98300000D02*
G75*
G03*
X133375000Y-99000000I700000J0D01*
G01*
X158975000Y-91675000D02*
X158375000Y-91675000D01*
X159675000Y-93775000D02*
X159675000Y-92375000D01*
X157675000Y-92375000D02*
X157675000Y-93775000D01*
X158375000Y-94475000D02*
X158975000Y-94475000D01*
X158975000Y-94475000D02*
G75*
G03*
X159675000Y-93775000I1J699999D01*
G01*
X159675000Y-92375000D02*
G75*
G03*
X158975000Y-91675000I-700000J0D01*
G01*
X157675000Y-93775000D02*
G75*
G03*
X158375000Y-94475000I699999J-1D01*
G01*
X158375000Y-91675000D02*
G75*
G03*
X157675000Y-92375000I0J-700000D01*
G01*
%LPC*%
D14*
X129480000Y-92130000D03*
D15*
X130780000Y-92130000D03*
D16*
X141585000Y-97310000D03*
D17*
X143875000Y-97310000D03*
X146165000Y-97310000D03*
X148455000Y-97310000D03*
X150745000Y-97310000D03*
X140440000Y-95330000D03*
X142730000Y-95330000D03*
X145020000Y-95330000D03*
X147310000Y-95330000D03*
X149600000Y-95330000D03*
X141585000Y-93350000D03*
X143875000Y-93350000D03*
X146165000Y-93350000D03*
X148455000Y-93350000D03*
X150745000Y-93350000D03*
D18*
X158660000Y-95330000D03*
X133670000Y-95330000D03*
D19*
X156761146Y-103033895D03*
X152961146Y-103033895D03*
X149161146Y-103033895D03*
X130161146Y-103033895D03*
X126361146Y-103033895D03*
X122561146Y-103033895D03*
D20*
X128300000Y-98750000D03*
X129950000Y-98750000D03*
D21*
X135940000Y-92270000D03*
D22*
X137240000Y-92270000D03*
D23*
X138540000Y-92270000D03*
D24*
X137600000Y-95230000D03*
D25*
X137600000Y-96530000D03*
D26*
X137600000Y-97830000D03*
D21*
X153260000Y-92210000D03*
D22*
X154560000Y-92210000D03*
D23*
X155860000Y-92210000D03*
D27*
X134185000Y-92080000D03*
X132535000Y-92080000D03*
D28*
X133675000Y-96950000D03*
D29*
X133675000Y-98250000D03*
D30*
X158675000Y-93725000D03*
D31*
X158675000Y-92425000D03*
M02*
