G04 #@! TF.GenerationSoftware,KiCad,Pcbnew,(5.1.10-1-10_14)*
G04 #@! TF.CreationDate,2021-11-15T16:46:54-05:00*
G04 #@! TF.ProjectId,VGA2SCART,56474132-5343-4415-9254-2e6b69636164,1*
G04 #@! TF.SameCoordinates,Original*
G04 #@! TF.FileFunction,Soldermask,Bot*
G04 #@! TF.FilePolarity,Negative*
%FSLAX46Y46*%
G04 Gerber Fmt 4.6, Leading zero omitted, Abs format (unit mm)*
G04 Created by KiCad (PCBNEW (5.1.10-1-10_14)) date 2021-11-15 16:46:54*
%MOMM*%
%LPD*%
G01*
G04 APERTURE LIST*
%ADD10C,1.801600*%
%ADD11C,4.167600*%
%ADD12C,0.152400*%
G04 APERTURE END LIST*
D10*
X150745000Y-93350000D03*
X148455000Y-93350000D03*
X146165000Y-93350000D03*
X143875000Y-93350000D03*
X141585000Y-93350000D03*
X149600000Y-95330000D03*
X147310000Y-95330000D03*
X145020000Y-95330000D03*
X142730000Y-95330000D03*
X140440000Y-95330000D03*
X150745000Y-97310000D03*
X148455000Y-97310000D03*
X146165000Y-97310000D03*
X143875000Y-97310000D03*
D11*
X158660000Y-95330000D03*
X133670000Y-95330000D03*
G36*
G01*
X140684200Y-98160000D02*
X140684200Y-96460000D01*
G75*
G02*
X140735000Y-96409200I50800J0D01*
G01*
X142435000Y-96409200D01*
G75*
G02*
X142485800Y-96460000I0J-50800D01*
G01*
X142485800Y-98160000D01*
G75*
G02*
X142435000Y-98210800I-50800J0D01*
G01*
X140735000Y-98210800D01*
G75*
G02*
X140684200Y-98160000I0J50800D01*
G01*
G37*
G36*
G01*
X129110346Y-104533895D02*
X129110346Y-101533895D01*
G75*
G02*
X129161146Y-101483095I50800J0D01*
G01*
X131161146Y-101483095D01*
G75*
G02*
X131211946Y-101533895I0J-50800D01*
G01*
X131211946Y-104533895D01*
G75*
G02*
X131161146Y-104584695I-50800J0D01*
G01*
X129161146Y-104584695D01*
G75*
G02*
X129110346Y-104533895I0J50800D01*
G01*
G37*
G36*
G01*
X155710346Y-104533895D02*
X155710346Y-101533895D01*
G75*
G02*
X155761146Y-101483095I50800J0D01*
G01*
X157761146Y-101483095D01*
G75*
G02*
X157811946Y-101533895I0J-50800D01*
G01*
X157811946Y-104533895D01*
G75*
G02*
X157761146Y-104584695I-50800J0D01*
G01*
X155761146Y-104584695D01*
G75*
G02*
X155710346Y-104533895I0J50800D01*
G01*
G37*
G36*
G01*
X151910346Y-104533895D02*
X151910346Y-101533895D01*
G75*
G02*
X151961146Y-101483095I50800J0D01*
G01*
X153961146Y-101483095D01*
G75*
G02*
X154011946Y-101533895I0J-50800D01*
G01*
X154011946Y-104533895D01*
G75*
G02*
X153961146Y-104584695I-50800J0D01*
G01*
X151961146Y-104584695D01*
G75*
G02*
X151910346Y-104533895I0J50800D01*
G01*
G37*
G36*
G01*
X148110346Y-104533895D02*
X148110346Y-101533895D01*
G75*
G02*
X148161146Y-101483095I50800J0D01*
G01*
X150161146Y-101483095D01*
G75*
G02*
X150211946Y-101533895I0J-50800D01*
G01*
X150211946Y-104533895D01*
G75*
G02*
X150161146Y-104584695I-50800J0D01*
G01*
X148161146Y-104584695D01*
G75*
G02*
X148110346Y-104533895I0J50800D01*
G01*
G37*
G36*
G01*
X125310346Y-104533895D02*
X125310346Y-101533895D01*
G75*
G02*
X125361146Y-101483095I50800J0D01*
G01*
X127361146Y-101483095D01*
G75*
G02*
X127411946Y-101533895I0J-50800D01*
G01*
X127411946Y-104533895D01*
G75*
G02*
X127361146Y-104584695I-50800J0D01*
G01*
X125361146Y-104584695D01*
G75*
G02*
X125310346Y-104533895I0J50800D01*
G01*
G37*
G36*
G01*
X121510346Y-104533895D02*
X121510346Y-101533895D01*
G75*
G02*
X121561146Y-101483095I50800J0D01*
G01*
X123561146Y-101483095D01*
G75*
G02*
X123611946Y-101533895I0J-50800D01*
G01*
X123611946Y-104533895D01*
G75*
G02*
X123561146Y-104584695I-50800J0D01*
G01*
X121561146Y-104584695D01*
G75*
G02*
X121510346Y-104533895I0J50800D01*
G01*
G37*
G36*
G01*
X133380800Y-98399600D02*
X133380800Y-99000400D01*
G75*
G02*
X133155400Y-99225800I-225400J0D01*
G01*
X132704600Y-99225800D01*
G75*
G02*
X132479200Y-99000400I0J225400D01*
G01*
X132479200Y-98399600D01*
G75*
G02*
X132704600Y-98174200I225400J0D01*
G01*
X133155400Y-98174200D01*
G75*
G02*
X133380800Y-98399600I0J-225400D01*
G01*
G37*
G36*
G01*
X135030800Y-98399600D02*
X135030800Y-99000400D01*
G75*
G02*
X134805400Y-99225800I-225400J0D01*
G01*
X134354600Y-99225800D01*
G75*
G02*
X134129200Y-99000400I0J225400D01*
G01*
X134129200Y-98399600D01*
G75*
G02*
X134354600Y-98174200I225400J0D01*
G01*
X134805400Y-98174200D01*
G75*
G02*
X135030800Y-98399600I0J-225400D01*
G01*
G37*
G36*
G01*
X136409200Y-93020000D02*
X136409200Y-91520000D01*
G75*
G02*
X136460000Y-91469200I50800J0D01*
G01*
X137460000Y-91469200D01*
G75*
G02*
X137510800Y-91520000I0J-50800D01*
G01*
X137510800Y-93020000D01*
G75*
G02*
X137460000Y-93070800I-50800J0D01*
G01*
X136460000Y-93070800D01*
G75*
G02*
X136409200Y-93020000I0J50800D01*
G01*
G37*
D12*
G36*
X138266113Y-91469802D02*
G01*
X138284534Y-91469802D01*
X138289514Y-91470047D01*
X138338345Y-91474857D01*
X138343275Y-91475588D01*
X138391400Y-91485160D01*
X138396237Y-91486372D01*
X138443192Y-91500616D01*
X138447885Y-91502295D01*
X138493218Y-91521072D01*
X138497726Y-91523204D01*
X138540999Y-91546335D01*
X138545273Y-91548897D01*
X138586072Y-91576157D01*
X138590077Y-91579127D01*
X138628006Y-91610255D01*
X138631700Y-91613603D01*
X138666397Y-91648300D01*
X138669745Y-91651994D01*
X138700873Y-91689923D01*
X138703843Y-91693928D01*
X138731103Y-91734727D01*
X138733665Y-91739001D01*
X138756796Y-91782274D01*
X138758928Y-91786782D01*
X138777705Y-91832115D01*
X138779384Y-91836808D01*
X138793628Y-91883763D01*
X138794840Y-91888600D01*
X138804412Y-91936725D01*
X138805143Y-91941655D01*
X138809953Y-91990486D01*
X138810198Y-91995466D01*
X138810198Y-92013887D01*
X138810800Y-92020000D01*
X138810800Y-92520000D01*
X138810198Y-92526113D01*
X138810198Y-92544534D01*
X138809953Y-92549514D01*
X138805143Y-92598345D01*
X138804412Y-92603275D01*
X138794840Y-92651400D01*
X138793628Y-92656237D01*
X138779384Y-92703192D01*
X138777705Y-92707885D01*
X138758928Y-92753218D01*
X138756796Y-92757726D01*
X138733665Y-92800999D01*
X138731103Y-92805273D01*
X138703843Y-92846072D01*
X138700873Y-92850077D01*
X138669745Y-92888006D01*
X138666397Y-92891700D01*
X138631700Y-92926397D01*
X138628006Y-92929745D01*
X138590077Y-92960873D01*
X138586072Y-92963843D01*
X138545273Y-92991103D01*
X138540999Y-92993665D01*
X138497726Y-93016796D01*
X138493218Y-93018928D01*
X138447885Y-93037705D01*
X138443192Y-93039384D01*
X138396237Y-93053628D01*
X138391400Y-93054840D01*
X138343275Y-93064412D01*
X138338345Y-93065143D01*
X138289514Y-93069953D01*
X138284534Y-93070198D01*
X138266113Y-93070198D01*
X138260000Y-93070800D01*
X137710000Y-93070800D01*
X137700089Y-93069824D01*
X137690560Y-93066933D01*
X137681777Y-93062239D01*
X137674079Y-93055921D01*
X137667761Y-93048223D01*
X137663067Y-93039440D01*
X137660176Y-93029911D01*
X137659200Y-93020000D01*
X137659200Y-91520000D01*
X137660176Y-91510089D01*
X137663067Y-91500560D01*
X137667761Y-91491777D01*
X137674079Y-91484079D01*
X137681777Y-91477761D01*
X137690560Y-91473067D01*
X137700089Y-91470176D01*
X137710000Y-91469200D01*
X138260000Y-91469200D01*
X138266113Y-91469802D01*
G37*
G36*
X136219911Y-91470176D02*
G01*
X136229440Y-91473067D01*
X136238223Y-91477761D01*
X136245921Y-91484079D01*
X136252239Y-91491777D01*
X136256933Y-91500560D01*
X136259824Y-91510089D01*
X136260800Y-91520000D01*
X136260800Y-93020000D01*
X136259824Y-93029911D01*
X136256933Y-93039440D01*
X136252239Y-93048223D01*
X136245921Y-93055921D01*
X136238223Y-93062239D01*
X136229440Y-93066933D01*
X136219911Y-93069824D01*
X136210000Y-93070800D01*
X135660000Y-93070800D01*
X135653887Y-93070198D01*
X135635466Y-93070198D01*
X135630486Y-93069953D01*
X135581655Y-93065143D01*
X135576725Y-93064412D01*
X135528600Y-93054840D01*
X135523763Y-93053628D01*
X135476808Y-93039384D01*
X135472115Y-93037705D01*
X135426782Y-93018928D01*
X135422274Y-93016796D01*
X135379001Y-92993665D01*
X135374727Y-92991103D01*
X135333928Y-92963843D01*
X135329923Y-92960873D01*
X135291994Y-92929745D01*
X135288300Y-92926397D01*
X135253603Y-92891700D01*
X135250255Y-92888006D01*
X135219127Y-92850077D01*
X135216157Y-92846072D01*
X135188897Y-92805273D01*
X135186335Y-92800999D01*
X135163204Y-92757726D01*
X135161072Y-92753218D01*
X135142295Y-92707885D01*
X135140616Y-92703192D01*
X135126372Y-92656237D01*
X135125160Y-92651400D01*
X135115588Y-92603275D01*
X135114857Y-92598345D01*
X135110047Y-92549514D01*
X135109802Y-92544534D01*
X135109802Y-92526113D01*
X135109200Y-92520000D01*
X135109200Y-92020000D01*
X135109802Y-92013887D01*
X135109802Y-91995466D01*
X135110047Y-91990486D01*
X135114857Y-91941655D01*
X135115588Y-91936725D01*
X135125160Y-91888600D01*
X135126372Y-91883763D01*
X135140616Y-91836808D01*
X135142295Y-91832115D01*
X135161072Y-91786782D01*
X135163204Y-91782274D01*
X135186335Y-91739001D01*
X135188897Y-91734727D01*
X135216157Y-91693928D01*
X135219127Y-91689923D01*
X135250255Y-91651994D01*
X135253603Y-91648300D01*
X135288300Y-91613603D01*
X135291994Y-91610255D01*
X135329923Y-91579127D01*
X135333928Y-91576157D01*
X135374727Y-91548897D01*
X135379001Y-91546335D01*
X135422274Y-91523204D01*
X135426782Y-91521072D01*
X135472115Y-91502295D01*
X135476808Y-91500616D01*
X135523763Y-91486372D01*
X135528600Y-91485160D01*
X135576725Y-91475588D01*
X135581655Y-91474857D01*
X135630486Y-91470047D01*
X135635466Y-91469802D01*
X135653887Y-91469802D01*
X135660000Y-91469200D01*
X136210000Y-91469200D01*
X136219911Y-91470176D01*
G37*
G36*
G01*
X136850000Y-95979200D02*
X138350000Y-95979200D01*
G75*
G02*
X138400800Y-96030000I0J-50800D01*
G01*
X138400800Y-97030000D01*
G75*
G02*
X138350000Y-97080800I-50800J0D01*
G01*
X136850000Y-97080800D01*
G75*
G02*
X136799200Y-97030000I0J50800D01*
G01*
X136799200Y-96030000D01*
G75*
G02*
X136850000Y-95979200I50800J0D01*
G01*
G37*
G36*
X138400198Y-97836113D02*
G01*
X138400198Y-97854534D01*
X138399953Y-97859514D01*
X138395143Y-97908345D01*
X138394412Y-97913275D01*
X138384840Y-97961400D01*
X138383628Y-97966237D01*
X138369384Y-98013192D01*
X138367705Y-98017885D01*
X138348928Y-98063218D01*
X138346796Y-98067726D01*
X138323665Y-98110999D01*
X138321103Y-98115273D01*
X138293843Y-98156072D01*
X138290873Y-98160077D01*
X138259745Y-98198006D01*
X138256397Y-98201700D01*
X138221700Y-98236397D01*
X138218006Y-98239745D01*
X138180077Y-98270873D01*
X138176072Y-98273843D01*
X138135273Y-98301103D01*
X138130999Y-98303665D01*
X138087726Y-98326796D01*
X138083218Y-98328928D01*
X138037885Y-98347705D01*
X138033192Y-98349384D01*
X137986237Y-98363628D01*
X137981400Y-98364840D01*
X137933275Y-98374412D01*
X137928345Y-98375143D01*
X137879514Y-98379953D01*
X137874534Y-98380198D01*
X137856113Y-98380198D01*
X137850000Y-98380800D01*
X137350000Y-98380800D01*
X137343887Y-98380198D01*
X137325466Y-98380198D01*
X137320486Y-98379953D01*
X137271655Y-98375143D01*
X137266725Y-98374412D01*
X137218600Y-98364840D01*
X137213763Y-98363628D01*
X137166808Y-98349384D01*
X137162115Y-98347705D01*
X137116782Y-98328928D01*
X137112274Y-98326796D01*
X137069001Y-98303665D01*
X137064727Y-98301103D01*
X137023928Y-98273843D01*
X137019923Y-98270873D01*
X136981994Y-98239745D01*
X136978300Y-98236397D01*
X136943603Y-98201700D01*
X136940255Y-98198006D01*
X136909127Y-98160077D01*
X136906157Y-98156072D01*
X136878897Y-98115273D01*
X136876335Y-98110999D01*
X136853204Y-98067726D01*
X136851072Y-98063218D01*
X136832295Y-98017885D01*
X136830616Y-98013192D01*
X136816372Y-97966237D01*
X136815160Y-97961400D01*
X136805588Y-97913275D01*
X136804857Y-97908345D01*
X136800047Y-97859514D01*
X136799802Y-97854534D01*
X136799802Y-97836113D01*
X136799200Y-97830000D01*
X136799200Y-97280000D01*
X136800176Y-97270089D01*
X136803067Y-97260560D01*
X136807761Y-97251777D01*
X136814079Y-97244079D01*
X136821777Y-97237761D01*
X136830560Y-97233067D01*
X136840089Y-97230176D01*
X136850000Y-97229200D01*
X138350000Y-97229200D01*
X138359911Y-97230176D01*
X138369440Y-97233067D01*
X138378223Y-97237761D01*
X138385921Y-97244079D01*
X138392239Y-97251777D01*
X138396933Y-97260560D01*
X138399824Y-97270089D01*
X138400800Y-97280000D01*
X138400800Y-97830000D01*
X138400198Y-97836113D01*
G37*
G36*
X138399824Y-95789911D02*
G01*
X138396933Y-95799440D01*
X138392239Y-95808223D01*
X138385921Y-95815921D01*
X138378223Y-95822239D01*
X138369440Y-95826933D01*
X138359911Y-95829824D01*
X138350000Y-95830800D01*
X136850000Y-95830800D01*
X136840089Y-95829824D01*
X136830560Y-95826933D01*
X136821777Y-95822239D01*
X136814079Y-95815921D01*
X136807761Y-95808223D01*
X136803067Y-95799440D01*
X136800176Y-95789911D01*
X136799200Y-95780000D01*
X136799200Y-95230000D01*
X136799802Y-95223887D01*
X136799802Y-95205466D01*
X136800047Y-95200486D01*
X136804857Y-95151655D01*
X136805588Y-95146725D01*
X136815160Y-95098600D01*
X136816372Y-95093763D01*
X136830616Y-95046808D01*
X136832295Y-95042115D01*
X136851072Y-94996782D01*
X136853204Y-94992274D01*
X136876335Y-94949001D01*
X136878897Y-94944727D01*
X136906157Y-94903928D01*
X136909127Y-94899923D01*
X136940255Y-94861994D01*
X136943603Y-94858300D01*
X136978300Y-94823603D01*
X136981994Y-94820255D01*
X137019923Y-94789127D01*
X137023928Y-94786157D01*
X137064727Y-94758897D01*
X137069001Y-94756335D01*
X137112274Y-94733204D01*
X137116782Y-94731072D01*
X137162115Y-94712295D01*
X137166808Y-94710616D01*
X137213763Y-94696372D01*
X137218600Y-94695160D01*
X137266725Y-94685588D01*
X137271655Y-94684857D01*
X137320486Y-94680047D01*
X137325466Y-94679802D01*
X137343887Y-94679802D01*
X137350000Y-94679200D01*
X137850000Y-94679200D01*
X137856113Y-94679802D01*
X137874534Y-94679802D01*
X137879514Y-94680047D01*
X137928345Y-94684857D01*
X137933275Y-94685588D01*
X137981400Y-94695160D01*
X137986237Y-94696372D01*
X138033192Y-94710616D01*
X138037885Y-94712295D01*
X138083218Y-94731072D01*
X138087726Y-94733204D01*
X138130999Y-94756335D01*
X138135273Y-94758897D01*
X138176072Y-94786157D01*
X138180077Y-94789127D01*
X138218006Y-94820255D01*
X138221700Y-94823603D01*
X138256397Y-94858300D01*
X138259745Y-94861994D01*
X138290873Y-94899923D01*
X138293843Y-94903928D01*
X138321103Y-94944727D01*
X138323665Y-94949001D01*
X138346796Y-94992274D01*
X138348928Y-94996782D01*
X138367705Y-95042115D01*
X138369384Y-95046808D01*
X138383628Y-95093763D01*
X138384840Y-95098600D01*
X138394412Y-95146725D01*
X138395143Y-95151655D01*
X138399953Y-95200486D01*
X138400198Y-95205466D01*
X138400198Y-95223887D01*
X138400800Y-95230000D01*
X138400800Y-95780000D01*
X138399824Y-95789911D01*
G37*
G36*
G01*
X154009200Y-92960000D02*
X154009200Y-91460000D01*
G75*
G02*
X154060000Y-91409200I50800J0D01*
G01*
X155060000Y-91409200D01*
G75*
G02*
X155110800Y-91460000I0J-50800D01*
G01*
X155110800Y-92960000D01*
G75*
G02*
X155060000Y-93010800I-50800J0D01*
G01*
X154060000Y-93010800D01*
G75*
G02*
X154009200Y-92960000I0J50800D01*
G01*
G37*
G36*
X155866113Y-91409802D02*
G01*
X155884534Y-91409802D01*
X155889514Y-91410047D01*
X155938345Y-91414857D01*
X155943275Y-91415588D01*
X155991400Y-91425160D01*
X155996237Y-91426372D01*
X156043192Y-91440616D01*
X156047885Y-91442295D01*
X156093218Y-91461072D01*
X156097726Y-91463204D01*
X156140999Y-91486335D01*
X156145273Y-91488897D01*
X156186072Y-91516157D01*
X156190077Y-91519127D01*
X156228006Y-91550255D01*
X156231700Y-91553603D01*
X156266397Y-91588300D01*
X156269745Y-91591994D01*
X156300873Y-91629923D01*
X156303843Y-91633928D01*
X156331103Y-91674727D01*
X156333665Y-91679001D01*
X156356796Y-91722274D01*
X156358928Y-91726782D01*
X156377705Y-91772115D01*
X156379384Y-91776808D01*
X156393628Y-91823763D01*
X156394840Y-91828600D01*
X156404412Y-91876725D01*
X156405143Y-91881655D01*
X156409953Y-91930486D01*
X156410198Y-91935466D01*
X156410198Y-91953887D01*
X156410800Y-91960000D01*
X156410800Y-92460000D01*
X156410198Y-92466113D01*
X156410198Y-92484534D01*
X156409953Y-92489514D01*
X156405143Y-92538345D01*
X156404412Y-92543275D01*
X156394840Y-92591400D01*
X156393628Y-92596237D01*
X156379384Y-92643192D01*
X156377705Y-92647885D01*
X156358928Y-92693218D01*
X156356796Y-92697726D01*
X156333665Y-92740999D01*
X156331103Y-92745273D01*
X156303843Y-92786072D01*
X156300873Y-92790077D01*
X156269745Y-92828006D01*
X156266397Y-92831700D01*
X156231700Y-92866397D01*
X156228006Y-92869745D01*
X156190077Y-92900873D01*
X156186072Y-92903843D01*
X156145273Y-92931103D01*
X156140999Y-92933665D01*
X156097726Y-92956796D01*
X156093218Y-92958928D01*
X156047885Y-92977705D01*
X156043192Y-92979384D01*
X155996237Y-92993628D01*
X155991400Y-92994840D01*
X155943275Y-93004412D01*
X155938345Y-93005143D01*
X155889514Y-93009953D01*
X155884534Y-93010198D01*
X155866113Y-93010198D01*
X155860000Y-93010800D01*
X155310000Y-93010800D01*
X155300089Y-93009824D01*
X155290560Y-93006933D01*
X155281777Y-93002239D01*
X155274079Y-92995921D01*
X155267761Y-92988223D01*
X155263067Y-92979440D01*
X155260176Y-92969911D01*
X155259200Y-92960000D01*
X155259200Y-91460000D01*
X155260176Y-91450089D01*
X155263067Y-91440560D01*
X155267761Y-91431777D01*
X155274079Y-91424079D01*
X155281777Y-91417761D01*
X155290560Y-91413067D01*
X155300089Y-91410176D01*
X155310000Y-91409200D01*
X155860000Y-91409200D01*
X155866113Y-91409802D01*
G37*
G36*
X153819911Y-91410176D02*
G01*
X153829440Y-91413067D01*
X153838223Y-91417761D01*
X153845921Y-91424079D01*
X153852239Y-91431777D01*
X153856933Y-91440560D01*
X153859824Y-91450089D01*
X153860800Y-91460000D01*
X153860800Y-92960000D01*
X153859824Y-92969911D01*
X153856933Y-92979440D01*
X153852239Y-92988223D01*
X153845921Y-92995921D01*
X153838223Y-93002239D01*
X153829440Y-93006933D01*
X153819911Y-93009824D01*
X153810000Y-93010800D01*
X153260000Y-93010800D01*
X153253887Y-93010198D01*
X153235466Y-93010198D01*
X153230486Y-93009953D01*
X153181655Y-93005143D01*
X153176725Y-93004412D01*
X153128600Y-92994840D01*
X153123763Y-92993628D01*
X153076808Y-92979384D01*
X153072115Y-92977705D01*
X153026782Y-92958928D01*
X153022274Y-92956796D01*
X152979001Y-92933665D01*
X152974727Y-92931103D01*
X152933928Y-92903843D01*
X152929923Y-92900873D01*
X152891994Y-92869745D01*
X152888300Y-92866397D01*
X152853603Y-92831700D01*
X152850255Y-92828006D01*
X152819127Y-92790077D01*
X152816157Y-92786072D01*
X152788897Y-92745273D01*
X152786335Y-92740999D01*
X152763204Y-92697726D01*
X152761072Y-92693218D01*
X152742295Y-92647885D01*
X152740616Y-92643192D01*
X152726372Y-92596237D01*
X152725160Y-92591400D01*
X152715588Y-92543275D01*
X152714857Y-92538345D01*
X152710047Y-92489514D01*
X152709802Y-92484534D01*
X152709802Y-92466113D01*
X152709200Y-92460000D01*
X152709200Y-91960000D01*
X152709802Y-91953887D01*
X152709802Y-91935466D01*
X152710047Y-91930486D01*
X152714857Y-91881655D01*
X152715588Y-91876725D01*
X152725160Y-91828600D01*
X152726372Y-91823763D01*
X152740616Y-91776808D01*
X152742295Y-91772115D01*
X152761072Y-91726782D01*
X152763204Y-91722274D01*
X152786335Y-91679001D01*
X152788897Y-91674727D01*
X152816157Y-91633928D01*
X152819127Y-91629923D01*
X152850255Y-91591994D01*
X152853603Y-91588300D01*
X152888300Y-91553603D01*
X152891994Y-91550255D01*
X152929923Y-91519127D01*
X152933928Y-91516157D01*
X152974727Y-91488897D01*
X152979001Y-91486335D01*
X153022274Y-91463204D01*
X153026782Y-91461072D01*
X153072115Y-91442295D01*
X153076808Y-91440616D01*
X153123763Y-91426372D01*
X153128600Y-91425160D01*
X153176725Y-91415588D01*
X153181655Y-91414857D01*
X153230486Y-91410047D01*
X153235466Y-91409802D01*
X153253887Y-91409802D01*
X153260000Y-91409200D01*
X153810000Y-91409200D01*
X153819911Y-91410176D01*
G37*
G36*
G01*
X130640800Y-91719600D02*
X130640800Y-92320400D01*
G75*
G02*
X130415400Y-92545800I-225400J0D01*
G01*
X129964600Y-92545800D01*
G75*
G02*
X129739200Y-92320400I0J225400D01*
G01*
X129739200Y-91719600D01*
G75*
G02*
X129964600Y-91494200I225400J0D01*
G01*
X130415400Y-91494200D01*
G75*
G02*
X130640800Y-91719600I0J-225400D01*
G01*
G37*
G36*
G01*
X132290800Y-91719600D02*
X132290800Y-92320400D01*
G75*
G02*
X132065400Y-92545800I-225400J0D01*
G01*
X131614600Y-92545800D01*
G75*
G02*
X131389200Y-92320400I0J225400D01*
G01*
X131389200Y-91719600D01*
G75*
G02*
X131614600Y-91494200I225400J0D01*
G01*
X132065400Y-91494200D01*
G75*
G02*
X132290800Y-91719600I0J-225400D01*
G01*
G37*
M02*
